<?plantuml 1.2026.2?><svg xmlns="http://www.w3.org/2000/svg" xmlns:xlink="http://www.w3.org/1999/xlink" contentStyleType="text/css" data-diagram-type="STATE" height="1173px" preserveAspectRatio="none" style="width:757px;height:1173px;background:#FFFFFF;" version="1.1" viewBox="0 0 757 1173" width="757px" zoomAndPan="magnify"><title>Iniciar Sesi&#243;n</title><defs/><g><g class="title" data-source-line="1"><text fill="#000000" font-family="sans-serif" font-size="14" font-weight="bold" lengthAdjust="spacing" textLength="96.4072" x="320.4514" y="33.5352">Iniciar Sesi&#243;n</text></g><path d="M208.19,183.4883 L731.81,183.4883 A12.5,12.5 0 0 1 744.31,195.9883 L744.31,229.9766 L195.69,229.9766 L195.69,195.9883 A12.5,12.5 0 0 1 208.19,183.4883" fill="#F1F1F1"/><rect fill="none" height="483.6483" rx="12.5" ry="12.5" style="stroke:#181818;stroke-width:0.5;" width="548.62" x="195.69" y="183.4883"/><line style="stroke:#181818;stroke-width:0.5;" x1="195.69" x2="744.31" y1="229.9766" y2="229.9766"/><text fill="#000000" font-family="sans-serif" font-size="14" lengthAdjust="spacing" textLength="119.7041" x="410.1479" y="212.0234">SESION_CERRADA</text><g class="entity" data-qualified-name="SESION_CERRADA.SolicitandoAcceso" id="ent0004"><rect fill="#F1F1F1" height="76.4883" rx="12.5" ry="12.5" style="stroke:#181818;stroke-width:0.5;" width="164.5576" x="398.41" y="339.0566"/><line style="stroke:#181818;stroke-width:0.5;" x1="398.41" x2="562.9676" y1="385.5448" y2="385.5448"/><text fill="#000000" font-family="sans-serif" font-size="14" lengthAdjust="spacing" textLength="124.5576" x="418.41" y="367.5917">Solicitando acceso</text></g><g class="entity" data-qualified-name="SESION_CERRADA.ProporcionandoCredenciales" id="ent0005"><rect fill="#F1F1F1" height="76.4883" rx="12.5" ry="12.5" style="stroke:#181818;stroke-width:0.5;" width="235.9043" x="289.74" y="451.5366"/><line style="stroke:#181818;stroke-width:0.5;" x1="289.74" x2="525.6443" y1="498.0248" y2="498.0248"/><text fill="#000000" font-family="sans-serif" font-size="14" lengthAdjust="spacing" textLength="195.9043" x="309.74" y="480.0717">Proporcionando credenciales</text></g><g class="entity" data-qualified-name="SESION_CERRADA.c" id="ent0006"><polygon fill="#F1F1F1" points="480.69,564.0266,492.69,576.0266,480.69,588.0266,468.69,576.0266,480.69,564.0266" style="stroke:#181818;stroke-width:0.5;"/></g><g class="start_entity" data-qualified-name="SESION_CERRADA..start.SESION_CERRADA" data-source-line="21" id="ent0004"><ellipse cx="480.69" cy="293.0566" fill="#222222" rx="10" ry="10" style="stroke:#222222;stroke-width:1;"/></g><g class="end_entity" data-qualified-name="SESION_CERRADA..end.SESION_CERRADA" data-source-line="46" id="ent0009"><ellipse cx="480.69" cy="635.0266" fill="none" rx="11" ry="11" style="stroke:#222222;stroke-width:1;"/><ellipse cx="480.69" cy="635.0266" fill="#222222" rx="6" ry="6" style="stroke:#222222;stroke-width:1;"/></g><!--link *start*SESION_CERRADA to SolicitandoAcceso--><g class="link" data-entity-1="ent0004" data-entity-2="ent0004" data-link-type="dependency" data-source-line="21" id="lnk5"><path d="M480.69,303.3866 C480.69,312.2566 480.69,319.6366 480.69,332.5766" fill="none" id="*start*SESION_CERRADA-to-SolicitandoAcceso" style="stroke:#008000;stroke-width:1;"/><polygon fill="#008000" points="480.69,338.5766,484.69,329.5766,480.69,333.5766,476.69,329.5766,480.69,338.5766" style="stroke:#008000;stroke-width:1;"/><path d="M206.69,240.9766 L206.69,315.9766 L475.69,315.9766 L475.69,250.9766 L465.69,240.9766 L206.69,240.9766" fill="#FEFFDD" style="stroke:#181818;stroke-width:0.5;"/><path d="M465.69,240.9766 L465.69,250.9766 L475.69,250.9766 L465.69,240.9766" fill="#FEFFDD" style="stroke:#181818;stroke-width:0.5;"/><text fill="#000000" font-family="sans-serif" font-size="13" font-weight="bold" lengthAdjust="spacing" textLength="103.9937" x="222.69" y="268.5449">Usuario solicita</text><text fill="#000000" font-family="sans-serif" font-size="13" lengthAdjust="spacing" textLength="120.1929" x="330.7969" y="268.5449">acceder al sistema.</text><text fill="#000000" font-family="sans-serif" font-size="13" font-weight="bold" lengthAdjust="spacing" textLength="108.2847" x="222.69" y="283.8555">Sistema permite</text><text fill="#000000" font-family="sans-serif" font-size="13" lengthAdjust="spacing" textLength="115.2734" x="335.0879" y="283.8555">abrir el formulario</text><text fill="#000000" font-family="sans-serif" font-size="13" lengthAdjust="spacing" textLength="121.5957" x="222.69" y="299.166">de inicio de sesi&#243;n.</text></g><!--link SolicitandoAcceso to ProporcionandoCredenciales--><g class="link" data-entity-1="ent0004" data-entity-2="ent0005" data-link-type="dependency" data-source-line="28" id="lnk6"><path d="M462.03,416.0066 C462.03,427.4466 462.03,433.9666 462.03,445.3866" fill="none" id="SolicitandoAcceso-to-ProporcionandoCredenciales" style="stroke:#008000;stroke-width:1;"/><polygon fill="#008000" points="462.03,451.3866,466.03,442.3866,462.03,446.3866,458.03,442.3866,462.03,451.3866" style="stroke:#008000;stroke-width:1;"/><path d="M238.03,353.6966 L238.03,428.6966 L457.03,428.6966 L457.03,363.6966 L447.03,353.6966 L238.03,353.6966" fill="#FEFFDD" style="stroke:#181818;stroke-width:0.5;"/><path d="M447.03,353.6966 L447.03,363.6966 L457.03,363.6966 L447.03,353.6966" fill="#FEFFDD" style="stroke:#181818;stroke-width:0.5;"/><text fill="#000000" font-family="sans-serif" font-size="13" font-weight="bold" lengthAdjust="spacing" textLength="108.2847" x="254.03" y="381.2649">Sistema permite</text><text fill="#000000" font-family="sans-serif" font-size="13" lengthAdjust="spacing" textLength="66.0918" x="366.4279" y="381.2649">introducir:</text><text fill="#000000" font-family="sans-serif" font-size="13" lengthAdjust="spacing" textLength="58.4048" x="254.03" y="396.5755">&#8226; usuario</text><text fill="#000000" font-family="sans-serif" font-size="13" lengthAdjust="spacing" textLength="80.5898" x="254.03" y="411.886">&#8226; contrase&#241;a</text></g><!--link ProporcionandoCredenciales to c--><g class="link" data-entity-1="ent0005" data-entity-2="ent0006" data-link-type="dependency" data-source-line="35" id="lnk7"><path d="M480.69,528.3666 C480.69,541.1066 480.69,548.3766 480.69,557.6666" fill="none" id="ProporcionandoCredenciales-to-c" style="stroke:#008000;stroke-width:1;"/><polygon fill="#008000" points="480.69,563.6666,484.69,554.6666,480.69,558.6666,476.69,554.6666,480.69,563.6666" style="stroke:#008000;stroke-width:1;"/><path d="M248.69,551.0166 L248.69,611.0166 L475.69,611.0166 L475.69,561.0166 L465.69,551.0166 L248.69,551.0166" fill="#FEFFDD" style="stroke:#181818;stroke-width:0.5;"/><path d="M465.69,551.0166 L465.69,561.0166 L475.69,561.0166 L465.69,551.0166" fill="#FEFFDD" style="stroke:#181818;stroke-width:0.5;"/><text fill="#000000" font-family="sans-serif" font-size="13" font-weight="bold" lengthAdjust="spacing" textLength="103.9937" x="264.69" y="578.5849">Usuario solicita</text><text fill="#000000" font-family="sans-serif" font-size="13" lengthAdjust="spacing" textLength="42.104" x="372.7969" y="578.5849">validar</text><text fill="#000000" font-family="sans-serif" font-size="13" lengthAdjust="spacing" textLength="186.4878" x="264.69" y="593.8955">las credenciales introducidas.</text></g><!--link c to SolicitandoAcceso--><g class="link" data-entity-1="ent0006" data-entity-2="ent0004" data-link-type="dependency" data-source-line="41" id="lnk8"><path d="M493.26,576.0266 C511.8,576.0266 544.31,576.0266 544.31,576.0266 C544.31,576.0266 544.31,479.3666 544.31,421.6166" fill="none" id="c-to-SolicitandoAcceso" style="stroke:#FF0000;stroke-width:1;"/><polygon fill="#FF0000" points="544.31,415.6166,540.31,424.6166,544.31,420.6166,548.31,424.6166,544.31,415.6166" style="stroke:#FF0000;stroke-width:1;"/><path d="M549.31,471.3466 L549.31,516.3466 L735.31,516.3466 L735.31,481.3466 L725.31,471.3466 L549.31,471.3466" fill="#FEFFDD" style="stroke:#181818;stroke-width:0.5;"/><path d="M725.31,471.3466 L725.31,481.3466 L735.31,481.3466 L725.31,471.3466" fill="#FEFFDD" style="stroke:#181818;stroke-width:0.5;"/><text fill="#000000" font-family="sans-serif" font-size="13" lengthAdjust="spacing" textLength="145.6279" x="565.31" y="498.9149">credenciales no v&#225;lidas</text></g><!--link c to *end*SESION_CERRADA--><g class="link" data-entity-1="ent0006" data-entity-2="ent0009" data-link-type="dependency" data-source-line="46" id="lnk10"><path d="M480.69,588.5366 C480.69,598.9566 480.69,607.6666 480.69,617.7366" fill="none" id="c-to-*end*SESION_CERRADA" style="stroke:#008000;stroke-width:1;"/><polygon fill="#008000" points="480.69,623.7366,484.69,614.7366,480.69,618.7366,476.69,614.7366,480.69,623.7366" style="stroke:#008000;stroke-width:1;"/><path d="M485.69,611.1366 L485.69,656.1366 L651.69,656.1366 L651.69,621.1366 L641.69,611.1366 L485.69,611.1366" fill="#FEFFDD" style="stroke:#181818;stroke-width:0.5;"/><path d="M641.69,611.1366 L641.69,621.1366 L651.69,621.1366 L641.69,611.1366" fill="#FEFFDD" style="stroke:#181818;stroke-width:0.5;"/><text fill="#000000" font-family="sans-serif" font-size="13" lengthAdjust="spacing" textLength="125.4614" x="501.69" y="638.7049">credenciales v&#225;lidas</text></g><g class="entity" data-qualified-name="SISTEMA_DISPONIBLE" id="ent0003"><rect fill="#F1F1F1" height="76.4883" rx="12.5" ry="12.5" style="stroke:#181818;stroke-width:0.5;" width="182.4268" x="378.79" y="969.1383"/><line style="stroke:#181818;stroke-width:0.5;" x1="378.79" x2="561.2168" y1="1015.6266" y2="1015.6266"/><text fill="#000000" font-family="sans-serif" font-size="14" lengthAdjust="spacing" textLength="142.4268" x="398.79" y="997.6734">SISTEMA_DISPONIBLE</text></g><g class="start_entity" data-qualified-name=".start." data-source-line="13" id="ent0002"><ellipse cx="470" cy="73.4883" fill="#222222" rx="10" ry="10" style="stroke:#222222;stroke-width:1;"/></g><g class="end_entity" data-qualified-name=".end." data-source-line="60" id="ent0012"><ellipse cx="470" cy="1156.6283" fill="none" rx="11" ry="11" style="stroke:#222222;stroke-width:1;"/><ellipse cx="470" cy="1156.6283" fill="#222222" rx="6" ry="6" style="stroke:#222222;stroke-width:1;"/></g><!--link *start* to SESION_CERRADA--><g class="link" data-entity-1="ent0002" data-entity-2="ent0002" data-link-type="dependency" data-source-line="13" id="lnk3"><path d="M470,83.6383 C470,100.9883 470,132.8183 470,177.2283" fill="none" id="*start*-to-SESION_CERRADA" style="stroke:#008000;stroke-width:1;"/><polygon fill="#008000" points="470,183.2283,474,174.2283,470,178.2283,466,174.2283,470,183.2283" style="stroke:#008000;stroke-width:1;"/></g><!--link SESION_CERRADA to SISTEMA_DISPONIBLE--><g class="link" data-entity-1="ent0002" data-entity-2="ent0003" data-link-type="dependency" data-source-line="53" id="lnk11"><path d="M470,667.5283 C470,782.2383 470,901.3683 470,962.8683" fill="none" id="SESION_CERRADA-to-SISTEMA_DISPONIBLE" style="stroke:#008000;stroke-width:1;"/><polygon fill="#008000" points="470,968.8683,474,959.8683,470,963.8683,466,959.8683,470,968.8683" style="stroke:#008000;stroke-width:1;"/><path d="M6,738.1983 L6,813.1983 L355,813.1983 L355,748.1983 L345,738.1983 L6,738.1983" fill="#FEFFDD" style="stroke:#181818;stroke-width:0.5;"/><path d="M345,738.1983 L345,748.1983 L355,748.1983 L345,738.1983" fill="#FEFFDD" style="stroke:#181818;stroke-width:0.5;"/><text fill="#000000" font-family="sans-serif" font-size="13" font-weight="bold" lengthAdjust="spacing" textLength="108.2847" x="22" y="765.7666">Sistema permite</text><text fill="#000000" font-family="sans-serif" font-size="13" lengthAdjust="spacing" textLength="139.7373" x="134.3979" y="765.7666">el acceso autenticado.</text><text fill="#000000" font-family="sans-serif" font-size="13" lengthAdjust="spacing" textLength="264.3291" x="22" y="781.0772">El actor se resuelve al rol correspondiente</text><text fill="#000000" font-family="sans-serif" font-size="13" lengthAdjust="spacing" textLength="308.6484" x="22" y="796.3877">(Alumno, Profesor, Secretar&#237;a, Director o Admin).</text><text fill="#000000" font-family="sans-serif" font-size="13" lengthAdjust="spacing" textLength="87.6357" x="371.6484" y="781.0772">iniciarSesion()</text></g><!--link SISTEMA_DISPONIBLE to *end*--><g class="link" data-entity-1="ent0003" data-entity-2="ent0012" data-link-type="dependency" data-source-line="60" id="lnk13"><path d="M470,1045.8183 C470,1078.8083 470,1118.2583 470,1139.2083" fill="none" id="SISTEMA_DISPONIBLE-to-*end*" style="stroke:#0000FF;stroke-width:1;"/><polygon fill="#0000FF" points="470,1145.2083,474,1136.2083,470,1140.2083,466,1136.2083,470,1145.2083" style="stroke:#0000FF;stroke-width:1;"/></g><?plantuml-src bLJDJjj04BxxAKRqKAW8fLSKHN8Jjx842SBXX13Qx4vWnNedsbqZLLMblaEVeDnxgFe8UPC-IMVja3W_eEAJDR_VpFVj11qCGcwrrC91WLxF_zWaUGkTJWVwe-6d_FFbHThFvp-6CCWWAyRvwIWw4t-lxKmuKO8bXHvdyE7uk6LrmjvlMuss6BxC4CY5EsevpeLIsjvoUEm-mAcEc1WCA8JC1w78mvcGZfE220X5LkIZuKq_kxX81-cJCI_6sLbwCyYByz4m_tYQ9SdLksleNBsvTOZskjFRJEHkVIfdZ4UK6cqWq3QWitG2eWfiq5BKG7RsXQy9yBTmaM7CGLX5gPJe2PQVyB3NSeEe_Nkjv7D7349giZ6Wxr2XPL8C-ZfvtGsovMzNaT3joZlI4dkzfBPlZRy9iewonCba8p_toHFexgHtwIlXD85VP7NVJterU8KEX06lVS1I7BLpYiO6CtIb3jYaJ9nsW0QcvChAn9hB52Qu9flYdsyas1H4gsfapIJRwstFzVp-NXnm5rWMW2DLIUrEbg5_lpz2rInZpIQ9WuN7-M-n0_8BfBQnozTpy22CLi8jumoBf2sArH1A-5tRb1419xnI4sizBC73_6S4uf_hi9oHTVYVLNUN_1PVwfYlYb_S1LOVrdU1PUE3PYoHY8r7o_muXpA8PEFThg1ruWAsxWQSDA8KBXv5ili7IOtSu3IimNz6Goprvesl02bgUCYYAv1ZhOD3Nw5vm3YD8zF0zJEoAjuYhEFtKrELbWwZcgPSqHtoeUQD1U7clyGX37ISaEiHfAhKzk0eMH6nOp8UVM8gN93o3m00?></g></svg>