<?plantuml 1.2026.2?><svg xmlns="http://www.w3.org/2000/svg" xmlns:xlink="http://www.w3.org/1999/xlink" contentStyleType="text/css" data-diagram-type="DESCRIPTION" height="424px" preserveAspectRatio="none" style="width:999px;height:424px;background:#FFFFFF;" version="1.1" viewBox="0 0 999 424" width="999px" zoomAndPan="magnify"><defs/><g><!--cluster crearSesionClase--><g class="cluster" data-qualified-name="crearSesionClase" data-source-line="6" id="ent0004"><path d="M179.77,6 L313.4419,6 A3.75,3.75 0 0 1 315.9419,8.5 L322.9419,28.4883 L780.77,28.4883 A2.5,2.5 0 0 1 783.27,30.9883 L783.27,415.45 A2.5,2.5 0 0 1 780.77,417.95 L179.77,417.95 A2.5,2.5 0 0 1 177.27,415.45 L177.27,8.5 A2.5,2.5 0 0 1 179.77,6" fill="none" style="stroke:#000000;stroke-width:1.5;"/><line style="stroke:#000000;stroke-width:1.5;" x1="177.27" x2="322.9419" y1="28.4883" y2="28.4883"/><text fill="#000000" font-family="sans-serif" font-size="14" font-weight="bold" lengthAdjust="spacing" textLength="132.6719" x="181.27" y="21.5352">crearSesionClase()</text></g><!--entity CrearSesionClaseView--><g class="entity" data-qualified-name="crearSesionClase.CrearSesionClaseView" data-source-line="7" id="ent0005"><rect fill="#629EF9" height="36.4883" rx="2.5" ry="2.5" style="stroke:#181818;stroke-width:0.5;" width="168.6748" x="420.93" y="41"/><text fill="#000000" font-family="sans-serif" font-size="14" lengthAdjust="spacing" textLength="148.6748" x="430.93" y="64.5352">CrearSesionClaseView</text></g><!--entity SesionDeClaseController--><g class="entity" data-qualified-name="crearSesionClase.SesionDeClaseController" data-source-line="8" id="ent0006"><rect fill="#B5BD68" height="36.4883" rx="2.5" ry="2.5" style="stroke:#181818;stroke-width:0.5;" width="186.6602" x="299.94" y="154.49"/><text fill="#000000" font-family="sans-serif" font-size="14" lengthAdjust="spacing" textLength="166.6602" x="309.94" y="178.0252">SesionDeClaseController</text></g><!--entity SesionDeClaseRepository--><g class="entity" data-qualified-name="crearSesionClase.SesionDeClaseRepository" data-source-line="9" id="ent0007"><rect fill="#F2AC4E" height="36.4883" rx="2.5" ry="2.5" style="stroke:#181818;stroke-width:0.5;" width="190.625" x="297.95" y="267.97"/><text fill="#000000" font-family="sans-serif" font-size="14" lengthAdjust="spacing" textLength="170.625" x="307.95" y="291.5052">SesionDeClaseRepository</text></g><!--entity SesionDeClase--><g class="entity" data-qualified-name="crearSesionClase.SesionDeClase" data-source-line="10" id="ent0008"><rect fill="#F2AC4E" height="36.4883" rx="2.5" ry="2.5" style="stroke:#181818;stroke-width:0.5;" width="118.499" x="334.02" y="365.46"/><text fill="#000000" font-family="sans-serif" font-size="14" lengthAdjust="spacing" textLength="98.499" x="344.02" y="388.9952">SesionDeClase</text></g><!--entity DatosSesionClase--><g class="entity" data-qualified-name="crearSesionClase.DatosSesionClase" data-source-line="11" id="ent0009"><rect fill="#F2AC4E" height="36.4883" rx="2.5" ry="2.5" style="stroke:#181818;stroke-width:0.5;" width="139.4033" x="627.56" y="154.49"/><text fill="#000000" font-family="sans-serif" font-size="14" lengthAdjust="spacing" textLength="119.4033" x="637.56" y="178.0252">DatosSesionClase</text></g><!--entity AsistenciasAbierto--><g class="entity" data-qualified-name="AsistenciasAbierto" data-source-line="3" id="ent0002"><rect fill="#CDEBA5" height="36.4883" rx="2.5" ry="2.5" style="stroke:#181818;stroke-width:0.5;" width="154.5313" x="7" y="41"/><text fill="#000000" font-family="sans-serif" font-size="14" lengthAdjust="spacing" textLength="134.5313" x="17" y="64.5352">:Asistencias Abierto</text></g><!--entity SesionAsistenciaAbierta--><g class="entity" data-qualified-name="SesionAsistenciaAbierta" data-source-line="4" id="ent0003"><rect fill="#CDEBA5" height="36.4883" rx="2.5" ry="2.5" style="stroke:#181818;stroke-width:0.5;" width="194.7676" x="798.88" y="41"/><text fill="#000000" font-family="sans-serif" font-size="14" lengthAdjust="spacing" textLength="174.7676" x="808.88" y="64.5352">:Sesion Asistencia Abierta</text></g><!--link AsistenciasAbierto to CrearSesionClaseView--><g class="link" data-entity-1="ent0002" data-entity-2="ent0005" data-link-type="dependency" data-source-line="14" id="lnk10"><path d="M161.97,59.24 C235.39,59.24 339.23,59.24 414.78,59.24" fill="none" id="AsistenciasAbierto-to-CrearSesionClaseView" style="stroke:#181818;stroke-width:1;"/><polygon fill="#181818" points="420.78,59.24,411.78,55.24,415.78,59.24,411.78,63.24,420.78,59.24" style="stroke:#181818;stroke-width:1;"/><text fill="#000000" font-family="sans-serif" font-size="13" lengthAdjust="spacing" textLength="114.6577" x="234.23" y="52.8084">crearSesionClase()</text></g><!--link CrearSesionClaseView to DatosSesionClase--><g class="link" data-entity-1="ent0005" data-entity-2="ent0009" data-link-type="association" data-source-line="16" id="lnk11"><path d="M590.04,77.43 C656.66,90.94 738.27,107.49 738.27,107.49 C738.27,107.49 738.27,124.49 738.27,124.49 C738.27,124.49 724.19,140.71 712.53,154.14" fill="none" id="CrearSesionClaseView-DatosSesionClase" style="stroke:#181818;stroke-width:1;stroke-dasharray:7,7;"/></g><!--link CrearSesionClaseView to SesionDeClaseController--><g class="link" data-entity-1="ent0005" data-entity-2="ent0006" data-link-type="dependency" data-source-line="18" id="lnk12"><path d="M420.5,74.54 C338.09,88.45 225.27,107.49 225.27,107.49 C225.27,107.49 225.27,124.49 225.27,124.49 C225.27,124.49 276.7839,138.9763 324.4539,152.3763" fill="none" id="CrearSesionClaseView-to-SesionDeClaseController" style="stroke:#181818;stroke-width:1;"/><polygon fill="#181818" points="330.23,154,322.6482,147.7137,325.4166,152.6469,320.4834,155.4153,330.23,154" style="stroke:#181818;stroke-width:1;"/><text fill="#000000" font-family="sans-serif" font-size="13" lengthAdjust="spacing" textLength="235.3203" x="226.27" y="121.0584">validarDatosIniciales(datos) : boolean</text></g><!--link CrearSesionClaseView to SesionDeClaseController--><g class="link" data-entity-1="ent0005" data-entity-2="ent0006" data-link-type="dependency" data-source-line="20" id="lnk13"><path d="M494.61,77.8 C483.06,96.82 466.27,124.49 466.27,124.49 C466.27,124.49 446.237,137.4499 425.487,150.8799" fill="none" id="CrearSesionClaseView-to-SesionDeClaseController-1" style="stroke:#181818;stroke-width:1;"/><polygon fill="#181818" points="420.45,154.14,430.179,152.6079,424.6475,151.4232,425.8321,145.8918,420.45,154.14" style="stroke:#181818;stroke-width:1;"/><text fill="#000000" font-family="sans-serif" font-size="13" lengthAdjust="spacing" textLength="253.2969" x="476.69" y="121.0584">crearSesionClase(datos) : SesionDeClase</text></g><!--link SesionDeClaseController to SesionDeClaseRepository--><g class="link" data-entity-1="ent0006" data-entity-2="ent0007" data-link-type="dependency" data-source-line="22" id="lnk14"><path d="M393.27,191.15 C393.27,211.97 393.27,240.62 393.27,261.55" fill="none" id="SesionDeClaseController-to-SesionDeClaseRepository" style="stroke:#181818;stroke-width:1;"/><polygon fill="#181818" points="393.27,267.55,397.27,258.55,393.27,262.55,389.27,258.55,393.27,267.55" style="stroke:#181818;stroke-width:1;"/><text fill="#000000" font-family="sans-serif" font-size="13" lengthAdjust="spacing" textLength="240.481" x="394.27" y="234.5384">crear(profesor, datos) : SesionDeClase</text></g><!--link SesionDeClaseRepository to SesionDeClase--><g class="link" data-entity-1="ent0007" data-entity-2="ent0008" data-link-type="association" data-source-line="24" id="lnk15"><path d="M393.27,304.73 C393.27,321.85 393.27,347.79 393.27,364.98" fill="none" id="SesionDeClaseRepository-SesionDeClase" style="stroke:#181818;stroke-width:1;"/></g><!--link CrearSesionClaseView to SesionAsistenciaAbierta--><g class="link" data-entity-1="ent0005" data-entity-2="ent0003" data-link-type="dependency" data-source-line="26" id="lnk16"><path d="M589.63,59.24 C651.03,59.24 728.33,59.24 792.61,59.24" fill="none" id="CrearSesionClaseView-to-SesionAsistenciaAbierta" style="stroke:#181818;stroke-width:1;"/><polygon fill="#181818" points="798.61,59.24,789.61,55.24,793.61,59.24,789.61,63.24,798.61,59.24" style="stroke:#181818;stroke-width:1;"/><text fill="#000000" font-family="sans-serif" font-size="13" lengthAdjust="spacing" textLength="161.7446" x="613.74" y="52.8084">iniciarSesionClase(sesion)</text></g><?plantuml-src ZPDDRuCm38Rl-HKMku0qUgZMQkrX4gEjjEicxMx0gw9c2NAYJMZQVnzG1fGFjJabzkFtjOsm9wbpPFm49JMv8YV8ZIggXn1CgKDzL0HtyMx_7At0sqPMMaSwbMWXIYInCnvKzoxUX2VBtyXAetjq8uAro3dR9PkS43cc9pmIf4p8PofMQAagyeP1F_3WHq1vUXsibvlzOGFnW7sNz3r4arMIhH-RPdPKSx7HZerIn4Fwi8pYX_qb_KgviT8PBcwXPvWTEcDxhOfV8SPRXf33fycne3jR6Ez8YCcYnM9iF4s6MMayiwJMzmkLp91hoHSjoyOLMJ-hda6PJenHX7hEuQh1r6Ij-EMInPpIoANxUdqBFsVpGTRmFTpaq5C9mo4vFIwtdOn-WVzfPRt3YtbjVG_47m00?></g></svg>