<?plantuml 1.2026.2?><svg xmlns="http://www.w3.org/2000/svg" xmlns:xlink="http://www.w3.org/1999/xlink" contentStyleType="text/css" data-diagram-type="DESCRIPTION" height="444px" preserveAspectRatio="none" style="width:855px;height:444px;background:#FFFFFF;" version="1.1" viewBox="0 0 855 444" width="855px" zoomAndPan="magnify"><defs/><g><!--cluster iniciarSesion--><g class="cluster" data-qualified-name="iniciarSesion" data-source-line="5" id="ent0003"><path d="M76.32,6 L179.4011,6 A3.75,3.75 0 0 1 181.9011,8.5 L188.9011,28.4883 L677.32,28.4883 A2.5,2.5 0 0 1 679.82,30.9883 L679.82,435.45 A2.5,2.5 0 0 1 677.32,437.95 L76.32,437.95 A2.5,2.5 0 0 1 73.82,435.45 L73.82,8.5 A2.5,2.5 0 0 1 76.32,6" fill="none" style="stroke:#000000;stroke-width:1.5;"/><line style="stroke:#000000;stroke-width:1.5;" x1="73.82" x2="188.9011" y1="28.4883" y2="28.4883"/><text fill="#000000" font-family="sans-serif" font-size="14" font-weight="bold" lengthAdjust="spacing" textLength="102.0811" x="77.82" y="21.5352">iniciarSesion()</text></g><!--entity LoginView--><g class="entity" data-qualified-name="iniciarSesion.LoginView" data-source-line="6" id="ent0004"><rect fill="#629EF9" height="36.4883" rx="2.5" ry="2.5" style="stroke:#181818;stroke-width:0.5;" width="89.3164" x="337.16" y="41"/><text fill="#000000" font-family="sans-serif" font-size="14" lengthAdjust="spacing" textLength="69.3164" x="347.16" y="64.5352">LoginView</text></g><!--entity IniciarSesionController--><g class="entity" data-qualified-name="iniciarSesion.IniciarSesionController" data-source-line="7" id="ent0005"><rect fill="#B5BD68" height="36.4883" rx="2.5" ry="2.5" style="stroke:#181818;stroke-width:0.5;" width="173.4189" x="295.11" y="174.49"/><text fill="#000000" font-family="sans-serif" font-size="14" lengthAdjust="spacing" textLength="153.4189" x="305.11" y="198.0252">IniciarSesionController</text></g><!--entity UsuarioRepository--><g class="entity" data-qualified-name="iniciarSesion.UsuarioRepository" data-source-line="8" id="ent0006"><rect fill="#F2AC4E" height="36.4883" rx="2.5" ry="2.5" style="stroke:#181818;stroke-width:0.5;" width="143.7578" x="89.94" y="287.97"/><text fill="#000000" font-family="sans-serif" font-size="14" lengthAdjust="spacing" textLength="123.7578" x="99.94" y="311.5052">UsuarioRepository</text></g><!--entity Usuario--><g class="entity" data-qualified-name="iniciarSesion.Usuario" data-source-line="9" id="ent0007"><rect fill="#F2AC4E" height="36.4883" rx="2.5" ry="2.5" style="stroke:#181818;stroke-width:0.5;" width="71.6318" x="126" y="385.46"/><text fill="#000000" font-family="sans-serif" font-size="14" lengthAdjust="spacing" textLength="51.6318" x="136" y="408.9952">Usuario</text></g><!--entity Sesion--><g class="entity" data-qualified-name="iniciarSesion.Sesion" data-source-line="10" id="ent0008"><rect fill="#F2AC4E" height="36.4883" rx="2.5" ry="2.5" style="stroke:#181818;stroke-width:0.5;" width="63.8115" x="449.91" y="287.97"/><text fill="#000000" font-family="sans-serif" font-size="14" lengthAdjust="spacing" textLength="43.8115" x="459.91" y="311.5052">Sesion</text></g><!--entity ActorUsuario--><g class="entity" data-qualified-name="ActorUsuario" data-source-line="3" id="ent0002"><ellipse cx="31.8159" cy="29.5" fill="#F1F1F1" rx="8" ry="8" style="stroke:#181818;stroke-width:0.5;"/><path d="M31.8159,37.5 L31.8159,64.5 M18.8159,45.5 L44.8159,45.5 M31.8159,64.5 L18.8159,79.5 M31.8159,64.5 L44.8159,79.5" fill="none" style="stroke:#181818;stroke-width:0.5;"/><text fill="#000000" font-family="sans-serif" font-size="14" lengthAdjust="spacing" textLength="51.6318" x="6" y="94.5352">Usuario</text></g><!--entity SistemaDisponible--><g class="entity" data-qualified-name="SistemaDisponible" data-source-line="12" id="ent0009"><rect fill="#CDEBA5" height="36.4883" rx="2.5" ry="2.5" style="stroke:#181818;stroke-width:0.5;" width="153.8955" x="695.87" y="41"/><text fill="#000000" font-family="sans-serif" font-size="14" lengthAdjust="spacing" textLength="133.8955" x="705.87" y="64.5352">:Sistema Disponible</text></g><!--link ActorUsuario to LoginView--><g class="link" data-entity-1="ent0002" data-entity-2="ent0004" data-link-type="dependency" data-source-line="14" id="lnk10"><path d="M58.12,59.24 C117.58,59.24 256.89,59.24 330.9,59.24" fill="none" id="ActorUsuario-to-LoginView" style="stroke:#181818;stroke-width:1;"/><polygon fill="#181818" points="336.9,59.24,327.9,55.24,331.9,59.24,327.9,63.24,336.9,59.24" style="stroke:#181818;stroke-width:1;"/><text fill="#000000" font-family="sans-serif" font-size="13" lengthAdjust="spacing" textLength="212.0562" x="91.39" y="52.8084">iniciarSesion(usuario, contrase&#241;a)</text></g><!--link LoginView to IniciarSesionController--><g class="link" data-entity-1="ent0004" data-entity-2="ent0005" data-link-type="dependency" data-source-line="16" id="lnk11"><path d="M381.82,77.97 C381.82,103.21 381.82,143.2 381.82,168.28" fill="none" id="LoginView-to-IniciarSesionController" style="stroke:#181818;stroke-width:1;"/><polygon fill="#181818" points="381.82,174.28,385.82,165.28,381.82,169.28,377.82,165.28,381.82,174.28" style="stroke:#181818;stroke-width:1;"/><text fill="#000000" font-family="sans-serif" font-size="13" lengthAdjust="spacing" textLength="249.0947" x="382.82" y="141.0584">autenticar(usuario, contrase&#241;a) : Sesion</text></g><!--link IniciarSesionController to UsuarioRepository--><g class="link" data-entity-1="ent0005" data-entity-2="ent0006" data-link-type="dependency" data-source-line="18" id="lnk12"><path d="M294.64,209.33 C217.74,223.09 117.82,240.97 117.82,240.97 C117.82,240.97 117.82,257.97 117.82,257.97 C117.82,257.97 128.832,269.7981 141.342,283.2381" fill="none" id="IniciarSesionController-to-UsuarioRepository" style="stroke:#181818;stroke-width:1;"/><polygon fill="#181818" points="145.43,287.63,142.226,278.3169,142.0234,283.9701,136.3701,283.7675,145.43,287.63" style="stroke:#181818;stroke-width:1;"/><text fill="#000000" font-family="sans-serif" font-size="13" lengthAdjust="spacing" textLength="315.5356" x="118.82" y="254.5384">validarCredenciales(usuario, contrase&#241;a) : Usuario</text></g><!--link UsuarioRepository to Usuario--><g class="link" data-entity-1="ent0006" data-entity-2="ent0007" data-link-type="association" data-source-line="20" id="lnk13"><path d="M161.82,324.73 C161.82,341.85 161.82,367.79 161.82,384.98" fill="none" id="UsuarioRepository-Usuario" style="stroke:#181818;stroke-width:1;"/></g><!--link IniciarSesionController to Sesion--><g class="link" data-entity-1="ent0005" data-entity-2="ent0008" data-link-type="dependency" data-source-line="22" id="lnk14"><path d="M404.53,211.32 C421.87,224.75 442.82,240.97 442.82,240.97 C442.82,240.97 456.4957,263.5115 468.0457,282.5315" fill="none" id="IniciarSesionController-to-Sesion" style="stroke:#181818;stroke-width:1;"/><polygon fill="#181818" points="471.16,287.66,469.9075,277.8911,468.5648,283.3863,463.0696,282.0435,471.16,287.66" style="stroke:#181818;stroke-width:1;"/><text fill="#000000" font-family="sans-serif" font-size="13" lengthAdjust="spacing" textLength="180.8828" x="453.24" y="254.5384">crearSesion(usuario) : Sesion</text></g><!--link LoginView to SistemaDisponible--><g class="link" data-entity-1="ent0004" data-entity-2="ent0009" data-link-type="dependency" data-source-line="24" id="lnk15"><path d="M426.67,59.24 C492.26,59.24 609.26,59.24 689.59,59.24" fill="none" id="LoginView-to-SistemaDisponible" style="stroke:#181818;stroke-width:1;"/><polygon fill="#181818" points="695.59,59.24,686.59,55.24,690.59,59.24,686.59,63.24,695.59,59.24" style="stroke:#181818;stroke-width:1;"/><text fill="#000000" font-family="sans-serif" font-size="13" lengthAdjust="spacing" textLength="171.1899" x="475.67" y="52.8084">sistemaDisponible(usuario)</text></g><?plantuml-src VLB1Ri8m3BtxAwpk0j9wGGCD3fDO0MdIJaFRtQGMiWX9bOHDQDf7xHlsOqj5HqkxublivsU_5_kTc88SxL6BuN0i60khZ-K3W5Im3b_zWPnO98_pCb6z0GfIEzeoYX4bvDRinPeIbbna1iC4Fm5ZE5Q1p5Optan6q-LgYizsA-PD-ADTtumt-UGUdvf4cJN1MQtPjT6hqJoxM_vj-iA5zH8tFLx7zLHFm-0B6gLiiNoSZp6PhSK7tXCkn1VMo4PpKYgkqdKMeEaLfYvzgCLYDsQNBWuEfyPRLALeylppJKE0cYBD8sEFFJKf7GAR88hS_umHKic5FguqpkaO6_lUIKjEBdESiucTcdtlZFF9T8dIjAvUMw6whWlBbEEsOKr53RDA-pj_rFu1tmQSIU4N?></g></svg>