<svg xmlns="http://www.w3.org/2000/svg" xmlns:xlink="http://www.w3.org/1999/xlink" contentStyleType="text/css" data-diagram-type="STATE" height="1217px" preserveAspectRatio="none" style="width:746px;height:1217px;background:#FFFFFF;" version="1.1" viewBox="0 0 746 1217" width="746px" zoomAndPan="magnify"><?plantuml 1.2026.5?><defs/><g><g class="title" data-source-line="1"><text fill="#000000" font-family="sans-serif" font-size="14" font-weight="700" lengthAdjust="spacing" textLength="99.5176" x="320.2233" y="33.5352">Crear Alumno</text></g><rect fill="#FFFFCC" height="16.6406" rx="2.5" ry="2.5" style="stroke:#FFDD88;stroke-width:3;" width="730.9641" x="3" y="60.4883"/><text fill="#000000" font-family="monospace" font-size="10" lengthAdjust="spacing" textLength="295.0049" x="10" y="71.1289">Please&#160;use&#160;CSS&#160;style&#160;instead&#160;of&#160;skinparam&#160;padding</text><g class="entity" data-qualified-name="ALUMNOS_ABIERTO_INICIAL" data-source-line="10" id="ent0001"><rect fill="#F1F1F1" height="76.4883" rx="12.5" ry="12.5" style="stroke:#181818;stroke-width:0.5;" width="172.5557" x="379.72" y="205.1289"/><line style="stroke:#181818;stroke-width:0.5;" x1="379.72" x2="552.2757" y1="251.6172" y2="251.6172"/><text fill="#000000" font-family="sans-serif" font-size="14" lengthAdjust="spacing" textLength="132.5557" x="399.72" y="233.6641">ALUMNOS_ABIERTO</text></g><g class="entity" data-qualified-name="ALUMNO_ABIERTO_COMP" data-source-line="11" id="ent0002"><path d="M212.54,381.6089 L719.4641,381.6089 A12.5,12.5 0 0 1 731.9641,394.1089 L731.9641,428.0972 L200.04,428.0972 L200.04,394.1089 A12.5,12.5 0 0 1 212.54,381.6089" fill="#F1F1F1"/><rect fill="none" height="321.6583" rx="12.5" ry="12.5" style="stroke:#181818;stroke-width:0.5;" width="531.9241" x="200.04" y="381.6089"/><line style="stroke:#181818;stroke-width:0.5;" x1="200.04" x2="731.9641" y1="428.0972" y2="428.0972"/><text fill="#000000" font-family="sans-serif" font-size="14" lengthAdjust="spacing" textLength="125.0156" x="403.4942" y="410.1441">ALUMNO_ABIERTO</text><g class="entity" data-qualified-name="ALUMNO_ABIERTO_COMP.FormularioAlta" data-source-line="27" id="ent0004"><rect fill="#F1F1F1" height="92.9766" rx="12.5" ry="12.5" style="stroke:#181818;stroke-width:0.5;" width="144.8975" x="212.04" y="517.1872"/><line style="stroke:#181818;stroke-width:0.5;" x1="212.04" x2="356.9375" y1="563.6755" y2="563.6755"/><text fill="#000000" font-family="sans-serif" font-size="14" lengthAdjust="spacing" textLength="104.8975" x="232.04" y="545.7223">Alta de Alumno</text><text fill="#000000" font-family="sans-serif" font-size="14" lengthAdjust="spacing" textLength="4.4297" x="227.04" y="592.2106">&#160;</text></g><g class="start_entity" data-qualified-name="ALUMNO_ABIERTO_COMP..start.ALUMNO_ABIERTO_COMP" data-source-line="31" id="ent0008"><ellipse cx="284.49" cy="449.0972" fill="#222222" rx="10" ry="10" style="stroke:#222222;stroke-width:1;"/></g><g class="end_entity" data-qualified-name="ALUMNO_ABIERTO_COMP..end.ALUMNO_ABIERTO_COMP" data-source-line="43" id="ent0010"><ellipse cx="284.49" cy="679.2672" fill="none" rx="11" ry="11" style="stroke:#222222;stroke-width:1;"/><ellipse cx="284.49" cy="679.2672" fill="#222222" rx="6" ry="6" style="stroke:#222222;stroke-width:1;"/></g><g class="entity" data-qualified-name="ALUMNO_ABIERTO_COMP.GMN16" data-source-line="34" id="ent0017"><path d="M375.01,495.0972 L375.01,559.2672 L357.1,563.2672 L375.01,567.2672 L375.01,632.271 A0,0 0 0 0 375.01,632.271 L707.9641,632.271 A0,0 0 0 0 707.9641,632.271 L707.9641,505.0972 L697.9641,495.0972 L375.01,495.0972 A0,0 0 0 0 375.01,495.0972" fill="#FEFFDD" style="stroke:#181818;stroke-width:0.5;"/><path d="M697.9641,495.0972 L697.9641,505.0972 L707.9641,505.0972 L697.9641,495.0972" fill="#FEFFDD" style="stroke:#181818;stroke-width:0.5;"/><text fill="#000000" font-family="sans-serif" font-size="13" font-weight="700" lengthAdjust="spacing" textLength="118.6313" x="391.01" y="522.6655">Secretaria solicita</text><text fill="#000000" font-family="sans-serif" font-size="13" lengthAdjust="spacing" textLength="66.0918" x="513.7546" y="522.6655">introducir:</text><text fill="#000000" font-family="sans-serif" font-size="13" lengthAdjust="spacing" textLength="170.9868" x="391.01" y="537.9761">&#8226; Credenciales (User/Pass).</text><text fill="#000000" font-family="sans-serif" font-size="13" lengthAdjust="spacing" textLength="291.9541" x="391.01" y="553.2866">&#8226; Datos Personales (nombre, apellidos, email).</text><text fill="#000000" font-family="sans-serif" font-size="13" lengthAdjust="spacing" textLength="230.293" x="391.01" y="568.5972">&#8226; Grado de incorporaci&#243;n (opcional).</text><text fill="#000000" font-family="sans-serif" font-size="13" font-weight="700" lengthAdjust="spacing" textLength="108.2847" x="391.01" y="583.9077">Sistema permite</text><text fill="#000000" font-family="sans-serif" font-size="13" lengthAdjust="spacing" textLength="120.9863" x="503.4079" y="583.9077">la captura de datos</text><text fill="#000000" font-family="sans-serif" font-size="13" lengthAdjust="spacing" textLength="251.0752" x="391.01" y="599.2183">y, si se indica grado, crea una matr&#237;cula</text><text fill="#000000" font-family="sans-serif" font-size="13" lengthAdjust="spacing" textLength="171.5962" x="391.01" y="614.5288">vac&#237;a para el curso vigente.</text></g><!--link *start*ALUMNO_ABIERTO_COMP to FormularioAlta--><g class="link" data-entity-1="ent0008" data-entity-2="ent0004" data-link-type="dependency" data-source-line="31" id="lnk9"><path d="M284.49,459.2572 C284.49,472.2472 284.49,490.5772 284.49,511.9072" fill="none" id="*start*ALUMNO_ABIERTO_COMP-to-FormularioAlta" style="stroke:#008000;stroke-width:1;"/><polygon fill="#008000" points="284.49,516.9072,288.49,507.9072,284.49,511.9072,280.49,507.9072,284.49,516.9072" style="stroke:#008000;stroke-width:1;stroke-linejoin:miter;stroke-miterlimit:10;"/></g><!--link FormularioAlta to *end*ALUMNO_ABIERTO_COMP--><g class="link" data-entity-1="ent0004" data-entity-2="ent0010" data-link-type="dependency" data-source-line="43" id="lnk11"><path d="M284.49,610.3572 C284.49,631.4172 284.49,649.5072 284.49,662.8972" fill="none" id="FormularioAlta-to-*end*ALUMNO_ABIERTO_COMP" style="stroke:#008000;stroke-width:1;"/><polygon fill="#008000" points="284.49,667.8972,288.49,658.8972,284.49,662.8972,280.49,658.8972,284.49,667.8972" style="stroke:#008000;stroke-width:1;stroke-linejoin:miter;stroke-miterlimit:10;"/></g></g><g class="entity" data-qualified-name="ALUMNOS_ABIERTO_FINAL" data-source-line="12" id="ent0003"><rect fill="#F1F1F1" height="76.4883" rx="12.5" ry="12.5" style="stroke:#181818;stroke-width:0.5;" width="172.5557" x="379.72" y="1005.2689"/><line style="stroke:#181818;stroke-width:0.5;" x1="379.72" x2="552.2757" y1="1051.7572" y2="1051.7572"/><text fill="#000000" font-family="sans-serif" font-size="14" lengthAdjust="spacing" textLength="132.5557" x="399.72" y="1033.8041">ALUMNOS_ABIERTO</text></g><g class="start_entity" data-qualified-name=".start." data-source-line="14" id="ent0005"><ellipse cx="466" cy="95.1289" fill="#222222" rx="10" ry="10" style="stroke:#222222;stroke-width:1;"/></g><g class="end_entity" data-qualified-name=".end." data-source-line="62" id="ent0014"><ellipse cx="466" cy="1192.7589" fill="none" rx="11" ry="11" style="stroke:#222222;stroke-width:1;"/><ellipse cx="466" cy="1192.7589" fill="#222222" rx="6" ry="6" style="stroke:#222222;stroke-width:1;"/></g><!--link *start* to ALUMNOS_ABIERTO_INICIAL--><g class="link" data-entity-1="ent0005" data-entity-2="ent0001" data-link-type="dependency" data-source-line="14" id="lnk6"><path d="M466,105.3089 C466,125.4589 466,166.3289 466,199.6789" fill="none" id="*start*-to-ALUMNOS_ABIERTO_INICIAL" style="stroke:#008000;stroke-width:1;"/><polygon fill="#008000" points="466,204.6789,470,195.6789,466,199.6789,462,195.6789,466,204.6789" style="stroke:#008000;stroke-width:1;stroke-linejoin:miter;stroke-miterlimit:10;"/></g><!--link ALUMNOS_ABIERTO_INICIAL to ALUMNO_ABIERTO_COMP--><g class="link" data-entity-1="ent0001" data-entity-2="ent0002" data-link-type="dependency" data-source-line="17" id="lnk7"><path d="M466,281.8589 C466,307.8089 466,338.9789 466,376.1289" fill="none" id="ALUMNOS_ABIERTO_INICIAL-to-ALUMNO_ABIERTO_COMP" style="stroke:#008000;stroke-width:1;"/><polygon fill="#008000" points="466,381.1289,470,372.1289,466,376.1289,462,372.1289,466,381.1289" style="stroke:#008000;stroke-width:1;stroke-linejoin:miter;stroke-miterlimit:10;"/><path d="M6,235.4889 L6,326.4889 L350,326.4889 L350,245.4889 L340,235.4889 L6,235.4889" fill="#FEFFDD" style="stroke:#181818;stroke-width:0.5;"/><path d="M340,235.4889 L340,245.4889 L350,245.4889 L340,235.4889" fill="#FEFFDD" style="stroke:#181818;stroke-width:0.5;"/><text fill="#000000" font-family="sans-serif" font-size="13" font-weight="700" lengthAdjust="spacing" textLength="118.6313" x="22" y="263.0573">Secretaria solicita</text><text fill="#000000" font-family="sans-serif" font-size="13" lengthAdjust="spacing" textLength="181.0732" x="144.7446" y="263.0573">dar de alta un nuevo alumno</text><text fill="#000000" font-family="sans-serif" font-size="13" lengthAdjust="spacing" textLength="225.7417" x="22" y="278.3678">(incorporaci&#243;n tard&#237;a, becario, etc.).</text><text fill="#000000" font-family="sans-serif" font-size="13" font-weight="700" lengthAdjust="spacing" textLength="108.2847" x="22" y="293.6784">Sistema permite</text><text fill="#000000" font-family="sans-serif" font-size="13" lengthAdjust="spacing" textLength="142.9175" x="134.3979" y="293.6784">el acceso al formulario</text><text fill="#000000" font-family="sans-serif" font-size="13" lengthAdjust="spacing" textLength="194.854" x="22" y="308.9889">(Contexto: ALUMNO_ABIERTO).</text><text fill="#000000" font-family="sans-serif" font-size="13" lengthAdjust="spacing" textLength="89.1592" x="366.8179" y="286.0231">crearAlumno()</text></g><!--link ALUMNO_ABIERTO_COMP to ALUMNOS_ABIERTO_FINAL--><g class="link" data-entity-1="ent0002" data-entity-2="ent0003" data-link-type="dependency" data-source-line="47" id="lnk12"><path d="M437.24,703.7389 C437.24,810.0289 437.24,935.9589 437.24,999.8089" fill="none" id="ALUMNO_ABIERTO_COMP-to-ALUMNOS_ABIERTO_FINAL" style="stroke:#008000;stroke-width:1;"/><polygon fill="#008000" points="437.24,1004.8089,441.24,995.8089,437.24,999.8089,433.24,995.8089,437.24,1004.8089" style="stroke:#008000;stroke-width:1;stroke-linejoin:miter;stroke-miterlimit:10;"/><path d="M17.24,758.2789 L17.24,849.2789 L303.24,849.2789 L303.24,768.2789 L293.24,758.2789 L17.24,758.2789" fill="#FEFFDD" style="stroke:#181818;stroke-width:0.5;"/><path d="M293.24,758.2789 L293.24,768.2789 L303.24,768.2789 L293.24,758.2789" fill="#FEFFDD" style="stroke:#181818;stroke-width:0.5;"/><text fill="#000000" font-family="sans-serif" font-size="13" font-weight="700" lengthAdjust="spacing" textLength="69.8687" x="33.24" y="785.8473">GUARDAR:</text><text fill="#000000" font-family="sans-serif" font-size="13" font-weight="700" lengthAdjust="spacing" textLength="118.6313" x="33.24" y="801.1578">Secretaria solicita</text><text fill="#000000" font-family="sans-serif" font-size="13" lengthAdjust="spacing" textLength="100.0518" x="155.9846" y="801.1578">registrar el alta.</text><text fill="#000000" font-family="sans-serif" font-size="13" font-weight="700" lengthAdjust="spacing" textLength="108.2847" x="33.24" y="816.4684">Sistema permite</text><text fill="#000000" font-family="sans-serif" font-size="13" lengthAdjust="spacing" textLength="133.1357" x="145.6379" y="816.4684">persistir el alumno y,</text><text fill="#000000" font-family="sans-serif" font-size="13" lengthAdjust="spacing" textLength="210.8755" x="33.24" y="831.7789">en su caso, la matr&#237;cula derivada.</text><text fill="#000000" font-family="sans-serif" font-size="13" lengthAdjust="spacing" textLength="106.793" x="319.7737" y="808.8131">guardarAlumno()</text></g><!--link ALUMNO_ABIERTO_COMP to ALUMNOS_ABIERTO_FINAL--><g class="link" data-entity-1="ent0002" data-entity-2="ent0003" data-link-type="dependency" data-source-line="55" id="lnk13"><path d="M494.76,703.7389 C494.76,810.0289 494.76,935.9589 494.76,999.8089" fill="none" id="ALUMNO_ABIERTO_COMP-to-ALUMNOS_ABIERTO_FINAL-1" style="stroke:#FF0000;stroke-width:1;"/><polygon fill="#FF0000" points="494.76,1004.8089,498.76,995.8089,494.76,999.8089,490.76,995.8089,494.76,1004.8089" style="stroke:#FF0000;stroke-width:1;stroke-linejoin:miter;stroke-miterlimit:10;"/><text fill="#000000" font-family="sans-serif" font-size="13" lengthAdjust="spacing" textLength="109.5034" x="86.76" y="902.1578">cancelarAlumno()</text><path d="M212.2634,859.2789 L212.2634,934.2789 L489.2634,934.2789 L489.2634,869.2789 L479.2634,859.2789 L212.2634,859.2789" fill="#FEFFDD" style="stroke:#181818;stroke-width:0.5;"/><path d="M479.2634,859.2789 L479.2634,869.2789 L489.2634,869.2789 L479.2634,859.2789" fill="#FEFFDD" style="stroke:#181818;stroke-width:0.5;"/><text fill="#000000" font-family="sans-serif" font-size="13" font-weight="700" lengthAdjust="spacing" textLength="75.207" x="228.2634" y="886.8473">CANCELAR:</text><text fill="#000000" font-family="sans-serif" font-size="13" font-weight="700" lengthAdjust="spacing" textLength="118.6313" x="228.2634" y="902.1578">Secretaria solicita</text><text fill="#000000" font-family="sans-serif" font-size="13" lengthAdjust="spacing" textLength="113.6611" x="351.008" y="902.1578">abandonar el alta.</text><text fill="#000000" font-family="sans-serif" font-size="13" font-weight="700" lengthAdjust="spacing" textLength="108.2847" x="228.2634" y="917.4684">Sistema permite</text><text fill="#000000" font-family="sans-serif" font-size="13" lengthAdjust="spacing" textLength="124.1157" x="340.6614" y="917.4684">descartar los datos.</text></g><!--link ALUMNOS_ABIERTO_FINAL to *end*--><g class="link" data-entity-1="ent0003" data-entity-2="ent0014" data-link-type="dependency" data-source-line="62" id="lnk15"><path d="M466,1081.9489 C466,1114.9389 466,1155.3889 466,1176.3389" fill="none" id="ALUMNOS_ABIERTO_FINAL-to-*end*" style="stroke:#0000FF;stroke-width:1;"/><polygon fill="#0000FF" points="466,1181.3389,470,1172.3389,466,1176.3389,462,1172.3389,466,1181.3389" style="stroke:#0000FF;stroke-width:1;stroke-linejoin:miter;stroke-miterlimit:10;"/></g><?plantuml-src ZLLBRXf14DtFAKhE8ZW2szaYoz9amDP8690nAykoYfu2jzpJZRfxKAmeKkwG6sJlLOx0JNAILCyGFcDmF1kWkpwltdirUEaLGM89BSIgoBM9ee_GQhKW6VGlqwlnJPoaovzzw7IXExfDUuDm6RadgUTeCGTjCd8qXyzdPrkd5lNJwrCbDVddEO6n_j5iNGmnowIUSNZetg6fr5B8vMyD6K7NUSoCY_Z34yIzyNL_C7g8lwJTczl1GzfFapJk0Q23ezhbqKxEEYKPN0-XV3Ov-rCsRIxJVcXoe4rqz-aUMdSVPfP8txSk3g4CqzqoDsup7MblCSFeq5olg-xEqGOHnAkqQnn7sZ1wHLCFHWV2dwA0-dnoCI8Ez6WbWZEA0NWyFvrSGCRACmvK7g7Ge0jQ6FvLMY6aDgGMniwDnGepbyYMBzY42GckPff0NfmSdwpxIESfHvYJpQMdiWSfG278XS8mDJOlL4YjwYT6U_hgJRis7vSadK4OAF2Mc9n1UCmbKsP0Sf9bY8SL_bQMh-ulrptZC6SfOlZ2WrVCiOOXkXRNhaxhwkv6LJ4bxrRE7fduQJq2LiyRCl0yrcI5aBQz3l_purTOpOoqaAZ8GMFio9uEqRaLt_-YEkYDWo5PPtGLgKq-iTG4d9DIalU7TSfHgbhY5PlF11fgAZVCNCXGQol-WBWAGU3S5xQaCmj8rYdFJN0IN2YVIO4m2-sQfMNPR0WvUhjy4KpLEcM1Wkq5uSKGV2CAdWaMSiQgKuLbuuezacthnBf5tuDtHiWKe8lssMIJqDgpkDNUjs5MiEtVisPNu_Yc4z-q0pN_MprBC-RJyWA61M7qRouHVtTyB5VH0GZpks84NC4gEEPMRRFAYbYvuFVBzYuTO86DzZO70hKWLITXvVbT5fAudtHxxwG19wWpzjhxQE2_6txlS1bGRFdIRg-7guFdyIQge9Kf_W80?></g></svg>