<svg xmlns="http://www.w3.org/2000/svg" xmlns:xlink="http://www.w3.org/1999/xlink" contentStyleType="text/css" data-diagram-type="STATE" height="1370px" preserveAspectRatio="none" style="width:1243px;height:1370px;background:#FFFFFF;" version="1.1" viewBox="0 0 1243 1370" width="1243px" zoomAndPan="magnify"><?plantuml 1.2026.5?><defs/><g><g class="title" data-source-line="1"><text fill="#000000" font-family="sans-serif" font-size="14" font-weight="700" lengthAdjust="spacing" textLength="251.4326" x="492.5458" y="33.5352">Gestionar Cat&#225;logo de Asignaturas</text></g><rect fill="#FFFFCC" height="16.6406" rx="2.5" ry="2.5" style="stroke:#FFDD88;stroke-width:3;" width="1227.5243" x="3" y="60.4883"/><text fill="#000000" font-family="monospace" font-size="10" lengthAdjust="spacing" textLength="295.0049" x="10" y="71.1289">Please&#160;use&#160;CSS&#160;style&#160;instead&#160;of&#160;skinparam&#160;padding</text><g class="entity" data-qualified-name="SISTEMA_DISPONIBLE_INICIAL" data-source-line="10" id="ent0001"><rect fill="#F1F1F1" height="76.4883" rx="12.5" ry="12.5" style="stroke:#181818;stroke-width:0.5;" width="182.4268" x="584.8" y="205.1289"/><line style="stroke:#181818;stroke-width:0.5;" x1="584.8" x2="767.2268" y1="251.6172" y2="251.6172"/><text fill="#000000" font-family="sans-serif" font-size="14" lengthAdjust="spacing" textLength="142.4268" x="604.8" y="233.6641">SISTEMA_DISPONIBLE</text></g><g class="entity" data-qualified-name="CATALOGO_ASIG_COMP" data-source-line="11" id="ent0002"><path d="M261.04,381.6089 L1090.9882,381.6089 A12.5,12.5 0 0 1 1103.4882,394.1089 L1103.4882,428.0972 L248.54,428.0972 L248.54,394.1089 A12.5,12.5 0 0 1 261.04,381.6089" fill="#F1F1F1"/><rect fill="none" height="254.4988" rx="12.5" ry="12.5" style="stroke:#181818;stroke-width:0.5;" width="854.9482" x="248.54" y="381.6089"/><line style="stroke:#181818;stroke-width:0.5;" x1="248.54" x2="1103.4882" y1="428.0972" y2="428.0972"/><text fill="#000000" font-family="sans-serif" font-size="14" lengthAdjust="spacing" textLength="245.0615" x="553.4833" y="410.1441">CATALOGO_ASIGNATURAS_ABIERTO</text><g class="entity" data-qualified-name="CATALOGO_ASIG_COMP.ListadoAsignaturas" data-source-line="27" id="ent0005"><rect fill="#F1F1F1" height="76.4883" rx="12.5" ry="12.5" style="stroke:#181818;stroke-width:0.5;" width="195.0117" x="260.54" y="510.1272"/><line style="stroke:#181818;stroke-width:0.5;" x1="260.54" x2="455.5517" y1="556.6155" y2="556.6155"/><text fill="#000000" font-family="sans-serif" font-size="14" lengthAdjust="spacing" textLength="155.0117" x="280.54" y="538.6623">Listado de Asignaturas</text></g><g class="start_entity" data-qualified-name="CATALOGO_ASIG_COMP..start.CATALOGO_ASIG_COMP" data-source-line="29" id="ent0010"><ellipse cx="358.05" cy="449.0972" fill="#222222" rx="10" ry="10" style="stroke:#222222;stroke-width:1;"/></g><g class="entity" data-qualified-name="CATALOGO_ASIG_COMP.GMN23" data-source-line="32" id="ent0024"><path d="M491.11,510.4072 L491.11,586.3388 L770.9913,586.3388 L770.9913,520.4072 L760.9913,510.4072 L491.11,510.4072" fill="#FEFFDD" style="stroke:#181818;stroke-width:0.5;"/><path d="M760.9913,510.4072 L760.9913,520.4072 L770.9913,520.4072 L760.9913,510.4072" fill="#FEFFDD" style="stroke:#181818;stroke-width:1;"/><text fill="#000000" font-family="sans-serif" font-size="13" font-weight="700" lengthAdjust="spacing" textLength="111.3569" x="507.11" y="537.9755">Sistema muestra</text><text fill="#000000" font-family="sans-serif" font-size="13" lengthAdjust="spacing" textLength="94.6499" x="622.5802" y="537.9755">las asignaturas</text><text fill="#000000" font-family="sans-serif" font-size="13" lengthAdjust="spacing" textLength="238.8813" x="507.11" y="553.2861">existentes con c&#243;digo, nombre, ECTS,</text><text fill="#000000" font-family="sans-serif" font-size="13" lengthAdjust="spacing" textLength="196.917" x="507.11" y="568.5966">car&#225;cter (FB/OB/OP) y grado(s).</text></g><g class="entity" data-qualified-name="CATALOGO_ASIG_COMP.GMN26" data-source-line="39" id="ent0027"><path d="M788.6,495.0972 L788.6,601.6499 L1079.4882,601.6499 L1079.4882,505.0972 L1069.4882,495.0972 L788.6,495.0972" fill="#FEFFDD" style="stroke:#181818;stroke-width:0.5;"/><path d="M1069.4882,495.0972 L1069.4882,505.0972 L1079.4882,505.0972 L1069.4882,495.0972" fill="#FEFFDD" style="stroke:#181818;stroke-width:1;"/><text fill="#000000" font-family="sans-serif" font-size="13" font-weight="700" lengthAdjust="spacing" textLength="118.6313" x="804.6" y="522.6655">Secretaria solicita</text><text fill="#000000" font-family="sans-serif" font-size="13" lengthAdjust="spacing" textLength="51.2192" x="927.3446" y="522.6655">eliminar</text><text fill="#000000" font-family="sans-serif" font-size="13" lengthAdjust="spacing" textLength="97.8872" x="804.6" y="537.9761">una asignatura.</text><text fill="#000000" font-family="sans-serif" font-size="13" font-weight="700" lengthAdjust="spacing" textLength="96.4907" x="804.6" y="553.2866">Sistema valida</text><text fill="#000000" font-family="sans-serif" font-size="13" lengthAdjust="spacing" textLength="78.9458" x="905.204" y="553.2866">que no tiene</text><text fill="#000000" font-family="sans-serif" font-size="13" lengthAdjust="spacing" textLength="209.8408" x="804.6" y="568.5972">referencias (matr&#237;culas, sesiones,</text><text fill="#000000" font-family="sans-serif" font-size="13" lengthAdjust="spacing" textLength="249.8882" x="804.6" y="583.9077">profesores que la imparten, dispensas).</text></g><!--link *start*CATALOGO_ASIG_COMP to ListadoAsignaturas--><g class="link" data-entity-1="ent0010" data-entity-2="ent0005" data-link-type="dependency" data-source-line="29" id="lnk11"><path d="M358.05,459.3472 C358.05,471.2372 358.05,486.5472 358.05,504.7672" fill="none" id="*start*CATALOGO_ASIG_COMP-to-ListadoAsignaturas" style="stroke:#008000;stroke-width:1;"/><polygon fill="#008000" points="358.05,509.7672,362.05,500.7672,358.05,504.7672,354.05,500.7672,358.05,509.7672" style="stroke:#008000;stroke-width:1;stroke-linejoin:miter;stroke-miterlimit:10;"/></g><!--link ListadoAsignaturas to ListadoAsignaturas--><g class="link" data-entity-1="ent0005" data-entity-2="ent0005" data-link-type="dependency" data-source-line="37" id="lnk12"><path d="M411.8,509.7972 C411.8,505.5072 411.8,502.6572 411.8,502.6572 C411.8,502.6572 473.33,502.6572 473.33,502.6572 C473.33,502.6572 473.33,593.6572 473.33,593.6572 C473.33,593.6572 358.05,593.6572 358.05,593.6572 C358.05,593.6572 358.05,595.9972 358.05,591.9672" fill="none" id="ListadoAsignaturas-to-ListadoAsignaturas" style="stroke:#008000;stroke-width:1;"/><polygon fill="#008000" points="358.05,586.9672,354.05,595.9672,358.05,591.9672,362.05,595.9672,358.05,586.9672" style="stroke:#008000;stroke-width:1;stroke-linejoin:miter;stroke-miterlimit:10;"/><text fill="#000000" font-family="sans-serif" font-size="13" lengthAdjust="spacing" textLength="127.8101" x="409.83" y="603.3655">eliminarAsignatura()</text></g><!--link ListadoAsignaturas to GMN23--><g class="link" data-entity-1="ent0005" data-entity-2="ent0024" data-link-type="association" data-source-line="32" id="lnk25"><path d="M455.83,548.6572 C467.16,548.6572 478.86,548.6572 490.61,548.6572" fill="none" id="ListadoAsignaturas-GMN23" style="stroke:#181818;stroke-width:1;stroke-dasharray:7,7;"/></g><!--link GMN23 to GMN26--><g class="link" data-entity-1="ent0024" data-entity-2="ent0027" data-link-type="association" data-source-line="39" id="lnk28"><path d="M771.46,548.6572 C777.03,548.6572 782.62,548.6572 788.21,548.6572" fill="none" id="GMN23-GMN26" style="stroke:#181818;stroke-width:1;stroke-dasharray:7,7;"/></g></g><g class="entity" data-qualified-name="ASIGNATURA_ABIERTA_COMP" data-source-line="12" id="ent0003"><path d="M435.57,1034.5989 L916.4695,1034.5989 A12.5,12.5 0 0 1 928.9695,1047.0989 L928.9695,1081.0872 L423.07,1081.0872 L423.07,1047.0989 A12.5,12.5 0 0 1 435.57,1034.5989" fill="#F1F1F1"/><rect fill="none" height="321.6583" rx="12.5" ry="12.5" style="stroke:#181818;stroke-width:0.5;" width="505.8995" x="423.07" y="1034.5989"/><line style="stroke:#181818;stroke-width:0.5;" x1="423.07" x2="928.9695" y1="1081.0872" y2="1081.0872"/><text fill="#000000" font-family="sans-serif" font-size="14" lengthAdjust="spacing" textLength="152.1133" x="599.9631" y="1063.1341">ASIGNATURA_ABIERTA</text><g class="entity" data-qualified-name="ASIGNATURA_ABIERTA_COMP.FormularioAsig" data-source-line="56" id="ent0006"><rect fill="#F1F1F1" height="76.4883" rx="12.5" ry="12.5" style="stroke:#181818;stroke-width:0.5;" width="187.7998" x="435.07" y="1178.4272"/><line style="stroke:#181818;stroke-width:0.5;" x1="435.07" x2="622.8698" y1="1224.9155" y2="1224.9155"/><text fill="#000000" font-family="sans-serif" font-size="14" lengthAdjust="spacing" textLength="147.7998" x="455.07" y="1206.9623">Edici&#243;n de Asignatura</text></g><g class="start_entity" data-qualified-name="ASIGNATURA_ABIERTA_COMP..start.ASIGNATURA_ABIERTA_COMP" data-source-line="58" id="ent0014"><ellipse cx="528.97" cy="1102.0872" fill="#222222" rx="10" ry="10" style="stroke:#222222;stroke-width:1;"/></g><g class="end_entity" data-qualified-name="ASIGNATURA_ABIERTA_COMP..end.ASIGNATURA_ABIERTA_COMP" data-source-line="70" id="ent0016"><ellipse cx="528.97" cy="1332.2572" fill="none" rx="11" ry="11" style="stroke:#222222;stroke-width:1;"/><ellipse cx="528.97" cy="1332.2572" fill="#222222" rx="6" ry="6" style="stroke:#222222;stroke-width:1;"/></g><g class="entity" data-qualified-name="ASIGNATURA_ABIERTA_COMP.GMN29" data-source-line="61" id="ent0030"><path d="M640.97,1148.0872 L640.97,1212.2572 L623.31,1216.2572 L640.97,1220.2572 L640.97,1285.261 A0,0 0 0 0 640.97,1285.261 L904.9695,1285.261 A0,0 0 0 0 904.9695,1285.261 L904.9695,1158.0872 L894.9695,1148.0872 L640.97,1148.0872 A0,0 0 0 0 640.97,1148.0872" fill="#FEFFDD" style="stroke:#181818;stroke-width:0.5;"/><path d="M894.9695,1148.0872 L894.9695,1158.0872 L904.9695,1158.0872 L894.9695,1148.0872" fill="#FEFFDD" style="stroke:#181818;stroke-width:0.5;"/><text fill="#000000" font-family="sans-serif" font-size="13" font-weight="700" lengthAdjust="spacing" textLength="118.6313" x="656.97" y="1175.6555">Secretaria solicita</text><text fill="#000000" font-family="sans-serif" font-size="13" lengthAdjust="spacing" textLength="66.0918" x="779.7146" y="1175.6555">introducir:</text><text fill="#000000" font-family="sans-serif" font-size="13" lengthAdjust="spacing" textLength="171.5835" x="656.97" y="1190.9661">&#8226; C&#243;digo (&#250;nico) y nombre.</text><text fill="#000000" font-family="sans-serif" font-size="13" lengthAdjust="spacing" textLength="187.7256" x="656.97" y="1206.2766">&#8226; ECTS y car&#225;cter (FB/OB/OP).</text><text fill="#000000" font-family="sans-serif" font-size="13" lengthAdjust="spacing" textLength="107.104" x="656.97" y="1221.5872">&#8226; Curso del plan.</text><text fill="#000000" font-family="sans-serif" font-size="13" lengthAdjust="spacing" textLength="222.9995" x="656.97" y="1236.8977">&#8226; Uno o varios grados (multi-grado</text><text fill="#000000" font-family="sans-serif" font-size="13" lengthAdjust="spacing" textLength="187.1289" x="665.1966" y="1252.2083">para asignaturas compartidas</text><text fill="#000000" font-family="sans-serif" font-size="13" lengthAdjust="spacing" textLength="94.4785" x="665.1966" y="1267.5188">como "Ingl&#233;s").</text></g><!--link *start*ASIGNATURA_ABIERTA_COMP to FormularioAsig--><g class="link" data-entity-1="ent0014" data-entity-2="ent0006" data-link-type="dependency" data-source-line="58" id="lnk15"><path d="M528.97,1112.2472 C528.97,1126.9272 528.97,1149.8572 528.97,1173.1272" fill="none" id="*start*ASIGNATURA_ABIERTA_COMP-to-FormularioAsig" style="stroke:#008000;stroke-width:1;"/><polygon fill="#008000" points="528.97,1178.1272,532.97,1169.1272,528.97,1173.1272,524.97,1169.1272,528.97,1178.1272" style="stroke:#008000;stroke-width:1;stroke-linejoin:miter;stroke-miterlimit:10;"/></g><!--link FormularioAsig to *end*ASIGNATURA_ABIERTA_COMP--><g class="link" data-entity-1="ent0006" data-entity-2="ent0016" data-link-type="dependency" data-source-line="70" id="lnk17"><path d="M528.97,1255.1572 C528.97,1278.1472 528.97,1300.7372 528.97,1315.8872" fill="none" id="FormularioAsig-to-*end*ASIGNATURA_ABIERTA_COMP" style="stroke:#008000;stroke-width:1;"/><polygon fill="#008000" points="528.97,1320.8872,532.97,1311.8872,528.97,1315.8872,524.97,1311.8872,528.97,1320.8872" style="stroke:#008000;stroke-width:1;stroke-linejoin:miter;stroke-miterlimit:10;"/></g></g><g class="entity" data-qualified-name="SISTEMA_DISPONIBLE_FINAL" data-source-line="13" id="ent0004"><rect fill="#F1F1F1" height="76.4883" rx="12.5" ry="12.5" style="stroke:#181818;stroke-width:0.5;" width="182.4268" x="926.8" y="736.1089"/><line style="stroke:#181818;stroke-width:0.5;" x1="926.8" x2="1109.2268" y1="782.5972" y2="782.5972"/><text fill="#000000" font-family="sans-serif" font-size="14" lengthAdjust="spacing" textLength="142.4268" x="946.8" y="764.6441">SISTEMA_DISPONIBLE</text></g><g class="start_entity" data-qualified-name=".start." data-source-line="15" id="ent0007"><ellipse cx="676.02" cy="95.1289" fill="#222222" rx="10" ry="10" style="stroke:#222222;stroke-width:1;"/></g><g class="end_entity" data-qualified-name=".end." data-source-line="90" id="ent0021"><ellipse cx="1018.02" cy="923.5989" fill="none" rx="11" ry="11" style="stroke:#222222;stroke-width:1;"/><ellipse cx="1018.02" cy="923.5989" fill="#222222" rx="6" ry="6" style="stroke:#222222;stroke-width:1;"/></g><!--link *start* to SISTEMA_DISPONIBLE_INICIAL--><g class="link" data-entity-1="ent0007" data-entity-2="ent0001" data-link-type="dependency" data-source-line="15" id="lnk8"><path d="M676.02,105.3189 C676.02,125.4589 676.02,166.3289 676.02,199.6789" fill="none" id="*start*-to-SISTEMA_DISPONIBLE_INICIAL" style="stroke:#008000;stroke-width:1;"/><polygon fill="#008000" points="676.02,204.6789,680.02,195.6789,676.02,199.6789,672.02,195.6789,676.02,204.6789" style="stroke:#008000;stroke-width:1;stroke-linejoin:miter;stroke-miterlimit:10;"/></g><!--link SISTEMA_DISPONIBLE_INICIAL to CATALOGO_ASIG_COMP--><g class="link" data-entity-1="ent0001" data-entity-2="ent0002" data-link-type="dependency" data-source-line="18" id="lnk9"><path d="M676.02,281.9789 C676.02,308.4389 676.02,340.1789 676.02,376.3989" fill="none" id="SISTEMA_DISPONIBLE_INICIAL-to-CATALOGO_ASIG_COMP" style="stroke:#008000;stroke-width:1;"/><polygon fill="#008000" points="676.02,381.3989,680.02,372.3989,676.02,376.3989,672.02,372.3989,676.02,381.3989" style="stroke:#008000;stroke-width:1;stroke-linejoin:miter;stroke-miterlimit:10;"/><path d="M204.02,251.6889 L204.02,326.6889 L480.02,326.6889 L480.02,261.6889 L470.02,251.6889 L204.02,251.6889" fill="#FEFFDD" style="stroke:#181818;stroke-width:0.5;"/><path d="M470.02,251.6889 L470.02,261.6889 L480.02,261.6889 L470.02,251.6889" fill="#FEFFDD" style="stroke:#181818;stroke-width:0.5;"/><text fill="#000000" font-family="sans-serif" font-size="13" font-weight="700" lengthAdjust="spacing" textLength="118.6313" x="220.02" y="279.2573">Secretaria solicita</text><text fill="#000000" font-family="sans-serif" font-size="13" lengthAdjust="spacing" textLength="59.1475" x="342.7646" y="279.2573">gestionar</text><text fill="#000000" font-family="sans-serif" font-size="13" lengthAdjust="spacing" textLength="169.5649" x="220.02" y="294.5678">el cat&#225;logo de asignaturas.</text><text fill="#000000" font-family="sans-serif" font-size="13" font-weight="700" lengthAdjust="spacing" textLength="108.2847" x="220.02" y="309.8784">Sistema permite</text><text fill="#000000" font-family="sans-serif" font-size="13" lengthAdjust="spacing" textLength="123.0938" x="332.4179" y="309.8784">el acceso al listado.</text><text fill="#000000" font-family="sans-serif" font-size="13" lengthAdjust="spacing" textLength="169.0254" x="496.5117" y="294.5678">abrirCatalogoAsignaturas()</text></g><!--link CATALOGO_ASIG_COMP to ASIGNATURA_ABIERTA_COMP--><g class="link" data-entity-1="ent0002" data-entity-2="ent0003" data-link-type="dependency" data-source-line="48" id="lnk13"><path d="M549,636.3889 C549,748.7589 549,907.9789 549,1029.3789" fill="none" id="CATALOGO_ASIG_COMP-to-ASIGNATURA_ABIERTA_COMP" style="stroke:#008000;stroke-width:1;"/><polygon fill="#008000" points="549,1034.3789,553,1025.3789,549,1029.3789,545,1025.3789,549,1034.3789" style="stroke:#008000;stroke-width:1;stroke-linejoin:miter;stroke-miterlimit:10;"/><path d="M6,755.3889 L6,830.3889 L285,830.3889 L285,765.3889 L275,755.3889 L6,755.3889" fill="#FEFFDD" style="stroke:#181818;stroke-width:0.5;"/><path d="M275,755.3889 L275,765.3889 L285,765.3889 L275,755.3889" fill="#FEFFDD" style="stroke:#181818;stroke-width:0.5;"/><text fill="#000000" font-family="sans-serif" font-size="13" font-weight="700" lengthAdjust="spacing" textLength="118.6313" x="22" y="782.9573">Secretaria solicita</text><text fill="#000000" font-family="sans-serif" font-size="13" lengthAdjust="spacing" textLength="67.3105" x="144.7446" y="782.9573">dar de alta</text><text fill="#000000" font-family="sans-serif" font-size="13" lengthAdjust="spacing" textLength="150.6426" x="22" y="798.2678">o editar una asignatura.</text><text fill="#000000" font-family="sans-serif" font-size="13" font-weight="700" lengthAdjust="spacing" textLength="108.2847" x="22" y="813.5784">Sistema permite</text><text fill="#000000" font-family="sans-serif" font-size="13" lengthAdjust="spacing" textLength="126.2358" x="134.3979" y="813.5784">el acceso a su ficha.</text><text fill="#000000" font-family="sans-serif" font-size="13" lengthAdjust="spacing" textLength="236.4883" x="301.6338" y="798.2678">crearAsignatura() / editarAsignatura()</text></g><!--link ASIGNATURA_ABIERTA_COMP to CATALOGO_ASIG_COMP--><g class="link" data-entity-1="ent0003" data-entity-2="ent0002" data-link-type="dependency" data-source-line="74" id="lnk18"><path d="M674.93,1034.4589 C674.93,913.0789 674.93,753.8589 674.93,641.4789" fill="none" id="ASIGNATURA_ABIERTA_COMP-to-CATALOGO_ASIG_COMP" style="stroke:#008000;stroke-width:1;"/><polygon fill="#008000" points="674.93,636.4789,670.93,645.4789,674.93,641.4789,678.93,645.4789,674.93,636.4789" style="stroke:#008000;stroke-width:1;stroke-linejoin:miter;stroke-miterlimit:10;"/><path d="M231.93,840.4689 L231.93,915.4689 L521.93,915.4689 L521.93,850.4689 L511.93,840.4689 L231.93,840.4689" fill="#FEFFDD" style="stroke:#181818;stroke-width:0.5;"/><path d="M511.93,840.4689 L511.93,850.4689 L521.93,850.4689 L511.93,840.4689" fill="#FEFFDD" style="stroke:#181818;stroke-width:0.5;"/><text fill="#000000" font-family="sans-serif" font-size="13" font-weight="700" lengthAdjust="spacing" textLength="69.8687" x="247.93" y="868.0373">GUARDAR:</text><text fill="#000000" font-family="sans-serif" font-size="13" font-weight="700" lengthAdjust="spacing" textLength="108.2847" x="247.93" y="883.3478">Sistema permite</text><text fill="#000000" font-family="sans-serif" font-size="13" lengthAdjust="spacing" textLength="137.2046" x="360.3279" y="883.3478">persistir la asignatura</text><text fill="#000000" font-family="sans-serif" font-size="13" lengthAdjust="spacing" textLength="216.0742" x="247.93" y="898.6584">con sus grados y vuelve al listado.</text><text fill="#000000" font-family="sans-serif" font-size="13" lengthAdjust="spacing" textLength="125.9438" x="538.5325" y="883.3478">guardarAsignatura()</text></g><!--link ASIGNATURA_ABIERTA_COMP to CATALOGO_ASIG_COMP--><g class="link" data-entity-1="ent0003" data-entity-2="ent0002" data-link-type="dependency" data-source-line="81" id="lnk19"><path d="M800.87,1034.4589 C800.87,913.0789 800.87,753.8589 800.87,641.4789" fill="none" id="ASIGNATURA_ABIERTA_COMP-to-CATALOGO_ASIG_COMP-1" style="stroke:#FF0000;stroke-width:1;"/><polygon fill="#FF0000" points="800.87,636.4789,796.87,645.4789,800.87,641.4789,804.87,645.4789,800.87,636.4789" style="stroke:#FF0000;stroke-width:1;stroke-linejoin:miter;stroke-miterlimit:10;"/><text fill="#000000" font-family="sans-serif" font-size="13" lengthAdjust="spacing" textLength="128.6543" x="811.87" y="875.6925">cancelarAsignatura()</text><path d="M956.5243,840.4689 L956.5243,900.4689 L1228.5243,900.4689 L1228.5243,850.4689 L1218.5243,840.4689 L956.5243,840.4689" fill="#FEFFDD" style="stroke:#181818;stroke-width:0.5;"/><path d="M1218.5243,840.4689 L1218.5243,850.4689 L1228.5243,850.4689 L1218.5243,840.4689" fill="#FEFFDD" style="stroke:#181818;stroke-width:0.5;"/><text fill="#000000" font-family="sans-serif" font-size="13" font-weight="700" lengthAdjust="spacing" textLength="75.207" x="972.5243" y="868.0373">CANCELAR:</text><text fill="#000000" font-family="sans-serif" font-size="13" font-weight="700" lengthAdjust="spacing" textLength="108.2847" x="972.5243" y="883.3478">Sistema permite</text><text fill="#000000" font-family="sans-serif" font-size="13" lengthAdjust="spacing" textLength="119.3232" x="1084.9222" y="883.3478">descartar cambios.</text></g><!--link CATALOGO_ASIG_COMP to SISTEMA_DISPONIBLE_FINAL--><g class="link" data-entity-1="ent0002" data-entity-2="ent0004" data-link-type="dependency" data-source-line="88" id="lnk20"><path d="M1015.15,636.5589 C1015.15,672.6889 1015.15,704.3189 1015.15,730.7289" fill="none" id="CATALOGO_ASIG_COMP-to-SISTEMA_DISPONIBLE_FINAL" style="stroke:#008000;stroke-width:1;"/><polygon fill="#008000" points="1015.15,735.7289,1019.15,726.7289,1015.15,730.7289,1011.15,726.7289,1015.15,735.7289" style="stroke:#008000;stroke-width:1;stroke-linejoin:miter;stroke-miterlimit:10;"/><text fill="#000000" font-family="sans-serif" font-size="13" lengthAdjust="spacing" textLength="250.5293" x="754.15" y="672.7073">completarGestionCatalogoAsignaturas()</text></g><!--link SISTEMA_DISPONIBLE_FINAL to *end*--><g class="link" data-entity-1="ent0004" data-entity-2="ent0021" data-link-type="dependency" data-source-line="90" id="lnk22"><path d="M1018.02,812.7889 C1018.02,845.7789 1018.02,886.2289 1018.02,907.1789" fill="none" id="SISTEMA_DISPONIBLE_FINAL-to-*end*" style="stroke:#0000FF;stroke-width:1;"/><polygon fill="#0000FF" points="1018.02,912.1789,1022.02,903.1789,1018.02,907.1789,1014.02,903.1789,1018.02,912.1789" style="stroke:#0000FF;stroke-width:1;stroke-linejoin:miter;stroke-miterlimit:10;"/></g><?plantuml-src bLR1Rjiu4BthAmRUGvt2JhfNemYWA8eXmBM3s3aLXK5BOuK8HRea5JHOBB3_q2_etlQmfzxswZ_fb-nGSYp9bjpKC62B70vdthmt8ykjG1YZiLn9fY5WTljDg5H1Wk0RdafcSysCvxs1uN08mMnw4utlx_mWsdwTmdK8uNmHJMPkqpEFN6wOPXb8bQ313Vp-xbrjLJFvUBmgk4Jxl45GsZwesiOjIn8kKp9tjr_ZcaiUy-rtwM8BZMM9CXxzM8HvD5-47_pbTJI_dKsZgqcuZAPH4FaJe0ypq3kswEtE1lx2dyp6iwK_ZyRBOFRX5ceVTxPXCVKNbFvywLz5uTrYzkAbsjhj-7LNpiknHQyx-fjeMiRU7RttyUqd67xyBTM8yjFmyWG83hzGMiqI1an0jlsUv49v9r2h-sq1Q0HifRacjZ17bXfH-cUUL9IJmBK59Lrr7psNnllLvHnZZPPfpi0eGRMqxFt5wXBI5_eLXYWWhhEGLSxFzvwuiPWnsA3EkCN22vrZSOn6kHG5B_Xnxg5Cm0Na80XKjY6IiOoZj0gujAYbkwE2f9CIVnHNbzkJqdajww98k-K3vL2XtCd3OXtxAEqAy3HF7mYzTPlL2p5hA6Gv0QXBB4KHpB4vVd76bB61cCeIKxuyLGEwBrjf740OBEQ3lNNCzFPRJF10_-RgOaRVspDuXfGOfFhchAn31QrxQW7bTBv48XGyurJtQfNeqqIXaMy7VrxSx6rpoMeWdBTXziG4JyhZdtEa2y4IAt1lgd6D6cNCAT1-ngpU_Xld1Eu031eYAveAhOrMQ-AT9coTBy60PzJ22Eu19DniK1fs1DgVZf7pV3KCxWkM2yikC2aRdDT2m3gONSrc10HG4qwu0F9g3p3-POacD1jsKHQcQkUr5UgV2nHC3ciUFx2wG4ytqhe0RvJEg1YQ5tmgn1ScrMoeKkqGN_Dyc_0EB5v1GkecMYLvpFLeR_xZhxyXA9K6_Ur_DBwKar6fkVE6cTCVRRK9hsaOvDgKFMiZc6pktHED5L6RmZQbM1rvSs7vi7ZoghdcHcozKL1NA3XBeZ0rCrfLq8jaAhR_c5why0-AKSUPSD_nl52RAS8s1UUzhZfNvuTTioVDcKvUo-ZnlNztxT-DN95EiPF-6rhcskct0iOhKP0KzXxIPtZAKJnXnw0vaPd6v4HUCPCnYhR4ThniPXRuqo2Sl28rUXSZNZcrnYnR4JUQOx4iJcCC_gJ_TBwmZ0eQ2QUFtJjb-ok2r-c1hbc977Vi-Hy0?></g></svg>