<?plantuml 1.2026.2?><svg xmlns="http://www.w3.org/2000/svg" xmlns:xlink="http://www.w3.org/1999/xlink" contentStyleType="text/css" data-diagram-type="DESCRIPTION" height="525px" preserveAspectRatio="none" style="width:572px;height:525px;background:#FFFFFF;" version="1.1" viewBox="0 0 572 525" width="572px" zoomAndPan="magnify"><defs/><g><!--cluster editarSolicitudDispensaDirector--><g class="cluster" data-qualified-name="editarSolicitudDispensaDirector" data-source-line="5" id="ent0003"><path d="M24.53,106.49 L280.4353,106.49 A3.75,3.75 0 0 1 282.9353,108.99 L289.9353,128.9783 L492.53,128.9783 A2.5,2.5 0 0 1 495.03,131.4783 L495.03,515.94 A2.5,2.5 0 0 1 492.53,518.44 L24.53,518.44 A2.5,2.5 0 0 1 22.03,515.94 L22.03,108.99 A2.5,2.5 0 0 1 24.53,106.49" fill="none" style="stroke:#000000;stroke-width:1.5;"/><line style="stroke:#000000;stroke-width:1.5;" x1="22.03" x2="289.9353" y1="128.9783" y2="128.9783"/><text fill="#000000" font-family="sans-serif" font-size="14" font-weight="bold" lengthAdjust="spacing" textLength="254.9053" x="26.03" y="122.0252">editarSolicitudDispensa() [Director]</text></g><!--entity EditarSolicitudDispensaDirectorView--><g class="entity" data-qualified-name="editarSolicitudDispensaDirector.EditarSolicitudDispensaDirectorView" data-source-line="6" id="ent0004"><rect fill="#629EF9" height="36.4883" rx="2.5" ry="2.5" style="stroke:#181818;stroke-width:0.5;" width="265.752" x="38.15" y="141.49"/><text fill="#000000" font-family="sans-serif" font-size="14" lengthAdjust="spacing" textLength="245.752" x="48.15" y="165.0252">EditarSolicitudDispensaDirectorView</text></g><!--entity SolicitudDispensaController--><g class="entity" data-qualified-name="editarSolicitudDispensaDirector.SolicitudDispensaController" data-source-line="7" id="ent0005"><rect fill="#B5BD68" height="36.4883" rx="2.5" ry="2.5" style="stroke:#181818;stroke-width:0.5;" width="208.1865" x="38.94" y="254.98"/><text fill="#000000" font-family="sans-serif" font-size="14" lengthAdjust="spacing" textLength="188.1865" x="48.94" y="278.5152">SolicitudDispensaController</text></g><!--entity SolicitudDispensaRepository--><g class="entity" data-qualified-name="editarSolicitudDispensaDirector.SolicitudDispensaRepository" data-source-line="8" id="ent0006"><rect fill="#F2AC4E" height="36.4883" rx="2.5" ry="2.5" style="stroke:#181818;stroke-width:0.5;" width="212.1514" x="37.95" y="368.46"/><text fill="#000000" font-family="sans-serif" font-size="14" lengthAdjust="spacing" textLength="192.1514" x="47.95" y="391.9952">SolicitudDispensaRepository</text></g><!--entity SolicitudDispensa--><g class="entity" data-qualified-name="editarSolicitudDispensaDirector.SolicitudDispensa" data-source-line="9" id="ent0007"><rect fill="#F2AC4E" height="36.4883" rx="2.5" ry="2.5" style="stroke:#181818;stroke-width:0.5;" width="140.0254" x="74.02" y="465.95"/><text fill="#000000" font-family="sans-serif" font-size="14" lengthAdjust="spacing" textLength="120.0254" x="84.02" y="489.4852">SolicitudDispensa</text></g><!--entity ConsultarSolicitudesDispensas--><g class="entity" data-qualified-name="ConsultarSolicitudesDispensas" data-source-line="3" id="ent0002"><rect fill="#CDEBA5" height="36.4883" rx="2.5" ry="2.5" style="stroke:#181818;stroke-width:0.5;" width="328.0547" x="7" y="7"/><text fill="#000000" font-family="sans-serif" font-size="14" lengthAdjust="spacing" textLength="308.0547" x="17" y="30.5352">:Collaboration ConsultarSolicitudesDispensas</text></g><!--link ConsultarSolicitudesDispensas to EditarSolicitudDispensaDirectorView--><g class="link" data-entity-1="ent0002" data-entity-2="ent0004" data-link-type="dependency" data-source-line="12" id="lnk8"><path d="M171.03,43.84 C171.03,69.18 171.03,109.68 171.03,135.06" fill="none" id="ConsultarSolicitudesDispensas-to-EditarSolicitudDispensaDirectorView" style="stroke:#181818;stroke-width:1;"/><polygon fill="#181818" points="171.03,141.06,175.03,132.06,171.03,136.06,167.03,132.06,171.03,141.06" style="stroke:#181818;stroke-width:1;"/><text fill="#000000" font-family="sans-serif" font-size="13" lengthAdjust="spacing" textLength="210.1074" x="172.03" y="87.0584">editarSolicitudDispensa(solicitud)</text></g><!--link EditarSolicitudDispensaDirectorView to SolicitudDispensaController--><g class="link" data-entity-1="ent0004" data-entity-2="ent0005" data-link-type="dependency" data-source-line="14" id="lnk9"><path d="M166.65,178.15 C161.43,198.97 154.1798,227.8003 148.9298,248.7303" fill="none" id="EditarSolicitudDispensaDirectorView-to-SolicitudDispensaController" style="stroke:#181818;stroke-width:1;"/><polygon fill="#181818" points="147.47,254.55,153.5395,246.7936,148.6865,249.7002,145.7799,244.8472,147.47,254.55" style="stroke:#181818;stroke-width:1;"/><text fill="#000000" font-family="sans-serif" font-size="13" lengthAdjust="spacing" textLength="404.4219" x="159.71" y="221.5484">modificarVeredicto(solicitudId, estado, observaciones) : boolean</text></g><!--link SolicitudDispensaController to SolicitudDispensaRepository--><g class="link" data-entity-1="ent0005" data-entity-2="ent0006" data-link-type="dependency" data-source-line="16" id="lnk10"><path d="M143.19,291.64 C143.37,312.46 143.6255,341.1102 143.8155,362.0402" fill="none" id="SolicitudDispensaController-to-SolicitudDispensaRepository" style="stroke:#181818;stroke-width:1;"/><polygon fill="#181818" points="143.87,368.04,147.7881,359.0041,143.8246,363.0402,139.7885,359.0767,143.87,368.04" style="stroke:#181818;stroke-width:1;"/><text fill="#000000" font-family="sans-serif" font-size="13" lengthAdjust="spacing" textLength="186.2656" x="144.59" y="335.0284">actualizar(solicitud) : boolean</text></g><!--link SolicitudDispensaRepository to SolicitudDispensa--><g class="link" data-entity-1="ent0006" data-entity-2="ent0007" data-link-type="association" data-source-line="18" id="lnk11"><path d="M144.03,405.22 C144.03,422.34 144.03,448.28 144.03,465.47" fill="none" id="SolicitudDispensaRepository-SolicitudDispensa" style="stroke:#181818;stroke-width:1;"/></g><?plantuml-src ZP8_QyCm4CLtVOh3NMA8bz249aCWjHtesaAMqk5iNyCHHMSakSKj_UwLXn2JFyRQ9DxlFTsJt85DZHQFeDcGRsk2MdJRRPIoL7eqUqtma6RvysOEqIeLhR4GYvx5G2h6DTgZVHFD9Vkc8fUngyauT16W6rOeLMDvm3q1LTpNd1GPTtSGspb5TpIJ6DvFkey8VXM4rRlwOhRCjql8XnDsJD-NP34lgiKJN35X9cz33sGlYUriapxcryGhrU8unBHZ2VMdr61ta2JhCKF1wbwv4tSwYPKQuzGb3fGHaevIyIUNQ7TaGseWpo4lrHJ8UQna2b8uibzOXZz4BWvW8Q89ZL93_ZVppzK66onzWvf_qFQ66xJluKbound-0G00?></g></svg>