<?plantuml 1.2026.2?><svg xmlns="http://www.w3.org/2000/svg" xmlns:xlink="http://www.w3.org/1999/xlink" contentStyleType="text/css" data-diagram-type="DESCRIPTION" height="424px" preserveAspectRatio="none" style="width:828px;height:424px;background:#FFFFFF;" version="1.1" viewBox="0 0 828 424" width="828px" zoomAndPan="magnify"><defs/><g><!--cluster cerrarSesionClase--><g class="cluster" data-qualified-name="cerrarSesionClase" data-source-line="6" id="ent0004"><path d="M343.88,6 L483.9161,6 A3.75,3.75 0 0 1 486.4161,8.5 L493.4161,28.4883 L629.88,28.4883 A2.5,2.5 0 0 1 632.38,30.9883 L632.38,415.45 A2.5,2.5 0 0 1 629.88,417.95 L343.88,417.95 A2.5,2.5 0 0 1 341.38,415.45 L341.38,8.5 A2.5,2.5 0 0 1 343.88,6" fill="none" style="stroke:#000000;stroke-width:1.5;"/><line style="stroke:#000000;stroke-width:1.5;" x1="341.38" x2="493.4161" y1="28.4883" y2="28.4883"/><text fill="#000000" font-family="sans-serif" font-size="14" font-weight="bold" lengthAdjust="spacing" textLength="139.0361" x="345.38" y="21.5352">cerrarSesionClase()</text></g><!--entity CerrarSesionClaseView--><g class="entity" data-qualified-name="cerrarSesionClase.CerrarSesionClaseView" data-source-line="7" id="ent0005"><rect fill="#629EF9" height="36.4883" rx="2.5" ry="2.5" style="stroke:#181818;stroke-width:0.5;" width="174.4033" x="357.18" y="41"/><text fill="#000000" font-family="sans-serif" font-size="14" lengthAdjust="spacing" textLength="154.4033" x="367.18" y="64.5352">CerrarSesionClaseView</text></g><!--entity SesionDeClaseController--><g class="entity" data-qualified-name="cerrarSesionClase.SesionDeClaseController" data-source-line="8" id="ent0006"><rect fill="#B5BD68" height="36.4883" rx="2.5" ry="2.5" style="stroke:#181818;stroke-width:0.5;" width="186.6602" x="357.05" y="154.49"/><text fill="#000000" font-family="sans-serif" font-size="14" lengthAdjust="spacing" textLength="166.6602" x="367.05" y="178.0252">SesionDeClaseController</text></g><!--entity SesionDeClaseRepository--><g class="entity" data-qualified-name="cerrarSesionClase.SesionDeClaseRepository" data-source-line="9" id="ent0007"><rect fill="#F2AC4E" height="36.4883" rx="2.5" ry="2.5" style="stroke:#181818;stroke-width:0.5;" width="190.625" x="357.07" y="267.97"/><text fill="#000000" font-family="sans-serif" font-size="14" lengthAdjust="spacing" textLength="170.625" x="367.07" y="291.5052">SesionDeClaseRepository</text></g><!--entity SesionDeClase--><g class="entity" data-qualified-name="cerrarSesionClase.SesionDeClase" data-source-line="10" id="ent0008"><rect fill="#F2AC4E" height="36.4883" rx="2.5" ry="2.5" style="stroke:#181818;stroke-width:0.5;" width="118.499" x="393.13" y="365.46"/><text fill="#000000" font-family="sans-serif" font-size="14" lengthAdjust="spacing" textLength="98.499" x="403.13" y="388.9952">SesionDeClase</text></g><!--entity SesionAsistenciaAbierta--><g class="entity" data-qualified-name="SesionAsistenciaAbierta" data-source-line="3" id="ent0002"><rect fill="#CDEBA5" height="36.4883" rx="2.5" ry="2.5" style="stroke:#181818;stroke-width:0.5;" width="194.7676" x="7" y="41"/><text fill="#000000" font-family="sans-serif" font-size="14" lengthAdjust="spacing" textLength="174.7676" x="17" y="64.5352">:Sesion Asistencia Abierta</text></g><!--entity AsistenciasAbierto--><g class="entity" data-qualified-name="AsistenciasAbierto" data-source-line="4" id="ent0003"><rect fill="#CDEBA5" height="36.4883" rx="2.5" ry="2.5" style="stroke:#181818;stroke-width:0.5;" width="154.5313" x="668.12" y="41"/><text fill="#000000" font-family="sans-serif" font-size="14" lengthAdjust="spacing" textLength="134.5313" x="678.12" y="64.5352">:Asistencias Abierto</text></g><!--link SesionAsistenciaAbierta to CerrarSesionClaseView--><g class="link" data-entity-1="ent0002" data-entity-2="ent0005" data-link-type="dependency" data-source-line="13" id="lnk9"><path d="M201.81,59.24 C250.68,59.24 303.38,59.24 350.8,59.24" fill="none" id="SesionAsistenciaAbierta-to-CerrarSesionClaseView" style="stroke:#181818;stroke-width:1;"/><polygon fill="#181818" points="356.8,59.24,347.8,55.24,351.8,59.24,347.8,63.24,356.8,59.24" style="stroke:#181818;stroke-width:1;"/><text fill="#000000" font-family="sans-serif" font-size="13" lengthAdjust="spacing" textLength="119.9771" x="219.97" y="52.8084">cerrarSesionClase()</text></g><!--link CerrarSesionClaseView to SesionDeClaseController--><g class="link" data-entity-1="ent0005" data-entity-2="ent0006" data-link-type="dependency" data-source-line="15" id="lnk10"><path d="M445.32,77.66 C446.44,98.48 447.9894,127.1386 449.1094,148.0686" fill="none" id="CerrarSesionClaseView-to-SesionDeClaseController" style="stroke:#181818;stroke-width:1;"/><polygon fill="#181818" points="449.43,154.06,452.9434,144.8591,449.1628,149.0671,444.9548,145.2866,449.43,154.06" style="stroke:#181818;stroke-width:1;"/><text fill="#000000" font-family="sans-serif" font-size="13" lengthAdjust="spacing" textLength="222.5107" x="448.74" y="121.0584">confirmarCierre(sesionId) : boolean</text></g><!--link SesionDeClaseController to SesionDeClaseRepository--><g class="link" data-entity-1="ent0006" data-entity-2="ent0007" data-link-type="dependency" data-source-line="17" id="lnk11"><path d="M450.7,191.15 C451.07,211.97 451.5811,240.621 451.9611,261.551" fill="none" id="SesionDeClaseController-to-SesionDeClaseRepository" style="stroke:#181818;stroke-width:1;"/><polygon fill="#181818" points="452.07,267.55,455.906,258.4789,451.9792,262.5508,447.9073,258.6241,452.07,267.55" style="stroke:#181818;stroke-width:1;"/><text fill="#000000" font-family="sans-serif" font-size="13" lengthAdjust="spacing" textLength="172.9165" x="452.5" y="234.5384">actualizar(sesion) : boolean</text></g><!--link SesionDeClaseRepository to SesionDeClase--><g class="link" data-entity-1="ent0007" data-entity-2="ent0008" data-link-type="association" data-source-line="19" id="lnk12"><path d="M452.38,304.73 C452.38,321.85 452.38,347.79 452.38,364.98" fill="none" id="SesionDeClaseRepository-SesionDeClase" style="stroke:#181818;stroke-width:1;"/></g><!--link CerrarSesionClaseView to AsistenciasAbierto--><g class="link" data-entity-1="ent0005" data-entity-2="ent0003" data-link-type="dependency" data-source-line="21" id="lnk13"><path d="M531.85,59.24 C574.81,59.24 620.13,59.24 661.7,59.24" fill="none" id="CerrarSesionClaseView-to-AsistenciasAbierto" style="stroke:#181818;stroke-width:1;"/><polygon fill="#181818" points="667.7,59.24,658.7,55.24,662.7,59.24,658.7,63.24,667.7,59.24" style="stroke:#181818;stroke-width:1;"/><text fill="#000000" font-family="sans-serif" font-size="13" lengthAdjust="spacing" textLength="100.7119" x="549.85" y="52.8084">volverAListado()</text></g><?plantuml-src ZP9DJyCm38Rl-HLMkMo7NYOsiHwGIjT9I9n0ukwsPegM9PKJXWhYlvDs7ItzaF0jzkl7zglOezGbCfv0IKskAWbAewhw8GHJxb0V5C5DiaiVuZK4qGjPQJJ4Lbf7EfS8SIQ97GQ05YxLhjZM9acTohOCqp1w-JOjH8dv4Gy4EJ4ZNwOa2YtL3S4ekrW6y2N0Hs_mPhLDzrj8Xk9NIHz3RRREYirTUywE6brYj6EZ5F5GlL_5oMtwL_rCfR7I6Qx-enRVGinu1o67zzDRGnCHJDmln7H7M7ZOp5dmopFwJV89EV4RC2rietyibhwM6QC8zNNTCIGS3kYSkF8nT--ev2ToYvu7zvh3SE3Pt8crN-DF1Bs8u6pKcJX-yYeiZFVh1m00?></g></svg>