<svg xmlns="http://www.w3.org/2000/svg" xmlns:xlink="http://www.w3.org/1999/xlink" contentStyleType="text/css" data-diagram-type="SEQUENCE" height="770px" preserveAspectRatio="none" style="width:1052px;height:770px;background:#FFFFFF;" version="1.1" viewBox="0 0 1052 770" width="1052px" zoomAndPan="magnify"><?plantuml 1.2026.5?><defs/><g><g class="title" data-source-line="1"><text fill="#000000" font-family="sans-serif" font-size="14" font-weight="700" lengthAdjust="spacing" textLength="206.541" x="419.3921" y="28.5352">Dise&#241;o &#8212; consultarUsuario()</text></g><rect fill="#E8F0FE" height="719.5215" style="stroke:#181818;stroke-width:0.5;" width="300.2627" x="162.6079" y="43.4883"/><text fill="#000000" font-family="sans-serif" font-size="13" font-weight="700" lengthAdjust="spacing" textLength="145.8945" x="239.792" y="56.0566">Frontend (React + TS)</text><rect fill="#FFF4E0" height="719.5215" style="stroke:#181818;stroke-width:0.5;" width="452.9468" x="518.4146" y="43.4883"/><text fill="#000000" font-family="sans-serif" font-size="13" font-weight="700" lengthAdjust="spacing" textLength="119.2471" x="685.2644" y="56.0566">Backend (FastAPI)</text><rect fill="none" height="325.3711" style="stroke:#000000;stroke-width:1.5;" width="1026.3252" x="10" y="341.1504"/><g class="participant-lifeline" data-entity-uid="part1" data-qualified-name="A" data-source-line="3" id="part1-lifeline"><g><title>Administrador</title><rect fill="#000000" fill-opacity="0.00000" height="564.5449" width="8" x="67.6479" y="118.9766"/><line style="stroke:#181818;stroke-width:0.5;stroke-dasharray:5,5;" x1="71" x2="71" y1="118.9766" y2="683.5215"/></g></g><g class="participant-lifeline" data-entity-uid="part2" data-qualified-name="CP" data-source-line="6" id="part2-lifeline"><g><title>ConsultarUsuarioPage</title><rect fill="#000000" fill-opacity="0.00000" height="564.5449" width="8" x="244.1948" y="118.9766"/><line style="stroke:#181818;stroke-width:0.5;stroke-dasharray:5,5;" x1="247.6079" x2="247.6079" y1="118.9766" y2="683.5215"/></g></g><g class="participant-lifeline" data-entity-uid="part3" data-qualified-name="US" data-source-line="7" id="part3-lifeline"><g><title>usuariosService</title><rect fill="#000000" fill-opacity="0.00000" height="564.5449" width="8" x="395.3262" y="118.9766"/><line style="stroke:#181818;stroke-width:0.5;stroke-dasharray:5,5;" x1="398.7817" x2="398.7817" y1="118.9766" y2="683.5215"/></g></g><g class="participant-lifeline" data-entity-uid="part4" data-qualified-name="UR" data-source-line="11" id="part4-lifeline"><g><title>UsuariosRouter</title><rect fill="#000000" fill-opacity="0.00000" height="564.5449" width="8" x="588.1104" y="118.9766"/><line style="stroke:#181818;stroke-width:0.5;stroke-dasharray:5,5;" x1="591.4146" x2="591.4146" y1="118.9766" y2="683.5215"/></g></g><g class="participant-lifeline" data-entity-uid="part5" data-qualified-name="RR" data-source-line="12" id="part5-lifeline"><g><title>require_rol</title><rect fill="#000000" fill-opacity="0.00000" height="564.5449" width="8" x="771.6143" y="118.9766"/><line style="stroke:#181818;stroke-width:0.5;stroke-dasharray:5,5;" x1="774.625" x2="774.625" y1="118.9766" y2="683.5215"/></g></g><g class="participant-lifeline" data-entity-uid="part6" data-qualified-name="URe" data-source-line="13" id="part6-lifeline"><g><title>UsuarioRepository</title><rect fill="#000000" fill-opacity="0.00000" height="564.5449" width="8" x="894.4824" y="118.9766"/><line style="stroke:#181818;stroke-width:0.5;stroke-dasharray:5,5;" x1="897.6035" x2="897.6035" y1="118.9766" y2="683.5215"/></g></g><g class="participant-lifeline" data-entity-uid="part7" data-qualified-name="DB" data-source-line="16" id="part7-lifeline"><g><title>SQLite</title><rect fill="#000000" fill-opacity="0.00000" height="564.5449" width="8" x="997.8433" y="118.9766"/><line style="stroke:#181818;stroke-width:0.5;stroke-dasharray:5,5;" x1="1001.3613" x2="1001.3613" y1="118.9766" y2="683.5215"/></g></g><g class="participant participant-head" data-entity-uid="part1" data-qualified-name="A" data-source-line="3" id="part1-head"><text fill="#000000" font-family="sans-serif" font-size="14" lengthAdjust="spacing" textLength="97.2959" x="20" y="116.0234">Administrador</text><ellipse cx="71.6479" cy="50.9883" fill="#E2E2F0" rx="8" ry="8" style="stroke:#181818;stroke-width:0.5;"/><path d="M71.6479,58.9883 L71.6479,85.9883 M58.6479,66.9883 L84.6479,66.9883 M71.6479,85.9883 L58.6479,100.9883 M71.6479,85.9883 L84.6479,100.9883" fill="none" style="stroke:#181818;stroke-width:0.5;"/></g><g class="participant participant-tail" data-entity-uid="part1" data-qualified-name="A" data-source-line="3" id="part1-tail"><text fill="#000000" font-family="sans-serif" font-size="14" lengthAdjust="spacing" textLength="97.2959" x="20" y="696.0566">Administrador</text><ellipse cx="71.6479" cy="707.5098" fill="#E2E2F0" rx="8" ry="8" style="stroke:#181818;stroke-width:0.5;"/><path d="M71.6479,715.5098 L71.6479,742.5098 M58.6479,723.5098 L84.6479,723.5098 M71.6479,742.5098 L58.6479,757.5098 M71.6479,742.5098 L84.6479,757.5098" fill="none" style="stroke:#181818;stroke-width:0.5;"/></g><g class="participant participant-head" data-entity-uid="part2" data-qualified-name="CP" data-source-line="6" id="part2-head"><rect fill="#E2E2F0" height="30.4883" rx="2.5" ry="2.5" style="stroke:#181818;stroke-width:0.5;" width="163.1738" x="166.6079" y="87.4883"/><text fill="#000000" font-family="sans-serif" font-size="14" lengthAdjust="spacing" textLength="149.1738" x="173.6079" y="108.0234">ConsultarUsuarioPage</text></g><g class="participant participant-tail" data-entity-uid="part2" data-qualified-name="CP" data-source-line="6" id="part2-tail"><rect fill="#E2E2F0" height="30.4883" rx="2.5" ry="2.5" style="stroke:#181818;stroke-width:0.5;" width="163.1738" x="166.6079" y="682.5215"/><text fill="#000000" font-family="sans-serif" font-size="14" lengthAdjust="spacing" textLength="149.1738" x="173.6079" y="703.0566">ConsultarUsuarioPage</text></g><g class="participant participant-head" data-entity-uid="part3" data-qualified-name="US" data-source-line="7" id="part3-head"><rect fill="#E2E2F0" height="30.4883" rx="2.5" ry="2.5" style="stroke:#181818;stroke-width:0.5;" width="119.0889" x="339.7817" y="87.4883"/><text fill="#000000" font-family="sans-serif" font-size="14" lengthAdjust="spacing" textLength="105.0889" x="346.7817" y="108.0234">usuariosService</text></g><g class="participant participant-tail" data-entity-uid="part3" data-qualified-name="US" data-source-line="7" id="part3-tail"><rect fill="#E2E2F0" height="30.4883" rx="2.5" ry="2.5" style="stroke:#181818;stroke-width:0.5;" width="119.0889" x="339.7817" y="682.5215"/><text fill="#000000" font-family="sans-serif" font-size="14" lengthAdjust="spacing" textLength="105.0889" x="346.7817" y="703.0566">usuariosService</text></g><g class="participant participant-head" data-entity-uid="part4" data-qualified-name="UR" data-source-line="11" id="part4-head"><rect fill="#E2E2F0" height="46.9766" rx="2.5" ry="2.5" style="stroke:#181818;stroke-width:0.5;" width="139.3916" x="522.4146" y="71"/><text fill="#000000" font-family="sans-serif" font-size="14" lengthAdjust="spacing" textLength="103.6738" x="540.2734" y="91.5352">UsuariosRouter</text><text fill="#000000" font-family="sans-serif" font-size="14" lengthAdjust="spacing" textLength="125.3916" x="529.4146" y="108.0234">GET /usuarios/{id}</text></g><g class="participant participant-tail" data-entity-uid="part4" data-qualified-name="UR" data-source-line="11" id="part4-tail"><rect fill="#E2E2F0" height="46.9766" rx="2.5" ry="2.5" style="stroke:#181818;stroke-width:0.5;" width="139.3916" x="522.4146" y="682.5215"/><text fill="#000000" font-family="sans-serif" font-size="14" lengthAdjust="spacing" textLength="103.6738" x="540.2734" y="703.0566">UsuariosRouter</text><text fill="#000000" font-family="sans-serif" font-size="14" lengthAdjust="spacing" textLength="125.3916" x="529.4146" y="719.5449">GET /usuarios/{id}</text></g><g class="participant participant-head" data-entity-uid="part5" data-qualified-name="RR" data-source-line="12" id="part5-head"><rect fill="#E2E2F0" height="30.4883" rx="2.5" ry="2.5" style="stroke:#181818;stroke-width:0.5;" width="87.9785" x="731.625" y="87.4883"/><text fill="#000000" font-family="sans-serif" font-size="14" lengthAdjust="spacing" textLength="73.9785" x="738.625" y="108.0234">require_rol</text></g><g class="participant participant-tail" data-entity-uid="part5" data-qualified-name="RR" data-source-line="12" id="part5-tail"><rect fill="#E2E2F0" height="30.4883" rx="2.5" ry="2.5" style="stroke:#181818;stroke-width:0.5;" width="87.9785" x="731.625" y="682.5215"/><text fill="#000000" font-family="sans-serif" font-size="14" lengthAdjust="spacing" textLength="73.9785" x="738.625" y="703.0566">require_rol</text></g><g class="participant participant-head" data-entity-uid="part6" data-qualified-name="URe" data-source-line="13" id="part6-head"><rect fill="#E2E2F0" height="30.4883" rx="2.5" ry="2.5" style="stroke:#181818;stroke-width:0.5;" width="137.7578" x="829.6035" y="87.4883"/><text fill="#000000" font-family="sans-serif" font-size="14" lengthAdjust="spacing" textLength="123.7578" x="836.6035" y="108.0234">UsuarioRepository</text></g><g class="participant participant-tail" data-entity-uid="part6" data-qualified-name="URe" data-source-line="13" id="part6-tail"><rect fill="#E2E2F0" height="30.4883" rx="2.5" ry="2.5" style="stroke:#181818;stroke-width:0.5;" width="137.7578" x="829.6035" y="682.5215"/><text fill="#000000" font-family="sans-serif" font-size="14" lengthAdjust="spacing" textLength="123.7578" x="836.6035" y="703.0566">UsuarioRepository</text></g><g class="participant participant-head" data-entity-uid="part7" data-qualified-name="DB" data-source-line="16" id="part7-head"><text fill="#000000" font-family="sans-serif" font-size="14" lengthAdjust="spacing" textLength="42.9639" x="977.3613" y="116.0234">SQLite</text><path d="M983.8433,66.4883 C983.8433,56.4883 1001.8433,56.4883 1001.8433,56.4883 C1001.8433,56.4883 1019.8433,56.4883 1019.8433,66.4883 L1019.8433,92.4883 C1019.8433,102.4883 1001.8433,102.4883 1001.8433,102.4883 C1001.8433,102.4883 983.8433,102.4883 983.8433,92.4883 L983.8433,66.4883" fill="#E2E2F0" style="stroke:#181818;stroke-width:0.5;"/><path d="M983.8433,66.4883 C983.8433,76.4883 1001.8433,76.4883 1001.8433,76.4883 C1001.8433,76.4883 1019.8433,76.4883 1019.8433,66.4883" fill="none" style="stroke:#181818;stroke-width:0.5;"/></g><g class="participant participant-tail" data-entity-uid="part7" data-qualified-name="DB" data-source-line="16" id="part7-tail"><text fill="#000000" font-family="sans-serif" font-size="14" lengthAdjust="spacing" textLength="42.9639" x="977.3613" y="696.0566">SQLite</text><path d="M983.8433,709.0098 C983.8433,699.0098 1001.8433,699.0098 1001.8433,699.0098 C1001.8433,699.0098 1019.8433,699.0098 1019.8433,709.0098 L1019.8433,735.0098 C1019.8433,745.0098 1001.8433,745.0098 1001.8433,745.0098 C1001.8433,745.0098 983.8433,745.0098 983.8433,735.0098 L983.8433,709.0098" fill="#E2E2F0" style="stroke:#181818;stroke-width:0.5;"/><path d="M983.8433,709.0098 C983.8433,719.0098 1001.8433,719.0098 1001.8433,719.0098 C1001.8433,719.0098 1019.8433,719.0098 1019.8433,709.0098" fill="none" style="stroke:#181818;stroke-width:0.5;"/></g><g class="message" data-entity-1="part1" data-entity-2="part2" data-source-line="18" id="msg1"><polygon fill="#181818" points="236.1948,146.2871,246.1948,150.2871,236.1948,154.2871,240.1948,150.2871" style="stroke:#181818;stroke-width:1;stroke-linejoin:miter;stroke-miterlimit:10;"/><line style="stroke:#181818;stroke-width:1;" x1="71.6479" x2="242.1948" y1="150.2871" y2="150.2871"/><text fill="#000000" font-family="sans-serif" font-size="13" lengthAdjust="spacing" textLength="88.8228" x="78.6479" y="145.5449">abrir ficha {id}</text></g><g class="message" data-entity-1="part2" data-entity-2="part3" data-source-line="19" id="msg2"><polygon fill="#181818" points="387.3262,175.5977,397.3262,179.5977,387.3262,183.5977,391.3262,179.5977" style="stroke:#181818;stroke-width:1;stroke-linejoin:miter;stroke-miterlimit:10;"/><line style="stroke:#181818;stroke-width:1;" x1="248.1948" x2="393.3262" y1="179.5977" y2="179.5977"/><text fill="#000000" font-family="sans-serif" font-size="13" lengthAdjust="spacing" textLength="69.2974" x="255.1948" y="174.8555">obtener(id)</text></g><g class="message" data-entity-1="part3" data-entity-2="part4" data-source-line="20" id="msg3"><polygon fill="#181818" points="580.1104,204.9082,590.1104,208.9082,580.1104,212.9082,584.1104,208.9082" style="stroke:#181818;stroke-width:1;stroke-linejoin:miter;stroke-miterlimit:10;"/><line style="stroke:#181818;stroke-width:1;" x1="399.3262" x2="586.1104" y1="208.9082" y2="208.9082"/><text fill="#000000" font-family="sans-serif" font-size="13" lengthAdjust="spacing" textLength="168.7842" x="406.3262" y="204.166">GET /usuarios/{id} (Bearer)</text></g><g class="message" data-entity-1="part4" data-entity-2="part5" data-source-line="21" id="msg4"><polygon fill="#181818" points="763.6143,234.2188,773.6143,238.2188,763.6143,242.2188,767.6143,238.2188" style="stroke:#181818;stroke-width:1;stroke-linejoin:miter;stroke-miterlimit:10;"/><line style="stroke:#181818;stroke-width:1;" x1="592.1104" x2="769.6143" y1="238.2188" y2="238.2188"/><text fill="#000000" font-family="sans-serif" font-size="13" lengthAdjust="spacing" textLength="159.5039" x="599.1104" y="233.4766">autorizar "administrador"</text></g><g class="message" data-entity-1="part5" data-entity-2="part4" data-source-line="22" id="msg5"><polygon fill="#181818" points="603.1104,263.5293,593.1104,267.5293,603.1104,271.5293,599.1104,267.5293" style="stroke:#181818;stroke-width:1;stroke-linejoin:miter;stroke-miterlimit:10;"/><line style="stroke:#181818;stroke-width:1;stroke-dasharray:2,2;" x1="597.1104" x2="774.6143" y1="267.5293" y2="267.5293"/><text fill="#000000" font-family="sans-serif" font-size="13" lengthAdjust="spacing" textLength="128.0894" x="609.1104" y="262.7871">Administrador | 403</text></g><g class="message" data-entity-1="part4" data-entity-2="part6" data-source-line="23" id="msg6"><polygon fill="#181818" points="886.4824,292.8398,896.4824,296.8398,886.4824,300.8398,890.4824,296.8398" style="stroke:#181818;stroke-width:1;stroke-linejoin:miter;stroke-miterlimit:10;"/><line style="stroke:#181818;stroke-width:1;" x1="592.1104" x2="892.4824" y1="296.8398" y2="296.8398"/><text fill="#000000" font-family="sans-serif" font-size="13" lengthAdjust="spacing" textLength="115.7241" x="599.1104" y="292.0977">obtener_por_id(id)</text></g><g class="message" data-entity-1="part6" data-entity-2="part7" data-source-line="24" id="msg7"><polygon fill="#181818" points="989.8433,322.1504,999.8433,326.1504,989.8433,330.1504,993.8433,326.1504" style="stroke:#181818;stroke-width:1;stroke-linejoin:miter;stroke-miterlimit:10;"/><line style="stroke:#181818;stroke-width:1;" x1="898.4824" x2="995.8433" y1="326.1504" y2="326.1504"/><text fill="#000000" font-family="sans-serif" font-size="13" lengthAdjust="spacing" textLength="45.2397" x="905.4824" y="321.4082">SELECT</text></g><path d="M10,341.1504 L72.1387,341.1504 L72.1387,348.4609 L62.1387,358.4609 L10,358.4609 L10,341.1504" fill="#EEEEEE" style="stroke:#000000;stroke-width:1.5;"/><rect fill="none" height="325.3711" style="stroke:#000000;stroke-width:1.5;" width="1026.3252" x="10" y="341.1504"/><text fill="#000000" font-family="sans-serif" font-size="13" font-weight="700" lengthAdjust="spacing" textLength="17.1387" x="25" y="354.7188">alt</text><text fill="#000000" font-family="sans-serif" font-size="11" font-weight="700" lengthAdjust="spacing" textLength="118.5293" x="87.1387" y="353.7852">[usuario encontrado]</text><g class="message" data-entity-1="part7" data-entity-2="part6" data-source-line="27" id="msg8"><polygon fill="#181818" points="909.4824,375.7715,899.4824,379.7715,909.4824,383.7715,905.4824,379.7715" style="stroke:#181818;stroke-width:1;stroke-linejoin:miter;stroke-miterlimit:10;"/><line style="stroke:#181818;stroke-width:1;stroke-dasharray:2,2;" x1="903.4824" x2="1000.8433" y1="379.7715" y2="379.7715"/><text fill="#000000" font-family="sans-serif" font-size="13" lengthAdjust="spacing" textLength="47.9438" x="915.4824" y="375.0293">Usuario</text></g><g class="message" data-entity-1="part6" data-entity-2="part4" data-source-line="28" id="msg9"><polygon fill="#181818" points="603.1104,405.082,593.1104,409.082,603.1104,413.082,599.1104,409.082" style="stroke:#181818;stroke-width:1;stroke-linejoin:miter;stroke-miterlimit:10;"/><line style="stroke:#181818;stroke-width:1;stroke-dasharray:2,2;" x1="597.1104" x2="897.4824" y1="409.082" y2="409.082"/><text fill="#000000" font-family="sans-serif" font-size="13" lengthAdjust="spacing" textLength="47.9438" x="609.1104" y="404.3398">Usuario</text></g><g class="message" data-entity-1="part4" data-entity-2="part3" data-source-line="29" id="msg10"><polygon fill="#181818" points="410.3262,434.3926,400.3262,438.3926,410.3262,442.3926,406.3262,438.3926" style="stroke:#181818;stroke-width:1;stroke-linejoin:miter;stroke-miterlimit:10;"/><line style="stroke:#181818;stroke-width:1;stroke-dasharray:2,2;" x1="404.3262" x2="591.1104" y1="438.3926" y2="438.3926"/><text fill="#000000" font-family="sans-serif" font-size="13" lengthAdjust="spacing" textLength="114.1943" x="416.3262" y="433.6504">200 + UsuarioOut</text></g><g class="message" data-entity-1="part3" data-entity-2="part2" data-source-line="30" id="msg11"><polygon fill="#181818" points="259.1948,463.7031,249.1948,467.7031,259.1948,471.7031,255.1948,467.7031" style="stroke:#181818;stroke-width:1;stroke-linejoin:miter;stroke-miterlimit:10;"/><line style="stroke:#181818;stroke-width:1;stroke-dasharray:2,2;" x1="253.1948" x2="398.3262" y1="467.7031" y2="467.7031"/><text fill="#000000" font-family="sans-serif" font-size="13" lengthAdjust="spacing" textLength="47.0044" x="265.1948" y="462.9609">usuario</text></g><g class="message" data-entity-1="part2" data-entity-2="part1" data-source-line="31" id="msg12"><polygon fill="#181818" points="82.6479,493.0137,72.6479,497.0137,82.6479,501.0137,78.6479,497.0137" style="stroke:#181818;stroke-width:1;stroke-linejoin:miter;stroke-miterlimit:10;"/><line style="stroke:#181818;stroke-width:1;stroke-dasharray:2,2;" x1="76.6479" x2="247.1948" y1="497.0137" y2="497.0137"/><text fill="#000000" font-family="sans-serif" font-size="13" lengthAdjust="spacing" textLength="107.8213" x="88.6479" y="492.2715">ficha por subtipo</text></g><line style="stroke:#000000;stroke-width:1;stroke-dasharray:2,2;" x1="10" x2="1036.3252" y1="506.0137" y2="506.0137"/><text fill="#000000" font-family="sans-serif" font-size="11" font-weight="700" lengthAdjust="spacing" textLength="59.6729" x="15" y="516.6484">[no existe]</text><g class="message" data-entity-1="part7" data-entity-2="part6" data-source-line="33" id="msg13"><polygon fill="#181818" points="909.4824,537.2793,899.4824,541.2793,909.4824,545.2793,905.4824,541.2793" style="stroke:#181818;stroke-width:1;stroke-linejoin:miter;stroke-miterlimit:10;"/><line style="stroke:#181818;stroke-width:1;stroke-dasharray:2,2;" x1="903.4824" x2="1000.8433" y1="541.2793" y2="541.2793"/><text fill="#000000" font-family="sans-serif" font-size="13" lengthAdjust="spacing" textLength="32.8999" x="915.4824" y="536.5371">None</text></g><g class="message" data-entity-1="part6" data-entity-2="part4" data-source-line="34" id="msg14"><polygon fill="#181818" points="603.1104,566.5898,593.1104,570.5898,603.1104,574.5898,599.1104,570.5898" style="stroke:#181818;stroke-width:1;stroke-linejoin:miter;stroke-miterlimit:10;"/><line style="stroke:#181818;stroke-width:1;stroke-dasharray:2,2;" x1="597.1104" x2="897.4824" y1="570.5898" y2="570.5898"/><text fill="#000000" font-family="sans-serif" font-size="13" lengthAdjust="spacing" textLength="32.8999" x="609.1104" y="565.8477">None</text></g><g class="message" data-entity-1="part4" data-entity-2="part3" data-source-line="35" id="msg15"><polygon fill="#181818" points="410.3262,595.9004,400.3262,599.9004,410.3262,603.9004,406.3262,599.9004" style="stroke:#181818;stroke-width:1;stroke-linejoin:miter;stroke-miterlimit:10;"/><line style="stroke:#181818;stroke-width:1;stroke-dasharray:2,2;" x1="404.3262" x2="591.1104" y1="599.9004" y2="599.9004"/><text fill="#000000" font-family="sans-serif" font-size="13" lengthAdjust="spacing" textLength="24.6606" x="416.3262" y="595.1582">404</text></g><g class="message" data-entity-1="part3" data-entity-2="part2" data-source-line="36" id="msg16"><polygon fill="#181818" points="259.1948,625.2109,249.1948,629.2109,259.1948,633.2109,255.1948,629.2109" style="stroke:#181818;stroke-width:1;stroke-linejoin:miter;stroke-miterlimit:10;"/><line style="stroke:#181818;stroke-width:1;stroke-dasharray:2,2;" x1="253.1948" x2="398.3262" y1="629.2109" y2="629.2109"/><text fill="#000000" font-family="sans-serif" font-size="13" lengthAdjust="spacing" textLength="31.186" x="265.1948" y="624.4688">error</text></g><g class="message" data-entity-1="part2" data-entity-2="part1" data-source-line="37" id="msg17"><polygon fill="#181818" points="82.6479,654.5215,72.6479,658.5215,82.6479,662.5215,78.6479,658.5215" style="stroke:#181818;stroke-width:1;stroke-linejoin:miter;stroke-miterlimit:10;"/><line style="stroke:#181818;stroke-width:1;stroke-dasharray:2,2;" x1="76.6479" x2="247.1948" y1="658.5215" y2="658.5215"/><text fill="#000000" font-family="sans-serif" font-size="13" lengthAdjust="spacing" textLength="152.5469" x="88.6479" y="653.7793">"usuario no encontrado"</text></g><?plantuml-src TLBBZjD04BpFLxJC9H6Are8SK0v8Jc8Zf1K4ExaXHMsxTnbXFAPdZ9QNn4ViZ-mtx9_m9VICdILiWY-MfyfLrJNjj6i8rjhI_Ps1txzkeJAjxHk7lBCziZQJgL9OESEGr9zqgwrZhEKBBIHAbUO6eenDwwYjOPAJKE4fR8jf14_I5rcSfGhawP2ThdI7hODezSXYWzSKUS7LvfJS3nnR47_HrS3R5ShRYVcOO8dLnn0WG-kIpMlldcNPF8rF1KTJcvlU4RzlNwLRk3YuN7pNzS_18p_zbUbphvdsR9h0oVF_okVK6Qkbjg-Z6lsDNAF34Yr1LBoxr6wOQRrKAX6nsKkfGTuBm98rmvMkFY3uMCgV2xmh0cnAwPnuekkfyaSUoGDoEX5CbeHCBCmyCFE1YRqarD-G8SBZsusK9yn6oSMZg_y1y_ZvGKacEqgpxmplTJs44aG8wsMmAjBBTBMLNMeSZDc0Mjcs81fwzCpPABc0iSY01Ac7DFyYup-5Hvx5iMpVYB_jtK0f1eglRt7m3aWeL90a91oQbW70zgNJdL7Ko2MralD6PgSp6T-Obiu4F3e-JZUFvsS24RFXCt4Ecny2F1GL-JLIVm00?></g></svg>