<svg xmlns="http://www.w3.org/2000/svg" xmlns:xlink="http://www.w3.org/1999/xlink" contentStyleType="text/css" data-diagram-type="DESCRIPTION" height="432px" preserveAspectRatio="none" style="width:861px;height:432px;background:#FFFFFF;" version="1.1" viewBox="0 0 861 432" width="861px" zoomAndPan="magnify"><?plantuml 1.2026.5?><defs/><g><!--cluster crearAlumno--><g class="cluster" data-qualified-name="crearAlumno" data-source-line="5" id="ent0002"><path d="M209.82,6 L313.5778,6 A3.75,3.75 0 0 1 316.0778,8.5 L323.0778,28.4883 L843.82,28.4883 A2.5,2.5 0 0 1 846.32,30.9883 L846.32,415.45 A2.5,2.5 0 0 1 843.82,417.95 L209.82,417.95 A2.5,2.5 0 0 1 207.32,415.45 L207.32,8.5 A2.5,2.5 0 0 1 209.82,6" fill="none" style="stroke:#000000;stroke-width:1.5;"/><line style="stroke:#000000;stroke-width:1.5;" x1="207.32" x2="323.0778" y1="28.4883" y2="28.4883"/><text fill="#000000" font-family="sans-serif" font-size="14" font-weight="700" lengthAdjust="spacing" textLength="102.7578" x="211.32" y="21.5352">crearAlumno()</text></g><!--entity CrearAlumnoView--><g class="entity" data-qualified-name="crearAlumno.CrearAlumnoView" data-source-line="6" id="ent0003"><rect fill="#629EF9" height="36.4883" rx="2.5" ry="2.5" style="stroke:#181818;stroke-width:0.5;" width="141.2148" x="270.71" y="41"/><text fill="#000000" font-family="sans-serif" font-size="14" lengthAdjust="spacing" textLength="121.2148" x="280.71" y="64.5352">CrearAlumnoView</text></g><!--entity AlumnoController--><g class="entity" data-qualified-name="crearAlumno.AlumnoController" data-source-line="7" id="ent0004"><rect fill="#B5BD68" height="36.4883" rx="2.5" ry="2.5" style="stroke:#181818;stroke-width:0.5;" width="140.9141" x="313.86" y="154.49"/><text fill="#000000" font-family="sans-serif" font-size="14" lengthAdjust="spacing" textLength="120.9141" x="323.86" y="178.0252">AlumnoController</text></g><!--entity UsuarioRepository--><g class="entity" data-qualified-name="crearAlumno.UsuarioRepository" data-source-line="8" id="ent0005"><rect fill="#F2AC4E" height="36.4883" rx="2.5" ry="2.5" style="stroke:#181818;stroke-width:0.5;" width="143.7578" x="342.44" y="267.97"/><text fill="#000000" font-family="sans-serif" font-size="14" lengthAdjust="spacing" textLength="123.7578" x="352.44" y="291.5052">UsuarioRepository</text></g><!--entity DatosPersonalesAlumno--><g class="entity" data-qualified-name="crearAlumno.DatosPersonalesAlumno" data-source-line="9" id="ent0006"><rect fill="#F2AC4E" height="36.4883" rx="2.5" ry="2.5" style="stroke:#181818;stroke-width:0.5;" width="184.3496" x="261.14" y="365.46"/><text fill="#000000" font-family="sans-serif" font-size="14" lengthAdjust="spacing" textLength="164.3496" x="271.14" y="388.9952">DatosPersonalesAlumno</text></g><!--entity Alumno--><g class="entity" data-qualified-name="crearAlumno.Alumno" data-source-line="10" id="ent0007"><rect fill="#F2AC4E" height="36.4883" rx="2.5" ry="2.5" style="stroke:#181818;stroke-width:0.5;" width="72.7529" x="480.94" y="365.46"/><text fill="#000000" font-family="sans-serif" font-size="14" lengthAdjust="spacing" textLength="52.7529" x="490.94" y="388.9952">Alumno</text></g><!--entity AlumnosAbierto--><g class="entity" data-qualified-name="AlumnosAbierto" data-source-line="3" id="ent0001"><rect fill="#CDEBA5" height="36.4883" rx="2.5" ry="2.5" style="stroke:#181818;stroke-width:0.5;" width="138.6309" x="7" y="41"/><text fill="#000000" font-family="sans-serif" font-size="14" lengthAdjust="spacing" textLength="118.6309" x="17" y="64.5352">:Alumnos Abierto</text></g><!--link AlumnosAbierto to CrearAlumnoView--><g class="link" data-entity-1="ent0001" data-entity-2="ent0003" data-link-type="dependency" data-source-line="13" id="lnk8"><path d="M145.94,59.24 C184.28,59.24 226.76,59.24 265.31,59.24" fill="none" id="AlumnosAbierto-to-CrearAlumnoView" style="stroke:#181818;stroke-width:1;"/><polygon fill="#181818" points="270.31,59.24,261.31,55.24,265.31,59.24,261.31,63.24,270.31,59.24" style="stroke:#181818;stroke-width:1;stroke-linejoin:miter;stroke-miterlimit:10;"/><text fill="#000000" font-family="sans-serif" font-size="13" lengthAdjust="spacing" textLength="89.1592" x="163.67" y="52.8084">crearAlumno()</text></g><!--link CrearAlumnoView to AlumnoController--><g class="link" data-entity-1="ent0003" data-entity-2="ent0004" data-link-type="dependency" data-source-line="15" id="lnk9"><path d="M314.13,77.83 C293.38,91.27 268.32,107.49 268.32,107.49 C268.32,107.49 268.32,124.49 268.32,124.49 C268.32,124.49 303.2492,138.7145 336.1592,152.1145" fill="none" id="CrearAlumnoView-to-AlumnoController" style="stroke:#181818;stroke-width:1;"/><polygon fill="#181818" points="340.79,154,333.9629,146.9013,336.1592,152.1145,330.946,154.3107,340.79,154" style="stroke:#181818;stroke-width:1;stroke-linejoin:miter;stroke-miterlimit:10;"/><text fill="#000000" font-family="sans-serif" font-size="13" lengthAdjust="spacing" textLength="199.7671" x="269.32" y="121.0584">validarUnicidad(login) : boolean</text></g><!--link CrearAlumnoView to AlumnoController--><g class="link" data-entity-1="ent0003" data-entity-2="ent0004" data-link-type="dependency" data-source-line="19" id="lnk11"><path d="M390.84,77.97 C428.3,91.37 473.32,107.49 473.32,107.49 C473.32,107.49 473.32,124.49 473.32,124.49 C473.32,124.49 447.3766,138.2561 422.1266,151.6561" fill="none" id="CrearAlumnoView-to-AlumnoController-1" style="stroke:#181818;stroke-width:1;"/><polygon fill="#181818" points="417.71,154,427.535,153.3143,422.1266,151.6561,423.7848,146.2478,417.71,154" style="stroke:#181818;stroke-width:1;stroke-linejoin:miter;stroke-miterlimit:10;"/><text fill="#000000" font-family="sans-serif" font-size="13" lengthAdjust="spacing" textLength="302.6372" x="474.32" y="121.0584">crearAlumno(login, contrase&#241;a, datos) : Alumno</text></g><!--link AlumnoController to UsuarioRepository--><g class="link" data-entity-1="ent0004" data-entity-2="ent0005" data-link-type="dependency" data-source-line="17" id="lnk10"><path d="M335.91,191.46 C299.31,204.86 255.32,220.97 255.32,220.97 C255.32,220.97 255.32,237.97 255.32,237.97 C255.32,237.97 304.7469,252.6665 349.8669,266.0665" fill="none" id="AlumnoController-to-UsuarioRepository" style="stroke:#181818;stroke-width:1;"/><polygon fill="#181818" points="354.66,267.49,347.1712,261.0933,349.8669,266.0665,344.8937,268.7622,354.66,267.49" style="stroke:#181818;stroke-width:1;stroke-linejoin:miter;stroke-miterlimit:10;"/><text fill="#000000" font-family="sans-serif" font-size="13" lengthAdjust="spacing" textLength="175.4238" x="256.32" y="234.5384">existeLogin(login) : boolean</text></g><!--link AlumnoController to UsuarioRepository--><g class="link" data-entity-1="ent0004" data-entity-2="ent0005" data-link-type="dependency" data-source-line="21" id="lnk12"><path d="M403.68,191.32 C418.46,204.75 436.32,220.97 436.32,220.97 C436.32,220.97 436.32,237.97 436.32,237.97 C436.32,237.97 430.8683,249.6562 424.6183,263.0962" fill="none" id="AlumnoController-to-UsuarioRepository-1" style="stroke:#181818;stroke-width:1;"/><polygon fill="#181818" points="422.51,267.63,429.932,261.1559,424.6183,263.0962,422.678,257.7826,422.51,267.63" style="stroke:#181818;stroke-width:1;stroke-linejoin:miter;stroke-miterlimit:10;"/><text fill="#000000" font-family="sans-serif" font-size="13" lengthAdjust="spacing" textLength="353.9072" x="437.32" y="234.5384">crear(tipo="alumno", login, contrase&#241;a, datos) : Alumno</text></g><!--link UsuarioRepository to Alumno--><g class="link" data-entity-1="ent0005" data-entity-2="ent0007" data-link-type="association" data-source-line="23" id="lnk13"><path d="M433.21,304.73 C451.68,321.85 479.65,347.79 498.19,364.98" fill="none" id="UsuarioRepository-Alumno" style="stroke:#181818;stroke-width:1;"/></g><!--link UsuarioRepository to DatosPersonalesAlumno--><g class="link" data-entity-1="ent0005" data-entity-2="ent0006" data-link-type="association" data-source-line="24" id="lnk14"><path d="M403.13,304.73 C392.19,321.85 375.62,347.79 364.64,364.98" fill="none" id="UsuarioRepository-DatosPersonalesAlumno" style="stroke:#181818;stroke-width:1;"/></g><?plantuml-src bLBBJiCm4BpxArRXaahDfQ8LhGHIIDCJ1uHKxfjaLLbrlP7j0X7Ye_W6VemyeKrI2NonrpCxEsFPxgNEqU01bDJaYfmWPrLKXH26KeTwfmYkedLy7yx1MuNgUD1i8Kma6SSUO7bkxjeh8N9CzxWZI0sXQS2AvftK_iI3Tm7bEXcoc2tZpHAYNzgpfDS-AvadsUAc7HgnTeQL8jEdRMPXT1t3rXxHI7wYdArqR8eBl3KwjezaB6jKP1lr2zmM_13YF3a49hZhsuTkhU0iln1zOf2LtVrOFyqlg6I6PgjbMkwPhtWdzQG44cP5g3ip9wr1gJV8t-dHcxIE7YgL4Qs1jylMUi5ghIca5GqjVNtY5BBgSIlzzkN-QRMMzvtC-TR3kjERmf_c32M3e0D7iV5ly0q0?></g></svg>