<svg xmlns="http://www.w3.org/2000/svg" xmlns:xlink="http://www.w3.org/1999/xlink" contentStyleType="text/css" data-diagram-type="DESCRIPTION" height="432px" preserveAspectRatio="none" style="width:1217px;height:432px;background:#FFFFFF;" version="1.1" viewBox="0 0 1217 432" width="1217px" zoomAndPan="magnify"><?plantuml 1.2026.5?><defs/><g><!--cluster gestionarCatalogoAsignaturas--><g class="cluster" data-qualified-name="gestionarCatalogoAsignaturas" data-source-line="5" id="ent0002"><path d="M180.05,6 L410.3342,6 A3.75,3.75 0 0 1 412.8342,8.5 L419.8342,28.4883 L1200.05,28.4883 A2.5,2.5 0 0 1 1202.55,30.9883 L1202.55,415.45 A2.5,2.5 0 0 1 1200.05,417.95 L180.05,417.95 A2.5,2.5 0 0 1 177.55,415.45 L177.55,8.5 A2.5,2.5 0 0 1 180.05,6" fill="none" style="stroke:#000000;stroke-width:1.5;"/><line style="stroke:#000000;stroke-width:1.5;" x1="177.55" x2="419.8342" y1="28.4883" y2="28.4883"/><text fill="#000000" font-family="sans-serif" font-size="14" font-weight="700" lengthAdjust="spacing" textLength="229.2842" x="181.55" y="21.5352">gestionarCatalogoAsignaturas()</text></g><!--entity AsignaturasView--><g class="entity" data-qualified-name="gestionarCatalogoAsignaturas.AsignaturasView" data-source-line="6" id="ent0003"><rect fill="#629EF9" height="36.4883" rx="2.5" ry="2.5" style="stroke:#181818;stroke-width:0.5;" width="132.3008" x="380.4" y="41"/><text fill="#000000" font-family="sans-serif" font-size="14" lengthAdjust="spacing" textLength="112.3008" x="390.4" y="64.5352">AsignaturasView</text></g><!--entity AsignaturaController--><g class="entity" data-qualified-name="gestionarCatalogoAsignaturas.AsignaturaController" data-source-line="7" id="ent0004"><rect fill="#B5BD68" height="36.4883" rx="2.5" ry="2.5" style="stroke:#181818;stroke-width:0.5;" width="161.5381" x="536.78" y="154.49"/><text fill="#000000" font-family="sans-serif" font-size="14" lengthAdjust="spacing" textLength="141.5381" x="546.78" y="178.0252">AsignaturaController</text></g><!--entity AsignaturaRepository--><g class="entity" data-qualified-name="gestionarCatalogoAsignaturas.AsignaturaRepository" data-source-line="8" id="ent0005"><rect fill="#F2AC4E" height="36.4883" rx="2.5" ry="2.5" style="stroke:#181818;stroke-width:0.5;" width="165.5029" x="534.8" y="267.97"/><text fill="#000000" font-family="sans-serif" font-size="14" lengthAdjust="spacing" textLength="145.5029" x="544.8" y="291.5052">AsignaturaRepository</text></g><!--entity Asignatura--><g class="entity" data-qualified-name="gestionarCatalogoAsignaturas.Asignatura" data-source-line="9" id="ent0006"><rect fill="#F2AC4E" height="36.4883" rx="2.5" ry="2.5" style="stroke:#181818;stroke-width:0.5;" width="93.377" x="570.86" y="365.46"/><text fill="#000000" font-family="sans-serif" font-size="14" lengthAdjust="spacing" textLength="73.377" x="580.86" y="388.9952">Asignatura</text></g><!--entity CatalogoAbierto--><g class="entity" data-qualified-name="CatalogoAbierto" data-source-line="3" id="ent0001"><rect fill="#CDEBA5" height="36.4883" rx="2.5" ry="2.5" style="stroke:#181818;stroke-width:0.5;" width="139.1025" x="7" y="41"/><text fill="#000000" font-family="sans-serif" font-size="14" lengthAdjust="spacing" textLength="119.1025" x="17" y="64.5352">:Catalogo Abierto</text></g><!--link CatalogoAbierto to AsignaturasView--><g class="link" data-entity-1="ent0001" data-entity-2="ent0003" data-link-type="dependency" data-source-line="12" id="lnk7"><path d="M146.58,59.24 C213.62,59.24 309.04,59.24 374.92,59.24" fill="none" id="CatalogoAbierto-to-AsignaturasView" style="stroke:#181818;stroke-width:1;"/><polygon fill="#181818" points="379.92,59.24,370.92,55.24,374.92,59.24,370.92,63.24,379.92,59.24" style="stroke:#181818;stroke-width:1;stroke-linejoin:miter;stroke-miterlimit:10;"/><text fill="#000000" font-family="sans-serif" font-size="13" lengthAdjust="spacing" textLength="198.415" x="164.25" y="52.8084">gestionarCatalogoAsignaturas()</text></g><!--link AsignaturasView to AsignaturaController--><g class="link" data-entity-1="ent0003" data-entity-2="ent0004" data-link-type="dependency" data-source-line="14" id="lnk8"><path d="M379.94,74.48 C314.87,88.39 225.55,107.49 225.55,107.49 C225.55,107.49 225.55,124.49 225.55,124.49 C225.55,124.49 416.5459,147.5016 531.3659,161.3416" fill="none" id="AsignaturasView-to-AsignaturaController" style="stroke:#181818;stroke-width:1;"/><polygon fill="#181818" points="536.33,161.94,527.8734,156.8917,531.3659,161.3416,526.916,164.8342,536.33,161.94" style="stroke:#181818;stroke-width:1;stroke-linejoin:miter;stroke-miterlimit:10;"/><text fill="#000000" font-family="sans-serif" font-size="13" lengthAdjust="spacing" textLength="160.1069" x="226.55" y="121.0584">listar() : list&lt;Asignatura&gt;</text></g><!--link AsignaturasView to AsignaturaController--><g class="link" data-entity-1="ent0003" data-entity-2="ent0004" data-link-type="dependency" data-source-line="15" id="lnk9"><path d="M439.48,77.83 C434.07,91.27 427.55,107.49 427.55,107.49 C427.55,107.49 427.55,124.49 427.55,124.49 C427.55,124.49 487.4977,139.3939 541.4077,152.7939" fill="none" id="AsignaturasView-to-AsignaturaController-1" style="stroke:#181818;stroke-width:1;"/><polygon fill="#181818" points="546.26,154,538.4907,147.9471,541.4077,152.7939,536.5609,155.7109,546.26,154" style="stroke:#181818;stroke-width:1;stroke-linejoin:miter;stroke-miterlimit:10;"/><text fill="#000000" font-family="sans-serif" font-size="13" lengthAdjust="spacing" textLength="376.1875" x="428.55" y="121.0584">crear(codigo, nombre, ects, caracter, grado_id) : Asignatura</text></g><!--link AsignaturasView to AsignaturaController--><g class="link" data-entity-1="ent0003" data-entity-2="ent0004" data-link-type="dependency" data-source-line="16" id="lnk10"><path d="M513.13,68.91 C617.93,82.55 809.55,107.49 809.55,107.49 C809.55,107.49 809.55,124.49 809.55,124.49 C809.55,124.49 748.9253,139.4058 694.4453,152.8058" fill="none" id="AsignaturasView-to-AsignaturaController-2" style="stroke:#181818;stroke-width:1;"/><polygon fill="#181818" points="689.59,154,699.2849,155.7346,694.4453,152.8058,697.3742,147.9662,689.59,154" style="stroke:#181818;stroke-width:1;stroke-linejoin:miter;stroke-miterlimit:10;"/><text fill="#000000" font-family="sans-serif" font-size="13" lengthAdjust="spacing" textLength="223.0376" x="810.55" y="121.0584">actualizar(id, cambios) : Asignatura</text></g><!--link AsignaturasView to AsignaturaController--><g class="link" data-entity-1="ent0003" data-entity-2="ent0004" data-link-type="dependency" data-source-line="17" id="lnk11"><path d="M513.19,65.52 C668.71,77.85 1042.55,107.49 1042.55,107.49 C1042.55,107.49 1042.55,124.49 1042.55,124.49 C1042.55,124.49 827.0694,148.4377 703.7094,162.1477" fill="none" id="AsignaturasView-to-AsignaturaController-3" style="stroke:#181818;stroke-width:1;"/><polygon fill="#181818" points="698.74,162.7,708.1268,165.6814,703.7094,162.1477,707.2431,157.7304,698.74,162.7" style="stroke:#181818;stroke-width:1;stroke-linejoin:miter;stroke-miterlimit:10;"/><text fill="#000000" font-family="sans-serif" font-size="13" lengthAdjust="spacing" textLength="71.6143" x="1043.55" y="121.0584">eliminar(id)</text></g><!--link AsignaturaController to AsignaturaRepository--><g class="link" data-entity-1="ent0004" data-entity-2="ent0005" data-link-type="dependency" data-source-line="19" id="lnk12"><path d="M617.55,191.15 C617.55,211.97 617.55,241.62 617.55,262.55" fill="none" id="AsignaturaController-to-AsignaturaRepository" style="stroke:#181818;stroke-width:1;"/><polygon fill="#181818" points="617.55,267.55,621.55,258.55,617.55,262.55,613.55,258.55,617.55,267.55" style="stroke:#181818;stroke-width:1;stroke-linejoin:miter;stroke-miterlimit:10;"/><text fill="#000000" font-family="sans-serif" font-size="13" lengthAdjust="spacing" textLength="380.0342" x="618.55" y="234.5384">obtenerTodos / crear / actualizar / eliminar (con validaci&#243;n)</text></g><!--link AsignaturaRepository to Asignatura--><g class="link" data-entity-1="ent0005" data-entity-2="ent0006" data-link-type="association" data-source-line="21" id="lnk13"><path d="M617.55,304.73 C617.55,321.85 617.55,347.79 617.55,364.98" fill="none" id="AsignaturaRepository-Asignatura" style="stroke:#181818;stroke-width:1;"/></g><?plantuml-src fPBXIiCm4CU_vocE-cM35c6uuOOCPjqUGCIlagP7EPRcIf8fKtmg7y4NCzDjJOjCXY7GvFZT_tztgLkJQQILDMWowBSDGiDwkxi8OL5vQIgDS97VBMyNOqXckVHISyMmA0YjvmIaWqDm7nEYaMejAuGAdISsqXu9HvMHVcD3LjZ9AM0mJE1DG5XH8PFHTBcQGeGz4hxqgM9Sb9FhYChPUCjQe-sZgz4Ylrf6w3qsxCYptVw9YdSXUhr3PhDvlpmuhXcSxbY8NrEpZcRRJD3JvBoqW-7-UDDYyxErbCKWfRYaYbCmN1SMKmW3S2cey9SeZpQ5oigIdwZSMKQpEDSig6safjVWIELElow8tJz5KLDDvbkoCyi8wcQthnsokV1eq3vmoGukVyOHlcsbuN9mW30d0yyXNaf5dn-cunV9PbdSq1S0?></g></svg>