<?plantuml 1.2026.2?><svg xmlns="http://www.w3.org/2000/svg" xmlns:xlink="http://www.w3.org/1999/xlink" contentStyleType="text/css" data-diagram-type="DESCRIPTION" height="424px" preserveAspectRatio="none" style="width:823px;height:424px;background:#FFFFFF;" version="1.1" viewBox="0 0 823 424" width="823px" zoomAndPan="magnify"><defs/><g><!--cluster importarListasAlumnos--><g class="cluster" data-qualified-name="importarListasAlumnos" data-source-line="5" id="ent0003"><path d="M222.25,6 L402.7207,6 A3.75,3.75 0 0 1 405.2207,8.5 L412.2207,28.4883 L814.25,28.4883 A2.5,2.5 0 0 1 816.75,30.9883 L816.75,415.45 A2.5,2.5 0 0 1 814.25,417.95 L222.25,417.95 A2.5,2.5 0 0 1 219.75,415.45 L219.75,8.5 A2.5,2.5 0 0 1 222.25,6" fill="none" style="stroke:#000000;stroke-width:1.5;"/><line style="stroke:#000000;stroke-width:1.5;" x1="219.75" x2="412.2207" y1="28.4883" y2="28.4883"/><text fill="#000000" font-family="sans-serif" font-size="14" font-weight="bold" lengthAdjust="spacing" textLength="179.4707" x="223.75" y="21.5352">importarListasAlumnos()</text></g><!--entity ImportarListasAlumnosView--><g class="entity" data-qualified-name="importarListasAlumnos.ImportarListasAlumnosView" data-source-line="6" id="ent0004"><rect fill="#629EF9" height="36.4883" rx="2.5" ry="2.5" style="stroke:#181818;stroke-width:0.5;" width="209.3691" x="315.06" y="41"/><text fill="#000000" font-family="sans-serif" font-size="14" lengthAdjust="spacing" textLength="189.3691" x="325.06" y="64.5352">ImportarListasAlumnosView</text></g><!--entity AlumnoController--><g class="entity" data-qualified-name="importarListasAlumnos.AlumnoController" data-source-line="7" id="ent0005"><rect fill="#B5BD68" height="36.4883" rx="2.5" ry="2.5" style="stroke:#181818;stroke-width:0.5;" width="140.9141" x="349.29" y="154.49"/><text fill="#000000" font-family="sans-serif" font-size="14" lengthAdjust="spacing" textLength="120.9141" x="359.29" y="178.0252">AlumnoController</text></g><!--entity ValidadorArchivoListasAlumnos--><g class="entity" data-qualified-name="importarListasAlumnos.ValidadorArchivoListasAlumnos" data-source-line="8" id="ent0006"><rect fill="#B5BD68" height="36.4883" rx="2.5" ry="2.5" style="stroke:#181818;stroke-width:0.5;" width="234.4434" x="235.53" y="267.97"/><text fill="#000000" font-family="sans-serif" font-size="14" lengthAdjust="spacing" textLength="214.4434" x="245.53" y="291.5052">ValidadorArchivoListasAlumnos</text></g><!--entity AlumnoRepository--><g class="entity" data-qualified-name="importarListasAlumnos.AlumnoRepository" data-source-line="9" id="ent0007"><rect fill="#F2AC4E" height="36.4883" rx="2.5" ry="2.5" style="stroke:#181818;stroke-width:0.5;" width="144.8789" x="505.31" y="267.97"/><text fill="#000000" font-family="sans-serif" font-size="14" lengthAdjust="spacing" textLength="124.8789" x="515.31" y="291.5052">AlumnoRepository</text></g><!--entity Alumno--><g class="entity" data-qualified-name="importarListasAlumnos.Alumno" data-source-line="10" id="ent0008"><rect fill="#F2AC4E" height="36.4883" rx="2.5" ry="2.5" style="stroke:#181818;stroke-width:0.5;" width="72.7529" x="541.37" y="365.46"/><text fill="#000000" font-family="sans-serif" font-size="14" lengthAdjust="spacing" textLength="52.7529" x="551.37" y="388.9952">Alumno</text></g><!--entity ListasAbierto--><g class="entity" data-qualified-name="ListasAbierto" data-source-line="3" id="ent0002"><rect fill="#CDEBA5" height="36.4883" rx="2.5" ry="2.5" style="stroke:#181818;stroke-width:0.5;" width="117.4941" x="7" y="41"/><text fill="#000000" font-family="sans-serif" font-size="14" lengthAdjust="spacing" textLength="97.4941" x="17" y="64.5352">:Listas Abierto</text></g><!--link ListasAbierto to ImportarListasAlumnosView--><g class="link" data-entity-1="ent0002" data-entity-2="ent0004" data-link-type="dependency" data-source-line="13" id="lnk9"><path d="M124.6,59.24 C176.31,59.24 246.77,59.24 308.91,59.24" fill="none" id="ListasAbierto-to-ImportarListasAlumnosView" style="stroke:#181818;stroke-width:1;"/><polygon fill="#181818" points="314.91,59.24,305.91,55.24,309.91,59.24,305.91,63.24,314.91,59.24" style="stroke:#181818;stroke-width:1;"/><text fill="#000000" font-family="sans-serif" font-size="13" lengthAdjust="spacing" textLength="154.7939" x="142.78" y="52.8084">importarListasAlumnos()</text></g><!--link ImportarListasAlumnosView to AlumnoController--><g class="link" data-entity-1="ent0004" data-entity-2="ent0005" data-link-type="dependency" data-source-line="15" id="lnk10"><path d="M419.75,77.66 C419.75,98.48 419.75,127.13 419.75,148.06" fill="none" id="ImportarListasAlumnosView-to-AlumnoController" style="stroke:#181818;stroke-width:1;"/><polygon fill="#181818" points="419.75,154.06,423.75,145.06,419.75,149.06,415.75,145.06,419.75,154.06" style="stroke:#181818;stroke-width:1;"/><text fill="#000000" font-family="sans-serif" font-size="13" lengthAdjust="spacing" textLength="253.0176" x="420.75" y="121.0584">importar(archivos) : InformeImportacion</text></g><!--link AlumnoController to ValidadorArchivoListasAlumnos--><g class="link" data-entity-1="ent0005" data-entity-2="ent0006" data-link-type="dependency" data-source-line="17" id="lnk11"><path d="M362.72,191.46 C319.58,204.86 267.75,220.97 267.75,220.97 C267.75,220.97 267.75,237.97 267.75,237.97 C267.75,237.97 291.6862,251.2741 315.8562,264.7141" fill="none" id="AlumnoController-to-ValidadorArchivoListasAlumnos" style="stroke:#181818;stroke-width:1;"/><polygon fill="#181818" points="321.1,267.63,315.1782,259.7603,316.7302,265.2001,311.2904,266.7521,321.1,267.63" style="stroke:#181818;stroke-width:1;"/><text fill="#000000" font-family="sans-serif" font-size="13" lengthAdjust="spacing" textLength="242.3726" x="268.75" y="234.5384">validar(archivos) : ResultadoValidacion</text></g><!--link AlumnoController to AlumnoRepository--><g class="link" data-entity-1="ent0005" data-entity-2="ent0007" data-link-type="dependency" data-source-line="19" id="lnk12"><path d="M455.77,191.46 C483.01,204.86 515.75,220.97 515.75,220.97 C515.75,220.97 538.2829,244.3231 556.6429,263.3431" fill="none" id="AlumnoController-to-AlumnoRepository" style="stroke:#181818;stroke-width:1;"/><polygon fill="#181818" points="560.81,267.66,557.4373,258.4066,557.3374,264.0626,551.6815,263.9627,560.81,267.66" style="stroke:#181818;stroke-width:1;"/><text fill="#000000" font-family="sans-serif" font-size="13" lengthAdjust="spacing" textLength="244.8481" x="531.73" y="234.5384">guardarLote(registros) : List&lt;Alumno&gt;</text></g><!--link AlumnoRepository to Alumno--><g class="link" data-entity-1="ent0007" data-entity-2="ent0008" data-link-type="association" data-source-line="21" id="lnk13"><path d="M577.75,304.73 C577.75,321.85 577.75,347.79 577.75,364.98" fill="none" id="AlumnoRepository-Alumno" style="stroke:#181818;stroke-width:1;"/></g><?plantuml-src VP71Ri8m38RlUGghkvH3BsYWKKr87GC9YHC7xg7rkeWqhfoKgPhsxWjhcMYXzIbnVd-_xTYJCgLaMO1M1brT8fIawyj52CRKIPDhXAVL-_ejcK4GxvHrqa9oLCYE0l3d9jLcX2XbUf8vWYfAOYUvVTPLOSXUzC73bt0ImBS07pUsy-bYlLd0zb71GU5NNt-S7RFv2pIA5Hd7f3NoWEmWjSfaHfnm-gdErC7tQpRJPFMyRj5xBCagHroFoiIF49tjGCJHSdWS-8yO1fOan71rb7buV_PxOYYRSUt49xVcWxZ05fegCaBS8IBF7LrMwt3-qtGDzcWhxNnX0nXnwAyMxYA6l9Bi7NRaC6JCVG_Ss5pQUMq8ool_1XL5ro_v1G00?></g></svg>