<?plantuml 1.2026.2?><svg xmlns="http://www.w3.org/2000/svg" xmlns:xlink="http://www.w3.org/1999/xlink" contentStyleType="text/css" data-diagram-type="DESCRIPTION" height="424px" preserveAspectRatio="none" style="width:1434px;height:424px;background:#FFFFFF;" version="1.1" viewBox="0 0 1434 424" width="1434px" zoomAndPan="magnify"><defs/><g><!--cluster crearSolicitudDispensa--><g class="cluster" data-qualified-name="crearSolicitudDispensa" data-source-line="6" id="ent0004"><path d="M173.36,6 L349.9342,6 A3.75,3.75 0 0 1 352.4342,8.5 L359.4342,28.4883 L1108.36,28.4883 A2.5,2.5 0 0 1 1110.86,30.9883 L1110.86,415.45 A2.5,2.5 0 0 1 1108.36,417.95 L173.36,417.95 A2.5,2.5 0 0 1 170.86,415.45 L170.86,8.5 A2.5,2.5 0 0 1 173.36,6" fill="none" style="stroke:#000000;stroke-width:1.5;"/><line style="stroke:#000000;stroke-width:1.5;" x1="170.86" x2="359.4342" y1="28.4883" y2="28.4883"/><text fill="#000000" font-family="sans-serif" font-size="14" font-weight="bold" lengthAdjust="spacing" textLength="175.5742" x="174.86" y="21.5352">crearSolicitudDispensa()</text></g><!--entity CrearSolicitudDispensaView--><g class="entity" data-qualified-name="crearSolicitudDispensa.CrearSolicitudDispensaView" data-source-line="7" id="ent0005"><rect fill="#629EF9" height="36.4883" rx="2.5" ry="2.5" style="stroke:#181818;stroke-width:0.5;" width="208.4873" x="439.61" y="41"/><text fill="#000000" font-family="sans-serif" font-size="14" lengthAdjust="spacing" textLength="188.4873" x="449.61" y="64.5352">CrearSolicitudDispensaView</text></g><!--entity SolicitudDispensaController--><g class="entity" data-qualified-name="crearSolicitudDispensa.SolicitudDispensaController" data-source-line="8" id="ent0006"><rect fill="#B5BD68" height="36.4883" rx="2.5" ry="2.5" style="stroke:#181818;stroke-width:0.5;" width="208.1865" x="362.76" y="154.49"/><text fill="#000000" font-family="sans-serif" font-size="14" lengthAdjust="spacing" textLength="188.1865" x="372.76" y="178.0252">SolicitudDispensaController</text></g><!--entity SolicitudDispensaRepository--><g class="entity" data-qualified-name="crearSolicitudDispensa.SolicitudDispensaRepository" data-source-line="9" id="ent0007"><rect fill="#F2AC4E" height="36.4883" rx="2.5" ry="2.5" style="stroke:#181818;stroke-width:0.5;" width="212.1514" x="360.78" y="267.97"/><text fill="#000000" font-family="sans-serif" font-size="14" lengthAdjust="spacing" textLength="192.1514" x="370.78" y="291.5052">SolicitudDispensaRepository</text></g><!--entity SolicitudDispensa--><g class="entity" data-qualified-name="crearSolicitudDispensa.SolicitudDispensa" data-source-line="10" id="ent0008"><rect fill="#F2AC4E" height="36.4883" rx="2.5" ry="2.5" style="stroke:#181818;stroke-width:0.5;" width="140.0254" x="396.85" y="365.46"/><text fill="#000000" font-family="sans-serif" font-size="14" lengthAdjust="spacing" textLength="120.0254" x="406.85" y="388.9952">SolicitudDispensa</text></g><!--entity DispensasAbierto--><g class="entity" data-qualified-name="DispensasAbierto" data-source-line="3" id="ent0002"><rect fill="#CDEBA5" height="36.4883" rx="2.5" ry="2.5" style="stroke:#181818;stroke-width:0.5;" width="147.7158" x="7" y="41"/><text fill="#000000" font-family="sans-serif" font-size="14" lengthAdjust="spacing" textLength="127.7158" x="17" y="64.5352">:Dispensas Abierto</text></g><!--entity EditarSolicitudDispensa--><g class="entity" data-qualified-name="EditarSolicitudDispensa" data-source-line="4" id="ent0003"><rect fill="#CDEBA5" height="36.4883" rx="2.5" ry="2.5" style="stroke:#181818;stroke-width:0.5;" width="279.5811" x="1127.07" y="154.49"/><text fill="#000000" font-family="sans-serif" font-size="14" lengthAdjust="spacing" textLength="259.5811" x="1137.07" y="178.0252">:Collaboration EditarSolicitudDispensa</text></g><!--link DispensasAbierto to CrearSolicitudDispensaView--><g class="link" data-entity-1="ent0002" data-entity-2="ent0005" data-link-type="dependency" data-source-line="13" id="lnk9"><path d="M154.99,59.24 C231.89,59.24 346.77,59.24 433.34,59.24" fill="none" id="DispensasAbierto-to-CrearSolicitudDispensaView" style="stroke:#181818;stroke-width:1;"/><polygon fill="#181818" points="439.34,59.24,430.34,55.24,434.34,59.24,430.34,63.24,439.34,59.24" style="stroke:#181818;stroke-width:1;"/><text fill="#000000" font-family="sans-serif" font-size="13" lengthAdjust="spacing" textLength="151.6265" x="221.67" y="52.8084">crearSolicitudDispensa()</text></g><!--link CrearSolicitudDispensaView to SolicitudDispensaController--><g class="link" data-entity-1="ent0005" data-entity-2="ent0006" data-link-type="dependency" data-source-line="15" id="lnk10"><path d="M439.24,75.45 C344.23,89.26 218.86,107.49 218.86,107.49 C218.86,107.49 218.86,124.49 218.86,124.49 C218.86,124.49 297.5459,139.4776 367.9159,152.8776" fill="none" id="CrearSolicitudDispensaView-to-SolicitudDispensaController" style="stroke:#181818;stroke-width:1;"/><polygon fill="#181818" points="373.81,154,365.7171,148.3871,368.8983,153.0647,364.2206,156.2458,373.81,154" style="stroke:#181818;stroke-width:1;"/><text fill="#000000" font-family="sans-serif" font-size="13" lengthAdjust="spacing" textLength="377.5522" x="219.86" y="121.0584">validarDatosIniciales(asignatura, periodo, horario) : boolean</text></g><!--link CrearSolicitudDispensaView to SolicitudDispensaController--><g class="link" data-entity-1="ent0005" data-entity-2="ent0006" data-link-type="dependency" data-source-line="17" id="lnk11"><path d="M565.45,77.83 C581.95,91.27 601.86,107.49 601.86,107.49 C601.86,107.49 601.86,124.49 601.86,124.49 C601.86,124.49 561.4835,138.619 523.1735,152.019" fill="none" id="CrearSolicitudDispensaView-to-SolicitudDispensaController-1" style="stroke:#181818;stroke-width:1;"/><polygon fill="#181818" points="517.51,154,527.326,154.8042,522.2296,152.3492,524.6847,147.2528,517.51,154" style="stroke:#181818;stroke-width:1;"/><text fill="#000000" font-family="sans-serif" font-size="13" lengthAdjust="spacing" textLength="452.4863" x="602.86" y="121.0584">crearSolicitudDispensa(asignatura, periodo, horario) : SolicitudDispensa</text></g><!--link SolicitudDispensaController to SolicitudDispensaRepository--><g class="link" data-entity-1="ent0006" data-entity-2="ent0007" data-link-type="dependency" data-source-line="19" id="lnk12"><path d="M466.86,191.15 C466.86,211.97 466.86,240.62 466.86,261.55" fill="none" id="SolicitudDispensaController-to-SolicitudDispensaRepository" style="stroke:#181818;stroke-width:1;"/><polygon fill="#181818" points="466.86,267.55,470.86,258.55,466.86,262.55,462.86,258.55,466.86,267.55" style="stroke:#181818;stroke-width:1;"/><text fill="#000000" font-family="sans-serif" font-size="13" lengthAdjust="spacing" textLength="396.4556" x="467.86" y="234.5384">crear(alumno, asignatura, periodo, horario) : SolicitudDispensa</text></g><!--link SolicitudDispensaRepository to SolicitudDispensa--><g class="link" data-entity-1="ent0007" data-entity-2="ent0008" data-link-type="association" data-source-line="21" id="lnk13"><path d="M466.86,304.73 C466.86,321.85 466.86,347.79 466.86,364.98" fill="none" id="SolicitudDispensaRepository-SolicitudDispensa" style="stroke:#181818;stroke-width:1;"/></g><!--link CrearSolicitudDispensaView to EditarSolicitudDispensa--><g class="link" data-entity-1="ent0005" data-entity-2="ent0003" data-link-type="dependency" data-source-line="23" id="lnk14"><path d="M648.46,69.74 C800.31,83.54 1063.86,107.49 1063.86,107.49 C1063.86,107.49 1145.0394,133.1803 1205.1294,152.1903" fill="none" id="CrearSolicitudDispensaView-to-EditarSolicitudDispensa" style="stroke:#181818;stroke-width:1;stroke-dasharray:7,7;"/><polygon fill="#181818" points="1210.85,154,1203.4757,147.4717,1206.0829,152.4919,1201.0627,155.0991,1210.85,154" style="stroke:#181818;stroke-width:1;"/><text fill="#000000" font-family="sans-serif" font-size="13" lengthAdjust="spacing" textLength="312.3999" x="1113.92" y="121.0584">&#171;include&#187; editarSolicitudDispensa(solicitudNueva)</text></g><?plantuml-src hPF1Ri8m38RlUGghknI9Sa033OGgiLAaNNROfDtTnc8H8OcIb0bDU_U52HY2jEomd1BRdt_RITnQA8CMDo258hyp14RBtVx0cANQerf9WhjYKJxEHv1C5y8PKWuTp2j1rki4mlvaFHYZQA6bn4fRz48hABdmQ5-r5BNm3Jzc-4dNucFCOBt65K5jAUBVeqdSbVOI-6GGrbbbu-6aN4wWY19lWZukWMfKyV43NCKMMdaRkYDxIIo7y-A-l2PUo6WdlBQxlnBiYx7BCKDcixoZVZYjARJDXR4EFkCXVqUx8UyMfU1e5-YrUr8X42Mv59rOAVIDnJuOia9ptOVtSFTXsmjKfRKaLDtYDxJRcxgb7dbPNKBHGdvly5X7YhBPgA3q7_9dwRCiHdGCRZ38sxxGuJ7CPaBLik6Kvq3noDGTBSyDRR77lW40?></g></svg>