<?plantuml 1.2026.2?><svg xmlns="http://www.w3.org/2000/svg" xmlns:xlink="http://www.w3.org/1999/xlink" contentStyleType="text/css" data-diagram-type="DESCRIPTION" height="525px" preserveAspectRatio="none" style="width:946px;height:525px;background:#FFFFFF;" version="1.1" viewBox="0 0 946 525" width="946px" zoomAndPan="magnify"><defs/><g><!--cluster editarSolicitudDispensaSecretaria--><g class="cluster" data-qualified-name="editarSolicitudDispensaSecretaria" data-source-line="7" id="ent0005"><path d="M73.36,106.49 L341.8844,106.49 A3.75,3.75 0 0 1 344.3844,108.99 L351.3844,128.9783 L850.36,128.9783 A2.5,2.5 0 0 1 852.86,131.4783 L852.86,515.94 A2.5,2.5 0 0 1 850.36,518.44 L73.36,518.44 A2.5,2.5 0 0 1 70.86,515.94 L70.86,108.99 A2.5,2.5 0 0 1 73.36,106.49" fill="none" style="stroke:#000000;stroke-width:1.5;"/><line style="stroke:#000000;stroke-width:1.5;" x1="70.86" x2="351.3844" y1="128.9783" y2="128.9783"/><text fill="#000000" font-family="sans-serif" font-size="14" font-weight="bold" lengthAdjust="spacing" textLength="267.5244" x="74.86" y="122.0252">editarSolicitudDispensa() (Secretaria)</text></g><!--entity EditarSolicitudDispensaSecretariaView--><g class="entity" data-qualified-name="editarSolicitudDispensaSecretaria.EditarSolicitudDispensaSecretariaView" data-source-line="8" id="ent0006"><rect fill="#629EF9" height="36.4883" rx="2.5" ry="2.5" style="stroke:#181818;stroke-width:0.5;" width="277.4688" x="237.12" y="141.49"/><text fill="#000000" font-family="sans-serif" font-size="14" lengthAdjust="spacing" textLength="257.4688" x="247.12" y="165.0252">EditarSolicitudDispensaSecretariaView</text></g><!--entity SolicitudDispensaController--><g class="entity" data-qualified-name="editarSolicitudDispensaSecretaria.SolicitudDispensaController" data-source-line="9" id="ent0007"><rect fill="#B5BD68" height="36.4883" rx="2.5" ry="2.5" style="stroke:#181818;stroke-width:0.5;" width="208.1865" x="212.76" y="254.98"/><text fill="#000000" font-family="sans-serif" font-size="14" lengthAdjust="spacing" textLength="188.1865" x="222.76" y="278.5152">SolicitudDispensaController</text></g><!--entity SolicitudDispensaRepository--><g class="entity" data-qualified-name="editarSolicitudDispensaSecretaria.SolicitudDispensaRepository" data-source-line="10" id="ent0008"><rect fill="#F2AC4E" height="36.4883" rx="2.5" ry="2.5" style="stroke:#181818;stroke-width:0.5;" width="212.1514" x="228.78" y="368.46"/><text fill="#000000" font-family="sans-serif" font-size="14" lengthAdjust="spacing" textLength="192.1514" x="238.78" y="391.9952">SolicitudDispensaRepository</text></g><!--entity SolicitudDispensa--><g class="entity" data-qualified-name="editarSolicitudDispensaSecretaria.SolicitudDispensa" data-source-line="11" id="ent0009"><rect fill="#F2AC4E" height="36.4883" rx="2.5" ry="2.5" style="stroke:#181818;stroke-width:0.5;" width="140.0254" x="264.85" y="465.95"/><text fill="#000000" font-family="sans-serif" font-size="14" lengthAdjust="spacing" textLength="120.0254" x="274.85" y="489.4852">SolicitudDispensa</text></g><!--entity DispensasAbierto--><g class="entity" data-qualified-name="DispensasAbierto" data-source-line="3" id="ent0002"><rect fill="#CDEBA5" height="36.4883" rx="2.5" ry="2.5" style="stroke:#181818;stroke-width:0.5;" width="147.7158" x="7" y="7"/><text fill="#000000" font-family="sans-serif" font-size="14" lengthAdjust="spacing" textLength="127.7158" x="17" y="30.5352">:Dispensas Abierto</text></g><!--entity ConsultarSolicitudDispensaSecretaria--><g class="entity" data-qualified-name="ConsultarSolicitudDispensaSecretaria" data-source-line="4" id="ent0003"><rect fill="#CDEBA5" height="36.4883" rx="2.5" ry="2.5" style="stroke:#181818;stroke-width:0.5;" width="372.4951" x="189.61" y="7"/><text fill="#000000" font-family="sans-serif" font-size="14" lengthAdjust="spacing" textLength="352.4951" x="199.61" y="30.5352">:Collaboration ConsultarSolicitudDispensaSecretaria</text></g><!--entity CrearSolicitudDispensaSecretaria--><g class="entity" data-qualified-name="CrearSolicitudDispensaSecretaria" data-source-line="5" id="ent0004"><rect fill="#CDEBA5" height="36.4883" rx="2.5" ry="2.5" style="stroke:#181818;stroke-width:0.5;" width="343.627" x="597.04" y="7"/><text fill="#000000" font-family="sans-serif" font-size="14" lengthAdjust="spacing" textLength="323.627" x="607.04" y="30.5352">:Collaboration CrearSolicitudDispensaSecretaria</text></g><!--link DispensasAbierto to EditarSolicitudDispensaSecretariaView--><g class="link" data-entity-1="ent0002" data-entity-2="ent0006" data-link-type="dependency" data-source-line="14" id="lnk10"><path d="M98.07,43.8 C116.73,62.82 143.86,90.49 143.86,90.49 C143.86,90.49 241.3139,119.1568 310.0539,139.3768" fill="none" id="DispensasAbierto-to-EditarSolicitudDispensaSecretariaView" style="stroke:#181818;stroke-width:1;"/><polygon fill="#181818" points="315.81,141.07,308.3046,134.6928,311.0132,139.659,306.047,142.3677,315.81,141.07" style="stroke:#181818;stroke-width:1;"/><text fill="#000000" font-family="sans-serif" font-size="13" lengthAdjust="spacing" textLength="222.0347" x="144.86" y="87.0584">editarSolicitudDispensa(solicitudId)</text></g><!--link ConsultarSolicitudDispensaSecretaria to EditarSolicitudDispensaSecretariaView--><g class="link" data-entity-1="ent0003" data-entity-2="ent0006" data-link-type="dependency" data-source-line="15" id="lnk11"><path d="M375.86,43.84 C375.86,69.18 375.86,109.68 375.86,135.06" fill="none" id="ConsultarSolicitudDispensaSecretaria-to-EditarSolicitudDispensaSecretariaView" style="stroke:#181818;stroke-width:1;"/><polygon fill="#181818" points="375.86,141.06,379.86,132.06,375.86,136.06,371.86,132.06,375.86,141.06" style="stroke:#181818;stroke-width:1;"/><text fill="#000000" font-family="sans-serif" font-size="13" lengthAdjust="spacing" textLength="222.0347" x="376.86" y="87.0584">editarSolicitudDispensa(solicitudId)</text></g><!--link CrearSolicitudDispensaSecretaria to EditarSolicitudDispensaSecretariaView--><g class="link" data-entity-1="ent0004" data-entity-2="ent0006" data-link-type="dependency" data-source-line="16" id="lnk12"><path d="M724.44,43.97 C676.78,62.98 607.86,90.49 607.86,90.49 C607.86,90.49 510.4061,119.1568 441.6661,139.3768" fill="none" id="CrearSolicitudDispensaSecretaria-to-EditarSolicitudDispensaSecretariaView" style="stroke:#181818;stroke-width:1;"/><polygon fill="#181818" points="435.91,141.07,445.673,142.3677,440.7068,139.659,443.4154,134.6928,435.91,141.07" style="stroke:#181818;stroke-width:1;"/><text fill="#000000" font-family="sans-serif" font-size="13" lengthAdjust="spacing" textLength="248.9297" x="647.77" y="87.0584">editarSolicitudDispensa(solicitudNueva)</text></g><!--link EditarSolicitudDispensaSecretariaView to SolicitudDispensaController--><g class="link" data-entity-1="ent0006" data-entity-2="ent0007" data-link-type="dependency" data-source-line="18" id="lnk13"><path d="M279.43,178.46 C206.5,191.86 118.86,207.98 118.86,207.98 C118.86,207.98 118.86,224.98 118.86,224.98 C118.86,224.98 180.5437,239.6982 236.7337,253.0982" fill="none" id="EditarSolicitudDispensaSecretariaView-to-SolicitudDispensaController" style="stroke:#181818;stroke-width:1;"/><polygon fill="#181818" points="242.57,254.49,234.7434,248.5114,237.7064,253.3301,232.8876,256.2931,242.57,254.49" style="stroke:#181818;stroke-width:1;"/><text fill="#000000" font-family="sans-serif" font-size="13" lengthAdjust="spacing" textLength="363.9429" x="119.86" y="221.5484">cargarSolicitudParaEdicion(solicitudId) : SolicitudDispensa</text></g><!--link EditarSolicitudDispensaSecretariaView to SolicitudDispensaController--><g class="link" data-entity-1="ent0006" data-entity-2="ent0007" data-link-type="dependency" data-source-line="22" id="lnk15"><path d="M417.88,178.46 C449.66,191.86 487.86,207.98 487.86,207.98 C487.86,207.98 487.86,224.98 487.86,224.98 C487.86,224.98 435.3235,239.4927 386.8035,252.8927" fill="none" id="EditarSolicitudDispensaSecretariaView-to-SolicitudDispensaController-1" style="stroke:#181818;stroke-width:1;"/><polygon fill="#181818" points="381.02,254.49,390.7601,255.9498,385.8396,253.159,388.6304,248.2385,381.02,254.49" style="stroke:#181818;stroke-width:1;"/><text fill="#000000" font-family="sans-serif" font-size="13" lengthAdjust="spacing" textLength="308.3945" x="488.86" y="221.5484">modificarCampos(solicitudId, cambios) : boolean</text></g><!--link SolicitudDispensaController to SolicitudDispensaRepository--><g class="link" data-entity-1="ent0007" data-entity-2="ent0008" data-link-type="dependency" data-source-line="20" id="lnk14"><path d="M255.7,291.95 C209.45,305.35 153.86,321.46 153.86,321.46 C153.86,321.46 153.86,338.46 153.86,338.46 C153.86,338.46 209.7843,353.0653 261.1443,366.4653" fill="none" id="SolicitudDispensaController-to-SolicitudDispensaRepository" style="stroke:#181818;stroke-width:1;"/><polygon fill="#181818" points="266.95,367.98,259.2513,361.8375,262.112,366.7177,257.2317,369.5784,266.95,367.98" style="stroke:#181818;stroke-width:1;"/><text fill="#000000" font-family="sans-serif" font-size="13" lengthAdjust="spacing" textLength="279.1509" x="154.86" y="335.0284">obtenerPorId(solicitudId) : SolicitudDispensa</text></g><!--link SolicitudDispensaController to SolicitudDispensaRepository--><g class="link" data-entity-1="ent0007" data-entity-2="ent0008" data-link-type="dependency" data-source-line="24" id="lnk16"><path d="M362.63,291.95 C397.25,305.35 438.86,321.46 438.86,321.46 C438.86,321.46 438.86,338.46 438.86,338.46 C438.86,338.46 408.8531,352.0993 379.3431,365.4993" fill="none" id="SolicitudDispensaController-to-SolicitudDispensaRepository-1" style="stroke:#181818;stroke-width:1;"/><polygon fill="#181818" points="373.88,367.98,383.7285,367.901,378.4326,365.9127,380.4209,360.6168,373.88,367.98" style="stroke:#181818;stroke-width:1;"/><text fill="#000000" font-family="sans-serif" font-size="13" lengthAdjust="spacing" textLength="186.2656" x="439.86" y="335.0284">actualizar(solicitud) : boolean</text></g><!--link SolicitudDispensaRepository to SolicitudDispensa--><g class="link" data-entity-1="ent0008" data-entity-2="ent0009" data-link-type="association" data-source-line="26" id="lnk17"><path d="M334.86,405.22 C334.86,422.34 334.86,448.28 334.86,465.47" fill="none" id="SolicitudDispensaRepository-SolicitudDispensa" style="stroke:#181818;stroke-width:1;"/></g><?plantuml-src hLJ1JiCm3BtdAwnoMILwcTZ4TfWqkaxQ1KrCukwsPegM9bMIWWRYtqaHOwNRsY38gN7ztlDpd9WTboLgB41mINPV4fHAxEiDOveoYt8h2AxYHN8t7q4mNN1JaZHeO9voqbO5uBw_er_1iz1O2O6fqcYvaX0hQIfXKM-Ku1ctLNuWsL2coVtW-Cdja-YZfyb3goU9iHAp7Mu9AEVT9TLqmOMiGGY3OsOOm1i3jnecniD9ifn0qgVooEcbZKr7QJw-XHEKQwJLhYUasuZbS1xV9AU81ogLuLRflI-2lJFM7WQ8efcV4sYjwQKs3ymXiif3vZCXloZ2LxLdLlvNyRwYPmmPyoECSgVTCG1ECKEzRH2jtIFWk3DtLNxOT9cdXyowgADpqiT9gazLfPOawRNIgzn3pTDpZsN7NQYSFt7dFCR2rTEKldODALAkJ5r3gfGWb7_sYPcjKF1Nr4UfRlu6FehEzE83?></g></svg>