<?plantuml 1.2026.2?><svg xmlns="http://www.w3.org/2000/svg" xmlns:xlink="http://www.w3.org/1999/xlink" contentStyleType="text/css" data-diagram-type="DESCRIPTION" height="424px" preserveAspectRatio="none" style="width:1671px;height:424px;background:#FFFFFF;" version="1.1" viewBox="0 0 1671 424" width="1671px" zoomAndPan="magnify"><defs/><g><!--cluster crearSolicitudDispensaSecretaria--><g class="cluster" data-qualified-name="crearSolicitudDispensaSecretaria" data-source-line="6" id="ent0004"><path d="M173.36,6 L436.1969,6 A3.75,3.75 0 0 1 438.6969,8.5 L445.6969,28.4883 L1301.36,28.4883 A2.5,2.5 0 0 1 1303.86,30.9883 L1303.86,415.45 A2.5,2.5 0 0 1 1301.36,417.95 L173.36,417.95 A2.5,2.5 0 0 1 170.86,415.45 L170.86,8.5 A2.5,2.5 0 0 1 173.36,6" fill="none" style="stroke:#000000;stroke-width:1.5;"/><line style="stroke:#000000;stroke-width:1.5;" x1="170.86" x2="445.6969" y1="28.4883" y2="28.4883"/><text fill="#000000" font-family="sans-serif" font-size="14" font-weight="bold" lengthAdjust="spacing" textLength="261.8369" x="174.86" y="21.5352">crearSolicitudDispensa() (Secretaria)</text></g><!--entity CrearSolicitudDispensaSecretariaView--><g class="entity" data-qualified-name="crearSolicitudDispensaSecretaria.CrearSolicitudDispensaSecretariaView" data-source-line="7" id="ent0005"><rect fill="#629EF9" height="36.4883" rx="2.5" ry="2.5" style="stroke:#181818;stroke-width:0.5;" width="275.001" x="450.36" y="41"/><text fill="#000000" font-family="sans-serif" font-size="14" lengthAdjust="spacing" textLength="255.001" x="460.36" y="64.5352">CrearSolicitudDispensaSecretariaView</text></g><!--entity SolicitudDispensaController--><g class="entity" data-qualified-name="crearSolicitudDispensaSecretaria.SolicitudDispensaController" data-source-line="8" id="ent0006"><rect fill="#B5BD68" height="36.4883" rx="2.5" ry="2.5" style="stroke:#181818;stroke-width:0.5;" width="208.1865" x="389.76" y="154.49"/><text fill="#000000" font-family="sans-serif" font-size="14" lengthAdjust="spacing" textLength="188.1865" x="399.76" y="178.0252">SolicitudDispensaController</text></g><!--entity SolicitudDispensaRepository--><g class="entity" data-qualified-name="crearSolicitudDispensaSecretaria.SolicitudDispensaRepository" data-source-line="9" id="ent0007"><rect fill="#F2AC4E" height="36.4883" rx="2.5" ry="2.5" style="stroke:#181818;stroke-width:0.5;" width="212.1514" x="387.78" y="267.97"/><text fill="#000000" font-family="sans-serif" font-size="14" lengthAdjust="spacing" textLength="192.1514" x="397.78" y="291.5052">SolicitudDispensaRepository</text></g><!--entity SolicitudDispensa--><g class="entity" data-qualified-name="crearSolicitudDispensaSecretaria.SolicitudDispensa" data-source-line="10" id="ent0008"><rect fill="#F2AC4E" height="36.4883" rx="2.5" ry="2.5" style="stroke:#181818;stroke-width:0.5;" width="140.0254" x="423.85" y="365.46"/><text fill="#000000" font-family="sans-serif" font-size="14" lengthAdjust="spacing" textLength="120.0254" x="433.85" y="388.9952">SolicitudDispensa</text></g><!--entity DispensasAbierto--><g class="entity" data-qualified-name="DispensasAbierto" data-source-line="3" id="ent0002"><rect fill="#CDEBA5" height="36.4883" rx="2.5" ry="2.5" style="stroke:#181818;stroke-width:0.5;" width="147.7158" x="7" y="41"/><text fill="#000000" font-family="sans-serif" font-size="14" lengthAdjust="spacing" textLength="127.7158" x="17" y="64.5352">:Dispensas Abierto</text></g><!--entity EditarSolicitudDispensaSecretaria--><g class="entity" data-qualified-name="EditarSolicitudDispensaSecretaria" data-source-line="4" id="ent0003"><rect fill="#CDEBA5" height="36.4883" rx="2.5" ry="2.5" style="stroke:#181818;stroke-width:0.5;" width="346.0947" x="1319.81" y="154.49"/><text fill="#000000" font-family="sans-serif" font-size="14" lengthAdjust="spacing" textLength="326.0947" x="1329.81" y="178.0252">:Collaboration EditarSolicitudDispensaSecretaria</text></g><!--link DispensasAbierto to CrearSolicitudDispensaSecretariaView--><g class="link" data-entity-1="ent0002" data-entity-2="ent0005" data-link-type="dependency" data-source-line="13" id="lnk9"><path d="M155.12,59.24 C232.34,59.24 348.99,59.24 444.03,59.24" fill="none" id="DispensasAbierto-to-CrearSolicitudDispensaSecretariaView" style="stroke:#181818;stroke-width:1;"/><polygon fill="#181818" points="450.03,59.24,441.03,55.24,445.03,59.24,441.03,63.24,450.03,59.24" style="stroke:#181818;stroke-width:1;"/><text fill="#000000" font-family="sans-serif" font-size="13" lengthAdjust="spacing" textLength="151.6265" x="227.04" y="52.8084">crearSolicitudDispensa()</text></g><!--link CrearSolicitudDispensaSecretariaView to SolicitudDispensaController--><g class="link" data-entity-1="ent0005" data-entity-2="ent0006" data-link-type="dependency" data-source-line="15" id="lnk10"><path d="M449.93,77.9 C345.12,91.32 218.86,107.49 218.86,107.49 C218.86,107.49 218.86,124.49 218.86,124.49 C218.86,124.49 306.7265,139.5846 384.7665,152.9846" fill="none" id="CrearSolicitudDispensaSecretariaView-to-SolicitudDispensaController" style="stroke:#181818;stroke-width:1;"/><polygon fill="#181818" points="390.68,154,382.4867,148.5346,385.7521,153.1538,381.1329,156.4192,390.68,154" style="stroke:#181818;stroke-width:1;"/><text fill="#000000" font-family="sans-serif" font-size="13" lengthAdjust="spacing" textLength="432.9736" x="219.86" y="121.0584">validarDatosIniciales(alumno, asignatura, periodo, horario) : boolean</text></g><!--link CrearSolicitudDispensaSecretariaView to SolicitudDispensaController--><g class="link" data-entity-1="ent0005" data-entity-2="ent0006" data-link-type="dependency" data-source-line="17" id="lnk11"><path d="M613.55,77.83 C633.17,91.27 656.86,107.49 656.86,107.49 C656.86,107.49 656.86,124.49 656.86,124.49 C656.86,124.49 607.033,138.9303 560.783,152.3303" fill="none" id="CrearSolicitudDispensaSecretariaView-to-SolicitudDispensaController-1" style="stroke:#181818;stroke-width:1;"/><polygon fill="#181818" points="555.02,154,564.7776,155.3374,559.8225,152.6086,562.5513,147.6534,555.02,154" style="stroke:#181818;stroke-width:1;"/><text fill="#000000" font-family="sans-serif" font-size="13" lengthAdjust="spacing" textLength="590.4717" x="657.86" y="121.0584">crearSolicitudDispensaEnNombreDe(alumno, asignatura, periodo, horario) : SolicitudDispensa</text></g><!--link SolicitudDispensaController to SolicitudDispensaRepository--><g class="link" data-entity-1="ent0006" data-entity-2="ent0007" data-link-type="dependency" data-source-line="19" id="lnk12"><path d="M493.86,191.15 C493.86,211.97 493.86,240.62 493.86,261.55" fill="none" id="SolicitudDispensaController-to-SolicitudDispensaRepository" style="stroke:#181818;stroke-width:1;"/><polygon fill="#181818" points="493.86,267.55,497.86,258.55,493.86,262.55,489.86,258.55,493.86,267.55" style="stroke:#181818;stroke-width:1;"/><text fill="#000000" font-family="sans-serif" font-size="13" lengthAdjust="spacing" textLength="396.4556" x="494.86" y="234.5384">crear(alumno, asignatura, periodo, horario) : SolicitudDispensa</text></g><!--link SolicitudDispensaRepository to SolicitudDispensa--><g class="link" data-entity-1="ent0007" data-entity-2="ent0008" data-link-type="association" data-source-line="21" id="lnk13"><path d="M493.86,304.73 C493.86,321.85 493.86,347.79 493.86,364.98" fill="none" id="SolicitudDispensaRepository-SolicitudDispensa" style="stroke:#181818;stroke-width:1;"/></g><!--link CrearSolicitudDispensaSecretariaView to EditarSolicitudDispensaSecretaria--><g class="link" data-entity-1="ent0005" data-entity-2="ent0003" data-link-type="dependency" data-source-line="23" id="lnk14"><path d="M725.66,69.97 C921.5,83.8 1256.86,107.49 1256.86,107.49 C1256.86,107.49 1352.1005,133.4146 1421.9605,152.4246" fill="none" id="CrearSolicitudDispensaSecretariaView-to-EditarSolicitudDispensaSecretaria" style="stroke:#181818;stroke-width:1;stroke-dasharray:7,7;"/><polygon fill="#181818" points="1427.75,154,1420.1161,147.7772,1422.9254,152.6872,1418.0155,155.4965,1427.75,154" style="stroke:#181818;stroke-width:1;"/><text fill="#000000" font-family="sans-serif" font-size="13" lengthAdjust="spacing" textLength="312.3999" x="1314.89" y="121.0584">&#171;include&#187; editarSolicitudDispensa(solicitudNueva)</text></g><?plantuml-src hLFDQi904BxlKmpf9G7ZGQfKaO1D8lJYeKBlasImW-jksDrOfFJTkvPQHQFcq9msiz_Vp2HspQf6WnkGhCZjQe9Qozt-HGX3fKEraWGFQPO_puOGJ3AsDIcB5cO5at4w07_-g_uMMwcfbX8BRT2nLf1NxD0ijUIINLCT59PK6l8NZ3_2Tr52r5YkSKNWApUHUxcW7HH641w1KG2V0lnpqiHeCCxdOqZlUBmnVPnJYs5HZPxWWfLgvOmV2PbpndmmIn_pIyOhrTgoqsRNbI6-X3ZV3SGcJZfr0Z21QmCJefD2N7cl6wrxXorAhj1awBHzKHw8aco8ijaetVDBuvL2rnZiGKs6TUMBx_uZyiV8imkj9Q7g6kTEcgiDvsgXDuMXZ3edkro6k6NT6ksuyKEoVxK_aO_ZDaQdeVRxoVt_r2UQJbcLigaeIO3QyQ4zL1ODRJ4Itm00?></g></svg>