<?plantuml 1.2026.2?><svg xmlns="http://www.w3.org/2000/svg" xmlns:xlink="http://www.w3.org/1999/xlink" contentStyleType="text/css" data-diagram-type="DESCRIPTION" height="511px" preserveAspectRatio="none" style="width:595px;height:511px;background:#FFFFFF;" version="1.1" viewBox="0 0 595 511" width="595px" zoomAndPan="magnify"><title>Casos de uso del Usuario</title><defs/><g><g class="title" data-source-line="1"><text fill="#000000" font-family="sans-serif" font-size="14" font-weight="bold" lengthAdjust="spacing" textLength="182.5059" x="199.6" y="23.5352">Casos de uso del Usuario</text></g><!--cluster Sesi?n--><g class="cluster" data-qualified-name="Sesi.n" data-source-line="23" id="ent0015"><rect fill="none" height="148" rx="2.5" ry="2.5" style="stroke:#181818;stroke-width:1;" width="163.31" x="105.83" y="357.2283"/><text fill="#000000" font-family="sans-serif" font-size="14" font-weight="bold" lengthAdjust="spacing" textLength="46.8057" x="164.0822" y="372.7634">Sesi&#243;n</text></g><!--entity IniciarSesion--><g class="entity" data-qualified-name="Sesi.n.IniciarSesion" data-source-line="24" id="ent0016"><ellipse cx="187.477" cy="473.2297" fill="#F1F1F1" rx="65.657" ry="15.5314" style="stroke:#181818;stroke-width:0.5;"/><text fill="#000000" font-family="sans-serif" font-size="14" lengthAdjust="spacing" textLength="94.377" x="140.2885" y="477.9738">iniciarSesion()</text></g><!--entity CerrarSesion--><g class="entity" data-qualified-name="Sesi.n.CerrarSesion" data-source-line="25" id="ent0017"><ellipse cx="187.4771" cy="407.2317" fill="#F1F1F1" rx="65.0671" ry="15.4134" style="stroke:#181818;stroke-width:0.5;"/><text fill="#000000" font-family="sans-serif" font-size="14" lengthAdjust="spacing" textLength="92.8047" x="141.0747" y="411.9758">cerrarSesion()</text></g><!--entity Usuario--><g class="entity" data-qualified-name="Usuario" data-source-line="5" id="ent0002"><ellipse cx="31.8159" cy="273.4883" fill="#F1F1F1" rx="8" ry="8" style="stroke:#181818;stroke-width:0.5;"/><path d="M31.8159,281.4883 L31.8159,308.4883 M18.8159,289.4883 L44.8159,289.4883 M31.8159,308.4883 L18.8159,323.4883 M31.8159,308.4883 L44.8159,323.4883" fill="none" style="stroke:#181818;stroke-width:0.5;"/><text fill="#000000" font-family="sans-serif" font-size="14" lengthAdjust="spacing" textLength="51.6318" x="6" y="338.5234">Usuario</text></g><!--entity Alumno--><g class="entity" data-qualified-name="Alumno" data-source-line="6" id="ent0003"><ellipse cx="187.4865" cy="51.4883" fill="#F1F1F1" rx="8" ry="8" style="stroke:#181818;stroke-width:0.5;"/><path d="M187.4865,59.4883 L187.4865,86.4883 M174.4865,67.4883 L200.4865,67.4883 M187.4865,86.4883 L174.4865,101.4883 M187.4865,86.4883 L200.4865,101.4883" fill="none" style="stroke:#181818;stroke-width:0.5;"/><text fill="#000000" font-family="sans-serif" font-size="14" lengthAdjust="spacing" textLength="52.7529" x="161.11" y="116.5234">Alumno</text></g><!--entity Profesor--><g class="entity" data-qualified-name="Profesor" data-source-line="7" id="ent0004"><ellipse cx="187.4893" cy="162.4883" fill="#F1F1F1" rx="8" ry="8" style="stroke:#181818;stroke-width:0.5;"/><path d="M187.4893,170.4883 L187.4893,197.4883 M174.4893,178.4883 L200.4893,178.4883 M187.4893,197.4883 L174.4893,212.4883 M187.4893,197.4883 L200.4893,212.4883" fill="none" style="stroke:#181818;stroke-width:0.5;"/><text fill="#000000" font-family="sans-serif" font-size="14" lengthAdjust="spacing" textLength="56.4785" x="159.25" y="227.5234">Profesor</text></g><!--entity SecretariaAcademica--><g class="entity" data-qualified-name="SecretariaAcademica" data-source-line="8" id="ent0005"><ellipse cx="187.483" cy="273.4883" fill="#F1F1F1" rx="8" ry="8" style="stroke:#181818;stroke-width:0.5;"/><path d="M187.483,281.4883 L187.483,308.4883 M174.483,289.4883 L200.483,289.4883 M187.483,308.4883 L174.483,323.4883 M187.483,308.4883 L200.483,323.4883" fill="none" style="stroke:#181818;stroke-width:0.5;"/><text fill="#000000" font-family="sans-serif" font-size="14" lengthAdjust="spacing" textLength="139.7061" x="117.63" y="338.5234">SecretariaAcademica</text></g><!--entity DirectorDeGrado--><g class="entity" data-qualified-name="DirectorDeGrado" data-source-line="9" id="ent0006"><ellipse cx="374.3756" cy="162.4883" fill="#F1F1F1" rx="8" ry="8" style="stroke:#181818;stroke-width:0.5;"/><path d="M374.3756,170.4883 L374.3756,197.4883 M361.3756,178.4883 L387.3756,178.4883 M374.3756,197.4883 L361.3756,212.4883 M374.3756,197.4883 L387.3756,212.4883" fill="none" style="stroke:#181818;stroke-width:0.5;"/><text fill="#000000" font-family="sans-serif" font-size="14" lengthAdjust="spacing" textLength="114.0713" x="317.34" y="227.5234">DirectorDeGrado</text></g><!--entity Administrador--><g class="entity" data-qualified-name="Administrador" data-source-line="10" id="ent0007"><ellipse cx="540.0579" cy="162.4883" fill="#F1F1F1" rx="8" ry="8" style="stroke:#181818;stroke-width:0.5;"/><path d="M540.0579,170.4883 L540.0579,197.4883 M527.0579,178.4883 L553.0579,178.4883 M540.0579,197.4883 L527.0579,212.4883 M540.0579,197.4883 L553.0579,212.4883" fill="none" style="stroke:#181818;stroke-width:0.5;"/><text fill="#000000" font-family="sans-serif" font-size="14" lengthAdjust="spacing" textLength="97.2959" x="491.41" y="227.5234">Administrador</text></g><!--reverse link Usuario to Alumno--><g class="link" data-entity-1="ent0002" data-entity-2="ent0003" data-link-type="extension" data-source-line="13" id="lnk8"><path d="M44.5793,247.3174 C53.3293,210.9374 66.51,173.9183 97.83,136.2283 C114.73,115.8883 141.19,100.8583 160.81,91.6983" fill="none" id="Usuario-backto-Alumno" style="stroke:#181818;stroke-width:1;"/><polygon fill="none" points="40.37,264.8183,50.4129,248.7205,38.7456,245.9143,40.37,264.8183" style="stroke:#181818;stroke-width:1;"/></g><!--reverse link Usuario to Profesor--><g class="link" data-entity-1="ent0002" data-entity-2="ent0004" data-link-type="extension" data-source-line="14" id="lnk9"><path d="M71.4502,267.9662 C83.2002,257.5162 84.14,257.2783 97.83,247.2283 C117.54,232.7583 141.12,218.2583 159,207.7783" fill="none" id="Usuario-backto-Profesor" style="stroke:#181818;stroke-width:1;"/><polygon fill="none" points="58,279.9283,75.4376,272.4496,67.4628,263.4828,58,279.9283" style="stroke:#181818;stroke-width:1;"/></g><!--reverse link Usuario to SecretariaAcademica--><g class="link" data-entity-1="ent0002" data-entity-2="ent0005" data-link-type="extension" data-source-line="15" id="lnk10"><path d="M75.85,303.2283 C92.09,303.2283 96.12,303.2283 117.35,303.2283" fill="none" id="Usuario-backto-SecretariaAcademica" style="stroke:#181818;stroke-width:1;"/><polygon fill="none" points="57.85,303.2283,75.85,309.2283,75.85,297.2283,57.85,303.2283" style="stroke:#181818;stroke-width:1;"/></g><!--reverse link Profesor to DirectorDeGrado--><g class="link" data-entity-1="ent0004" data-entity-2="ent0006" data-link-type="extension" data-source-line="18" id="lnk11"><path d="M234.16,192.2283 C260.76,192.2283 283.73,192.2283 317.17,192.2283" fill="none" id="Profesor-backto-DirectorDeGrado" style="stroke:#181818;stroke-width:1;"/><polygon fill="none" points="216.16,192.2283,234.16,198.2283,234.16,186.2283,216.16,192.2283" style="stroke:#181818;stroke-width:1;"/></g><!--reverse link DirectorDeGrado to Administrador--><g class="link" data-entity-1="ent0006" data-entity-2="ent0007" data-link-type="extension" data-source-line="19" id="lnk12"><path d="M449.7,192.2283 C469.03,192.2283 472.47,192.2283 491.07,192.2283" fill="none" id="DirectorDeGrado-backto-Administrador" style="stroke:#181818;stroke-width:1;"/><polygon fill="none" points="431.7,192.2283,449.7,198.2283,449.7,186.2283,431.7,192.2283" style="stroke:#181818;stroke-width:1;"/></g><!--reverse link SecretariaAcademica to Administrador--><g class="link" data-entity-1="ent0005" data-entity-2="ent0007" data-link-type="extension" data-source-line="20" id="lnk13"><path d="M275.3568,289.2781 C324.7168,280.4181 374.46,269.0883 431.41,248.2283 C451.59,240.8383 472.77,230.4483 490.96,220.6183" fill="none" id="SecretariaAcademica-backto-Administrador" style="stroke:#181818;stroke-width:1;"/><polygon fill="none" points="257.64,292.4583,276.4169,295.1838,274.2968,283.3725,257.64,292.4583" style="stroke:#181818;stroke-width:1;"/></g><!--reverse link Alumno to Administrador--><g class="link" data-entity-1="ent0003" data-entity-2="ent0007" data-link-type="extension" data-source-line="21" id="lnk14"><path d="M232.0796,87.5165 C277.1396,94.2965 354.87,108.1883 431.41,136.2283 C451.59,143.6183 472.77,154.0083 490.96,163.8383" fill="none" id="Alumno-backto-Administrador" style="stroke:#181818;stroke-width:1;"/><polygon fill="none" points="214.28,84.8383,231.1869,93.4497,232.9724,81.5833,214.28,84.8383" style="stroke:#181818;stroke-width:1;"/></g><!--link Usuario to IniciarSesion--><g class="link" data-entity-1="ent0002" data-entity-2="ent0016" data-link-type="dependency" data-source-line="28" id="lnk18"><path d="M42.43,341.7483 C51.87,372.2183 69.11,413.8983 97.83,440.2283 C109.09,450.5483 118.2022,455.7595 132.4522,460.7095" fill="none" id="Usuario-to-IniciarSesion" style="stroke:#181818;stroke-width:1;"/><polygon fill="#181818" points="138.12,462.6783,130.9309,455.9465,133.3968,461.0376,128.3058,463.5036,138.12,462.6783" style="stroke:#181818;stroke-width:1;"/></g><!--link Usuario to CerrarSesion--><g class="link" data-entity-1="ent0002" data-entity-2="ent0017" data-link-type="dependency" data-source-line="29" id="lnk19"><path d="M58.04,327.1783 C69.68,337.6383 83.97,349.6683 97.83,359.2283 C116.56,372.1483 133.7659,381.6301 151.4459,390.4901" fill="none" id="Usuario-to-CerrarSesion" style="stroke:#181818;stroke-width:1;"/><polygon fill="#181818" points="156.81,393.1783,150.5559,385.57,152.3399,390.9382,146.9717,392.7222,156.81,393.1783" style="stroke:#181818;stroke-width:1;"/></g><?plantuml-src RL5BJiCm4Dtx5ADkQ1Uv0KAgMWcnGwGSOB0dmJInouozGC2HM764NWoRV9H4ySQQzvxVl1cVR6W83YXUm114yUbgu5aYilMgeIf0yC2sVWrWB9CErZibP-ikoDZ21VKPQoh3H_B9DBgw8QLG1y-ZJrVjczYweNXaNv5uxikID5D8OjnhDDHQZJrp_E_g-KZtZ6RqCgrrLaA6MAaRE7dZeUCm1d8XERoaJ2GGtHYal-7sgoY6F3DiZ3L3rzAbdaya8IyC6eGtOkJtUFt136XCYx4cQGMsJ1KnEMrnfmR_pdSvswBkOyv6NOco9kjcMsDK_sMmAKdizTTju5D1Eb58eoGyYLDMphHtszq6KE1XYitbcfYdwYm_J33rhSPj5iNTmchAJ5_z0G00?></g></svg>