<?plantuml 1.2026.2?><svg xmlns="http://www.w3.org/2000/svg" xmlns:xlink="http://www.w3.org/1999/xlink" contentStyleType="text/css" data-diagram-type="STATE" height="856px" preserveAspectRatio="none" style="width:1645px;height:856px;background:#FFFFFF;" version="1.1" viewBox="0 0 1645 856" width="1645px" zoomAndPan="magnify"><title>Diagrama de contexto: perspectiva del Administrador</title><defs/><g><g class="title" data-source-line="1"><text fill="#000000" font-family="sans-serif" font-size="14" font-weight="bold" lengthAdjust="spacing" textLength="385.5947" x="622.7951" y="23.5352">Diagrama de contexto: perspectiva del Administrador</text></g><g class="start_entity" data-qualified-name=".start." data-source-line="5" id="ent0002"><ellipse cx="16" cy="451.4883" fill="#222222" rx="10" ry="10" style="stroke:#222222;stroke-width:1;"/></g><g class="entity" data-qualified-name="SESION_CERRADA" id="ent0003"><rect fill="#F1F1F1" height="50" rx="12.5" ry="12.5" style="stroke:#181818;stroke-width:0.5;" width="139.7041" x="87" y="426.4883"/><line style="stroke:#181818;stroke-width:0.5;" x1="87" x2="226.7041" y1="452.9766" y2="452.9766"/><text fill="#000000" font-family="sans-serif" font-size="14" lengthAdjust="spacing" textLength="119.7041" x="97" y="445.0234">SESION_CERRADA</text></g><g class="entity" data-qualified-name="SISTEMA_DISPONIBLE" id="ent0005"><rect fill="#F1F1F1" height="50" rx="12.5" ry="12.5" style="stroke:#181818;stroke-width:0.5;" width="162.4268" x="375.7" y="426.4883"/><line style="stroke:#181818;stroke-width:0.5;" x1="375.7" x2="538.1268" y1="452.9766" y2="452.9766"/><text fill="#000000" font-family="sans-serif" font-size="14" lengthAdjust="spacing" textLength="142.4268" x="385.7" y="445.0234">SISTEMA_DISPONIBLE</text></g><g class="entity" data-qualified-name="LISTAS_ABIERTO" id="ent0008"><rect fill="#F1F1F1" height="50" rx="12.5" ry="12.5" style="stroke:#181818;stroke-width:0.5;" width="130.0039" x="811.34" y="105.4883"/><line style="stroke:#181818;stroke-width:0.5;" x1="811.34" x2="941.3439" y1="131.9766" y2="131.9766"/><text fill="#000000" font-family="sans-serif" font-size="14" lengthAdjust="spacing" textLength="110.0039" x="821.34" y="124.0234">LISTAS_ABIERTO</text></g><g class="entity" data-qualified-name="LISTA_ABIERTA" id="ent0012"><rect fill="#F1F1F1" height="50" rx="12.5" ry="12.5" style="stroke:#181818;stroke-width:0.5;" width="121.2471" x="1423.08" y="93.4883"/><line style="stroke:#181818;stroke-width:0.5;" x1="1423.08" x2="1544.3271" y1="119.9766" y2="119.9766"/><text fill="#000000" font-family="sans-serif" font-size="14" lengthAdjust="spacing" textLength="101.2471" x="1433.08" y="112.0234">LISTA_ABIERTA</text></g><g class="entity" data-qualified-name="ALUMNOS_ABIERTO" id="ent0015"><rect fill="#F1F1F1" height="50" rx="12.5" ry="12.5" style="stroke:#181818;stroke-width:0.5;" width="152.5557" x="800.06" y="235.4883"/><line style="stroke:#181818;stroke-width:0.5;" x1="800.06" x2="952.6157" y1="261.9766" y2="261.9766"/><text fill="#000000" font-family="sans-serif" font-size="14" lengthAdjust="spacing" textLength="132.5557" x="810.06" y="254.0234">ALUMNOS_ABIERTO</text></g><g class="entity" data-qualified-name="ALUMNO_ABIERTO" id="ent0019"><rect fill="#F1F1F1" height="50" rx="12.5" ry="12.5" style="stroke:#181818;stroke-width:0.5;" width="145.0156" x="1411.19" y="230.4883"/><line style="stroke:#181818;stroke-width:0.5;" x1="1411.19" x2="1556.2056" y1="256.9766" y2="256.9766"/><text fill="#000000" font-family="sans-serif" font-size="14" lengthAdjust="spacing" textLength="125.0156" x="1421.19" y="249.0234">ALUMNO_ABIERTO</text></g><g class="entity" data-qualified-name="MATRICULAS_ABIERTO" id="ent0022"><rect fill="#F1F1F1" height="50" rx="12.5" ry="12.5" style="stroke:#181818;stroke-width:0.5;" width="172.4209" x="790.13" y="365.4883"/><line style="stroke:#181818;stroke-width:0.5;" x1="790.13" x2="962.5509" y1="391.9766" y2="391.9766"/><text fill="#000000" font-family="sans-serif" font-size="14" lengthAdjust="spacing" textLength="152.4209" x="800.13" y="384.0234">MATRICULAS_ABIERTO</text></g><g class="entity" data-qualified-name="MATRICULA_ABIERTA" id="ent0026"><rect fill="#F1F1F1" height="50" rx="12.5" ry="12.5" style="stroke:#181818;stroke-width:0.5;" width="163.6641" x="1401.87" y="322.4883"/><line style="stroke:#181818;stroke-width:0.5;" x1="1401.87" x2="1565.5341" y1="348.9766" y2="348.9766"/><text fill="#000000" font-family="sans-serif" font-size="14" lengthAdjust="spacing" textLength="143.6641" x="1411.87" y="341.0234">MATRICULA_ABIERTA</text></g><g class="entity" data-qualified-name="ASISTENCIAS_ABIERTO" id="ent0029"><rect fill="#F1F1F1" height="50" rx="12.5" ry="12.5" style="stroke:#181818;stroke-width:0.5;" width="171.3887" x="790.65" y="495.4883"/><line style="stroke:#181818;stroke-width:0.5;" x1="790.65" x2="962.0387" y1="521.9766" y2="521.9766"/><text fill="#000000" font-family="sans-serif" font-size="14" lengthAdjust="spacing" textLength="151.3887" x="800.65" y="514.0234">ASISTENCIAS_ABIERTO</text></g><g class="entity" data-qualified-name="SESION_ASISTENCIA_ABIERTA" id="ent0033"><rect fill="#F1F1F1" height="50" rx="12.5" ry="12.5" style="stroke:#181818;stroke-width:0.5;" width="217.5518" x="1374.92" y="466.4883"/><line style="stroke:#181818;stroke-width:0.5;" x1="1374.92" x2="1592.4718" y1="492.9766" y2="492.9766"/><text fill="#000000" font-family="sans-serif" font-size="14" lengthAdjust="spacing" textLength="197.5518" x="1384.92" y="485.0234">SESION_ASISTENCIA_ABIERTA</text></g><g class="entity" data-qualified-name="DISPENSAS_ABIERTO" id="ent0037"><rect fill="#F1F1F1" height="50" rx="12.5" ry="12.5" style="stroke:#181818;stroke-width:0.5;" width="157.3818" x="797.65" y="625.4883"/><line style="stroke:#181818;stroke-width:0.5;" x1="797.65" x2="955.0318" y1="651.9766" y2="651.9766"/><text fill="#000000" font-family="sans-serif" font-size="14" lengthAdjust="spacing" textLength="137.3818" x="807.65" y="644.0234">DISPENSAS_ABIERTO</text></g><g class="entity" data-qualified-name="SOLICITUD_DISPENSA_ABIERTA" id="ent0040"><rect fill="#F1F1F1" height="50" rx="12.5" ry="12.5" style="stroke:#181818;stroke-width:0.5;" width="228.2979" x="1369.55" y="621.4883"/><line style="stroke:#181818;stroke-width:0.5;" x1="1369.55" x2="1597.8479" y1="647.9766" y2="647.9766"/><text fill="#000000" font-family="sans-serif" font-size="14" lengthAdjust="spacing" textLength="208.2979" x="1379.55" y="640.0234">SOLICITUD_DISPENSA_ABIERTA</text></g><g class="entity" data-qualified-name="USUARIOS_ABIERTO" id="ent0046"><rect fill="#F1F1F1" height="50" rx="12.5" ry="12.5" style="stroke:#181818;stroke-width:0.5;" width="152.8154" x="799.93" y="739.4883"/><line style="stroke:#181818;stroke-width:0.5;" x1="799.93" x2="952.7454" y1="765.9766" y2="765.9766"/><text fill="#000000" font-family="sans-serif" font-size="14" lengthAdjust="spacing" textLength="132.8154" x="809.93" y="758.0234">USUARIOS_ABIERTO</text></g><g class="entity" data-qualified-name="USUARIO_ABIERTO" id="ent0049"><rect fill="#F1F1F1" height="50" rx="12.5" ry="12.5" style="stroke:#181818;stroke-width:0.5;" width="145.2754" x="1411.06" y="792.4883"/><line style="stroke:#181818;stroke-width:0.5;" x1="1411.06" x2="1556.3354" y1="818.9766" y2="818.9766"/><text fill="#000000" font-family="sans-serif" font-size="14" lengthAdjust="spacing" textLength="125.2754" x="1421.06" y="811.0234">USUARIO_ABIERTO</text></g><!--link *start* to SESION_CERRADA--><g class="link" data-entity-1="ent0002" data-entity-2="ent0003" data-link-type="dependency" data-source-line="5" id="lnk4"><path d="M26.11,451.4883 C38.72,451.4883 56.65,451.4883 80.57,451.4883" fill="none" id="*start*-to-SESION_CERRADA" style="stroke:#181818;stroke-width:1;"/><polygon fill="#181818" points="86.57,451.4883,77.57,447.4883,81.57,451.4883,77.57,455.4883,86.57,451.4883" style="stroke:#181818;stroke-width:1;"/></g><!--link SESION_CERRADA to SISTEMA_DISPONIBLE--><g class="link" data-entity-1="ent0003" data-entity-2="ent0005" data-link-type="dependency" data-source-line="7" id="lnk6"><path d="M226.98,451.4883 C271.27,451.4883 322.91,451.4883 369.28,451.4883" fill="none" id="SESION_CERRADA-to-SISTEMA_DISPONIBLE" style="stroke:#181818;stroke-width:1;"/><polygon fill="#181818" points="375.28,451.4883,366.28,447.4883,370.28,451.4883,366.28,455.4883,375.28,451.4883" style="stroke:#181818;stroke-width:1;"/><text fill="#000000" font-family="sans-serif" font-size="13" lengthAdjust="spacing" textLength="87.6357" x="257.7" y="448.0566">iniciarSesion()</text></g><!--link SISTEMA_DISPONIBLE to SESION_CERRADA--><g class="link" data-entity-1="ent0005" data-entity-2="ent0003" data-link-type="dependency" data-source-line="8" id="lnk7"><path d="M375.24,469.7883 C358.43,473.5983 345.7,476.4883 345.7,476.4883 C345.7,476.4883 256.7,476.4883 256.7,476.4883 C256.7,476.4883 249.4769,474.6591 232.8669,470.4591" fill="none" id="SISTEMA_DISPONIBLE-to-SESION_CERRADA" style="stroke:#181818;stroke-width:1;"/><polygon fill="#181818" points="227.05,468.9883,234.7948,475.0725,231.8974,470.214,236.756,467.3166,227.05,468.9883" style="stroke:#181818;stroke-width:1;"/><text fill="#000000" font-family="sans-serif" font-size="13" lengthAdjust="spacing" textLength="86.1758" x="258.2" y="473.0566">cerrarSesion()</text></g><!--link SISTEMA_DISPONIBLE to LISTAS_ABIERTO--><g class="link" data-entity-1="ent0005" data-entity-2="ent0008" data-link-type="dependency" data-source-line="13" id="lnk9"><path d="M467.89,426.1483 C495.02,357.2183 568.13,171.4883 568.13,171.4883 C568.13,171.4883 714.9128,151.9025 804.9928,139.8725" fill="none" id="SISTEMA_DISPONIBLE-to-LISTAS_ABIERTO" style="stroke:#181818;stroke-width:1;"/><polygon fill="#181818" points="810.94,139.0783,801.4897,136.3048,805.984,139.7401,802.5487,144.2344,810.94,139.0783" style="stroke:#181818;stroke-width:1;"/><text fill="#000000" font-family="sans-serif" font-size="13" lengthAdjust="spacing" textLength="129.8096" x="599.63" y="142.6766">abrirListasAlumnos()</text></g><!--link LISTAS_ABIERTO to SISTEMA_DISPONIBLE--><g class="link" data-entity-1="ent0008" data-entity-2="ent0005" data-link-type="dependency" data-source-line="14" id="lnk10"><path d="M825.28,155.7483 C806.73,165.1083 790.13,173.4883 790.13,173.4883 C790.13,173.4883 760.13,196.4883 760.13,196.4883 C760.13,196.4883 568.13,246.4883 568.13,246.4883 C568.13,246.4883 503.7012,366.3236 474.2712,421.0636" fill="none" id="LISTAS_ABIERTO-to-SISTEMA_DISPONIBLE" style="stroke:#181818;stroke-width:1;"/><polygon fill="#181818" points="471.43,426.3483,479.2149,420.3154,473.7977,421.9444,472.1687,416.5272,471.43,426.3483" style="stroke:#181818;stroke-width:1;"/><text fill="#000000" font-family="sans-serif" font-size="13" lengthAdjust="spacing" textLength="155.7017" x="586.63" y="193.0566">completarGestionListas()</text></g><!--link LISTAS_ABIERTO to LISTAS_ABIERTO--><g class="link" data-entity-1="ent0008" data-entity-2="ent0008" data-link-type="dependency" data-source-line="17" id="lnk11"><path d="M840.44,105.2083 C829.56,87.7183 841.53,70.4883 876.34,70.4883 C911.16,70.4883 926.2993,82.6236 915.4193,100.1136" fill="none" id="LISTAS_ABIERTO-to-LISTAS_ABIERTO" style="stroke:#181818;stroke-width:1;"/><polygon fill="#181818" points="912.25,105.2083,920.4003,99.6791,914.891,100.9627,913.6074,95.4534,912.25,105.2083" style="stroke:#181818;stroke-width:1;"/><text fill="#000000" font-family="sans-serif" font-size="13" lengthAdjust="spacing" textLength="154.7939" x="799.34" y="62.0566">importarListasAlumnos()</text></g><!--link LISTAS_ABIERTO to LISTA_ABIERTA--><g class="link" data-entity-1="ent0008" data-entity-2="ent0012" data-link-type="dependency" data-source-line="20" id="lnk13"><path d="M941.84,129.2083 C1059.74,126.8683 1302.4112,122.0568 1416.8112,119.7968" fill="none" id="LISTAS_ABIERTO-to-LISTA_ABIERTA" style="stroke:#181818;stroke-width:1;"/><polygon fill="#181818" points="1422.81,119.6783,1413.7328,115.8568,1417.811,119.777,1413.8908,123.8553,1422.81,119.6783" style="stroke:#181818;stroke-width:1;"/><text fill="#000000" font-family="sans-serif" font-size="13" lengthAdjust="spacing" textLength="151.9502" x="1090.55" y="117.9566">consultarListaAlumnos()</text></g><!--link LISTA_ABIERTA to LISTAS_ABIERTO--><g class="link" data-entity-1="ent0012" data-entity-2="ent0008" data-link-type="dependency" data-source-line="21" id="lnk14"><path d="M1422.82,133.1283 C1383.6,142.7183 1339.55,153.4883 1339.55,153.4883 C1339.55,153.4883 992.55,153.4883 992.55,153.4883 C992.55,153.4883 973.9538,149.7733 947.5638,144.5033" fill="none" id="LISTA_ABIERTA-to-LISTAS_ABIERTO" style="stroke:#181818;stroke-width:1;"/><polygon fill="#181818" points="941.68,143.3283,949.7224,149.0133,946.5832,144.3074,951.2891,141.1682,941.68,143.3283" style="stroke:#181818;stroke-width:1;"/><text fill="#000000" font-family="sans-serif" font-size="13" lengthAdjust="spacing" textLength="74.8516" x="1129.05" y="150.0566">cerrarLista()</text></g><!--link SISTEMA_DISPONIBLE to ALUMNOS_ABIERTO--><g class="link" data-entity-1="ent0005" data-entity-2="ent0015" data-link-type="dependency" data-source-line="26" id="lnk16"><path d="M475.14,426.3283 C506.14,381.0483 568.13,290.4883 568.13,290.4883 C568.13,290.4883 702.8584,277.3312 793.8284,268.4512" fill="none" id="SISTEMA_DISPONIBLE-to-ALUMNOS_ABIERTO" style="stroke:#181818;stroke-width:1;"/><polygon fill="#181818" points="799.8,267.8683,790.454,264.7616,794.8237,268.354,791.2312,272.7237,799.8,267.8683" style="stroke:#181818;stroke-width:1;"/><text fill="#000000" font-family="sans-serif" font-size="13" lengthAdjust="spacing" textLength="93.8247" x="617.63" y="268.4866">abrirAlumnos()</text></g><!--link ALUMNOS_ABIERTO to SISTEMA_DISPONIBLE--><g class="link" data-entity-1="ent0015" data-entity-2="ent0005" data-link-type="dependency" data-source-line="27" id="lnk17"><path d="M822.12,285.8983 C791.93,300.3083 760.13,315.4883 760.13,315.4883 C760.13,315.4883 568.13,370.4883 568.13,370.4883 C568.13,370.4883 529.645,398.7754 497.325,422.5254" fill="none" id="ALUMNOS_ABIERTO-to-SISTEMA_DISPONIBLE" style="stroke:#181818;stroke-width:1;"/><polygon fill="#181818" points="492.49,426.0783,502.111,423.9722,496.5191,423.1175,497.3738,417.5256,492.49,426.0783" style="stroke:#181818;stroke-width:1;"/><text fill="#000000" font-family="sans-serif" font-size="13" lengthAdjust="spacing" textLength="175.3286" x="576.63" y="312.0566">completarGestionAlumnos()</text></g><!--link ALUMNOS_ABIERTO to ALUMNOS_ABIERTO--><g class="link" data-entity-1="ent0015" data-entity-2="ent0015" data-link-type="dependency" data-source-line="29" id="lnk18"><path d="M840.44,235.2083 C829.56,217.7183 841.53,200.4883 876.34,200.4883 C911.16,200.4883 926.2993,212.6236 915.4193,230.1136" fill="none" id="ALUMNOS_ABIERTO-to-ALUMNOS_ABIERTO" style="stroke:#181818;stroke-width:1;"/><polygon fill="#181818" points="912.25,235.2083,920.4003,229.6791,914.891,230.9627,913.6074,225.4534,912.25,235.2083" style="stroke:#181818;stroke-width:1;"/><text fill="#000000" font-family="sans-serif" font-size="13" lengthAdjust="spacing" textLength="118.8091" x="817.34" y="192.0566">importarAlumnos()</text></g><!--link ALUMNOS_ABIERTO to ALUMNO_ABIERTO--><g class="link" data-entity-1="ent0015" data-entity-2="ent0019" data-link-type="dependency" data-source-line="30" id="lnk20"><path d="M952.9,253.9283 C974.62,252.0483 992.55,250.4883 992.55,250.4883 C992.55,250.4883 1339.55,250.4883 1339.55,250.4883 C1339.55,250.4883 1369.0637,251.518 1404.7137,252.768" fill="none" id="ALUMNOS_ABIERTO-to-ALUMNO_ABIERTO" style="stroke:#181818;stroke-width:1;"/><polygon fill="#181818" points="1410.71,252.9783,1401.8557,248.6654,1405.7131,252.8031,1401.5754,256.6605,1410.71,252.9783" style="stroke:#181818;stroke-width:1;"/><text fill="#000000" font-family="sans-serif" font-size="13" lengthAdjust="spacing" textLength="120.5103" x="1106.05" y="247.0566">verDetalleAlumno()</text></g><!--link ALUMNO_ABIERTO to ALUMNOS_ABIERTO--><g class="link" data-entity-1="ent0019" data-entity-2="ent0015" data-link-type="dependency" data-source-line="32" id="lnk21"><path d="M1410.71,265.5483 C1375.06,270.5283 1339.55,275.4883 1339.55,275.4883 C1339.55,275.4883 992.55,275.4883 992.55,275.4883 C992.55,275.4883 980.5697,273.9335 958.8497,271.1035" fill="none" id="ALUMNO_ABIERTO-to-ALUMNOS_ABIERTO" style="stroke:#181818;stroke-width:1;"/><polygon fill="#181818" points="952.9,270.3283,961.3078,275.4576,957.8581,270.9743,962.3414,267.5246,952.9,270.3283" style="stroke:#181818;stroke-width:1;"/><text fill="#000000" font-family="sans-serif" font-size="13" lengthAdjust="spacing" textLength="138.2583" x="1097.05" y="272.0566">cerrarDetalleAlumno()</text></g><!--link SISTEMA_DISPONIBLE to MATRICULAS_ABIERTO--><g class="link" data-entity-1="ent0005" data-entity-2="ent0022" data-link-type="dependency" data-source-line="37" id="lnk23"><path d="M517.54,426.0583 C543.51,414.9883 568.13,404.4883 568.13,404.4883 C568.13,404.4883 692.8762,398.8013 783.7762,394.6613" fill="none" id="SISTEMA_DISPONIBLE-to-MATRICULAS_ABIERTO" style="stroke:#181818;stroke-width:1;"/><polygon fill="#181818" points="789.77,394.3883,780.5973,390.8019,784.7752,394.6158,780.9613,398.7936,789.77,394.3883" style="stroke:#181818;stroke-width:1;"/><text fill="#000000" font-family="sans-serif" font-size="13" lengthAdjust="spacing" textLength="102.8193" x="613.13" y="392.3866">abrirMatriculas()</text></g><!--link MATRICULAS_ABIERTO to SISTEMA_DISPONIBLE--><g class="link" data-entity-1="ent0022" data-entity-2="ent0005" data-link-type="dependency" data-source-line="38" id="lnk24"><path d="M800.1,415.9583 C778.24,423.3583 760.13,429.4883 760.13,429.4883 C760.13,429.4883 634.0142,438.6731 544.4942,445.1831" fill="none" id="MATRICULAS_ABIERTO-to-SISTEMA_DISPONIBLE" style="stroke:#181818;stroke-width:1;"/><polygon fill="#181818" points="538.51,445.6183,547.7764,448.955,543.4968,445.2556,547.1962,440.976,538.51,445.6183" style="stroke:#181818;stroke-width:1;"/><text fill="#000000" font-family="sans-serif" font-size="13" lengthAdjust="spacing" textLength="184.3232" x="572.13" y="426.0566">completarGestionMatriculas()</text></g><!--link MATRICULAS_ABIERTO to MATRICULAS_ABIERTO--><g class="link" data-entity-1="ent0022" data-entity-2="ent0022" data-link-type="dependency" data-source-line="40" id="lnk25"><path d="M840.44,365.2083 C829.56,347.7183 841.53,330.4883 876.34,330.4883 C911.16,330.4883 926.2993,342.6236 915.4193,360.1136" fill="none" id="MATRICULAS_ABIERTO-to-MATRICULAS_ABIERTO" style="stroke:#181818;stroke-width:1;"/><polygon fill="#181818" points="912.25,365.2083,920.4003,359.6791,914.891,360.9627,913.6074,355.4534,912.25,365.2083" style="stroke:#181818;stroke-width:1;"/><text fill="#000000" font-family="sans-serif" font-size="13" lengthAdjust="spacing" textLength="127.8037" x="812.84" y="322.0566">importarMatriculas()</text></g><!--link MATRICULAS_ABIERTO to MATRICULA_ABIERTA--><g class="link" data-entity-1="ent0022" data-entity-2="ent0026" data-link-type="dependency" data-source-line="41" id="lnk27"><path d="M962.88,382.3183 C979.85,380.6983 992.55,379.4883 992.55,379.4883 C992.55,379.4883 1256.2028,362.2794 1395.5028,353.1794" fill="none" id="MATRICULAS_ABIERTO-to-MATRICULA_ABIERTA" style="stroke:#181818;stroke-width:1;"/><polygon fill="#181818" points="1401.49,352.7883,1392.2484,349.3835,1396.5006,353.1142,1392.7699,357.3665,1401.49,352.7883" style="stroke:#181818;stroke-width:1;"/><text fill="#000000" font-family="sans-serif" font-size="13" lengthAdjust="spacing" textLength="168.7397" x="1082.05" y="353.5166">consultarDetalleMatricula()</text></g><!--link MATRICULA_ABIERTA to MATRICULAS_ABIERTO--><g class="link" data-entity-1="ent0026" data-entity-2="ent0022" data-link-type="dependency" data-source-line="43" id="lnk28"><path d="M1418.66,372.9883 C1380.55,388.1683 1339.55,404.4883 1339.55,404.4883 C1339.55,404.4883 992.55,404.4883 992.55,404.4883 C992.55,404.4883 985.8059,403.6748 968.8359,401.6048" fill="none" id="MATRICULA_ABIERTA-to-MATRICULAS_ABIERTO" style="stroke:#181818;stroke-width:1;"/><polygon fill="#181818" points="962.88,400.8783,971.3295,405.9386,967.8432,401.4837,972.2981,397.9975,962.88,400.8783" style="stroke:#181818;stroke-width:1;"/><text fill="#000000" font-family="sans-serif" font-size="13" lengthAdjust="spacing" textLength="147.2529" x="1092.55" y="401.0566">cerrarDetalleMatricula()</text></g><!--link SISTEMA_DISPONIBLE to ASISTENCIAS_ABIERTO--><g class="link" data-entity-1="ent0005" data-entity-2="ent0029" data-link-type="dependency" data-source-line="48" id="lnk30"><path d="M538.4,464.7883 C610.78,476.7583 710.8204,493.2892 784.5204,505.4792" fill="none" id="SISTEMA_DISPONIBLE-to-ASISTENCIAS_ABIERTO" style="stroke:#181818;stroke-width:1;"/><polygon fill="#181818" points="790.44,506.4583,782.2134,501.0432,785.507,505.6424,780.9079,508.936,790.44,506.4583" style="stroke:#181818;stroke-width:1;"/><text fill="#000000" font-family="sans-serif" font-size="13" lengthAdjust="spacing" textLength="108.5894" x="610.13" y="466.5666">abrirAsistencias()</text></g><!--link ASISTENCIAS_ABIERTO to SISTEMA_DISPONIBLE--><g class="link" data-entity-1="ent0029" data-entity-2="ent0005" data-link-type="dependency" data-source-line="49" id="lnk31"><path d="M790.4,524.1783 C773.13,524.9283 760.13,525.4883 760.13,525.4883 C760.13,525.4883 568.13,525.4883 568.13,525.4883 C568.13,525.4883 532.7117,501.7023 500.8317,480.3023" fill="none" id="ASISTENCIAS_ABIERTO-to-SISTEMA_DISPONIBLE" style="stroke:#181818;stroke-width:1;"/><polygon fill="#181818" points="495.85,476.9583,501.0932,485.2955,500.0014,479.745,505.5519,478.6532,495.85,476.9583" style="stroke:#181818;stroke-width:1;"/><text fill="#000000" font-family="sans-serif" font-size="13" lengthAdjust="spacing" textLength="190.0933" x="569.13" y="522.0566">completarGestionAsistencias()</text></g><!--link ASISTENCIAS_ABIERTO to ASISTENCIAS_ABIERTO--><g class="link" data-entity-1="ent0029" data-entity-2="ent0029" data-link-type="dependency" data-source-line="51" id="lnk32"><path d="M840.44,495.2083 C829.56,477.7183 841.53,460.4883 876.34,460.4883 C911.16,460.4883 926.2993,472.6236 915.4193,490.1136" fill="none" id="ASISTENCIAS_ABIERTO-to-ASISTENCIAS_ABIERTO" style="stroke:#181818;stroke-width:1;"/><polygon fill="#181818" points="912.25,495.2083,920.4003,489.6791,914.891,490.9627,913.6074,485.4534,912.25,495.2083" style="stroke:#181818;stroke-width:1;"/><text fill="#000000" font-family="sans-serif" font-size="13" lengthAdjust="spacing" textLength="185.6943" x="783.84" y="452.0566">exportarHistorialAsistencias()</text></g><!--link ASISTENCIAS_ABIERTO to SESION_ASISTENCIA_ABIERTA--><g class="link" data-entity-1="ent0029" data-entity-2="ent0033" data-link-type="dependency" data-source-line="52" id="lnk34"><path d="M962.28,510.1683 C979.55,508.0683 992.55,506.4883 992.55,506.4883 C992.55,506.4883 1224.1928,499.4019 1368.5328,494.9819" fill="none" id="ASISTENCIAS_ABIERTO-to-SESION_ASISTENCIA_ABIERTA" style="stroke:#181818;stroke-width:1;"/><polygon fill="#181818" points="1374.53,494.7983,1365.4118,491.0756,1369.5323,494.9513,1365.6566,499.0719,1374.53,494.7983" style="stroke:#181818;stroke-width:1;"/><text fill="#000000" font-family="sans-serif" font-size="13" lengthAdjust="spacing" textLength="242.3979" x="1045.05" y="492.4866">crearSesionClase() / abrirSesionClase()</text></g><!--link SESION_ASISTENCIA_ABIERTA to ASISTENCIAS_ABIERTO--><g class="link" data-entity-1="ent0033" data-entity-2="ent0029" data-link-type="dependency" data-source-line="55" id="lnk36"><path d="M1391.64,516.9383 C1363.4,524.8183 1339.55,531.4883 1339.55,531.4883 C1339.55,531.4883 992.55,531.4883 992.55,531.4883 C992.55,531.4883 985.5228,530.8189 968.2528,529.1689" fill="none" id="SESION_ASISTENCIA_ABIERTA-to-ASISTENCIAS_ABIERTO" style="stroke:#181818;stroke-width:1;"/><polygon fill="#181818" points="962.28,528.5983,970.8588,533.4361,967.2573,529.0738,971.6196,525.4724,962.28,528.5983" style="stroke:#181818;stroke-width:1;"/><text fill="#000000" font-family="sans-serif" font-size="13" lengthAdjust="spacing" textLength="119.9771" x="1106.55" y="528.0566">cerrarSesionClase()</text></g><!--link SESION_ASISTENCIA_ABIERTA to SESION_ASISTENCIA_ABIERTA--><g class="link" data-entity-1="ent0033" data-entity-2="ent0033" data-link-type="dependency" data-source-line="54" id="lnk35"><path d="M1429.96,466.2083 C1413.67,448.7183 1431.59,431.4883 1483.7,431.4883 C1535.81,431.4883 1557.8193,444.3277 1541.5293,461.8177" fill="none" id="SESION_ASISTENCIA_ABIERTA-to-SESION_ASISTENCIA_ABIERTA" style="stroke:#181818;stroke-width:1;"/><polygon fill="#181818" points="1537.44,466.2083,1546.5011,462.3486,1540.8478,462.5495,1540.647,456.8962,1537.44,466.2083" style="stroke:#181818;stroke-width:1;"/><text fill="#000000" font-family="sans-serif" font-size="13" lengthAdjust="spacing" textLength="295.9849" x="1336.2" y="423.0566">editarSesionClase() / registrarTomaAsistencia()</text></g><!--link SISTEMA_DISPONIBLE to DISPENSAS_ABIERTO--><g class="link" data-entity-1="ent0005" data-entity-2="ent0037" data-link-type="dependency" data-source-line="60" id="lnk38"><path d="M486.3,476.9783 C518.96,506.3183 568.13,550.4883 568.13,550.4883 C568.13,550.4883 700.7047,593.6408 791.7147,623.2708" fill="none" id="SISTEMA_DISPONIBLE-to-DISPENSAS_ABIERTO" style="stroke:#181818;stroke-width:1;"/><polygon fill="#181818" points="797.42,625.1283,790.1004,618.5386,792.6656,623.5804,787.6238,626.1456,797.42,625.1283" style="stroke:#181818;stroke-width:1;"/><text fill="#000000" font-family="sans-serif" font-size="13" lengthAdjust="spacing" textLength="102.2607" x="613.13" y="547.0566">abrirDispensas()</text></g><!--link DISPENSAS_ABIERTO to SISTEMA_DISPONIBLE--><g class="link" data-entity-1="ent0037" data-entity-2="ent0005" data-link-type="dependency" data-source-line="61" id="lnk39"><path d="M797.42,647.1883 C706.41,643.3383 568.13,637.4883 568.13,637.4883 C568.13,637.4883 506.2591,533.0599 476.0691,482.1199" fill="none" id="DISPENSAS_ABIERTO-to-SISTEMA_DISPONIBLE" style="stroke:#181818;stroke-width:1;"/><polygon fill="#181818" points="473.01,476.9583,474.1575,486.7401,475.5592,481.2596,481.0397,482.6613,473.01,476.9583" style="stroke:#181818;stroke-width:1;"/><text fill="#000000" font-family="sans-serif" font-size="13" lengthAdjust="spacing" textLength="183.7646" x="572.63" y="634.0566">completarGestionDispensas()</text></g><!--link DISPENSAS_ABIERTO to SOLICITUD_DISPENSA_ABIERTA--><g class="link" data-entity-1="ent0037" data-entity-2="ent0040" data-link-type="dependency" data-source-line="63" id="lnk41"><path d="M955.46,635.5683 C976.01,631.6483 992.55,628.4883 992.55,628.4883 C992.55,628.4883 1339.55,628.4883 1339.55,628.4883 C1339.55,628.4883 1345.8871,629.2777 1363.2571,631.4677" fill="none" id="DISPENSAS_ABIERTO-to-SOLICITUD_DISPENSA_ABIERTA" style="stroke:#181818;stroke-width:1;"/><polygon fill="#181818" points="1369.21,632.2183,1360.781,627.1239,1364.2493,631.5928,1359.7803,635.0611,1369.21,632.2183" style="stroke:#181818;stroke-width:1;"/><text fill="#000000" font-family="sans-serif" font-size="13" lengthAdjust="spacing" textLength="345.103" x="993.55" y="625.0566">crearSolicitudDispensa() / consultarSolicitudDispensa()</text></g><!--link SOLICITUD_DISPENSA_ABIERTA to DISPENSAS_ABIERTO--><g class="link" data-entity-1="ent0040" data-entity-2="ent0037" data-link-type="dependency" data-source-line="67" id="lnk44"><path d="M1369.21,652.0383 C1351.84,652.8883 1339.55,653.4883 1339.55,653.4883 C1339.55,653.4883 992.55,653.4883 992.55,653.4883 C992.55,653.4883 982.0079,653.2159 961.4579,652.6759" fill="none" id="SOLICITUD_DISPENSA_ABIERTA-to-DISPENSAS_ABIERTO" style="stroke:#181818;stroke-width:1;"/><polygon fill="#181818" points="955.46,652.5183,964.3518,656.7533,960.4583,652.6496,964.562,648.7561,955.46,652.5183" style="stroke:#181818;stroke-width:1;"/><text fill="#000000" font-family="sans-serif" font-size="13" lengthAdjust="spacing" textLength="111.8394" x="1110.55" y="650.0566">guardarSolicitud()</text></g><!--link SOLICITUD_DISPENSA_ABIERTA to DISPENSAS_ABIERTO--><g class="link" data-entity-1="ent0040" data-entity-2="ent0037" data-link-type="dependency" data-source-line="68" id="lnk45"><path d="M1369.21,671.8583 C1351.84,675.7383 1339.55,678.4883 1339.55,678.4883 C1339.55,678.4883 992.55,678.4883 992.55,678.4883 C992.55,678.4883 981.8406,675.8841 961.2906,670.8941" fill="none" id="SOLICITUD_DISPENSA_ABIERTA-to-DISPENSAS_ABIERTO-1" style="stroke:#181818;stroke-width:1;"/><polygon fill="#181818" points="955.46,669.4783,963.262,675.489,960.3188,670.6581,965.1497,667.7149,955.46,669.4783" style="stroke:#181818;stroke-width:1;"/><text fill="#000000" font-family="sans-serif" font-size="13" lengthAdjust="spacing" textLength="99.5249" x="1116.55" y="675.0566">cerrarSolicitud()</text></g><!--link DISPENSAS_ABIERTO to DISPENSAS_ABIERTO--><g class="link" data-entity-1="ent0037" data-entity-2="ent0037" data-link-type="dependency" data-source-line="64" id="lnk42"><path d="M840.44,625.2083 C829.56,607.7183 841.53,590.4883 876.34,590.4883 C911.16,590.4883 926.2993,602.6236 915.4193,620.1136" fill="none" id="DISPENSAS_ABIERTO-to-DISPENSAS_ABIERTO" style="stroke:#181818;stroke-width:1;"/><polygon fill="#181818" points="912.25,625.2083,920.4003,619.6791,914.891,620.9627,913.6074,615.4534,912.25,625.2083" style="stroke:#181818;stroke-width:1;"/><text fill="#000000" font-family="sans-serif" font-size="13" lengthAdjust="spacing" textLength="126.5659" x="813.34" y="582.0566">exportarDispensas()</text></g><!--link SOLICITUD_DISPENSA_ABIERTA to SOLICITUD_DISPENSA_ABIERTA--><g class="link" data-entity-1="ent0040" data-entity-2="ent0040" data-link-type="dependency" data-source-line="66" id="lnk43"><path d="M1429.96,621.2083 C1413.67,603.7183 1431.59,586.4883 1483.7,586.4883 C1535.81,586.4883 1557.8193,599.3277 1541.5293,616.8177" fill="none" id="SOLICITUD_DISPENSA_ABIERTA-to-SOLICITUD_DISPENSA_ABIERTA" style="stroke:#181818;stroke-width:1;"/><polygon fill="#181818" points="1537.44,621.2083,1546.5011,617.3486,1540.8478,617.5495,1540.647,611.8962,1537.44,621.2083" style="stroke:#181818;stroke-width:1;"/><text fill="#000000" font-family="sans-serif" font-size="13" lengthAdjust="spacing" textLength="156.4507" x="1405.7" y="578.0566">editarSolicitudDispensa()</text></g><!--link SISTEMA_DISPONIBLE to USUARIOS_ABIERTO--><g class="link" data-entity-1="ent0005" data-entity-2="ent0046" data-link-type="dependency" data-source-line="73" id="lnk47"><path d="M470.56,476.6083 C499.51,534.1383 568.13,670.4883 568.13,670.4883 C568.13,670.4883 703.0925,711.783 794.0625,739.613" fill="none" id="SISTEMA_DISPONIBLE-to-USUARIOS_ABIERTO" style="stroke:#181818;stroke-width:1;"/><polygon fill="#181818" points="799.8,741.3683,792.3639,734.9104,795.0187,739.9056,790.0236,742.5604,799.8,741.3683" style="stroke:#181818;stroke-width:1;"/><text fill="#000000" font-family="sans-serif" font-size="13" lengthAdjust="spacing" textLength="92.7837" x="618.13" y="667.0566">abrirUsuarios()</text></g><!--link USUARIOS_ABIERTO to SISTEMA_DISPONIBLE--><g class="link" data-entity-1="ent0046" data-entity-2="ent0005" data-link-type="dependency" data-source-line="74" id="lnk48"><path d="M799.8,761.7883 C708.83,758.5283 568.13,753.4883 568.13,753.4883 C568.13,753.4883 495.8469,555.4247 469.2769,482.6147" fill="none" id="USUARIOS_ABIERTO-to-SISTEMA_DISPONIBLE" style="stroke:#181818;stroke-width:1;"/><polygon fill="#181818" points="467.22,476.9783,466.5477,486.8042,468.934,481.6753,474.0629,484.0617,467.22,476.9783" style="stroke:#181818;stroke-width:1;"/><text fill="#000000" font-family="sans-serif" font-size="13" lengthAdjust="spacing" textLength="174.2876" x="577.13" y="750.0566">completarGestionUsuarios()</text></g><!--link USUARIOS_ABIERTO to USUARIO_ABIERTO--><g class="link" data-entity-1="ent0046" data-entity-2="ent0049" data-link-type="dependency" data-source-line="76" id="lnk50"><path d="M953.15,770.2283 C1084.28,780.1583 1339.55,799.4883 1339.55,799.4883 C1339.55,799.4883 1369.107,803.1985 1404.757,807.6885" fill="none" id="USUARIOS_ABIERTO-to-USUARIO_ABIERTO" style="stroke:#181818;stroke-width:1;"/><polygon fill="#181818" points="1410.71,808.4383,1402.2804,803.345,1405.7492,807.8135,1401.2807,811.2823,1410.71,808.4383" style="stroke:#181818;stroke-width:1;"/><text fill="#000000" font-family="sans-serif" font-size="13" lengthAdjust="spacing" textLength="218.0864" x="1057.05" y="770.4466">crearUsuario() / consultarUsuario()</text></g><!--link USUARIO_ABIERTO to USUARIOS_ABIERTO--><g class="link" data-entity-1="ent0049" data-entity-2="ent0046" data-link-type="dependency" data-source-line="79" id="lnk52"><path d="M1410.71,821.0083 C1375.06,822.7483 1339.55,824.4883 1339.55,824.4883 C1339.55,824.4883 992.55,824.4883 992.55,824.4883 C992.55,824.4883 962.9218,809.0593 931.5218,792.7093" fill="none" id="USUARIO_ABIERTO-to-USUARIOS_ABIERTO" style="stroke:#181818;stroke-width:1;"/><polygon fill="#181818" points="926.2,789.9383,932.3353,797.6427,930.6348,792.2475,936.03,790.547,926.2,789.9383" style="stroke:#181818;stroke-width:1;"/><text fill="#000000" font-family="sans-serif" font-size="13" lengthAdjust="spacing" textLength="105.752" x="1113.55" y="821.0566">guardarUsuario()</text></g><!--link USUARIO_ABIERTO to USUARIOS_ABIERTO--><g class="link" data-entity-1="ent0049" data-entity-2="ent0046" data-link-type="dependency" data-source-line="80" id="lnk53"><path d="M1410.71,833.5783 C1375.06,841.5483 1339.55,849.4883 1339.55,849.4883 C1339.55,849.4883 992.55,849.4883 992.55,849.4883 C992.55,849.4883 950.3878,818.3809 916.4278,793.3209" fill="none" id="USUARIO_ABIERTO-to-USUARIOS_ABIERTO-1" style="stroke:#181818;stroke-width:1;"/><polygon fill="#181818" points="911.6,789.7583,916.4667,798.3207,915.6232,792.7271,921.2168,791.8836,911.6,789.7583" style="stroke:#181818;stroke-width:1;"/><text fill="#000000" font-family="sans-serif" font-size="13" lengthAdjust="spacing" textLength="93.4375" x="1119.55" y="846.0566">cerrarUsuario()</text></g><!--link USUARIO_ABIERTO to USUARIO_ABIERTO--><g class="link" data-entity-1="ent0049" data-entity-2="ent0049" data-link-type="dependency" data-source-line="78" id="lnk51"><path d="M1429.96,792.2083 C1413.67,774.7183 1431.59,757.4883 1483.7,757.4883 C1535.81,757.4883 1557.8193,770.3277 1541.5293,787.8177" fill="none" id="USUARIO_ABIERTO-to-USUARIO_ABIERTO" style="stroke:#181818;stroke-width:1;"/><polygon fill="#181818" points="1537.44,792.2083,1546.5011,788.3486,1540.8478,788.5495,1540.647,782.8962,1537.44,792.2083" style="stroke:#181818;stroke-width:1;"/><text fill="#000000" font-family="sans-serif" font-size="13" lengthAdjust="spacing" textLength="92.9424" x="1437.7" y="749.0566">editarUsuario()</text></g><?plantuml-src lLRBZfim5Dtp5TvrqchK_KYjn0JK8f5GGLXKLHMvuAPM7OniC-fyH5Vzb7x2_5WlvWqcOJ9HaLXWttlEzJt7s8egHf13yK7W8qOfGGdF5Fcb-1tAYP0vIHHzA2SOijCZpQXK0gTSM8nyLqXn9EZXXq8f5MKapopvasOv1ZJ4Q4RKOqvGpjbZ-M5PNrv_HRUtxr7aHbwmtQ_TCBGTsxA6trM85-tSZRrtlEXJiFNkVHVT8U1FA1OHaK1rix8CGLDuo4k84BqqwzMxnO_r2g7DqnydzWFa0vqT8ST5jXzlja64RYHd7D5ZpeN20hqfsoSBfl3gMHmpwwZuzlQzvuQx0DQ1lmagVD00IviLnunBMCqeQhPv2J_cZ42P7uWifQfmT3kGrwn0yHHBnCfNJuFo4bm1yalu9k0HC0SH6JVHJkfj6ZCk6HZNTQD4YPr2MGoC24n5XYlgkhSCV5K8l9hbgqUqp0scvXjrg8qpLbevHEUzm216MoJqwM-67gzhZPffx8rkpUE0nRRegMJ2c18t8f_chiPwQGz4E9NiLM97U8QlacgIUw5a6tiNFlrUnxxzFsGhsJnDDbPkWvMWIS7qZZI4BTPl03I7PAoZ4N99AUsmQVlLshGuWq86-z1Onq3W0SYbsr8tRhlsxEWgUw-3c-m__PVCu93I-y0Gk7mV3g1ciKpZzNC7_-fAqOy0nGN5R65zrVdPJVT55gGvITVW47ApGc-hjGy6spFT07AEWgHKJJa4EUZBXzZn8-xMKTu2JZBDDcXuBMZhlj1ZfPRkDhgEmrgmiRyS2bUoJ6hrfa6BlTM7cSC9V6_jxM9dtynFJC0PtCPKaJPeMgRs9s2Odg6QZauTFAZuH6rdIw_DPIZk3EgfAWy55caFzMLejIrxO9UQCevYE_JWGl8PXO7lmWbdEnjl2nQ1Yt4GNkL8QpZ6LeqbD8Ng-y0aPB5HUo1cb7gmVtgKtgppXevi1rkiar2eTKkNU2AlfsHhYESdLjftUVy0?></g></svg>