<?plantuml 1.2026.2?><svg xmlns="http://www.w3.org/2000/svg" xmlns:xlink="http://www.w3.org/1999/xlink" contentStyleType="text/css" data-diagram-type="DESCRIPTION" height="424px" preserveAspectRatio="none" style="width:1138px;height:424px;background:#FFFFFF;" version="1.1" viewBox="0 0 1138 424" width="1138px" zoomAndPan="magnify"><defs/><g><!--cluster consultarSolicitudDispensa--><g class="cluster" data-qualified-name="consultarSolicitudDispensa" data-source-line="6" id="ent0004"><path d="M376.36,6 L583.8395,6 A3.75,3.75 0 0 1 586.3395,8.5 L593.3395,28.4883 L731.36,28.4883 A2.5,2.5 0 0 1 733.86,30.9883 L733.86,415.45 A2.5,2.5 0 0 1 731.36,417.95 L376.36,417.95 A2.5,2.5 0 0 1 373.86,415.45 L373.86,8.5 A2.5,2.5 0 0 1 376.36,6" fill="none" style="stroke:#000000;stroke-width:1.5;"/><line style="stroke:#000000;stroke-width:1.5;" x1="373.86" x2="593.3395" y1="28.4883" y2="28.4883"/><text fill="#000000" font-family="sans-serif" font-size="14" font-weight="bold" lengthAdjust="spacing" textLength="206.4795" x="377.86" y="21.5352">consultarSolicitudDispensa()</text></g><!--entity ConsultarSolicitudDispensaView--><g class="entity" data-qualified-name="consultarSolicitudDispensa.ConsultarSolicitudDispensaView" data-source-line="7" id="ent0005"><rect fill="#629EF9" height="36.4883" rx="2.5" ry="2.5" style="stroke:#181818;stroke-width:0.5;" width="237.3555" x="435.18" y="41"/><text fill="#000000" font-family="sans-serif" font-size="14" lengthAdjust="spacing" textLength="217.3555" x="445.18" y="64.5352">ConsultarSolicitudDispensaView</text></g><!--entity SolicitudDispensaController--><g class="entity" data-qualified-name="consultarSolicitudDispensa.SolicitudDispensaController" data-source-line="8" id="ent0006"><rect fill="#B5BD68" height="36.4883" rx="2.5" ry="2.5" style="stroke:#181818;stroke-width:0.5;" width="208.1865" x="389.76" y="154.49"/><text fill="#000000" font-family="sans-serif" font-size="14" lengthAdjust="spacing" textLength="188.1865" x="399.76" y="178.0252">SolicitudDispensaController</text></g><!--entity SolicitudDispensaRepository--><g class="entity" data-qualified-name="consultarSolicitudDispensa.SolicitudDispensaRepository" data-source-line="9" id="ent0007"><rect fill="#F2AC4E" height="36.4883" rx="2.5" ry="2.5" style="stroke:#181818;stroke-width:0.5;" width="212.1514" x="389.78" y="267.97"/><text fill="#000000" font-family="sans-serif" font-size="14" lengthAdjust="spacing" textLength="192.1514" x="399.78" y="291.5052">SolicitudDispensaRepository</text></g><!--entity SolicitudDispensa--><g class="entity" data-qualified-name="consultarSolicitudDispensa.SolicitudDispensa" data-source-line="10" id="ent0008"><rect fill="#F2AC4E" height="36.4883" rx="2.5" ry="2.5" style="stroke:#181818;stroke-width:0.5;" width="140.0254" x="425.85" y="365.46"/><text fill="#000000" font-family="sans-serif" font-size="14" lengthAdjust="spacing" textLength="120.0254" x="435.85" y="388.9952">SolicitudDispensa</text></g><!--entity DispensasAbierto--><g class="entity" data-qualified-name="DispensasAbierto" data-source-line="3" id="ent0002"><rect fill="#CDEBA5" height="36.4883" rx="2.5" ry="2.5" style="stroke:#181818;stroke-width:0.5;" width="147.7158" x="7" y="41"/><text fill="#000000" font-family="sans-serif" font-size="14" lengthAdjust="spacing" textLength="127.7158" x="17" y="64.5352">:Dispensas Abierto</text></g><!--entity EditarSolicitudDispensa--><g class="entity" data-qualified-name="EditarSolicitudDispensa" data-source-line="4" id="ent0003"><rect fill="#CDEBA5" height="36.4883" rx="2.5" ry="2.5" style="stroke:#181818;stroke-width:0.5;" width="279.5811" x="750.07" y="154.49"/><text fill="#000000" font-family="sans-serif" font-size="14" lengthAdjust="spacing" textLength="259.5811" x="760.07" y="178.0252">:Collaboration EditarSolicitudDispensa</text></g><!--link DispensasAbierto to ConsultarSolicitudDispensaView--><g class="link" data-entity-1="ent0002" data-entity-2="ent0005" data-link-type="dependency" data-source-line="13" id="lnk9"><path d="M155.02,59.24 C230.03,59.24 341.14,59.24 429.09,59.24" fill="none" id="DispensasAbierto-to-ConsultarSolicitudDispensaView" style="stroke:#181818;stroke-width:1;"/><polygon fill="#181818" points="435.09,59.24,426.09,55.24,430.09,59.24,426.09,63.24,435.09,59.24" style="stroke:#181818;stroke-width:1;"/><text fill="#000000" font-family="sans-serif" font-size="13" lengthAdjust="spacing" textLength="244.0166" x="172.95" y="52.8084">consultarSolicitudDispensa(solicitudId)</text></g><!--link ConsultarSolicitudDispensaView to SolicitudDispensaController--><g class="link" data-entity-1="ent0005" data-entity-2="ent0006" data-link-type="dependency" data-source-line="15" id="lnk10"><path d="M544.48,77.66 C533.28,98.48 517.4726,127.8461 506.2126,148.7761" fill="none" id="ConsultarSolicitudDispensaView-to-SolicitudDispensaController" style="stroke:#181818;stroke-width:1;"/><polygon fill="#181818" points="503.37,154.06,511.1565,148.0293,505.7389,149.6568,504.1114,144.2391,503.37,154.06" style="stroke:#181818;stroke-width:1;"/><text fill="#000000" font-family="sans-serif" font-size="13" lengthAdjust="spacing" textLength="291.624" x="528.45" y="121.0584">cargarSolicitud(solicitudId) : SolicitudDispensa</text></g><!--link SolicitudDispensaController to SolicitudDispensaRepository--><g class="link" data-entity-1="ent0006" data-entity-2="ent0007" data-link-type="dependency" data-source-line="17" id="lnk11"><path d="M494.17,191.15 C494.54,211.97 495.0639,240.6209 495.4339,261.5509" fill="none" id="SolicitudDispensaController-to-SolicitudDispensaRepository" style="stroke:#181818;stroke-width:1;"/><polygon fill="#181818" points="495.54,267.55,499.3803,258.4807,495.4516,262.5508,491.3815,258.6221,495.54,267.55" style="stroke:#181818;stroke-width:1;"/><text fill="#000000" font-family="sans-serif" font-size="13" lengthAdjust="spacing" textLength="279.1509" x="495.98" y="234.5384">obtenerPorId(solicitudId) : SolicitudDispensa</text></g><!--link SolicitudDispensaRepository to SolicitudDispensa--><g class="link" data-entity-1="ent0007" data-entity-2="ent0008" data-link-type="association" data-source-line="19" id="lnk12"><path d="M495.86,304.73 C495.86,321.85 495.86,347.79 495.86,364.98" fill="none" id="SolicitudDispensaRepository-SolicitudDispensa" style="stroke:#181818;stroke-width:1;"/></g><!--link ConsultarSolicitudDispensaView to EditarSolicitudDispensa--><g class="link" data-entity-1="ent0005" data-entity-2="ent0003" data-link-type="dependency" data-source-line="21" id="lnk13"><path d="M657.04,77.97 C735.07,91.37 828.86,107.49 828.86,107.49 C828.86,107.49 850.9986,130.799 869.0586,149.819" fill="none" id="ConsultarSolicitudDispensaView-to-EditarSolicitudDispensa" style="stroke:#181818;stroke-width:1;stroke-dasharray:7,7;"/><polygon fill="#181818" points="873.19,154.17,869.8936,144.8892,869.7472,150.5441,864.0922,150.3977,873.19,154.17" style="stroke:#181818;stroke-width:1;"/><text fill="#000000" font-family="sans-serif" font-size="13" lengthAdjust="spacing" textLength="285.5049" x="844.6" y="121.0584">&#171;include&#187; editarSolicitudDispensa(solicitudId)</text></g><?plantuml-src dPB1QiCm38RlVWgHNTg3UoXhMKi9P6aAlOqDTdSI4KmzszWE8uoz-vooRcdg96C-sPA-N_9lsnENcXds1e9BT8r6q4eqxO4GWuLZiX88T-a-UqnM46ttt6gKbbb8Sex6gGZy_YVw7GoYgHA2vSemnvM4hEIEcHSbUC5TNLuKpd83EK8qAqwiGYYKjBK8rRHuD9oUpIFu8E1NPyBrSfCTDf0EKgySt_jGlihBzGFSr7eLP_nDqVI9mp99xxDRuXcrijmfq_oL89-4z2q7QcWySGSuh-s8VJDxYHpBEI4JShJqBKSSQ5inKtNmAtsV3hpnc1uDzVlrpmkgtA54ywJCyL_DEcAKXeW9InQBUEZx-WbsEouBKPSOnu3XgkiN-080?></g></svg>