<?plantuml 1.2026.2?><svg xmlns="http://www.w3.org/2000/svg" xmlns:xlink="http://www.w3.org/1999/xlink" contentStyleType="text/css" data-diagram-type="DESCRIPTION" height="424px" preserveAspectRatio="none" style="width:684px;height:424px;background:#FFFFFF;" version="1.1" viewBox="0 0 684 424" width="684px" zoomAndPan="magnify"><defs/><g><!--cluster consultarDetalleAlumno--><g class="cluster" data-qualified-name="consultarDetalleAlumno" data-source-line="5" id="ent0003"><path d="M357.24,6 L542.4207,6 A3.75,3.75 0 0 1 544.9207,8.5 L551.9207,28.4883 L633.24,28.4883 A2.5,2.5 0 0 1 635.74,30.9883 L635.74,415.45 A2.5,2.5 0 0 1 633.24,417.95 L357.24,417.95 A2.5,2.5 0 0 1 354.74,415.45 L354.74,8.5 A2.5,2.5 0 0 1 357.24,6" fill="none" style="stroke:#000000;stroke-width:1.5;"/><line style="stroke:#000000;stroke-width:1.5;" x1="354.74" x2="551.9207" y1="28.4883" y2="28.4883"/><text fill="#000000" font-family="sans-serif" font-size="14" font-weight="bold" lengthAdjust="spacing" textLength="184.1807" x="358.74" y="21.5352">consultarDetalleAlumno()</text></g><!--entity ConsultarDetalleAlumnoView--><g class="entity" data-qualified-name="consultarDetalleAlumno.ConsultarDetalleAlumnoView" data-source-line="6" id="ent0004"><rect fill="#629EF9" height="36.4883" rx="2.5" ry="2.5" style="stroke:#181818;stroke-width:0.5;" width="217.2305" x="371.13" y="41"/><text fill="#000000" font-family="sans-serif" font-size="14" lengthAdjust="spacing" textLength="197.2305" x="381.13" y="64.5352">ConsultarDetalleAlumnoView</text></g><!--entity AlumnoController--><g class="entity" data-qualified-name="consultarDetalleAlumno.AlumnoController" data-source-line="7" id="ent0005"><rect fill="#B5BD68" height="36.4883" rx="2.5" ry="2.5" style="stroke:#181818;stroke-width:0.5;" width="140.9141" x="370.29" y="154.49"/><text fill="#000000" font-family="sans-serif" font-size="14" lengthAdjust="spacing" textLength="120.9141" x="380.29" y="178.0252">AlumnoController</text></g><!--entity AlumnoRepository--><g class="entity" data-qualified-name="consultarDetalleAlumno.AlumnoRepository" data-source-line="8" id="ent0006"><rect fill="#F2AC4E" height="36.4883" rx="2.5" ry="2.5" style="stroke:#181818;stroke-width:0.5;" width="144.8789" x="370.31" y="267.97"/><text fill="#000000" font-family="sans-serif" font-size="14" lengthAdjust="spacing" textLength="124.8789" x="380.31" y="291.5052">AlumnoRepository</text></g><!--entity Alumno--><g class="entity" data-qualified-name="consultarDetalleAlumno.Alumno" data-source-line="9" id="ent0007"><rect fill="#F2AC4E" height="36.4883" rx="2.5" ry="2.5" style="stroke:#181818;stroke-width:0.5;" width="72.7529" x="406.37" y="365.46"/><text fill="#000000" font-family="sans-serif" font-size="14" lengthAdjust="spacing" textLength="52.7529" x="416.37" y="388.9952">Alumno</text></g><!--entity ListaAbierta--><g class="entity" data-qualified-name="ListaAbierta" data-source-line="3" id="ent0002"><rect fill="#CDEBA5" height="36.4883" rx="2.5" ry="2.5" style="stroke:#181818;stroke-width:0.5;" width="109.4893" x="7" y="41"/><text fill="#000000" font-family="sans-serif" font-size="14" lengthAdjust="spacing" textLength="89.4893" x="17" y="64.5352">:Lista Abierta</text></g><!--link ListaAbierta to ConsultarDetalleAlumnoView--><g class="link" data-entity-1="ent0002" data-entity-2="ent0004" data-link-type="dependency" data-source-line="12" id="lnk8"><path d="M116.82,59.24 C181.22,59.24 283.38,59.24 364.9,59.24" fill="none" id="ListaAbierta-to-ConsultarDetalleAlumnoView" style="stroke:#181818;stroke-width:1;"/><polygon fill="#181818" points="370.9,59.24,361.9,55.24,365.9,59.24,361.9,63.24,370.9,59.24" style="stroke:#181818;stroke-width:1;"/><text fill="#000000" font-family="sans-serif" font-size="13" lengthAdjust="spacing" textLength="218.8672" x="134.81" y="52.8084">consultarDetalleAlumno(alumnoId)</text></g><!--link ConsultarDetalleAlumnoView to AlumnoController--><g class="link" data-entity-1="ent0004" data-entity-2="ent0005" data-link-type="dependency" data-source-line="14" id="lnk9"><path d="M473.65,77.66 C466.37,98.48 456.2332,127.4672 448.9032,148.3972" fill="none" id="ConsultarDetalleAlumnoView-to-AlumnoController" style="stroke:#181818;stroke-width:1;"/><polygon fill="#181818" points="446.92,154.06,453.67,146.888,448.5727,149.341,446.1196,144.2437,446.92,154.06" style="stroke:#181818;stroke-width:1;"/><text fill="#000000" font-family="sans-serif" font-size="13" lengthAdjust="spacing" textLength="212.4434" x="463.58" y="121.0584">cargarDetalle(alumnoId) : Alumno</text></g><!--link AlumnoController to AlumnoRepository--><g class="link" data-entity-1="ent0005" data-entity-2="ent0006" data-link-type="dependency" data-source-line="16" id="lnk10"><path d="M441.06,191.15 C441.43,211.97 441.9411,240.621 442.3211,261.551" fill="none" id="AlumnoController-to-AlumnoRepository" style="stroke:#181818;stroke-width:1;"/><polygon fill="#181818" points="442.43,267.55,446.266,258.4789,442.3392,262.5508,438.2673,258.6241,442.43,267.55" style="stroke:#181818;stroke-width:1;"/><text fill="#000000" font-family="sans-serif" font-size="13" lengthAdjust="spacing" textLength="210.2217" x="442.86" y="234.5384">obtenerPorId(alumnoId) : Alumno</text></g><!--link AlumnoRepository to Alumno--><g class="link" data-entity-1="ent0006" data-entity-2="ent0007" data-link-type="association" data-source-line="18" id="lnk11"><path d="M442.74,304.73 C442.74,321.85 442.74,347.79 442.74,364.98" fill="none" id="AlumnoRepository-Alumno" style="stroke:#181818;stroke-width:1;"/></g><?plantuml-src VP2nQiD038PtFOLmbsIu9JIXyL1m70S27Kg7xh8jp97BtI5V22RqtMkdRcBSr5h4IT__IxhweAqdeICQRJaqdj4xqtGF0E4YaAqCurEwpJR94gFuJTU1CCarIw08gSPhfIy0U2eEL34MpjOd4qYs7CWOJipfQ5t7HuzRitc45y0s1cDNYtMsMsFwKF6f-JmMvCkyNBtW3z3AWhYMbp6sMoJfSzPZ7-nThOEJPXA3Bu3XhQX4lKwirdd5__p3ZAvfNyu19XnKsKuOtzAPabGt_kxLTlfLuOz8tPpkv-8WOdHvOCloxcHVJdWEv4hzzhu1?></g></svg>