<?plantuml 1.2026.2?><svg xmlns="http://www.w3.org/2000/svg" xmlns:xlink="http://www.w3.org/1999/xlink" contentStyleType="text/css" data-diagram-type="SEQUENCE" height="769px" preserveAspectRatio="none" style="width:1362px;height:769px;background:#FFFFFF;" version="1.1" viewBox="0 0 1362 769" width="1362px" zoomAndPan="magnify"><title>Dise&#241;o &#8212; iniciarSesion()</title><defs/><g><text fill="#000000" font-family="sans-serif" font-size="14" font-weight="bold" lengthAdjust="spacing" textLength="175.2188" x="590.5598" y="28.5352">Dise&#241;o &#8212; iniciarSesion()</text><rect fill="#E8F0FE" height="719.5215" style="stroke:#181818;stroke-width:0.5;" width="483.6587" x="188.4917" y="43.4883"/><text fill="#000000" font-family="sans-serif" font-size="13" font-weight="bold" lengthAdjust="spacing" textLength="145.8945" x="357.3738" y="56.0566">Frontend (React + TS)</text><rect fill="#FFF4E0" height="719.5215" style="stroke:#181818;stroke-width:0.5;" width="608.6587" x="674.1504" y="43.4883"/><text fill="#000000" font-family="sans-serif" font-size="13" font-weight="bold" lengthAdjust="spacing" textLength="119.2471" x="918.8562" y="56.0566">Backend (FastAPI)</text><rect fill="none" height="296.0605" style="stroke:#000000;stroke-width:1.5;" width="1017.1216" x="10" y="370.4609"/><g class="participant-lifeline" data-entity-uid="part1" data-qualified-name="U" id="part1-lifeline"><g><title>Usuario</title><rect fill="#000000" fill-opacity="0.00000" height="564.5449" width="8" x="44.8159" y="118.9766"/><line style="stroke:#181818;stroke-width:0.5;stroke-dasharray:5,5;" x1="48" x2="48" y1="118.9766" y2="683.5215"/></g></g><g class="participant-lifeline" data-entity-uid="part2" data-qualified-name="LP" id="part2-lifeline"><g><title>LoginPage</title><rect fill="#000000" fill-opacity="0.00000" height="564.5449" width="8" x="230.2559" y="118.9766"/><line style="stroke:#181818;stroke-width:0.5;stroke-dasharray:5,5;" x1="233.4917" x2="233.4917" y1="118.9766" y2="683.5215"/></g></g><g class="participant-lifeline" data-entity-uid="part3" data-qualified-name="AS" id="part3-lifeline"><g><title>authService</title><rect fill="#000000" fill-opacity="0.00000" height="564.5449" width="8" x="424.6143" y="118.9766"/><line style="stroke:#181818;stroke-width:0.5;stroke-dasharray:5,5;" x1="427.7759" x2="427.7759" y1="118.9766" y2="683.5215"/></g></g><g class="participant-lifeline" data-entity-uid="part4" data-qualified-name="AC" id="part4-lifeline"><g><title>AuthContext</title><rect fill="#000000" fill-opacity="0.00000" height="564.5449" width="8" x="614.0977" y="118.9766"/><line style="stroke:#181818;stroke-width:0.5;stroke-dasharray:5,5;" x1="618.0449" x2="618.0449" y1="118.9766" y2="683.5215"/></g></g><g class="participant-lifeline" data-entity-uid="part5" data-qualified-name="AR" id="part5-lifeline"><g><title>AuthRouter</title><rect fill="#000000" fill-opacity="0.00000" height="564.5449" width="8" x="740.4385" y="118.9766"/><line style="stroke:#181818;stroke-width:0.5;stroke-dasharray:5,5;" x1="744.1504" x2="744.1504" y1="118.9766" y2="683.5215"/></g></g><g class="participant-lifeline" data-entity-uid="part6" data-qualified-name="ASvc" id="part6-lifeline"><g><title>AuthService</title><rect fill="#000000" fill-opacity="0.00000" height="564.5449" width="8" x="966.3193" y="118.9766"/><line style="stroke:#181818;stroke-width:0.5;stroke-dasharray:5,5;" x1="969.5171" x2="969.5171" y1="118.9766" y2="683.5215"/></g></g><g class="participant-lifeline" data-entity-uid="part7" data-qualified-name="UR" id="part7-lifeline"><g><title>UsuarioRepository</title><rect fill="#000000" fill-opacity="0.00000" height="564.5449" width="8" x="1205.9302" y="118.9766"/><line style="stroke:#181818;stroke-width:0.5;stroke-dasharray:5,5;" x1="1209.0513" x2="1209.0513" y1="118.9766" y2="683.5215"/></g></g><g class="participant-lifeline" data-entity-uid="part8" data-qualified-name="DB" id="part8-lifeline"><g><title>SQLite</title><rect fill="#000000" fill-opacity="0.00000" height="564.5449" width="8" x="1323.8564" y="118.9766"/><line style="stroke:#181818;stroke-width:0.5;stroke-dasharray:5,5;" x1="1327.3745" x2="1327.3745" y1="118.9766" y2="683.5215"/></g></g><g class="participant participant-head" data-entity-uid="part1" data-qualified-name="U" id="part1-head"><text fill="#000000" font-family="sans-serif" font-size="14" lengthAdjust="spacing" textLength="51.6318" x="20" y="116.0234">Usuario</text><ellipse cx="48.8159" cy="50.9883" fill="#E2E2F0" rx="8" ry="8" style="stroke:#181818;stroke-width:0.5;"/><path d="M48.8159,58.9883 L48.8159,85.9883 M35.8159,66.9883 L61.8159,66.9883 M48.8159,85.9883 L35.8159,100.9883 M48.8159,85.9883 L61.8159,100.9883" fill="none" style="stroke:#181818;stroke-width:0.5;"/></g><g class="participant participant-tail" data-entity-uid="part1" data-qualified-name="U" id="part1-tail"><text fill="#000000" font-family="sans-serif" font-size="14" lengthAdjust="spacing" textLength="51.6318" x="20" y="696.0566">Usuario</text><ellipse cx="48.8159" cy="707.5098" fill="#E2E2F0" rx="8" ry="8" style="stroke:#181818;stroke-width:0.5;"/><path d="M48.8159,715.5098 L48.8159,742.5098 M35.8159,723.5098 L61.8159,723.5098 M48.8159,742.5098 L35.8159,757.5098 M48.8159,742.5098 L61.8159,757.5098" fill="none" style="stroke:#181818;stroke-width:0.5;"/></g><g class="participant participant-head" data-entity-uid="part2" data-qualified-name="LP" id="part2-head"><rect fill="#E2E2F0" height="30.4883" rx="2.5" ry="2.5" style="stroke:#181818;stroke-width:0.5;" width="83.5283" x="192.4917" y="87.4883"/><text fill="#000000" font-family="sans-serif" font-size="14" lengthAdjust="spacing" textLength="69.5283" x="199.4917" y="108.0234">LoginPage</text></g><g class="participant participant-tail" data-entity-uid="part2" data-qualified-name="LP" id="part2-tail"><rect fill="#E2E2F0" height="30.4883" rx="2.5" ry="2.5" style="stroke:#181818;stroke-width:0.5;" width="83.5283" x="192.4917" y="682.5215"/><text fill="#000000" font-family="sans-serif" font-size="14" lengthAdjust="spacing" textLength="69.5283" x="199.4917" y="703.0566">LoginPage</text></g><g class="participant participant-head" data-entity-uid="part3" data-qualified-name="AS" id="part3-head"><rect fill="#E2E2F0" height="30.4883" rx="2.5" ry="2.5" style="stroke:#181818;stroke-width:0.5;" width="91.6768" x="382.7759" y="87.4883"/><text fill="#000000" font-family="sans-serif" font-size="14" lengthAdjust="spacing" textLength="77.6768" x="389.7759" y="108.0234">authService</text></g><g class="participant participant-tail" data-entity-uid="part3" data-qualified-name="AS" id="part3-tail"><rect fill="#E2E2F0" height="30.4883" rx="2.5" ry="2.5" style="stroke:#181818;stroke-width:0.5;" width="91.6768" x="382.7759" y="682.5215"/><text fill="#000000" font-family="sans-serif" font-size="14" lengthAdjust="spacing" textLength="77.6768" x="389.7759" y="703.0566">authService</text></g><g class="participant participant-head" data-entity-uid="part4" data-qualified-name="AC" id="part4-head"><rect fill="#E2E2F0" height="30.4883" rx="2.5" ry="2.5" style="stroke:#181818;stroke-width:0.5;" width="100.1055" x="568.0449" y="87.4883"/><text fill="#000000" font-family="sans-serif" font-size="14" lengthAdjust="spacing" textLength="86.1055" x="575.0449" y="108.0234">AuthContext</text></g><g class="participant participant-tail" data-entity-uid="part4" data-qualified-name="AC" id="part4-tail"><rect fill="#E2E2F0" height="30.4883" rx="2.5" ry="2.5" style="stroke:#181818;stroke-width:0.5;" width="100.1055" x="568.0449" y="682.5215"/><text fill="#000000" font-family="sans-serif" font-size="14" lengthAdjust="spacing" textLength="86.1055" x="575.0449" y="703.0566">AuthContext</text></g><g class="participant participant-head" data-entity-uid="part5" data-qualified-name="AR" id="part5-head"><rect fill="#E2E2F0" height="46.9766" rx="2.5" ry="2.5" style="stroke:#181818;stroke-width:0.5;" width="132.5762" x="678.1504" y="71"/><text fill="#000000" font-family="sans-serif" font-size="14" lengthAdjust="spacing" textLength="77.1777" x="705.8496" y="91.5352">AuthRouter</text><text fill="#000000" font-family="sans-serif" font-size="14" lengthAdjust="spacing" textLength="118.5762" x="685.1504" y="108.0234">POST /auth/login</text></g><g class="participant participant-tail" data-entity-uid="part5" data-qualified-name="AR" id="part5-tail"><rect fill="#E2E2F0" height="46.9766" rx="2.5" ry="2.5" style="stroke:#181818;stroke-width:0.5;" width="132.5762" x="678.1504" y="682.5215"/><text fill="#000000" font-family="sans-serif" font-size="14" lengthAdjust="spacing" textLength="77.1777" x="705.8496" y="703.0566">AuthRouter</text><text fill="#000000" font-family="sans-serif" font-size="14" lengthAdjust="spacing" textLength="118.5762" x="685.1504" y="719.5449">POST /auth/login</text></g><g class="participant participant-head" data-entity-uid="part6" data-qualified-name="ASvc" id="part6-head"><rect fill="#E2E2F0" height="30.4883" rx="2.5" ry="2.5" style="stroke:#181818;stroke-width:0.5;" width="93.6045" x="923.5171" y="87.4883"/><text fill="#000000" font-family="sans-serif" font-size="14" lengthAdjust="spacing" textLength="79.6045" x="930.5171" y="108.0234">AuthService</text></g><g class="participant participant-tail" data-entity-uid="part6" data-qualified-name="ASvc" id="part6-tail"><rect fill="#E2E2F0" height="30.4883" rx="2.5" ry="2.5" style="stroke:#181818;stroke-width:0.5;" width="93.6045" x="923.5171" y="682.5215"/><text fill="#000000" font-family="sans-serif" font-size="14" lengthAdjust="spacing" textLength="79.6045" x="930.5171" y="703.0566">AuthService</text></g><g class="participant participant-head" data-entity-uid="part7" data-qualified-name="UR" id="part7-head"><rect fill="#E2E2F0" height="30.4883" rx="2.5" ry="2.5" style="stroke:#181818;stroke-width:0.5;" width="137.7578" x="1141.0513" y="87.4883"/><text fill="#000000" font-family="sans-serif" font-size="14" lengthAdjust="spacing" textLength="123.7578" x="1148.0513" y="108.0234">UsuarioRepository</text></g><g class="participant participant-tail" data-entity-uid="part7" data-qualified-name="UR" id="part7-tail"><rect fill="#E2E2F0" height="30.4883" rx="2.5" ry="2.5" style="stroke:#181818;stroke-width:0.5;" width="137.7578" x="1141.0513" y="682.5215"/><text fill="#000000" font-family="sans-serif" font-size="14" lengthAdjust="spacing" textLength="123.7578" x="1148.0513" y="703.0566">UsuarioRepository</text></g><g class="participant participant-head" data-entity-uid="part8" data-qualified-name="DB" id="part8-head"><text fill="#000000" font-family="sans-serif" font-size="14" lengthAdjust="spacing" textLength="42.9639" x="1303.3745" y="116.0234">SQLite</text><path d="M1309.8564,66.4883 C1309.8564,56.4883 1327.8564,56.4883 1327.8564,56.4883 C1327.8564,56.4883 1345.8564,56.4883 1345.8564,66.4883 L1345.8564,92.4883 C1345.8564,102.4883 1327.8564,102.4883 1327.8564,102.4883 C1327.8564,102.4883 1309.8564,102.4883 1309.8564,92.4883 L1309.8564,66.4883" fill="#E2E2F0" style="stroke:#181818;stroke-width:0.5;"/><path d="M1309.8564,66.4883 C1309.8564,76.4883 1327.8564,76.4883 1327.8564,76.4883 C1327.8564,76.4883 1345.8564,76.4883 1345.8564,66.4883" fill="none" style="stroke:#181818;stroke-width:0.5;"/></g><g class="participant participant-tail" data-entity-uid="part8" data-qualified-name="DB" id="part8-tail"><text fill="#000000" font-family="sans-serif" font-size="14" lengthAdjust="spacing" textLength="42.9639" x="1303.3745" y="696.0566">SQLite</text><path d="M1309.8564,709.0098 C1309.8564,699.0098 1327.8564,699.0098 1327.8564,699.0098 C1327.8564,699.0098 1345.8564,699.0098 1345.8564,709.0098 L1345.8564,735.0098 C1345.8564,745.0098 1327.8564,745.0098 1327.8564,745.0098 C1327.8564,745.0098 1309.8564,745.0098 1309.8564,735.0098 L1309.8564,709.0098" fill="#E2E2F0" style="stroke:#181818;stroke-width:0.5;"/><path d="M1309.8564,709.0098 C1309.8564,719.0098 1327.8564,719.0098 1327.8564,719.0098 C1327.8564,719.0098 1345.8564,719.0098 1345.8564,709.0098" fill="none" style="stroke:#181818;stroke-width:0.5;"/></g><g class="message" data-entity-1="part1" data-entity-2="part2" id="msg1"><polygon fill="#181818" points="222.2559,146.2871,232.2559,150.2871,222.2559,154.2871,226.2559,150.2871" style="stroke:#181818;stroke-width:1;"/><line style="stroke:#181818;stroke-width:1;" x1="48.8159" x2="228.2559" y1="150.2871" y2="150.2871"/><text fill="#000000" font-family="sans-serif" font-size="13" lengthAdjust="spacing" textLength="77.9365" x="55.8159" y="145.5449">credenciales</text></g><g class="message" data-entity-1="part2" data-entity-2="part3" id="msg2"><polygon fill="#181818" points="416.6143,175.5977,426.6143,179.5977,416.6143,183.5977,420.6143,179.5977" style="stroke:#181818;stroke-width:1;"/><line style="stroke:#181818;stroke-width:1;" x1="234.2559" x2="422.6143" y1="179.5977" y2="179.5977"/><text fill="#000000" font-family="sans-serif" font-size="13" lengthAdjust="spacing" textLength="170.3584" x="241.2559" y="174.8555">login(username, password)</text></g><g class="message" data-entity-1="part3" data-entity-2="part5" id="msg3"><polygon fill="#181818" points="732.4385,204.9082,742.4385,208.9082,732.4385,212.9082,736.4385,208.9082" style="stroke:#181818;stroke-width:1;"/><line style="stroke:#181818;stroke-width:1;" x1="428.6143" x2="738.4385" y1="208.9082" y2="208.9082"/><text fill="#000000" font-family="sans-serif" font-size="13" lengthAdjust="spacing" textLength="110.1064" x="435.6143" y="204.166">POST /auth/login</text></g><g class="message" data-entity-1="part5" data-entity-2="part6" id="msg4"><polygon fill="#181818" points="958.3193,234.2188,968.3193,238.2188,958.3193,242.2188,962.3193,238.2188" style="stroke:#181818;stroke-width:1;"/><line style="stroke:#181818;stroke-width:1;" x1="744.4385" x2="964.3193" y1="238.2188" y2="238.2188"/><text fill="#000000" font-family="sans-serif" font-size="13" lengthAdjust="spacing" textLength="201.8809" x="751.4385" y="233.4766">autenticar(username, password)</text></g><g class="message" data-entity-1="part6" data-entity-2="part7" id="msg5"><polygon fill="#181818" points="1197.9302,263.5293,1207.9302,267.5293,1197.9302,271.5293,1201.9302,267.5293" style="stroke:#181818;stroke-width:1;"/><line style="stroke:#181818;stroke-width:1;" x1="970.3193" x2="1203.9302" y1="267.5293" y2="267.5293"/><text fill="#000000" font-family="sans-serif" font-size="13" lengthAdjust="spacing" textLength="215.6108" x="977.3193" y="262.7871">obtener_por_username(username)</text></g><g class="message" data-entity-1="part7" data-entity-2="part8" id="msg6"><polygon fill="#181818" points="1315.8564,292.8398,1325.8564,296.8398,1315.8564,300.8398,1319.8564,296.8398" style="stroke:#181818;stroke-width:1;"/><line style="stroke:#181818;stroke-width:1;" x1="1209.9302" x2="1321.8564" y1="296.8398" y2="296.8398"/><text fill="#000000" font-family="sans-serif" font-size="13" lengthAdjust="spacing" textLength="45.2397" x="1216.9302" y="292.0977">SELECT</text></g><g class="message" data-entity-1="part8" data-entity-2="part7" id="msg7"><polygon fill="#181818" points="1220.9302,322.1504,1210.9302,326.1504,1220.9302,330.1504,1216.9302,326.1504" style="stroke:#181818;stroke-width:1;"/><line style="stroke:#181818;stroke-width:1;stroke-dasharray:2,2;" x1="1214.9302" x2="1326.8564" y1="326.1504" y2="326.1504"/><text fill="#000000" font-family="sans-serif" font-size="13" lengthAdjust="spacing" textLength="93.9263" x="1226.9302" y="321.4082">Usuario | None</text></g><g class="message" data-entity-1="part7" data-entity-2="part6" id="msg8"><polygon fill="#181818" points="981.3193,351.4609,971.3193,355.4609,981.3193,359.4609,977.3193,355.4609" style="stroke:#181818;stroke-width:1;"/><line style="stroke:#181818;stroke-width:1;stroke-dasharray:2,2;" x1="975.3193" x2="1208.9302" y1="355.4609" y2="355.4609"/><text fill="#000000" font-family="sans-serif" font-size="13" lengthAdjust="spacing" textLength="93.9263" x="987.3193" y="350.7188">Usuario | None</text></g><path d="M10,370.4609 L72.1387,370.4609 L72.1387,377.7715 L62.1387,387.7715 L10,387.7715 L10,370.4609" fill="#EEEEEE" style="stroke:#000000;stroke-width:1.5;"/><rect fill="none" height="296.0605" style="stroke:#000000;stroke-width:1.5;" width="1017.1216" x="10" y="370.4609"/><text fill="#000000" font-family="sans-serif" font-size="13" font-weight="bold" lengthAdjust="spacing" textLength="17.1387" x="25" y="384.0293">alt</text><text fill="#000000" font-family="sans-serif" font-size="11" font-weight="bold" lengthAdjust="spacing" textLength="122.2998" x="87.1387" y="383.0957">[credenciales v&#225;lidas]</text><g class="message" data-entity-1="part6" data-entity-2="part5" id="msg9"><polygon fill="#181818" points="755.4385,405.082,745.4385,409.082,755.4385,413.082,751.4385,409.082" style="stroke:#181818;stroke-width:1;"/><line style="stroke:#181818;stroke-width:1;stroke-dasharray:2,2;" x1="749.4385" x2="969.3193" y1="409.082" y2="409.082"/><text fill="#000000" font-family="sans-serif" font-size="13" lengthAdjust="spacing" textLength="99.3091" x="761.4385" y="404.3398">TokenResponse</text></g><g class="message" data-entity-1="part5" data-entity-2="part3" id="msg10"><polygon fill="#181818" points="439.6143,434.3926,429.6143,438.3926,439.6143,442.3926,435.6143,438.3926" style="stroke:#181818;stroke-width:1;"/><line style="stroke:#181818;stroke-width:1;stroke-dasharray:2,2;" x1="433.6143" x2="743.4385" y1="438.3926" y2="438.3926"/><text fill="#000000" font-family="sans-serif" font-size="13" lengthAdjust="spacing" textLength="47.3599" x="445.6143" y="433.6504">200 OK</text></g><g class="message" data-entity-1="part3" data-entity-2="part4" id="msg11"><polygon fill="#181818" points="606.0977,463.7031,616.0977,467.7031,606.0977,471.7031,610.0977,467.7031" style="stroke:#181818;stroke-width:1;"/><line style="stroke:#181818;stroke-width:1;" x1="428.6143" x2="612.0977" y1="467.7031" y2="467.7031"/><text fill="#000000" font-family="sans-serif" font-size="13" lengthAdjust="spacing" textLength="165.4834" x="435.6143" y="462.9609">setSession(token, usuario)</text></g><g class="message" data-entity-1="part4" data-entity-2="part2" id="msg12"><polygon fill="#181818" points="245.2559,493.0137,235.2559,497.0137,245.2559,501.0137,241.2559,497.0137" style="stroke:#181818;stroke-width:1;"/><line style="stroke:#181818;stroke-width:1;stroke-dasharray:2,2;" x1="239.2559" x2="617.0977" y1="497.0137" y2="497.0137"/><text fill="#000000" font-family="sans-serif" font-size="13" lengthAdjust="spacing" textLength="125.1631" x="251.2559" y="492.2715">usuario autenticado</text></g><g class="message" data-entity-1="part2" data-entity-2="part1" id="msg13"><polygon fill="#181818" points="59.8159,522.3242,49.8159,526.3242,59.8159,530.3242,55.8159,526.3242" style="stroke:#181818;stroke-width:1;"/><line style="stroke:#181818;stroke-width:1;stroke-dasharray:2,2;" x1="53.8159" x2="233.2559" y1="526.3242" y2="526.3242"/><text fill="#000000" font-family="sans-serif" font-size="13" lengthAdjust="spacing" textLength="120.2183" x="65.8159" y="521.582">Sistema Disponible</text></g><line style="stroke:#000000;stroke-width:1;stroke-dasharray:2,2;" x1="10" x2="1027.1216" y1="535.3242" y2="535.3242"/><text fill="#000000" font-family="sans-serif" font-size="11" font-weight="bold" lengthAdjust="spacing" textLength="140.1748" x="15" y="545.959">[credenciales no v&#225;lidas]</text><g class="message" data-entity-1="part6" data-entity-2="part5" id="msg14"><polygon fill="#181818" points="755.4385,566.5898,745.4385,570.5898,755.4385,574.5898,751.4385,570.5898" style="stroke:#181818;stroke-width:1;"/><line style="stroke:#181818;stroke-width:1;stroke-dasharray:2,2;" x1="749.4385" x2="969.3193" y1="570.5898" y2="570.5898"/><text fill="#000000" font-family="sans-serif" font-size="13" lengthAdjust="spacing" textLength="169.7363" x="761.4385" y="565.8477">raise CredencialesInvalidas</text></g><g class="message" data-entity-1="part5" data-entity-2="part3" id="msg15"><polygon fill="#181818" points="439.6143,595.9004,429.6143,599.9004,439.6143,603.9004,435.6143,599.9004" style="stroke:#181818;stroke-width:1;"/><line style="stroke:#181818;stroke-width:1;stroke-dasharray:2,2;" x1="433.6143" x2="743.4385" y1="599.9004" y2="599.9004"/><text fill="#000000" font-family="sans-serif" font-size="13" lengthAdjust="spacing" textLength="24.6606" x="445.6143" y="595.1582">401</text></g><g class="message" data-entity-1="part3" data-entity-2="part2" id="msg16"><polygon fill="#181818" points="245.2559,625.2109,235.2559,629.2109,245.2559,633.2109,241.2559,629.2109" style="stroke:#181818;stroke-width:1;"/><line style="stroke:#181818;stroke-width:1;stroke-dasharray:2,2;" x1="239.2559" x2="427.6143" y1="629.2109" y2="629.2109"/><text fill="#000000" font-family="sans-serif" font-size="13" lengthAdjust="spacing" textLength="31.186" x="251.2559" y="624.4688">error</text></g><g class="message" data-entity-1="part2" data-entity-2="part1" id="msg17"><polygon fill="#181818" points="59.8159,654.5215,49.8159,658.5215,59.8159,662.5215,55.8159,658.5215" style="stroke:#181818;stroke-width:1;"/><line style="stroke:#181818;stroke-width:1;stroke-dasharray:2,2;" x1="53.8159" x2="233.2559" y1="658.5215" y2="658.5215"/><text fill="#000000" font-family="sans-serif" font-size="13" lengthAdjust="spacing" textLength="161.4399" x="65.8159" y="653.7793">"credenciales incorrectas"</text></g><?plantuml-src VPDDRjim44RtFCL0tTXeWhX55eKN1MpP0e8QZIjPkmB1M1gaH1LI86ar1Rhe8Ng17g5do4roaWv9_qIn4sy4Qnu_lXbIJhg6O2OjFVpJyFZx3qWbAucc82kr6Wo5mCff0wNTe94Qq48fn5hVGv8PhHof6WOvCGHlOLKC4tWp_v2Diha0_hLe7CUrg1ma2tqhrH9lAV4fY-KnWHlthI3JoIeoa-AOcJ2J-etlNMHIuHtOQAirnUfxiChGkidooYjbMNOv7vqEo_N6aVcgbjV52YwymaNZJMDwVdfHtxAhZgdjm79gjPKymP-1BVE3ROqErsW9akBBGheODfiAKNBM-KUU43_7K1cgIV6PD6I5VyUbIH5AmNEmiMGKtj4P2rZxGvjwA3pWkJnmpriJ_ds8wIekSu4KcwDv8OiffilSP-armsHkMcrkTlH-sL2KCNas3HiNyyKyNGd_xtoViBjAl-2pLXHN76IULGKshZS2w1x-Dh966qOUtMAdOrXfFlcSRAkLfLZVX_kTtuz6SFrfkp1E80sUbXnV-73ZdSyuWqtK64OuZIb--kDTwJ2sMWSgd8tlChOkhQCxzDyMwyXrGu8QFknUBqg_rev1_YuXVRBWIdNuXEurTpbwT-XiBql6Q7D2B-bvI5LfOwXoQ1D_GSL_?></g></svg>