<?plantuml 1.2026.2?><svg xmlns="http://www.w3.org/2000/svg" xmlns:xlink="http://www.w3.org/1999/xlink" contentStyleType="text/css" data-diagram-type="DESCRIPTION" height="424px" preserveAspectRatio="none" style="width:1142px;height:424px;background:#FFFFFF;" version="1.1" viewBox="0 0 1142 424" width="1142px" zoomAndPan="magnify"><defs/><g><!--cluster consultarSolicitudesDispensas--><g class="cluster" data-qualified-name="consultarSolicitudesDispensas" data-source-line="6" id="ent0004"><path d="M179.45,6 L410.9646,6 A3.75,3.75 0 0 1 413.4646,8.5 L420.4646,28.4883 L838.45,28.4883 A2.5,2.5 0 0 1 840.95,30.9883 L840.95,415.45 A2.5,2.5 0 0 1 838.45,417.95 L179.45,417.95 A2.5,2.5 0 0 1 176.95,415.45 L176.95,8.5 A2.5,2.5 0 0 1 179.45,6" fill="none" style="stroke:#000000;stroke-width:1.5;"/><line style="stroke:#000000;stroke-width:1.5;" x1="176.95" x2="420.4646" y1="28.4883" y2="28.4883"/><text fill="#000000" font-family="sans-serif" font-size="14" font-weight="bold" lengthAdjust="spacing" textLength="230.5146" x="180.95" y="21.5352">consultarSolicitudesDispensas()</text></g><!--entity ConsultarSolicitudesDispensasView--><g class="entity" data-qualified-name="consultarSolicitudesDispensas.ConsultarSolicitudesDispensasView" data-source-line="7" id="ent0005"><rect fill="#629EF9" height="36.4883" rx="2.5" ry="2.5" style="stroke:#181818;stroke-width:0.5;" width="259.4287" x="408.23" y="41"/><text fill="#000000" font-family="sans-serif" font-size="14" lengthAdjust="spacing" textLength="239.4287" x="418.23" y="64.5352">ConsultarSolicitudesDispensasView</text></g><!--entity SolicitudDispensaController--><g class="entity" data-qualified-name="consultarSolicitudesDispensas.SolicitudDispensaController" data-source-line="8" id="ent0006"><rect fill="#B5BD68" height="36.4883" rx="2.5" ry="2.5" style="stroke:#181818;stroke-width:0.5;" width="208.1865" x="309.85" y="154.49"/><text fill="#000000" font-family="sans-serif" font-size="14" lengthAdjust="spacing" textLength="188.1865" x="319.85" y="178.0252">SolicitudDispensaController</text></g><!--entity SolicitudDispensaRepository--><g class="entity" data-qualified-name="consultarSolicitudesDispensas.SolicitudDispensaRepository" data-source-line="9" id="ent0007"><rect fill="#F2AC4E" height="36.4883" rx="2.5" ry="2.5" style="stroke:#181818;stroke-width:0.5;" width="212.1514" x="311.87" y="267.97"/><text fill="#000000" font-family="sans-serif" font-size="14" lengthAdjust="spacing" textLength="192.1514" x="321.87" y="291.5052">SolicitudDispensaRepository</text></g><!--entity SolicitudDispensa--><g class="entity" data-qualified-name="consultarSolicitudesDispensas.SolicitudDispensa" data-source-line="10" id="ent0008"><rect fill="#F2AC4E" height="36.4883" rx="2.5" ry="2.5" style="stroke:#181818;stroke-width:0.5;" width="140.0254" x="347.94" y="365.46"/><text fill="#000000" font-family="sans-serif" font-size="14" lengthAdjust="spacing" textLength="120.0254" x="357.94" y="388.9952">SolicitudDispensa</text></g><!--entity SistemaDisponible--><g class="entity" data-qualified-name="SistemaDisponible" data-source-line="3" id="ent0002"><rect fill="#CDEBA5" height="36.4883" rx="2.5" ry="2.5" style="stroke:#181818;stroke-width:0.5;" width="153.8955" x="7" y="41"/><text fill="#000000" font-family="sans-serif" font-size="14" lengthAdjust="spacing" textLength="133.8955" x="17" y="64.5352">:Sistema Disponible</text></g><!--entity EditarSolicitudDispensa--><g class="entity" data-qualified-name="EditarSolicitudDispensa" data-source-line="4" id="ent0003"><rect fill="#CDEBA5" height="36.4883" rx="2.5" ry="2.5" style="stroke:#181818;stroke-width:0.5;" width="279.5811" x="857.16" y="154.49"/><text fill="#000000" font-family="sans-serif" font-size="14" lengthAdjust="spacing" textLength="259.5811" x="867.16" y="178.0252">:Collaboration EditarSolicitudDispensa</text></g><!--link SistemaDisponible to ConsultarSolicitudesDispensasView--><g class="link" data-entity-1="ent0002" data-entity-2="ent0005" data-link-type="dependency" data-source-line="13" id="lnk9"><path d="M161.22,59.24 C228.8,59.24 322.35,59.24 402.14,59.24" fill="none" id="SistemaDisponible-to-ConsultarSolicitudesDispensasView" style="stroke:#181818;stroke-width:1;"/><polygon fill="#181818" points="408.14,59.24,399.14,55.24,403.14,59.24,399.14,63.24,408.14,59.24" style="stroke:#181818;stroke-width:1;"/><text fill="#000000" font-family="sans-serif" font-size="13" lengthAdjust="spacing" textLength="198.9292" x="185.56" y="52.8084">consultarSolicitudesDispensas()</text></g><!--link ConsultarSolicitudesDispensasView to SolicitudDispensaController--><g class="link" data-entity-1="ent0005" data-entity-2="ent0006" data-link-type="dependency" data-source-line="15" id="lnk10"><path d="M420.51,77.97 C331.69,91.37 224.95,107.49 224.95,107.49 C224.95,107.49 224.95,124.49 224.95,124.49 C224.95,124.49 283.579,139.1456 337.209,152.5456" fill="none" id="ConsultarSolicitudesDispensasView-to-SolicitudDispensaController" style="stroke:#181818;stroke-width:1;"/><polygon fill="#181818" points="343.03,154,335.2681,147.9376,338.1791,152.788,333.3288,155.699,343.03,154" style="stroke:#181818;stroke-width:1;"/><text fill="#000000" font-family="sans-serif" font-size="13" lengthAdjust="spacing" textLength="282.7563" x="225.95" y="121.0584">cargarSolicitudes() : List&lt;SolicitudDispensa&gt;</text></g><!--link ConsultarSolicitudesDispensasView to SolicitudDispensaController--><g class="link" data-entity-1="ent0005" data-entity-2="ent0006" data-link-type="dependency" data-source-line="19" id="lnk12"><path d="M531.12,77.8 C523.71,96.82 512.95,124.49 512.95,124.49 C512.95,124.49 484.6057,138.0174 456.5057,151.4174" fill="none" id="ConsultarSolicitudesDispensasView-to-SolicitudDispensaController-1" style="stroke:#181818;stroke-width:1;"/><polygon fill="#181818" points="451.09,154,460.9353,153.7366,455.6031,151.8478,457.4919,146.5156,451.09,154" style="stroke:#181818;stroke-width:1;"/><text fill="#000000" font-family="sans-serif" font-size="13" lengthAdjust="spacing" textLength="271.3687" x="519.99" y="121.0584">abrirDetalle(solicitudId) : SolicitudDispensa</text></g><!--link SolicitudDispensaController to SolicitudDispensaRepository--><g class="link" data-entity-1="ent0006" data-entity-2="ent0007" data-link-type="dependency" data-source-line="17" id="lnk11"><path d="M345.28,191.46 C293.36,204.86 230.95,220.97 230.95,220.97 C230.95,220.97 230.95,237.97 230.95,237.97 C230.95,237.97 288.9026,252.6209 341.9626,266.0209" fill="none" id="SolicitudDispensaController-to-SolicitudDispensaRepository" style="stroke:#181818;stroke-width:1;"/><polygon fill="#181818" points="347.78,267.49,340.0334,261.4081,342.9322,266.2657,338.0745,269.1645,347.78,267.49" style="stroke:#181818;stroke-width:1;"/><text fill="#000000" font-family="sans-serif" font-size="13" lengthAdjust="spacing" textLength="262.1899" x="231.95" y="234.5384">obtenerTodas() : List&lt;SolicitudDispensa&gt;</text></g><!--link SolicitudDispensaController to SolicitudDispensaRepository--><g class="link" data-entity-1="ent0006" data-entity-2="ent0007" data-link-type="dependency" data-source-line="21" id="lnk13"><path d="M445.6,191.32 C469.77,204.75 498.95,220.97 498.95,220.97 C498.95,220.97 498.95,237.97 498.95,237.97 C498.95,237.97 476.3221,251.1658 453.2921,264.6058" fill="none" id="SolicitudDispensaController-to-SolicitudDispensaRepository-1" style="stroke:#181818;stroke-width:1;"/><polygon fill="#181818" points="448.11,267.63,457.8993,266.5484,452.4284,265.1098,453.867,259.639,448.11,267.63" style="stroke:#181818;stroke-width:1;"/><text fill="#000000" font-family="sans-serif" font-size="13" lengthAdjust="spacing" textLength="279.1509" x="499.95" y="234.5384">obtenerPorId(solicitudId) : SolicitudDispensa</text></g><!--link SolicitudDispensaRepository to SolicitudDispensa--><g class="link" data-entity-1="ent0007" data-entity-2="ent0008" data-link-type="association" data-source-line="23" id="lnk14"><path d="M417.95,304.73 C417.95,321.85 417.95,347.79 417.95,364.98" fill="none" id="SolicitudDispensaRepository-SolicitudDispensa" style="stroke:#181818;stroke-width:1;"/></g><!--link ConsultarSolicitudesDispensasView to EditarSolicitudDispensa--><g class="link" data-entity-1="ent0005" data-entity-2="ent0003" data-link-type="dependency" data-source-line="25" id="lnk15"><path d="M636.25,77.97 C710.6,91.37 799.95,107.49 799.95,107.49 C799.95,107.49 878.5754,133.1305 936.8954,152.1405" fill="none" id="ConsultarSolicitudesDispensasView-to-EditarSolicitudDispensa" style="stroke:#181818;stroke-width:1;stroke-dasharray:7,7;"/><polygon fill="#181818" points="942.6,154,935.2828,147.4077,937.8462,152.4504,932.8035,155.0139,942.6,154" style="stroke:#181818;stroke-width:1;"/><text fill="#000000" font-family="sans-serif" font-size="13" lengthAdjust="spacing" textLength="285.5049" x="848.56" y="121.0584">&#171;include&#187; editarSolicitudDispensa(solicitudId)</text></g><?plantuml-src hLFDQy8m5B_dhtXqbtge1vaoHGgkhI3iCERO_RLvI30c9OaC6VlVbmwT7wsjo7Bhw-_paTYrK2KQt80KYjok92Yrt5KVZ1ag7AgL97X8qknvDeHWiXJMqGOX5RRKIkII0a0B-_5nsaXEj9IOQuDEQ0KP5mxDKajH2BVb5PUKnL-zA_yOAx5OuugWqCfkvIc6x05bAuMW5H7s0lXYuCz9pj5WdCt7aBGHFmHzNlBoOSv7Jr1BwuMSyPN9N3BcWrdocDKPRrHgAvmskriPx9knsl8XCb7StGCEPm8TosAiMopYthDb1vKBcjMPGjZpqnSVVreZnhvNYrZKP7PStryndJjIPDurnmwt6nfs5FJgc1jXKdBe1w4zO1UyScwupV_Oy5MR1R_7yaGoYfeOtOlfz-DhBtOVSZeLgf2U6ST0pSYpxEm7?></g></svg>