<svg xmlns="http://www.w3.org/2000/svg" xmlns:xlink="http://www.w3.org/1999/xlink" contentStyleType="text/css" data-diagram-type="STATE" height="1052px" preserveAspectRatio="none" style="width:1084px;height:1052px;background:#FFFFFF;" version="1.1" viewBox="0 0 1084 1052" width="1084px" zoomAndPan="magnify"><?plantuml 1.2026.5?><defs/><g><g class="title" data-source-line="1"><text fill="#000000" font-family="sans-serif" font-size="14" font-weight="700" lengthAdjust="spacing" textLength="225.8115" x="425.6519" y="33.5352">Asignar Asignaturas a Profesor</text></g><rect fill="#FFFFCC" height="16.6406" rx="2.5" ry="2.5" style="stroke:#FFDD88;stroke-width:3;" width="1068.1153" x="3" y="60.4883"/><text fill="#000000" font-family="monospace" font-size="10" lengthAdjust="spacing" textLength="295.0049" x="10" y="71.1289">Please&#160;use&#160;CSS&#160;style&#160;instead&#160;of&#160;skinparam&#160;padding</text><g class="entity" data-qualified-name="SISTEMA_DISPONIBLE_INICIAL" data-source-line="10" id="ent0001"><rect fill="#F1F1F1" height="76.4883" rx="12.5" ry="12.5" style="stroke:#181818;stroke-width:0.5;" width="182.4268" x="446.84" y="205.1289"/><line style="stroke:#181818;stroke-width:0.5;" x1="446.84" x2="629.2668" y1="251.6172" y2="251.6172"/><text fill="#000000" font-family="sans-serif" font-size="14" lengthAdjust="spacing" textLength="142.4268" x="466.84" y="233.6641">SISTEMA_DISPONIBLE</text></g><g class="entity" data-qualified-name="ASIGNACIONES_COMP" data-source-line="11" id="ent0002"><path d="M19.5,381.6189 L1056.6153,381.6189 A12.5,12.5 0 0 1 1069.1153,394.1189 L1069.1153,428.1072 L7,428.1072 L7,394.1189 A12.5,12.5 0 0 1 19.5,381.6189" fill="#F1F1F1"/><rect fill="none" height="358.4588" rx="12.5" ry="12.5" style="stroke:#181818;stroke-width:0.5;" width="1062.1153" x="7" y="381.6189"/><line style="stroke:#181818;stroke-width:0.5;" x1="7" x2="1069.1153" y1="428.1072" y2="428.1072"/><text fill="#000000" font-family="sans-serif" font-size="14" lengthAdjust="spacing" textLength="166.332" x="454.8917" y="410.1541">ASIGNACIONES_ABIERTO</text><g class="entity" data-qualified-name="ASIGNACIONES_COMP.SeleccionProfesor" data-source-line="27" id="ent0004"><rect fill="#F1F1F1" height="76.4883" rx="12.5" ry="12.5" style="stroke:#181818;stroke-width:0.5;" width="184.8125" x="283.22" y="495.1072"/><line style="stroke:#181818;stroke-width:0.5;" x1="283.22" x2="468.0325" y1="541.5955" y2="541.5955"/><text fill="#000000" font-family="sans-serif" font-size="14" lengthAdjust="spacing" textLength="144.8125" x="303.22" y="523.6423">Selecci&#243;n de Profesor</text></g><g class="entity" data-qualified-name="ASIGNACIONES_COMP.TablaAsignaciones" data-source-line="28" id="ent0005"><rect fill="#F1F1F1" height="76.4883" rx="12.5" ry="12.5" style="stroke:#181818;stroke-width:0.5;" width="192.0791" x="279.59" y="614.9772"/><line style="stroke:#181818;stroke-width:0.5;" x1="279.59" x2="471.6691" y1="661.4655" y2="661.4655"/><text fill="#000000" font-family="sans-serif" font-size="14" lengthAdjust="spacing" textLength="152.0791" x="299.59" y="643.5123">Tabla de Asignaciones</text></g><g class="start_entity" data-qualified-name="ASIGNACIONES_COMP..start.ASIGNACIONES_COMP" data-source-line="30" id="ent0009"><ellipse cx="375.63" cy="449.1072" fill="#222222" rx="10" ry="10" style="stroke:#222222;stroke-width:1;"/></g><g class="entity" data-qualified-name="ASIGNACIONES_COMP.GMN18" data-source-line="33" id="ent0019"><path d="M485.98,503.0472 L485.98,529.8372 L468.45,533.8372 L485.98,537.8372 L485.98,563.6683 A0,0 0 0 0 485.98,563.6683 L733.2661,563.6683 A0,0 0 0 0 733.2661,563.6683 L733.2661,513.0472 L723.2661,503.0472 L485.98,503.0472 A0,0 0 0 0 485.98,503.0472" fill="#FEFFDD" style="stroke:#181818;stroke-width:0.5;"/><path d="M723.2661,503.0472 L723.2661,513.0472 L733.2661,513.0472 L723.2661,503.0472" fill="#FEFFDD" style="stroke:#181818;stroke-width:0.5;"/><text fill="#000000" font-family="sans-serif" font-size="13" font-weight="700" lengthAdjust="spacing" textLength="111.3569" x="501.98" y="530.6155">Sistema muestra</text><text fill="#000000" font-family="sans-serif" font-size="13" lengthAdjust="spacing" textLength="90.8159" x="617.4502" y="530.6155">el desplegable</text><text fill="#000000" font-family="sans-serif" font-size="13" lengthAdjust="spacing" textLength="188.2778" x="501.98" y="545.9261">con los profesores del centro.</text></g><g class="entity" data-qualified-name="ASIGNACIONES_COMP.GMN21" data-source-line="40" id="ent0022"><path d="M525.48,607.5972 L525.48,698.8394 L791.771,698.8394 L791.771,617.5972 L781.771,607.5972 L525.48,607.5972" fill="#FEFFDD" style="stroke:#181818;stroke-width:0.5;"/><path d="M781.771,607.5972 L781.771,617.5972 L791.771,617.5972 L781.771,607.5972" fill="#FEFFDD" style="stroke:#181818;stroke-width:1;"/><text fill="#000000" font-family="sans-serif" font-size="13" font-weight="700" lengthAdjust="spacing" textLength="111.3569" x="541.48" y="635.1655">Sistema muestra</text><text fill="#000000" font-family="sans-serif" font-size="13" lengthAdjust="spacing" textLength="68.8276" x="656.9502" y="635.1655">el cat&#225;logo</text><text fill="#000000" font-family="sans-serif" font-size="13" lengthAdjust="spacing" textLength="225.291" x="541.48" y="650.4761">completo de asignaturas con casilla</text><text fill="#000000" font-family="sans-serif" font-size="13" lengthAdjust="spacing" textLength="215.7061" x="541.48" y="665.7866">de verificaci&#243;n; las que ya imparte</text><text fill="#000000" font-family="sans-serif" font-size="13" lengthAdjust="spacing" textLength="198.4277" x="541.48" y="681.0972">el profesor aparecen marcadas.</text></g><g class="entity" data-qualified-name="ASIGNACIONES_COMP.GMN24" data-source-line="49" id="ent0025"><path d="M810.15,607.5972 L810.15,698.8394 L1045.1153,698.8394 L1045.1153,617.5972 L1035.1153,607.5972 L810.15,607.5972" fill="#FEFFDD" style="stroke:#181818;stroke-width:0.5;"/><path d="M1035.1153,607.5972 L1035.1153,617.5972 L1045.1153,617.5972 L1035.1153,607.5972" fill="#FEFFDD" style="stroke:#181818;stroke-width:1;"/><text fill="#000000" font-family="sans-serif" font-size="13" font-weight="700" lengthAdjust="spacing" textLength="118.6313" x="826.15" y="635.1655">Secretaria solicita</text><text fill="#000000" font-family="sans-serif" font-size="13" lengthAdjust="spacing" textLength="71.2207" x="948.8946" y="635.1655">marcar una</text><text fill="#000000" font-family="sans-serif" font-size="13" lengthAdjust="spacing" textLength="185.2119" x="826.15" y="650.4761">asignatura para ese profesor.</text><text fill="#000000" font-family="sans-serif" font-size="13" font-weight="700" lengthAdjust="spacing" textLength="108.2847" x="826.15" y="665.7866">Sistema permite</text><text fill="#000000" font-family="sans-serif" font-size="13" lengthAdjust="spacing" textLength="78.3237" x="938.5479" y="665.7866">a&#241;adir la fila</text><text fill="#000000" font-family="sans-serif" font-size="13" lengthAdjust="spacing" textLength="160.3672" x="826.15" y="681.0972">de auditor&#237;a a la relaci&#243;n.</text></g><g class="entity" data-qualified-name="ASIGNACIONES_COMP.GMN27" data-source-line="57" id="ent0028"><path d="M18,607.5972 L18,698.8394 L261.2554,698.8394 L261.2554,617.5972 L251.2554,607.5972 L18,607.5972" fill="#FEFFDD" style="stroke:#181818;stroke-width:0.5;"/><path d="M251.2554,607.5972 L251.2554,617.5972 L261.2554,617.5972 L251.2554,607.5972" fill="#FEFFDD" style="stroke:#181818;stroke-width:1;"/><text fill="#000000" font-family="sans-serif" font-size="13" font-weight="700" lengthAdjust="spacing" textLength="118.6313" x="34" y="635.1655">Secretaria solicita</text><text fill="#000000" font-family="sans-serif" font-size="13" lengthAdjust="spacing" textLength="65.8442" x="156.7446" y="635.1655">desmarcar</text><text fill="#000000" font-family="sans-serif" font-size="13" lengthAdjust="spacing" textLength="178.7373" x="34" y="650.4761">una asignatura del profesor.</text><text fill="#000000" font-family="sans-serif" font-size="13" font-weight="700" lengthAdjust="spacing" textLength="108.2847" x="34" y="665.7866">Sistema permite</text><text fill="#000000" font-family="sans-serif" font-size="13" lengthAdjust="spacing" textLength="89.8574" x="146.3979" y="665.7866">eliminar la fila</text><text fill="#000000" font-family="sans-serif" font-size="13" lengthAdjust="spacing" textLength="88.6704" x="34" y="681.0972">de la relaci&#243;n.</text></g><!--link *start*ASIGNACIONES_COMP to SeleccionProfesor--><g class="link" data-entity-1="ent0009" data-entity-2="ent0004" data-link-type="dependency" data-source-line="30" id="lnk10"><path d="M375.63,459.4372 C375.63,468.3172 375.63,476.6872 375.63,489.6372" fill="none" id="*start*ASIGNACIONES_COMP-to-SeleccionProfesor" style="stroke:#008000;stroke-width:1;"/><polygon fill="#008000" points="375.63,494.6372,379.63,485.6372,375.63,489.6372,371.63,485.6372,375.63,494.6372" style="stroke:#008000;stroke-width:1;stroke-linejoin:miter;stroke-miterlimit:10;"/></g><!--link SeleccionProfesor to TablaAsignaciones--><g class="link" data-entity-1="ent0004" data-entity-2="ent0005" data-link-type="dependency" data-source-line="37" id="lnk11"><path d="M357.15,571.9372 C357.15,585.6272 357.15,596.0272 357.15,609.7072" fill="none" id="SeleccionProfesor-to-TablaAsignaciones" style="stroke:#008000;stroke-width:1;"/><polygon fill="#008000" points="357.15,614.7072,361.15,605.7072,357.15,609.7072,353.15,605.7072,357.15,614.7072" style="stroke:#008000;stroke-width:1;stroke-linejoin:miter;stroke-miterlimit:10;"/><text fill="#000000" font-family="sans-serif" font-size="13" lengthAdjust="spacing" textLength="131.3965" x="215.15" y="579.8855">seleccionarProfesor()</text></g><!--link TablaAsignaciones to TablaAsignaciones--><g class="link" data-entity-1="ent0005" data-entity-2="ent0005" data-link-type="dependency" data-source-line="47" id="lnk12"><path d="M431.07,614.5772 C431.07,613.4672 431.07,612.8372 431.07,612.8372 C431.07,612.8372 476.44,612.8372 476.44,612.8372 C476.44,612.8372 476.44,693.8372 476.44,693.8372 C476.44,693.8372 407.64,693.8372 407.64,693.8372 C407.64,693.8372 407.64,698.0372 407.64,696.6572" fill="none" id="TablaAsignaciones-to-TablaAsignaciones" style="stroke:#008000;stroke-width:1;"/><polygon fill="#008000" points="407.64,691.6572,403.64,700.6572,407.64,696.6572,411.64,700.6572,407.64,691.6572" style="stroke:#008000;stroke-width:1;stroke-linejoin:miter;stroke-miterlimit:10;"/><text fill="#000000" font-family="sans-serif" font-size="13" lengthAdjust="spacing" textLength="122.8271" x="415.44" y="693.8455">asignarAsignatura()</text></g><!--link TablaAsignaciones to TablaAsignaciones--><g class="link" data-entity-1="ent0005" data-entity-2="ent0005" data-link-type="dependency" data-source-line="55" id="lnk13"><path d="M394.11,614.4772 C394.11,611.6272 394.11,609.8372 394.11,609.8372 C394.11,609.8372 481.21,609.8372 481.21,609.8372 C481.21,609.8372 481.21,696.8372 481.21,696.8372 C481.21,696.8372 343.61,696.8372 343.61,696.8372 C343.61,696.8372 343.61,699.8972 343.61,696.8372" fill="none" id="TablaAsignaciones-to-TablaAsignaciones-1" style="stroke:#FF0000;stroke-width:1;"/><polygon fill="#FF0000" points="343.61,691.8372,339.61,700.8372,343.61,696.8372,347.61,700.8372,343.61,691.8372" style="stroke:#FF0000;stroke-width:1;stroke-linejoin:miter;stroke-miterlimit:10;"/><text fill="#000000" font-family="sans-serif" font-size="13" lengthAdjust="spacing" textLength="144.8789" x="497.21" y="707.3355">desasignarAsignatura()</text></g><!--link TablaAsignaciones to SeleccionProfesor--><g class="link" data-entity-1="ent0005" data-entity-2="ent0004" data-link-type="dependency" data-source-line="64" id="lnk14"><path d="M320.18,614.6272 C320.18,600.9472 320.18,590.5472 320.18,576.8672" fill="none" id="TablaAsignaciones-to-SeleccionProfesor" style="stroke:#008000;stroke-width:1;"/><polygon fill="#008000" points="320.18,571.8672,316.18,580.8672,320.18,576.8672,324.18,580.8672,320.18,571.8672" style="stroke:#008000;stroke-width:1;stroke-linejoin:miter;stroke-miterlimit:10;"/><text fill="#000000" font-family="sans-serif" font-size="13" lengthAdjust="spacing" textLength="111.3125" x="331.18" y="616.8155">cambiarProfesor()</text></g><!--link TablaAsignaciones to GMN21--><g class="link" data-entity-1="ent0005" data-entity-2="ent0022" data-link-type="association" data-source-line="40" id="lnk23"><path d="M471.83,652.8372 C488.98,652.8372 507.12,652.8372 525.08,652.8372" fill="none" id="TablaAsignaciones-GMN21" style="stroke:#181818;stroke-width:1;stroke-dasharray:7,7;"/></g><!--link GMN21 to GMN24--><g class="link" data-entity-1="ent0022" data-entity-2="ent0025" data-link-type="association" data-source-line="49" id="lnk26"><path d="M791.95,652.8372 C797.89,652.8372 803.84,652.8372 809.74,652.8372" fill="none" id="GMN21-GMN24" style="stroke:#181818;stroke-width:1;stroke-dasharray:7,7;"/></g><!--link GMN27 to GMN24--><g class="link" data-entity-1="ent0028" data-entity-2="ent0025" data-link-type="association" data-source-line="57" id="lnk29"><path d="M139.63,607.1572 C139.63,597.3272 139.63,589.8372 139.63,589.8372 C139.63,589.8372 927.63,589.8372 927.63,589.8372 C927.63,589.8372 927.63,597.3272 927.63,607.1572" fill="none" id="GMN27-GMN24" style="stroke:#181818;stroke-width:1;stroke-dasharray:7,7;"/></g></g><g class="entity" data-qualified-name="SISTEMA_DISPONIBLE_FINAL" data-source-line="12" id="ent0003"><rect fill="#F1F1F1" height="76.4883" rx="12.5" ry="12.5" style="stroke:#181818;stroke-width:0.5;" width="182.4268" x="446.84" y="840.0789"/><line style="stroke:#181818;stroke-width:0.5;" x1="446.84" x2="629.2668" y1="886.5672" y2="886.5672"/><text fill="#000000" font-family="sans-serif" font-size="14" lengthAdjust="spacing" textLength="142.4268" x="466.84" y="868.6141">SISTEMA_DISPONIBLE</text></g><g class="start_entity" data-qualified-name=".start." data-source-line="14" id="ent0006"><ellipse cx="538.06" cy="95.1289" fill="#222222" rx="10" ry="10" style="stroke:#222222;stroke-width:1;"/></g><g class="end_entity" data-qualified-name=".end." data-source-line="70" id="ent0016"><ellipse cx="538.06" cy="1027.5689" fill="none" rx="11" ry="11" style="stroke:#222222;stroke-width:1;"/><ellipse cx="538.06" cy="1027.5689" fill="#222222" rx="6" ry="6" style="stroke:#222222;stroke-width:1;"/></g><!--link *start* to SISTEMA_DISPONIBLE_INICIAL--><g class="link" data-entity-1="ent0006" data-entity-2="ent0001" data-link-type="dependency" data-source-line="14" id="lnk7"><path d="M538.06,105.3189 C538.06,125.4689 538.06,166.3389 538.06,199.6889" fill="none" id="*start*-to-SISTEMA_DISPONIBLE_INICIAL" style="stroke:#008000;stroke-width:1;"/><polygon fill="#008000" points="538.06,204.6889,542.06,195.6889,538.06,199.6889,534.06,195.6889,538.06,204.6889" style="stroke:#008000;stroke-width:1;stroke-linejoin:miter;stroke-miterlimit:10;"/></g><!--link SISTEMA_DISPONIBLE_INICIAL to ASIGNACIONES_COMP--><g class="link" data-entity-1="ent0001" data-entity-2="ent0002" data-link-type="dependency" data-source-line="17" id="lnk8"><path d="M538.06,281.9889 C538.06,307.7689 538.06,338.7289 538.06,376.2689" fill="none" id="SISTEMA_DISPONIBLE_INICIAL-to-ASIGNACIONES_COMP" style="stroke:#008000;stroke-width:1;"/><polygon fill="#008000" points="538.06,381.2689,542.06,372.2689,538.06,376.2689,534.06,372.2689,538.06,381.2689" style="stroke:#008000;stroke-width:1;stroke-linejoin:miter;stroke-miterlimit:10;"/><path d="M113.06,235.6289 L113.06,326.6289 L390.06,326.6289 L390.06,245.6289 L380.06,235.6289 L113.06,235.6289" fill="#FEFFDD" style="stroke:#181818;stroke-width:0.5;"/><path d="M380.06,235.6289 L380.06,245.6289 L390.06,245.6289 L380.06,235.6289" fill="#FEFFDD" style="stroke:#181818;stroke-width:0.5;"/><text fill="#000000" font-family="sans-serif" font-size="13" font-weight="700" lengthAdjust="spacing" textLength="118.6313" x="129.06" y="263.1973">Secretaria solicita</text><text fill="#000000" font-family="sans-serif" font-size="13" lengthAdjust="spacing" textLength="59.1475" x="251.8046" y="263.1973">gestionar</text><text fill="#000000" font-family="sans-serif" font-size="13" lengthAdjust="spacing" textLength="236.0186" x="129.06" y="278.5078">qu&#233; profesor imparte qu&#233; asignatura.</text><text fill="#000000" font-family="sans-serif" font-size="13" font-weight="700" lengthAdjust="spacing" textLength="108.2847" x="129.06" y="293.8184">Sistema permite</text><text fill="#000000" font-family="sans-serif" font-size="13" lengthAdjust="spacing" textLength="83.8081" x="241.4579" y="293.8184">el acceso a la</text><text fill="#000000" font-family="sans-serif" font-size="13" lengthAdjust="spacing" textLength="159.1865" x="129.06" y="309.1289">pantalla de asignaciones.</text><text fill="#000000" font-family="sans-serif" font-size="13" lengthAdjust="spacing" textLength="121.2593" x="406.0786" y="286.1631">abrirAsignaciones()</text></g><!--link ASIGNACIONES_COMP to SISTEMA_DISPONIBLE_FINAL--><g class="link" data-entity-1="ent0002" data-entity-2="ent0003" data-link-type="dependency" data-source-line="68" id="lnk15"><path d="M538.06,740.4589 C538.06,778.0589 538.06,809.0689 538.06,834.8589" fill="none" id="ASIGNACIONES_COMP-to-SISTEMA_DISPONIBLE_FINAL" style="stroke:#008000;stroke-width:1;"/><polygon fill="#008000" points="538.06,839.8589,542.06,830.8589,538.06,834.8589,534.06,830.8589,538.06,839.8589" style="stroke:#008000;stroke-width:1;stroke-linejoin:miter;stroke-miterlimit:10;"/><text fill="#000000" font-family="sans-serif" font-size="13" lengthAdjust="spacing" textLength="202.7632" x="325.06" y="776.7273">completarGestionAsignaciones()</text></g><!--link SISTEMA_DISPONIBLE_FINAL to *end*--><g class="link" data-entity-1="ent0003" data-entity-2="ent0016" data-link-type="dependency" data-source-line="70" id="lnk17"><path d="M538.06,916.7589 C538.06,949.7489 538.06,990.1989 538.06,1011.1489" fill="none" id="SISTEMA_DISPONIBLE_FINAL-to-*end*" style="stroke:#0000FF;stroke-width:1;"/><polygon fill="#0000FF" points="538.06,1016.1489,542.06,1007.1489,538.06,1011.1489,534.06,1007.1489,538.06,1016.1489" style="stroke:#0000FF;stroke-width:1;stroke-linejoin:miter;stroke-miterlimit:10;"/></g><?plantuml-src ZLNDJjj04BxxAKRfWL0fb5vJX1I2GPOWYUhqX12QU2TXnNetNQ-HKDMdw1Fqs4CF5O-G5-ki7Ji69uHShEpEx_TzC-kaKmI3J2uqslNNvHOpG9XOCwVCs20uW5wl1yFnw2Aw_FPrC8nMlqPm7a8OJwEhiRyCiWUfbsWn1Mq4PRI4pyV7ZLEB-g5zggGczxGaCDRTcyR518MGUi7cFlivpQMMYLmzQn04OUPGc2pWZoE8etWQNW_kpgDuCXv5PrVXNJIAXj7W2e3xwBJlEslFGHnTZhYRyIYCxuRZwmbiVjxpnVtWB0g_JiUTtLalef7FkJjhSFFn5det7nQMID_sJjyetNSTQcTH8A22TFKiScM2DtfjncqtrWUSMMbBWXDfD6NTmq0RxaJHt87Hdek7m9T_CZkDAR7aq4g4p2X6tk79fzafB2Xpx8osCFoUh_x0SgqIa2bJn_6AKwoLT5J7b9cZ5659DfMEYdYa09E4tLbk2WlB9Mg7Ig4d6Xlb7WMa1VYAFJP3aovPCvXAqiw0r8wiDZjv_L64NZD7YX8Viz9tnLXvljPOTTbfU4vnfh09uTgpEFTEpJkcstksA7-TlJGhcB1oSSzKpBSOLR9iu9ZcJ8R52aSUkgMY1PT2jNNYQJLPpH5NBDWqOSoiAOdPWEh_jR5frjxklmzPvO6syc5XRUcfvVoEdX9qgz_AB4oZevIxPCPhTPJRodUQy85QgyZ_sEIHh9pB10jQlx34CfOdmHDMQgsDELkjPEGhOf0WHPlm16RRe3g0CIkv0g8K88VlIa4iJSSGKtPOMBPXsmTgsPdThEFkuIj4Nu2tOrYBwYtaUWF91ZBmUnPuKTTj7sqZf3cikFg7Gbf64URo9SwO2-cCNVt5Of31aYentuRSLZmiYLreiBBV1CGliFVWmN5AI6fZXgO9YMY8O2yQf6Gg_QEv1Ovz2F3-mdGcsLbiy8VkOqxA5Vk-CSplqL1xRFiy3KM6nb3-z8ipHYL5sMhrgBJNvPutgdpe-jKmehqiduLNhqkmqvNZprHEFZpln_y0?></g></svg>