<svg xmlns="http://www.w3.org/2000/svg" xmlns:xlink="http://www.w3.org/1999/xlink" contentStyleType="text/css" data-diagram-type="STATE" height="1335px" preserveAspectRatio="none" style="width:1119px;height:1335px;background:#FFFFFF;" version="1.1" viewBox="0 0 1119 1335" width="1119px" zoomAndPan="magnify"><?plantuml 1.2026.5?><defs/><g><g class="title" data-source-line="1"><text fill="#000000" font-family="sans-serif" font-size="14" font-weight="700" lengthAdjust="spacing" textLength="215.7832" x="448.5129" y="33.5352">Gestionar Cat&#225;logo de Grados</text></g><rect fill="#FFFFCC" height="16.6406" rx="2.5" ry="2.5" style="stroke:#FFDD88;stroke-width:3;" width="1103.8091" x="3" y="60.4883"/><text fill="#000000" font-family="monospace" font-size="10" lengthAdjust="spacing" textLength="295.0049" x="10" y="71.1289">Please&#160;use&#160;CSS&#160;style&#160;instead&#160;of&#160;skinparam&#160;padding</text><g class="entity" data-qualified-name="SISTEMA_DISPONIBLE_INICIAL" data-source-line="10" id="ent0001"><rect fill="#F1F1F1" height="76.4883" rx="12.5" ry="12.5" style="stroke:#181818;stroke-width:0.5;" width="182.4268" x="506.4" y="205.1289"/><line style="stroke:#181818;stroke-width:0.5;" x1="506.4" x2="688.8268" y1="251.6172" y2="251.6172"/><text fill="#000000" font-family="sans-serif" font-size="14" lengthAdjust="spacing" textLength="142.4268" x="526.4" y="233.6641">SISTEMA_DISPONIBLE</text></g><g class="entity" data-qualified-name="CATALOGO_GRADOS_COMP" data-source-line="11" id="ent0002"><path d="M209.21,381.6089 L986.0097,381.6089 A12.5,12.5 0 0 1 998.5097,394.1089 L998.5097,428.0972 L196.71,428.0972 L196.71,394.1089 A12.5,12.5 0 0 1 209.21,381.6089" fill="#F1F1F1"/><rect fill="none" height="250.4488" rx="12.5" ry="12.5" style="stroke:#181818;stroke-width:0.5;" width="801.7997" x="196.71" y="381.6089"/><line style="stroke:#181818;stroke-width:0.5;" x1="196.71" x2="998.5097" y1="428.0972" y2="428.0972"/><text fill="#000000" font-family="sans-serif" font-size="14" lengthAdjust="spacing" textLength="206.6367" x="494.2915" y="410.1441">CATALOGO_GRADOS_ABIERTO</text><g class="entity" data-qualified-name="CATALOGO_GRADOS_COMP.ListadoGrados" data-source-line="28" id="ent0005"><rect fill="#F1F1F1" height="76.4883" rx="12.5" ry="12.5" style="stroke:#181818;stroke-width:0.5;" width="162.623" x="208.71" y="510.1272"/><line style="stroke:#181818;stroke-width:0.5;" x1="208.71" x2="371.333" y1="556.6155" y2="556.6155"/><text fill="#000000" font-family="sans-serif" font-size="14" lengthAdjust="spacing" textLength="122.623" x="228.71" y="538.6623">Listado de Grados</text></g><g class="start_entity" data-qualified-name="CATALOGO_GRADOS_COMP..start.CATALOGO_GRADOS_COMP" data-source-line="30" id="ent0010"><ellipse cx="290.02" cy="449.0972" fill="#222222" rx="10" ry="10" style="stroke:#222222;stroke-width:1;"/></g><g class="entity" data-qualified-name="CATALOGO_GRADOS_COMP.GMN23" data-source-line="33" id="ent0024"><path d="M406.98,518.0672 L406.98,578.6883 L713.0581,578.6883 L713.0581,528.0672 L703.0581,518.0672 L406.98,518.0672" fill="#FEFFDD" style="stroke:#181818;stroke-width:0.5;"/><path d="M703.0581,518.0672 L703.0581,528.0672 L713.0581,528.0672 L703.0581,518.0672" fill="#FEFFDD" style="stroke:#181818;stroke-width:1;"/><text fill="#000000" font-family="sans-serif" font-size="13" font-weight="700" lengthAdjust="spacing" textLength="111.3569" x="422.98" y="545.6355">Sistema muestra</text><text fill="#000000" font-family="sans-serif" font-size="13" lengthAdjust="spacing" textLength="65.8823" x="538.4502" y="545.6355">los grados</text><text fill="#000000" font-family="sans-serif" font-size="13" lengthAdjust="spacing" textLength="265.0781" x="422.98" y="560.9461">existentes con c&#243;digo, nombre y facultad.</text></g><g class="entity" data-qualified-name="CATALOGO_GRADOS_COMP.GMN26" data-source-line="40" id="ent0027"><path d="M731.54,495.0972 L731.54,601.6499 L974.5097,601.6499 L974.5097,505.0972 L964.5097,495.0972 L731.54,495.0972" fill="#FEFFDD" style="stroke:#181818;stroke-width:0.5;"/><path d="M964.5097,495.0972 L964.5097,505.0972 L974.5097,505.0972 L964.5097,495.0972" fill="#FEFFDD" style="stroke:#181818;stroke-width:1;"/><text fill="#000000" font-family="sans-serif" font-size="13" font-weight="700" lengthAdjust="spacing" textLength="118.6313" x="747.54" y="522.6655">Secretaria solicita</text><text fill="#000000" font-family="sans-serif" font-size="13" lengthAdjust="spacing" textLength="51.2192" x="870.2846" y="522.6655">eliminar</text><text fill="#000000" font-family="sans-serif" font-size="13" lengthAdjust="spacing" textLength="123.1255" x="747.54" y="537.9761">un grado existente.</text><text fill="#000000" font-family="sans-serif" font-size="13" font-weight="700" lengthAdjust="spacing" textLength="96.4907" x="747.54" y="553.2866">Sistema valida</text><text fill="#000000" font-family="sans-serif" font-size="13" lengthAdjust="spacing" textLength="78.9458" x="848.144" y="553.2866">que no tiene</text><text fill="#000000" font-family="sans-serif" font-size="13" lengthAdjust="spacing" textLength="201.9697" x="747.54" y="568.5972">referencias activas (asignaturas,</text><text fill="#000000" font-family="sans-serif" font-size="13" lengthAdjust="spacing" textLength="145.3105" x="747.54" y="583.9077">matr&#237;culas, directores).</text></g><!--link *start*CATALOGO_GRADOS_COMP to ListadoGrados--><g class="link" data-entity-1="ent0010" data-entity-2="ent0005" data-link-type="dependency" data-source-line="30" id="lnk11"><path d="M290.02,459.3472 C290.02,471.2372 290.02,486.5472 290.02,504.7572" fill="none" id="*start*CATALOGO_GRADOS_COMP-to-ListadoGrados" style="stroke:#008000;stroke-width:1;"/><polygon fill="#008000" points="290.02,509.7572,294.02,500.7572,290.02,504.7572,286.02,500.7572,290.02,509.7572" style="stroke:#008000;stroke-width:1;stroke-linejoin:miter;stroke-miterlimit:10;"/></g><!--link ListadoGrados to ListadoGrados--><g class="link" data-entity-1="ent0005" data-entity-2="ent0005" data-link-type="dependency" data-source-line="38" id="lnk12"><path d="M335.68,509.7972 C335.68,505.5072 335.68,502.6472 335.68,502.6472 C335.68,502.6472 389.16,502.6472 389.16,502.6472 C389.16,502.6472 389.16,593.6472 389.16,593.6472 C389.16,593.6472 290.02,593.6472 290.02,593.6472 C290.02,593.6472 290.02,595.9972 290.02,591.9672" fill="none" id="ListadoGrados-to-ListadoGrados" style="stroke:#008000;stroke-width:1;"/><polygon fill="#008000" points="290.02,586.9672,286.02,595.9672,290.02,591.9672,294.02,595.9672,290.02,586.9672" style="stroke:#008000;stroke-width:1;stroke-linejoin:miter;stroke-miterlimit:10;"/><text fill="#000000" font-family="sans-serif" font-size="13" lengthAdjust="spacing" textLength="97.7349" x="405.16" y="599.3155">eliminarGrado()</text></g><!--link ListadoGrados to GMN23--><g class="link" data-entity-1="ent0005" data-entity-2="ent0024" data-link-type="association" data-source-line="33" id="lnk25"><path d="M371.76,548.6472 C382.94,548.6472 394.69,548.6472 406.64,548.6472" fill="none" id="ListadoGrados-GMN23" style="stroke:#181818;stroke-width:1;stroke-dasharray:7,7;"/></g><!--link GMN23 to GMN26--><g class="link" data-entity-1="ent0024" data-entity-2="ent0027" data-link-type="association" data-source-line="40" id="lnk28"><path d="M713.39,548.6472 C719.34,548.6472 725.28,548.6472 731.16,548.6472" fill="none" id="GMN23-GMN26" style="stroke:#181818;stroke-width:1;stroke-dasharray:7,7;"/></g></g><g class="entity" data-qualified-name="GRADO_ABIERTO_COMP" data-source-line="12" id="ent0003"><path d="M390.89,1030.5489 L804.3437,1030.5489 A12.5,12.5 0 0 1 816.8437,1043.0489 L816.8437,1077.0372 L378.39,1077.0372 L378.39,1043.0489 A12.5,12.5 0 0 1 390.89,1030.5489" fill="#F1F1F1"/><rect fill="none" height="291.0383" rx="12.5" ry="12.5" style="stroke:#181818;stroke-width:0.5;" width="438.4537" x="378.39" y="1030.5489"/><line style="stroke:#181818;stroke-width:0.5;" x1="378.39" x2="816.8437" y1="1077.0372" y2="1077.0372"/><text fill="#000000" font-family="sans-serif" font-size="14" lengthAdjust="spacing" textLength="114.9053" x="540.1642" y="1059.0841">GRADO_ABIERTO</text><g class="entity" data-qualified-name="GRADO_ABIERTO_COMP.FormularioGrado" data-source-line="57" id="ent0006"><rect fill="#F1F1F1" height="76.4883" rx="12.5" ry="12.5" style="stroke:#181818;stroke-width:0.5;" width="155.4111" x="390.39" y="1159.0672"/><line style="stroke:#181818;stroke-width:0.5;" x1="390.39" x2="545.8011" y1="1205.5555" y2="1205.5555"/><text fill="#000000" font-family="sans-serif" font-size="14" lengthAdjust="spacing" textLength="115.4111" x="410.39" y="1187.6023">Edici&#243;n de Grado</text></g><g class="start_entity" data-qualified-name="GRADO_ABIERTO_COMP..start.GRADO_ABIERTO_COMP" data-source-line="59" id="ent0014"><ellipse cx="468.1" cy="1098.0372" fill="#222222" rx="10" ry="10" style="stroke:#222222;stroke-width:1;"/></g><g class="end_entity" data-qualified-name="GRADO_ABIERTO_COMP..end.GRADO_ABIERTO_COMP" data-source-line="69" id="ent0016"><ellipse cx="468.1" cy="1297.5872" fill="none" rx="11" ry="11" style="stroke:#222222;stroke-width:1;"/><ellipse cx="468.1" cy="1297.5872" fill="#222222" rx="6" ry="6" style="stroke:#222222;stroke-width:1;"/></g><g class="entity" data-qualified-name="GRADO_ABIERTO_COMP.GMN29" data-source-line="62" id="ent0030"><path d="M563.35,1144.0372 L563.35,1193.5872 L546.29,1197.5872 L563.35,1201.5872 L563.35,1250.5899 A0,0 0 0 0 563.35,1250.5899 L792.8437,1250.5899 A0,0 0 0 0 792.8437,1250.5899 L792.8437,1154.0372 L782.8437,1144.0372 L563.35,1144.0372 A0,0 0 0 0 563.35,1144.0372" fill="#FEFFDD" style="stroke:#181818;stroke-width:0.5;"/><path d="M782.8437,1144.0372 L782.8437,1154.0372 L792.8437,1154.0372 L782.8437,1144.0372" fill="#FEFFDD" style="stroke:#181818;stroke-width:0.5;"/><text fill="#000000" font-family="sans-serif" font-size="13" font-weight="700" lengthAdjust="spacing" textLength="118.6313" x="579.35" y="1171.6055">Secretaria solicita</text><text fill="#000000" font-family="sans-serif" font-size="13" lengthAdjust="spacing" textLength="61.9785" x="702.0946" y="1171.6055">introducir</text><text fill="#000000" font-family="sans-serif" font-size="13" lengthAdjust="spacing" textLength="75.9688" x="579.35" y="1186.9161">o modificar:</text><text fill="#000000" font-family="sans-serif" font-size="13" lengthAdjust="spacing" textLength="107.6309" x="579.35" y="1202.2266">&#8226; C&#243;digo (&#250;nico).</text><text fill="#000000" font-family="sans-serif" font-size="13" lengthAdjust="spacing" textLength="130.165" x="579.35" y="1217.5372">&#8226; Nombre del grado.</text><text fill="#000000" font-family="sans-serif" font-size="13" lengthAdjust="spacing" textLength="188.4937" x="579.35" y="1232.8477">&#8226; Facultad a la que pertenece.</text></g><!--link *start*GRADO_ABIERTO_COMP to FormularioGrado--><g class="link" data-entity-1="ent0014" data-entity-2="ent0006" data-link-type="dependency" data-source-line="59" id="lnk15"><path d="M468.1,1108.2872 C468.1,1120.1772 468.1,1135.4772 468.1,1153.6972" fill="none" id="*start*GRADO_ABIERTO_COMP-to-FormularioGrado" style="stroke:#008000;stroke-width:1;"/><polygon fill="#008000" points="468.1,1158.6972,472.1,1149.6972,468.1,1153.6972,464.1,1149.6972,468.1,1158.6972" style="stroke:#008000;stroke-width:1;stroke-linejoin:miter;stroke-miterlimit:10;"/></g><!--link FormularioGrado to *end*GRADO_ABIERTO_COMP--><g class="link" data-entity-1="ent0006" data-entity-2="ent0016" data-link-type="dependency" data-source-line="69" id="lnk17"><path d="M468.1,1235.7972 C468.1,1253.9072 468.1,1269.1772 468.1,1281.3972" fill="none" id="FormularioGrado-to-*end*GRADO_ABIERTO_COMP" style="stroke:#008000;stroke-width:1;"/><polygon fill="#008000" points="468.1,1286.3972,472.1,1277.3972,468.1,1281.3972,464.1,1277.3972,468.1,1286.3972" style="stroke:#008000;stroke-width:1;stroke-linejoin:miter;stroke-miterlimit:10;"/></g></g><g class="entity" data-qualified-name="SISTEMA_DISPONIBLE_FINAL" data-source-line="13" id="ent0004"><rect fill="#F1F1F1" height="76.4883" rx="12.5" ry="12.5" style="stroke:#181818;stroke-width:0.5;" width="182.4268" x="848.4" y="732.0589"/><line style="stroke:#181818;stroke-width:0.5;" x1="848.4" x2="1030.8268" y1="778.5472" y2="778.5472"/><text fill="#000000" font-family="sans-serif" font-size="14" lengthAdjust="spacing" textLength="142.4268" x="868.4" y="760.5941">SISTEMA_DISPONIBLE</text></g><g class="start_entity" data-qualified-name=".start." data-source-line="15" id="ent0007"><ellipse cx="597.61" cy="95.1289" fill="#222222" rx="10" ry="10" style="stroke:#222222;stroke-width:1;"/></g><g class="end_entity" data-qualified-name=".end." data-source-line="89" id="ent0021"><ellipse cx="939.61" cy="919.5489" fill="none" rx="11" ry="11" style="stroke:#222222;stroke-width:1;"/><ellipse cx="939.61" cy="919.5489" fill="#222222" rx="6" ry="6" style="stroke:#222222;stroke-width:1;"/></g><!--link *start* to SISTEMA_DISPONIBLE_INICIAL--><g class="link" data-entity-1="ent0007" data-entity-2="ent0001" data-link-type="dependency" data-source-line="15" id="lnk8"><path d="M597.61,105.3189 C597.61,125.4589 597.61,166.3289 597.61,199.6789" fill="none" id="*start*-to-SISTEMA_DISPONIBLE_INICIAL" style="stroke:#008000;stroke-width:1;"/><polygon fill="#008000" points="597.61,204.6789,601.61,195.6789,597.61,199.6789,593.61,195.6789,597.61,204.6789" style="stroke:#008000;stroke-width:1;stroke-linejoin:miter;stroke-miterlimit:10;"/></g><!--link SISTEMA_DISPONIBLE_INICIAL to CATALOGO_GRADOS_COMP--><g class="link" data-entity-1="ent0001" data-entity-2="ent0002" data-link-type="dependency" data-source-line="18" id="lnk9"><path d="M597.61,281.9589 C597.61,308.4089 597.61,340.0989 597.61,376.1789" fill="none" id="SISTEMA_DISPONIBLE_INICIAL-to-CATALOGO_GRADOS_COMP" style="stroke:#008000;stroke-width:1;"/><polygon fill="#008000" points="597.61,381.1789,601.61,372.1789,597.61,376.1789,593.61,372.1789,597.61,381.1789" style="stroke:#008000;stroke-width:1;stroke-linejoin:miter;stroke-miterlimit:10;"/><path d="M183.61,235.5689 L183.61,326.5689 L431.61,326.5689 L431.61,245.5689 L421.61,235.5689 L183.61,235.5689" fill="#FEFFDD" style="stroke:#181818;stroke-width:0.5;"/><path d="M421.61,235.5689 L421.61,245.5689 L431.61,245.5689 L421.61,235.5689" fill="#FEFFDD" style="stroke:#181818;stroke-width:0.5;"/><text fill="#000000" font-family="sans-serif" font-size="13" font-weight="700" lengthAdjust="spacing" textLength="118.6313" x="199.61" y="263.1373">Secretaria solicita</text><text fill="#000000" font-family="sans-serif" font-size="13" lengthAdjust="spacing" textLength="59.1475" x="322.3546" y="263.1373">gestionar</text><text fill="#000000" font-family="sans-serif" font-size="13" lengthAdjust="spacing" textLength="207.5366" x="199.61" y="278.4478">el cat&#225;logo de grados del centro.</text><text fill="#000000" font-family="sans-serif" font-size="13" font-weight="700" lengthAdjust="spacing" textLength="108.2847" x="199.61" y="293.7584">Sistema permite</text><text fill="#000000" font-family="sans-serif" font-size="13" lengthAdjust="spacing" textLength="57.4653" x="312.0079" y="293.7584">el acceso</text><text fill="#000000" font-family="sans-serif" font-size="13" lengthAdjust="spacing" textLength="61.5151" x="199.61" y="309.0689">al listado.</text><text fill="#000000" font-family="sans-serif" font-size="13" lengthAdjust="spacing" textLength="138.9502" x="448.1466" y="286.1031">abrirCatalogoGrados()</text></g><!--link CATALOGO_GRADOS_COMP to GRADO_ABIERTO_COMP--><g class="link" data-entity-1="ent0002" data-entity-2="ent0003" data-link-type="dependency" data-source-line="49" id="lnk13"><path d="M488,632.3189 C488,745.2989 488,906.3589 488,1025.2089" fill="none" id="CATALOGO_GRADOS_COMP-to-GRADO_ABIERTO_COMP" style="stroke:#008000;stroke-width:1;"/><polygon fill="#008000" points="488,1030.2089,492,1021.2089,488,1025.2089,484,1021.2089,488,1030.2089" style="stroke:#008000;stroke-width:1;stroke-linejoin:miter;stroke-miterlimit:10;"/><path d="M6,751.2689 L6,826.2689 L285,826.2689 L285,761.2689 L275,751.2689 L6,751.2689" fill="#FEFFDD" style="stroke:#181818;stroke-width:0.5;"/><path d="M275,751.2689 L275,761.2689 L285,761.2689 L275,751.2689" fill="#FEFFDD" style="stroke:#181818;stroke-width:0.5;"/><text fill="#000000" font-family="sans-serif" font-size="13" font-weight="700" lengthAdjust="spacing" textLength="118.6313" x="22" y="778.8373">Secretaria solicita</text><text fill="#000000" font-family="sans-serif" font-size="13" lengthAdjust="spacing" textLength="67.3105" x="144.7446" y="778.8373">dar de alta</text><text fill="#000000" font-family="sans-serif" font-size="13" lengthAdjust="spacing" textLength="113.8896" x="22" y="794.1478">o editar un grado.</text><text fill="#000000" font-family="sans-serif" font-size="13" font-weight="700" lengthAdjust="spacing" textLength="108.2847" x="22" y="809.4584">Sistema permite</text><text fill="#000000" font-family="sans-serif" font-size="13" lengthAdjust="spacing" textLength="126.2358" x="134.3979" y="809.4584">el acceso a su ficha.</text><text fill="#000000" font-family="sans-serif" font-size="13" lengthAdjust="spacing" textLength="176.3379" x="301.6338" y="794.1478">crearGrado() / editarGrado()</text></g><!--link GRADO_ABIERTO_COMP to CATALOGO_GRADOS_COMP--><g class="link" data-entity-1="ent0003" data-entity-2="ent0002" data-link-type="dependency" data-source-line="73" id="lnk18"><path d="M597.61,1030.4389 C597.61,911.6289 597.61,750.5189 597.61,637.4689" fill="none" id="GRADO_ABIERTO_COMP-to-CATALOGO_GRADOS_COMP" style="stroke:#008000;stroke-width:1;"/><polygon fill="#008000" points="597.61,632.4689,593.61,641.4689,597.61,637.4689,601.61,641.4689,597.61,632.4689" style="stroke:#008000;stroke-width:1;stroke-linejoin:miter;stroke-miterlimit:10;"/><path d="M214.61,836.4589 L214.61,911.4589 L475.61,911.4589 L475.61,846.4589 L465.61,836.4589 L214.61,836.4589" fill="#FEFFDD" style="stroke:#181818;stroke-width:0.5;"/><path d="M465.61,836.4589 L465.61,846.4589 L475.61,846.4589 L465.61,836.4589" fill="#FEFFDD" style="stroke:#181818;stroke-width:0.5;"/><text fill="#000000" font-family="sans-serif" font-size="13" font-weight="700" lengthAdjust="spacing" textLength="69.8687" x="230.61" y="864.0273">GUARDAR:</text><text fill="#000000" font-family="sans-serif" font-size="13" font-weight="700" lengthAdjust="spacing" textLength="108.2847" x="230.61" y="879.3378">Sistema permite</text><text fill="#000000" font-family="sans-serif" font-size="13" lengthAdjust="spacing" textLength="107.6943" x="343.0079" y="879.3378">persistir el grado</text><text fill="#000000" font-family="sans-serif" font-size="13" lengthAdjust="spacing" textLength="116.3018" x="230.61" y="894.6484">y vuelve al listado.</text><text fill="#000000" font-family="sans-serif" font-size="13" lengthAdjust="spacing" textLength="95.8687" x="491.7023" y="879.3378">guardarGrado()</text></g><!--link GRADO_ABIERTO_COMP to CATALOGO_GRADOS_COMP--><g class="link" data-entity-1="ent0003" data-entity-2="ent0002" data-link-type="dependency" data-source-line="80" id="lnk19"><path d="M707.23,1030.4389 C707.23,911.6289 707.23,750.5189 707.23,637.4689" fill="none" id="GRADO_ABIERTO_COMP-to-CATALOGO_GRADOS_COMP-1" style="stroke:#FF0000;stroke-width:1;"/><polygon fill="#FF0000" points="707.23,632.4689,703.23,641.4689,707.23,637.4689,711.23,641.4689,707.23,632.4689" style="stroke:#FF0000;stroke-width:1;stroke-linejoin:miter;stroke-miterlimit:10;"/><text fill="#000000" font-family="sans-serif" font-size="13" lengthAdjust="spacing" textLength="98.5791" x="718.23" y="871.6825">cancelarGrado()</text><path d="M832.8091,836.4589 L832.8091,896.4589 L1104.8091,896.4589 L1104.8091,846.4589 L1094.8091,836.4589 L832.8091,836.4589" fill="#FEFFDD" style="stroke:#181818;stroke-width:0.5;"/><path d="M1094.8091,836.4589 L1094.8091,846.4589 L1104.8091,846.4589 L1094.8091,836.4589" fill="#FEFFDD" style="stroke:#181818;stroke-width:0.5;"/><text fill="#000000" font-family="sans-serif" font-size="13" font-weight="700" lengthAdjust="spacing" textLength="75.207" x="848.8091" y="864.0273">CANCELAR:</text><text fill="#000000" font-family="sans-serif" font-size="13" font-weight="700" lengthAdjust="spacing" textLength="108.2847" x="848.8091" y="879.3378">Sistema permite</text><text fill="#000000" font-family="sans-serif" font-size="13" lengthAdjust="spacing" textLength="119.3232" x="961.2071" y="879.3378">descartar cambios.</text></g><!--link CATALOGO_GRADOS_COMP to SISTEMA_DISPONIBLE_FINAL--><g class="link" data-entity-1="ent0002" data-entity-2="ent0004" data-link-type="dependency" data-source-line="87" id="lnk20"><path d="M923.46,632.3989 C923.46,668.4489 923.46,700.1189 923.46,726.5689" fill="none" id="CATALOGO_GRADOS_COMP-to-SISTEMA_DISPONIBLE_FINAL" style="stroke:#008000;stroke-width:1;"/><polygon fill="#008000" points="923.46,731.5689,927.46,722.5689,923.46,726.5689,919.46,722.5689,923.46,731.5689" style="stroke:#008000;stroke-width:1;stroke-linejoin:miter;stroke-miterlimit:10;"/><text fill="#000000" font-family="sans-serif" font-size="13" lengthAdjust="spacing" textLength="220.4541" x="692.46" y="668.5573">completarGestionCatalogoGrados()</text></g><!--link SISTEMA_DISPONIBLE_FINAL to *end*--><g class="link" data-entity-1="ent0004" data-entity-2="ent0021" data-link-type="dependency" data-source-line="89" id="lnk22"><path d="M939.61,808.7389 C939.61,841.7289 939.61,882.1789 939.61,903.1289" fill="none" id="SISTEMA_DISPONIBLE_FINAL-to-*end*" style="stroke:#0000FF;stroke-width:1;"/><polygon fill="#0000FF" points="939.61,908.1289,943.61,899.1289,939.61,903.1289,935.61,899.1289,939.61,908.1289" style="stroke:#0000FF;stroke-width:1;stroke-linejoin:miter;stroke-miterlimit:10;"/></g><?plantuml-src bLR1Rjiu4BthAmRPGvD5dNIlGH50bHL3W6i5Td8gYe2cnWeHYVHILB31Oe7zXtx1xhsdtdhrd-oNx92KRKcntDGNoSEPuRmtRqWPOGg42LP6ACaqHCni_YbKhY0ZisQPgeBW3On68uZIsNKokPk7KRBvCeDn3F7YDfccTZ6e7eLSCyrAa2h32jVmsxjtBQjcyl6bjH0IpVCQGMdpe5eBDopBXCp9tUu-nfMGWelDDsdBYYlZwgA7GLWaYzluOtW_JXOtwIpvC8tlaraI9U4KW5LmydBzf8cCmjjmcaxI-yay7AUB-oZzU0FDpqRsryCFIJo_JRVXpherTe9zU6VzPBZQwsHcQnskDlZqwsSOVVebruZoy-Zg26JBLYmDzOq1Aw3SVClgGWL7E6hdFKZ89R2b5fg4mQmkl2PEpmAf24w1AmDAsaO-1XR3--NL0hb6mxHWKAc2scRO-ulb5UHRaJb7B82tjPQxlFH6TYG4wdoNJrG6ImPhrAKmw7AH5-CSA-MS26aXd2ZE0vGPsD8i4v4grwGiLWhAg418WregjyUMcIDA-DFbzWvJdzw3RrhLsFQ3Gfso4VrkTMAzY-DEY_o1o5lr7BOIQY4lQw9EUnOBsZ_lUk8Vre_0LS2f5voWYLozfLtAfKPuXXNZTK5RU4ht3Db_Ro0bOXcdpb2yfuZvFaJpkx7pwQ8Vn4PImKAKWbhi32IIBjWEjW6LR3FiV6lfyUvXdX_Yw8aL8lCfVg-HDWL3NSUTgyOLQfHS43Z6ZNYYvochH2wPgJMhtkuyIsRqvYinHaR8X4PkbCRghCVUNxrPg-hbABgpQc34zGLc_i0A3cghpU61S-GIY9mTYt01bCtiMVtfqSleP6yASwwgIRWZztN31fIsXfNW3wmzQ8F7ONk2hfKkYL8jl5ZS1CNP_b1tre49wiKUcg6-ookK9kmfazLSxBMce5IP881CN-wC__tzBqH-fk1qyvqk8dLstbcT-K6pCzDYSxjwtKmViLSm9quYbuIC70yDP9-eDX54ZDVTmgdTZwaNNd20_tteQFXqpskcirTeQt8NpiVX_D9oTqmjz5wHMMZOqk6yd-6fnk891mxhmzLhp8xMpfdaMFIARpJHhJuAPr4yVKNvzF52tRUpmLcv5AhgNYcU-CuLyiC17xpp2G3TK8KLP_C5zkAM3GQ3QOTbKMCZY_y1?></g></svg>