<?plantuml 1.2026.2?><svg xmlns="http://www.w3.org/2000/svg" xmlns:xlink="http://www.w3.org/1999/xlink" contentStyleType="text/css" data-diagram-type="DESCRIPTION" height="525px" preserveAspectRatio="none" style="width:857px;height:525px;background:#FFFFFF;" version="1.1" viewBox="0 0 857 525" width="857px" zoomAndPan="magnify"><defs/><g><!--cluster editarSolicitudDispensa--><g class="cluster" data-qualified-name="editarSolicitudDispensa" data-source-line="7" id="ent0005"><path d="M59.36,106.49 L241.6217,106.49 A3.75,3.75 0 0 1 244.1217,108.99 L251.1217,128.9783 L836.36,128.9783 A2.5,2.5 0 0 1 838.86,131.4783 L838.86,515.94 A2.5,2.5 0 0 1 836.36,518.44 L59.36,518.44 A2.5,2.5 0 0 1 56.86,515.94 L56.86,108.99 A2.5,2.5 0 0 1 59.36,106.49" fill="none" style="stroke:#000000;stroke-width:1.5;"/><line style="stroke:#000000;stroke-width:1.5;" x1="56.86" x2="251.1217" y1="128.9783" y2="128.9783"/><text fill="#000000" font-family="sans-serif" font-size="14" font-weight="bold" lengthAdjust="spacing" textLength="181.2617" x="60.86" y="122.0252">editarSolicitudDispensa()</text></g><!--entity EditarSolicitudDispensaView--><g class="entity" data-qualified-name="editarSolicitudDispensa.EditarSolicitudDispensaView" data-source-line="8" id="ent0006"><rect fill="#629EF9" height="36.4883" rx="2.5" ry="2.5" style="stroke:#181818;stroke-width:0.5;" width="210.9551" x="239.38" y="141.49"/><text fill="#000000" font-family="sans-serif" font-size="14" lengthAdjust="spacing" textLength="190.9551" x="249.38" y="165.0252">EditarSolicitudDispensaView</text></g><!--entity SolicitudDispensaController--><g class="entity" data-qualified-name="editarSolicitudDispensa.SolicitudDispensaController" data-source-line="9" id="ent0007"><rect fill="#B5BD68" height="36.4883" rx="2.5" ry="2.5" style="stroke:#181818;stroke-width:0.5;" width="208.1865" x="198.76" y="254.98"/><text fill="#000000" font-family="sans-serif" font-size="14" lengthAdjust="spacing" textLength="188.1865" x="208.76" y="278.5152">SolicitudDispensaController</text></g><!--entity SolicitudDispensaRepository--><g class="entity" data-qualified-name="editarSolicitudDispensa.SolicitudDispensaRepository" data-source-line="10" id="ent0008"><rect fill="#F2AC4E" height="36.4883" rx="2.5" ry="2.5" style="stroke:#181818;stroke-width:0.5;" width="212.1514" x="214.78" y="368.46"/><text fill="#000000" font-family="sans-serif" font-size="14" lengthAdjust="spacing" textLength="192.1514" x="224.78" y="391.9952">SolicitudDispensaRepository</text></g><!--entity SolicitudDispensa--><g class="entity" data-qualified-name="editarSolicitudDispensa.SolicitudDispensa" data-source-line="11" id="ent0009"><rect fill="#F2AC4E" height="36.4883" rx="2.5" ry="2.5" style="stroke:#181818;stroke-width:0.5;" width="140.0254" x="250.85" y="465.95"/><text fill="#000000" font-family="sans-serif" font-size="14" lengthAdjust="spacing" textLength="120.0254" x="260.85" y="489.4852">SolicitudDispensa</text></g><!--entity DispensasAbierto--><g class="entity" data-qualified-name="DispensasAbierto" data-source-line="3" id="ent0002"><rect fill="#CDEBA5" height="36.4883" rx="2.5" ry="2.5" style="stroke:#181818;stroke-width:0.5;" width="147.7158" x="7" y="7"/><text fill="#000000" font-family="sans-serif" font-size="14" lengthAdjust="spacing" textLength="127.7158" x="17" y="30.5352">:Dispensas Abierto</text></g><!--entity ConsultarSolicitudDispensa--><g class="entity" data-qualified-name="ConsultarSolicitudDispensa" data-source-line="4" id="ent0003"><rect fill="#CDEBA5" height="36.4883" rx="2.5" ry="2.5" style="stroke:#181818;stroke-width:0.5;" width="305.9814" x="191.87" y="7"/><text fill="#000000" font-family="sans-serif" font-size="14" lengthAdjust="spacing" textLength="285.9814" x="201.87" y="30.5352">:Collaboration ConsultarSolicitudDispensa</text></g><!--entity CrearSolicitudDispensa--><g class="entity" data-qualified-name="CrearSolicitudDispensa" data-source-line="5" id="ent0004"><rect fill="#CDEBA5" height="36.4883" rx="2.5" ry="2.5" style="stroke:#181818;stroke-width:0.5;" width="277.1133" x="533.3" y="7"/><text fill="#000000" font-family="sans-serif" font-size="14" lengthAdjust="spacing" textLength="257.1133" x="543.3" y="30.5352">:Collaboration CrearSolicitudDispensa</text></g><!--link DispensasAbierto to EditarSolicitudDispensaView--><g class="link" data-entity-1="ent0002" data-entity-2="ent0006" data-link-type="dependency" data-source-line="14" id="lnk10"><path d="M89.6,43.8 C99.08,62.82 112.86,90.49 112.86,90.49 C112.86,90.49 210.3139,119.1568 279.0539,139.3768" fill="none" id="DispensasAbierto-to-EditarSolicitudDispensaView" style="stroke:#181818;stroke-width:1;"/><polygon fill="#181818" points="284.81,141.07,277.3046,134.6928,280.0132,139.659,275.047,142.3677,284.81,141.07" style="stroke:#181818;stroke-width:1;"/><text fill="#000000" font-family="sans-serif" font-size="13" lengthAdjust="spacing" textLength="222.0347" x="113.86" y="87.0584">editarSolicitudDispensa(solicitudId)</text></g><!--link ConsultarSolicitudDispensa to EditarSolicitudDispensaView--><g class="link" data-entity-1="ent0003" data-entity-2="ent0006" data-link-type="dependency" data-source-line="15" id="lnk11"><path d="M344.86,43.84 C344.86,69.18 344.86,109.68 344.86,135.06" fill="none" id="ConsultarSolicitudDispensa-to-EditarSolicitudDispensaView" style="stroke:#181818;stroke-width:1;"/><polygon fill="#181818" points="344.86,141.06,348.86,132.06,344.86,136.06,340.86,132.06,344.86,141.06" style="stroke:#181818;stroke-width:1;"/><text fill="#000000" font-family="sans-serif" font-size="13" lengthAdjust="spacing" textLength="222.0347" x="345.86" y="87.0584">editarSolicitudDispensa(solicitudId)</text></g><!--link CrearSolicitudDispensa to EditarSolicitudDispensaView--><g class="link" data-entity-1="ent0004" data-entity-2="ent0006" data-link-type="dependency" data-source-line="16" id="lnk12"><path d="M645.65,43.97 C617.53,62.98 576.86,90.49 576.86,90.49 C576.86,90.49 479.4061,119.1568 410.6661,139.3768" fill="none" id="CrearSolicitudDispensa-to-EditarSolicitudDispensaView" style="stroke:#181818;stroke-width:1;"/><polygon fill="#181818" points="404.91,141.07,414.673,142.3677,409.7068,139.659,412.4154,134.6928,404.91,141.07" style="stroke:#181818;stroke-width:1;"/><text fill="#000000" font-family="sans-serif" font-size="13" lengthAdjust="spacing" textLength="248.9297" x="600.82" y="87.0584">editarSolicitudDispensa(solicitudNueva)</text></g><!--link EditarSolicitudDispensaView to SolicitudDispensaController--><g class="link" data-entity-1="ent0006" data-entity-2="ent0007" data-link-type="dependency" data-source-line="18" id="lnk13"><path d="M254.81,178.46 C186.71,191.86 104.86,207.98 104.86,207.98 C104.86,207.98 104.86,224.98 104.86,224.98 C104.86,224.98 166.5437,239.6982 222.7337,253.0982" fill="none" id="EditarSolicitudDispensaView-to-SolicitudDispensaController" style="stroke:#181818;stroke-width:1;"/><polygon fill="#181818" points="228.57,254.49,220.7434,248.5114,223.7064,253.3301,218.8876,256.2931,228.57,254.49" style="stroke:#181818;stroke-width:1;"/><text fill="#000000" font-family="sans-serif" font-size="13" lengthAdjust="spacing" textLength="363.9429" x="105.86" y="221.5484">cargarSolicitudParaEdicion(solicitudId) : SolicitudDispensa</text></g><!--link EditarSolicitudDispensaView to SolicitudDispensaController--><g class="link" data-entity-1="ent0006" data-entity-2="ent0007" data-link-type="dependency" data-source-line="22" id="lnk15"><path d="M393.26,178.46 C429.86,191.86 473.86,207.98 473.86,207.98 C473.86,207.98 473.86,224.98 473.86,224.98 C473.86,224.98 421.3235,239.4927 372.8035,252.8927" fill="none" id="EditarSolicitudDispensaView-to-SolicitudDispensaController-1" style="stroke:#181818;stroke-width:1;"/><polygon fill="#181818" points="367.02,254.49,376.7601,255.9498,371.8396,253.159,374.6304,248.2385,367.02,254.49" style="stroke:#181818;stroke-width:1;"/><text fill="#000000" font-family="sans-serif" font-size="13" lengthAdjust="spacing" textLength="308.3945" x="474.86" y="221.5484">modificarCampos(solicitudId, cambios) : boolean</text></g><!--link SolicitudDispensaController to SolicitudDispensaRepository--><g class="link" data-entity-1="ent0007" data-entity-2="ent0008" data-link-type="dependency" data-source-line="20" id="lnk14"><path d="M241.7,291.95 C195.45,305.35 139.86,321.46 139.86,321.46 C139.86,321.46 139.86,338.46 139.86,338.46 C139.86,338.46 195.7843,353.0653 247.1443,366.4653" fill="none" id="SolicitudDispensaController-to-SolicitudDispensaRepository" style="stroke:#181818;stroke-width:1;"/><polygon fill="#181818" points="252.95,367.98,245.2513,361.8375,248.112,366.7177,243.2317,369.5784,252.95,367.98" style="stroke:#181818;stroke-width:1;"/><text fill="#000000" font-family="sans-serif" font-size="13" lengthAdjust="spacing" textLength="279.1509" x="140.86" y="335.0284">obtenerPorId(solicitudId) : SolicitudDispensa</text></g><!--link SolicitudDispensaController to SolicitudDispensaRepository--><g class="link" data-entity-1="ent0007" data-entity-2="ent0008" data-link-type="dependency" data-source-line="24" id="lnk16"><path d="M348.63,291.95 C383.25,305.35 424.86,321.46 424.86,321.46 C424.86,321.46 424.86,338.46 424.86,338.46 C424.86,338.46 394.8531,352.0993 365.3431,365.4993" fill="none" id="SolicitudDispensaController-to-SolicitudDispensaRepository-1" style="stroke:#181818;stroke-width:1;"/><polygon fill="#181818" points="359.88,367.98,369.7285,367.901,364.4326,365.9127,366.4209,360.6168,359.88,367.98" style="stroke:#181818;stroke-width:1;"/><text fill="#000000" font-family="sans-serif" font-size="13" lengthAdjust="spacing" textLength="186.2656" x="425.86" y="335.0284">actualizar(solicitud) : boolean</text></g><!--link SolicitudDispensaRepository to SolicitudDispensa--><g class="link" data-entity-1="ent0008" data-entity-2="ent0009" data-link-type="association" data-source-line="26" id="lnk17"><path d="M320.86,405.22 C320.86,422.34 320.86,448.28 320.86,465.47" fill="none" id="SolicitudDispensaRepository-SolicitudDispensa" style="stroke:#181818;stroke-width:1;"/></g><?plantuml-src fLF1Ri8m3BtdAwBk0j9wGGCD3aYi58dBX3PfTxVnK4GQLqcwYKtxzwNJW0xIKcavfNRUUtwsQtTIbs2Wu4fgTFiIUKbgNtymPZ1teBSA-KsoJ1yMOnxDbjAMg2rOliWa6aSHz_TZz3SOX2Qa56Ham4dIF25jA-N0F9EIkNILE93yCBQd-t0RREKDfXWh8T_15ZaA6HAjeL5BRZ2C-2VZ_ZGgcuocwMhAqp3aHUBxEI8RPs9opo_U-auuu-sXEKUiHelaBhr4F659LZeo-xu8ziNO-Gnv7C-xwkV7Cslhsi0U8cinPEqZlIhLLo4ut3v6UWWyLlW6GyQwc6BXfJecw7LoCDi6VED_Fi-O-xNzuyM_36nf5tKSaZwjGksHCeSQpORCMlHGwtHwnQXdB4Z8L-dz9b3uAfg2jxuDHIR9riePaKBG_tO7kQj0oGym9wbk_WO-ZWCT-0O0?></g></svg>