<svg xmlns="http://www.w3.org/2000/svg" xmlns:xlink="http://www.w3.org/1999/xlink" contentStyleType="text/css" data-diagram-type="DESCRIPTION" height="432px" preserveAspectRatio="none" style="width:1021px;height:432px;background:#FFFFFF;" version="1.1" viewBox="0 0 1021 432" width="1021px" zoomAndPan="magnify"><?plantuml 1.2026.5?><defs/><g><!--cluster gestionarCatalogoGrados--><g class="cluster" data-qualified-name="gestionarCatalogoGrados" data-source-line="5" id="ent0002"><path d="M172.05,6 L366.6848,6 A3.75,3.75 0 0 1 369.1848,8.5 L376.1848,28.4883 L1004.05,28.4883 A2.5,2.5 0 0 1 1006.55,30.9883 L1006.55,415.45 A2.5,2.5 0 0 1 1004.05,417.95 L172.05,417.95 A2.5,2.5 0 0 1 169.55,415.45 L169.55,8.5 A2.5,2.5 0 0 1 172.05,6" fill="none" style="stroke:#000000;stroke-width:1.5;"/><line style="stroke:#000000;stroke-width:1.5;" x1="169.55" x2="376.1848" y1="28.4883" y2="28.4883"/><text fill="#000000" font-family="sans-serif" font-size="14" font-weight="700" lengthAdjust="spacing" textLength="193.6348" x="173.55" y="21.5352">gestionarCatalogoGrados()</text></g><!--entity GradosView--><g class="entity" data-qualified-name="gestionarCatalogoGrados.GradosView" data-source-line="6" id="ent0003"><rect fill="#629EF9" height="36.4883" rx="2.5" ry="2.5" style="stroke:#181818;stroke-width:0.5;" width="99.9121" x="350.6" y="41"/><text fill="#000000" font-family="sans-serif" font-size="14" lengthAdjust="spacing" textLength="79.9121" x="360.6" y="64.5352">GradosView</text></g><!--entity GradoController--><g class="entity" data-qualified-name="gestionarCatalogoGrados.GradoController" data-source-line="7" id="ent0004"><rect fill="#B5BD68" height="36.4883" rx="2.5" ry="2.5" style="stroke:#181818;stroke-width:0.5;" width="129.1494" x="435.98" y="154.49"/><text fill="#000000" font-family="sans-serif" font-size="14" lengthAdjust="spacing" textLength="109.1494" x="445.98" y="178.0252">GradoController</text></g><!--entity GradoRepository--><g class="entity" data-qualified-name="gestionarCatalogoGrados.GradoRepository" data-source-line="8" id="ent0005"><rect fill="#F2AC4E" height="36.4883" rx="2.5" ry="2.5" style="stroke:#181818;stroke-width:0.5;" width="133.1143" x="433.99" y="267.97"/><text fill="#000000" font-family="sans-serif" font-size="14" lengthAdjust="spacing" textLength="113.1143" x="443.99" y="291.5052">GradoRepository</text></g><!--entity Grado--><g class="entity" data-qualified-name="gestionarCatalogoGrados.Grado" data-source-line="9" id="ent0006"><rect fill="#F2AC4E" height="36.4883" rx="2.5" ry="2.5" style="stroke:#181818;stroke-width:0.5;" width="60.9883" x="470.06" y="365.46"/><text fill="#000000" font-family="sans-serif" font-size="14" lengthAdjust="spacing" textLength="40.9883" x="480.06" y="388.9952">Grado</text></g><!--entity CatalogoAbierto--><g class="entity" data-qualified-name="CatalogoAbierto" data-source-line="3" id="ent0001"><rect fill="#CDEBA5" height="36.4883" rx="2.5" ry="2.5" style="stroke:#181818;stroke-width:0.5;" width="139.1025" x="7" y="41"/><text fill="#000000" font-family="sans-serif" font-size="14" lengthAdjust="spacing" textLength="119.1025" x="17" y="64.5352">:Catalogo Abierto</text></g><!--link CatalogoAbierto to GradosView--><g class="link" data-entity-1="ent0001" data-entity-2="ent0003" data-link-type="dependency" data-source-line="12" id="lnk7"><path d="M146.46,59.24 C207.85,59.24 290.66,59.24 345.33,59.24" fill="none" id="CatalogoAbierto-to-GradosView" style="stroke:#181818;stroke-width:1;"/><polygon fill="#181818" points="350.33,59.24,341.33,55.24,345.33,59.24,341.33,63.24,350.33,59.24" style="stroke:#181818;stroke-width:1;stroke-linejoin:miter;stroke-miterlimit:10;"/><text fill="#000000" font-family="sans-serif" font-size="13" lengthAdjust="spacing" textLength="168.3398" x="164.35" y="52.8084">gestionarCatalogoGrados()</text></g><!--link GradosView to GradoController--><g class="link" data-entity-1="ent0003" data-entity-2="ent0004" data-link-type="dependency" data-source-line="14" id="lnk8"><path d="M350.55,73.15 C296.36,87.14 217.55,107.49 217.55,107.49 C217.55,107.49 217.55,124.49 217.55,124.49 C217.55,124.49 347.1383,146.1167 430.6983,160.0667" fill="none" id="GradosView-to-GradoController" style="stroke:#181818;stroke-width:1;"/><polygon fill="#181818" points="435.63,160.89,427.4115,155.4626,430.6983,160.0667,426.0942,163.3534,435.63,160.89" style="stroke:#181818;stroke-width:1;stroke-linejoin:miter;stroke-miterlimit:10;"/><text fill="#000000" font-family="sans-serif" font-size="13" lengthAdjust="spacing" textLength="130.0317" x="218.55" y="121.0584">listar() : list&lt;Grado&gt;</text></g><!--link GradosView to GradoController--><g class="link" data-entity-1="ent0003" data-entity-2="ent0004" data-link-type="dependency" data-source-line="15" id="lnk9"><path d="M396.46,77.83 C393.33,91.27 389.55,107.49 389.55,107.49 C389.55,107.49 389.55,124.49 389.55,124.49 C389.55,124.49 422.8092,138.6422 454.2992,152.0422" fill="none" id="GradosView-to-GradoController-1" style="stroke:#181818;stroke-width:1;"/><polygon fill="#181818" points="458.9,154,452.1848,146.7954,454.2992,152.0422,449.0524,154.1566,458.9,154" style="stroke:#181818;stroke-width:1;stroke-linejoin:miter;stroke-miterlimit:10;"/><text fill="#000000" font-family="sans-serif" font-size="13" lengthAdjust="spacing" textLength="249.3042" x="390.55" y="121.0584">crear(codigo, nombre, facultad) : Grado</text></g><!--link GradosView to GradoController--><g class="link" data-entity-1="ent0003" data-entity-2="ent0004" data-link-type="dependency" data-source-line="16" id="lnk10"><path d="M450.81,69.97 C522.24,83.8 644.55,107.49 644.55,107.49 C644.55,107.49 644.55,124.49 644.55,124.49 C644.55,124.49 600.191,139.0419 559.331,152.4419" fill="none" id="GradosView-to-GradoController-2" style="stroke:#181818;stroke-width:1;"/><polygon fill="#181818" points="554.58,154,564.3783,154.9963,559.331,152.4419,561.8854,147.3946,554.58,154" style="stroke:#181818;stroke-width:1;stroke-linejoin:miter;stroke-miterlimit:10;"/><text fill="#000000" font-family="sans-serif" font-size="13" lengthAdjust="spacing" textLength="192.9624" x="645.55" y="121.0584">actualizar(id, cambios) : Grado</text></g><!--link GradosView to GradoController--><g class="link" data-entity-1="ent0003" data-entity-2="ent0004" data-link-type="dependency" data-source-line="17" id="lnk11"><path d="M450.85,65.57 C567.49,77.92 846.55,107.49 846.55,107.49 C846.55,107.49 846.55,124.49 846.55,124.49 C846.55,124.49 670.324,148.5432 570.184,162.2232" fill="none" id="GradosView-to-GradoController-3" style="stroke:#181818;stroke-width:1;"/><polygon fill="#181818" points="565.23,162.9,574.6886,165.645,570.184,162.2232,573.6058,157.7186,565.23,162.9" style="stroke:#181818;stroke-width:1;stroke-linejoin:miter;stroke-miterlimit:10;"/><text fill="#000000" font-family="sans-serif" font-size="13" lengthAdjust="spacing" textLength="71.6143" x="847.55" y="121.0584">eliminar(id)</text></g><!--link GradoController to GradoRepository--><g class="link" data-entity-1="ent0004" data-entity-2="ent0005" data-link-type="dependency" data-source-line="19" id="lnk12"><path d="M500.55,191.15 C500.55,211.97 500.55,241.62 500.55,262.55" fill="none" id="GradoController-to-GradoRepository" style="stroke:#181818;stroke-width:1;"/><polygon fill="#181818" points="500.55,267.55,504.55,258.55,500.55,262.55,496.55,258.55,500.55,267.55" style="stroke:#181818;stroke-width:1;stroke-linejoin:miter;stroke-miterlimit:10;"/><text fill="#000000" font-family="sans-serif" font-size="13" lengthAdjust="spacing" textLength="380.0342" x="501.55" y="234.5384">obtenerTodos / crear / actualizar / eliminar (con validaci&#243;n)</text></g><!--link GradoRepository to Grado--><g class="link" data-entity-1="ent0005" data-entity-2="ent0006" data-link-type="association" data-source-line="21" id="lnk13"><path d="M500.55,304.73 C500.55,321.85 500.55,347.79 500.55,364.98" fill="none" id="GradoRepository-Grado" style="stroke:#181818;stroke-width:1;"/></g><?plantuml-src dPBHIiCm58RlynI7UhF1YZ3SS4C6isxUYtX_cXvBM9fJaaoPubFv2BwOwRfifJ1XvgRDwNU-dB-jsoXJeyKAj3BaTpL1pNhNR8Im93sQKXDSPG-h--K4adc67ZMN3CjSaVMS03g8nKDDY1hb1ak2afnNRD16uj5YmQxfISuy6mmJ-1GGLkVuwNYsMi-W9LuKlVU1V98NqziMoDXuorgJxLFhyJAxMRNK4zNib6Ux-uiINqBqqa5gqqLd53YkEPpD94I_8OsIqxZHefNpQ0V3m-tT7bjSOf2MWa1oeKeUWU4gjpI2LvHRxR5en6sw2vGe_HQr-WXULOn0OfKhTlzIaLQLCdjHV34TwDXu-aAnaNDFXkmpD__GTPioN4-ZXKsKGuXlu2tK2vJgvzl4ephQD3qC_mi0?></g></svg>