<?plantuml 1.2026.2?><svg xmlns="http://www.w3.org/2000/svg" xmlns:xlink="http://www.w3.org/1999/xlink" contentStyleType="text/css" data-diagram-type="DESCRIPTION" height="327px" preserveAspectRatio="none" style="width:686px;height:327px;background:#FFFFFF;" version="1.1" viewBox="0 0 686 327" width="686px" zoomAndPan="magnify"><defs/><g><!--cluster cerrarSesion--><g class="cluster" data-qualified-name="cerrarSesion" data-source-line="5" id="ent0003"><path d="M269.45,6 L370.6102,6 A3.75,3.75 0 0 1 373.1102,8.5 L380.1102,28.4883 L470.45,28.4883 A2.5,2.5 0 0 1 472.95,30.9883 L472.95,317.96 A2.5,2.5 0 0 1 470.45,320.46 L269.45,320.46 A2.5,2.5 0 0 1 266.95,317.96 L266.95,8.5 A2.5,2.5 0 0 1 269.45,6" fill="none" style="stroke:#000000;stroke-width:1.5;"/><line style="stroke:#000000;stroke-width:1.5;" x1="266.95" x2="380.1102" y1="28.4883" y2="28.4883"/><text fill="#000000" font-family="sans-serif" font-size="14" font-weight="bold" lengthAdjust="spacing" textLength="100.1602" x="270.95" y="21.5352">cerrarSesion()</text></g><!--entity CerrarSesionView--><g class="entity" data-qualified-name="cerrarSesion.CerrarSesionView" data-source-line="6" id="ent0004"><rect fill="#629EF9" height="36.4883" rx="2.5" ry="2.5" style="stroke:#181818;stroke-width:0.5;" width="138.002" x="282.95" y="41"/><text fill="#000000" font-family="sans-serif" font-size="14" lengthAdjust="spacing" textLength="118.002" x="292.95" y="64.5352">CerrarSesionView</text></g><!--entity CerrarSesionController--><g class="entity" data-qualified-name="cerrarSesion.CerrarSesionController" data-source-line="7" id="ent0005"><rect fill="#B5BD68" height="36.4883" rx="2.5" ry="2.5" style="stroke:#181818;stroke-width:0.5;" width="174.376" x="282.76" y="154.48"/><text fill="#000000" font-family="sans-serif" font-size="14" lengthAdjust="spacing" textLength="154.376" x="292.76" y="178.0152">CerrarSesionController</text></g><!--entity Sesion--><g class="entity" data-qualified-name="cerrarSesion.Sesion" data-source-line="8" id="ent0006"><rect fill="#F2AC4E" height="36.4883" rx="2.5" ry="2.5" style="stroke:#181818;stroke-width:0.5;" width="63.8115" x="338.04" y="267.97"/><text fill="#000000" font-family="sans-serif" font-size="14" lengthAdjust="spacing" textLength="43.8115" x="348.04" y="291.5052">Sesion</text></g><!--entity SistemaDisponible--><g class="entity" data-qualified-name="SistemaDisponible" data-source-line="3" id="ent0002"><rect fill="#CDEBA5" height="36.4883" rx="2.5" ry="2.5" style="stroke:#181818;stroke-width:0.5;" width="153.8955" x="7" y="41"/><text fill="#000000" font-family="sans-serif" font-size="14" lengthAdjust="spacing" textLength="133.8955" x="17" y="64.5352">:Sistema Disponible</text></g><!--entity SesionCerrada--><g class="entity" data-qualified-name="SesionCerrada" data-source-line="11" id="ent0007"><rect fill="#CDEBA5" height="36.4883" rx="2.5" ry="2.5" style="stroke:#181818;stroke-width:0.5;" width="125.8887" x="555" y="41"/><text fill="#000000" font-family="sans-serif" font-size="14" lengthAdjust="spacing" textLength="105.8887" x="565" y="64.5352">:Sesi&#243;n Cerrada</text></g><!--link SistemaDisponible to CerrarSesionView--><g class="link" data-entity-1="ent0002" data-entity-2="ent0004" data-link-type="dependency" data-source-line="13" id="lnk8"><path d="M161.1,59.24 C199.45,59.24 239.43,59.24 276.64,59.24" fill="none" id="SistemaDisponible-to-CerrarSesionView" style="stroke:#181818;stroke-width:1;"/><polygon fill="#181818" points="282.64,59.24,273.64,55.24,277.64,59.24,273.64,63.24,282.64,59.24" style="stroke:#181818;stroke-width:1;"/><text fill="#000000" font-family="sans-serif" font-size="13" lengthAdjust="spacing" textLength="86.1758" x="178.92" y="52.8084">cerrarSesion()</text></g><!--link CerrarSesionView to CerrarSesionController--><g class="link" data-entity-1="ent0004" data-entity-2="ent0005" data-link-type="dependency" data-source-line="15" id="lnk9"><path d="M354.76,77.66 C358.12,98.48 362.7634,127.2067 366.1434,148.1367" fill="none" id="CerrarSesionView-to-CerrarSesionController" style="stroke:#181818;stroke-width:1;"/><polygon fill="#181818" points="367.1,154.06,369.614,144.5374,366.3029,149.1239,361.7163,145.8128,367.1,154.06" style="stroke:#181818;stroke-width:1;"/><text fill="#000000" font-family="sans-serif" font-size="13" lengthAdjust="spacing" textLength="126.4834" x="363.03" y="121.0484">cerrarSesion(sesion)</text></g><!--link CerrarSesionController to Sesion--><g class="link" data-entity-1="ent0005" data-entity-2="ent0006" data-link-type="dependency" data-source-line="17" id="lnk10"><path d="M369.95,191.15 C369.95,211.97 369.95,240.62 369.95,261.55" fill="none" id="CerrarSesionController-to-Sesion" style="stroke:#181818;stroke-width:1;"/><polygon fill="#181818" points="369.95,267.55,373.95,258.55,369.95,262.55,365.95,258.55,369.95,267.55" style="stroke:#181818;stroke-width:1;"/><text fill="#000000" font-family="sans-serif" font-size="13" lengthAdjust="spacing" textLength="45.4937" x="370.95" y="234.5384">cerrar()</text></g><!--link CerrarSesionView to SesionCerrada--><g class="link" data-entity-1="ent0004" data-entity-2="ent0007" data-link-type="dependency" data-source-line="19" id="lnk11"><path d="M421.14,59.24 C462.4,59.24 508.38,59.24 548.57,59.24" fill="none" id="CerrarSesionView-to-SesionCerrada" style="stroke:#181818;stroke-width:1;"/><polygon fill="#181818" points="554.57,59.24,545.57,55.24,549.57,59.24,545.57,63.24,554.57,59.24" style="stroke:#181818;stroke-width:1;"/><text fill="#000000" font-family="sans-serif" font-size="13" lengthAdjust="spacing" textLength="98.1792" x="438.98" y="52.8084">sesionCerrada()</text></g><?plantuml-src TP11Ri8m44NtSufHsBIBR511XKKb6i85aBgV92DauTZME192Y5Fr2BrO0mvWd7OsbcVU_-DllrV6aL2BMXdkZexHMNsyN024wuxCJZDEYdNvkPfXjjmgtt5Bk5RUMQCgpHcInw7zw08uglUqOwnPX6JBNbbpGREuyVAQuGcmhsZPVBeeDmii8kvByI75gbdLpD-ViCAQJgpMB2cycQwAjn831kT_mlNJdsyJB1iAoO9nw02CWc8k-SVehNYj9Jvd1HXnUPEe7n5IkRyUYKc4vxtJyCrHtKp-tYvtpP0m5lfuqEj_0G00?></g></svg>