<?plantuml 1.2026.2?><svg xmlns="http://www.w3.org/2000/svg" xmlns:xlink="http://www.w3.org/1999/xlink" contentStyleType="text/css" data-diagram-type="STATE" height="766px" preserveAspectRatio="none" style="width:510px;height:766px;background:#FFFFFF;" version="1.1" viewBox="0 0 510 766" width="510px" zoomAndPan="magnify"><title>Cerrar Sesi&#243;n</title><defs/><g><g class="title" data-source-line="1"><text fill="#000000" font-family="sans-serif" font-size="14" font-weight="bold" lengthAdjust="spacing" textLength="96.9199" x="199.9534" y="33.5352">Cerrar Sesi&#243;n</text></g><g class="entity" data-qualified-name="SISTEMA_DISPONIBLE" id="ent0002"><rect fill="#F1F1F1" height="76.4883" rx="12.5" ry="12.5" style="stroke:#181818;stroke-width:0.5;" width="182.4268" x="321.4" y="183.4883"/><line style="stroke:#181818;stroke-width:0.5;" x1="321.4" x2="503.8268" y1="229.9766" y2="229.9766"/><text fill="#000000" font-family="sans-serif" font-size="14" lengthAdjust="spacing" textLength="142.4268" x="341.4" y="212.0234">SISTEMA_DISPONIBLE</text></g><g class="entity" data-qualified-name="SESION_CERRADA" id="ent0003"><rect fill="#F1F1F1" height="76.4883" rx="12.5" ry="12.5" style="stroke:#181818;stroke-width:0.5;" width="159.7041" x="332.77" y="561.9783"/><line style="stroke:#181818;stroke-width:0.5;" x1="332.77" x2="492.4741" y1="608.4666" y2="608.4666"/><text fill="#000000" font-family="sans-serif" font-size="14" lengthAdjust="spacing" textLength="119.7041" x="352.77" y="590.5134">SESION_CERRADA</text></g><g class="start_entity" data-qualified-name=".start." data-source-line="12" id="ent0002"><ellipse cx="412.62" cy="73.4883" fill="#222222" rx="10" ry="10" style="stroke:#222222;stroke-width:1;"/></g><g class="end_entity" data-qualified-name=".end." data-source-line="29" id="ent0006"><ellipse cx="412.62" cy="749.4683" fill="none" rx="11" ry="11" style="stroke:#222222;stroke-width:1;"/><ellipse cx="412.62" cy="749.4683" fill="#222222" rx="6" ry="6" style="stroke:#222222;stroke-width:1;"/></g><!--link *start* to SISTEMA_DISPONIBLE--><g class="link" data-entity-1="ent0002" data-entity-2="ent0002" data-link-type="dependency" data-source-line="12" id="lnk3"><path d="M412.62,83.6783 C412.62,103.8283 412.62,143.6983 412.62,177.0483" fill="none" id="*start*-to-SISTEMA_DISPONIBLE" style="stroke:#008000;stroke-width:1;"/><polygon fill="#008000" points="412.62,183.0483,416.62,174.0483,412.62,178.0483,408.62,174.0483,412.62,183.0483" style="stroke:#008000;stroke-width:1;"/></g><!--link SISTEMA_DISPONIBLE to SESION_CERRADA--><g class="link" data-entity-1="ent0002" data-entity-2="ent0003" data-link-type="dependency" data-source-line="15" id="lnk4"><path d="M386,260.4583 C386,333.0883 386,482.9683 386,555.5483" fill="none" id="SISTEMA_DISPONIBLE-to-SESION_CERRADA" style="stroke:#008000;stroke-width:1;"/><polygon fill="#008000" points="386,561.5483,390,552.5483,386,556.5483,382,552.5483,386,561.5483" style="stroke:#008000;stroke-width:1;"/><path d="M6,331.0083 L6,406.0083 L273,406.0083 L273,341.0083 L263,331.0083 L6,331.0083" fill="#FEFFDD" style="stroke:#181818;stroke-width:0.5;"/><path d="M263,331.0083 L263,341.0083 L273,341.0083 L263,331.0083" fill="#FEFFDD" style="stroke:#181818;stroke-width:0.5;"/><text fill="#000000" font-family="sans-serif" font-size="13" font-weight="bold" lengthAdjust="spacing" textLength="103.9937" x="22" y="358.5766">Usuario solicita</text><text fill="#000000" font-family="sans-serif" font-size="13" lengthAdjust="spacing" textLength="100.623" x="130.1069" y="358.5766">cerrar la sesi&#243;n.</text><text fill="#000000" font-family="sans-serif" font-size="13" font-weight="bold" lengthAdjust="spacing" textLength="108.2847" x="22" y="373.8872">Sistema permite</text><text fill="#000000" font-family="sans-serif" font-size="13" lengthAdjust="spacing" textLength="112.5566" x="134.3979" y="373.8872">finalizar el estado</text><text fill="#000000" font-family="sans-serif" font-size="13" lengthAdjust="spacing" textLength="226.6113" x="22" y="389.1977">autenticado y descartar el contexto.</text><text fill="#000000" font-family="sans-serif" font-size="13" lengthAdjust="spacing" textLength="86.1758" x="289.6113" y="373.8872">cerrarSesion()</text></g><!--link SISTEMA_DISPONIBLE to SESION_CERRADA--><g class="link" data-entity-1="ent0002" data-entity-2="ent0003" data-link-type="dependency" data-source-line="23" id="lnk5"><path d="M439.23,260.4583 C439.23,333.0883 439.23,482.9683 439.23,555.5483" fill="none" id="SISTEMA_DISPONIBLE-to-SESION_CERRADA-1" style="stroke:#FF0000;stroke-width:1;"/><polygon fill="#FF0000" points="439.23,561.5483,443.23,552.5483,439.23,556.5483,435.23,552.5483,439.23,561.5483" style="stroke:#FF0000;stroke-width:1;"/><text fill="#000000" font-family="sans-serif" font-size="13" lengthAdjust="spacing" textLength="96.9414" x="30.23" y="451.2319">sesionInactiva()</text><path d="M143.1714,416.0083 L143.1714,476.0083 L434.1714,476.0083 L434.1714,426.0083 L424.1714,416.0083 L143.1714,416.0083" fill="#FEFFDD" style="stroke:#181818;stroke-width:0.5;"/><path d="M424.1714,416.0083 L424.1714,426.0083 L434.1714,426.0083 L424.1714,416.0083" fill="#FEFFDD" style="stroke:#181818;stroke-width:0.5;"/><text fill="#000000" font-family="sans-serif" font-size="13" font-weight="bold" lengthAdjust="spacing" textLength="52.1396" x="159.1714" y="443.5766">Sistema</text><text fill="#000000" font-family="sans-serif" font-size="13" lengthAdjust="spacing" textLength="194.7144" x="215.4243" y="443.5766">detecta inactividad prolongada</text><text fill="#000000" font-family="sans-serif" font-size="13" lengthAdjust="spacing" textLength="223.501" x="159.1714" y="458.8872">y cierra autom&#225;ticamente la sesi&#243;n.</text></g><!--link SESION_CERRADA to *end*--><g class="link" data-entity-1="ent0003" data-entity-2="ent0006" data-link-type="dependency" data-source-line="29" id="lnk7"><path d="M412.62,638.6583 C412.62,671.6483 412.62,711.0983 412.62,732.0483" fill="none" id="SESION_CERRADA-to-*end*" style="stroke:#0000FF;stroke-width:1;"/><polygon fill="#0000FF" points="412.62,738.0483,416.62,729.0483,412.62,733.0483,408.62,729.0483,412.62,738.0483" style="stroke:#0000FF;stroke-width:1;"/></g><?plantuml-src TPB1JXin48RlVegHUg2jj42l5OgK9akr4arG5au8eOaz12jUUsLFAjBNw1Fq0JZn27annXiYDWtiRJqpdl_xPBRi24OK8qQeATdDirVg28gYWD5qSbxzl9uDHzNcxmJ69PJrLNKnpKMLbjQt6B417mmbQk7RwMdlDA9V7fuwwudNBK68_11wXKiqnlg5j2kL69cWhkghyjVmRbpLbzD9zUEYt1NAkffExaRbR3OS3vMw-NeBnSsdHIJojyNWlK41gj5PWq2FhTiyQSi8ROY0McTYCEHWbLOORL27yxthYxnWBm1y1ztfo_Q2__n5-I0f7Tqp19-9bmhaEviFhhSR80LdSuIpa_dWTHWSGjhgFzwrrpOnDHAKOcEPkkvxwmNaZmn8OX8X9dJjk6BoRBNymrfmaiR8souTFDCZXsD5ta0Er_DXcpqVShjc-rigvWCFaSm75bB7Nsrlm9s7Q1SF1o9UoJeYGqnQrlTMGnk32tw11hk9DMYRBMNAq6p-PSv6S6dFsXlTVz4azTojAByDUIil?></g></svg>