<?plantuml 1.2026.2?><svg xmlns="http://www.w3.org/2000/svg" xmlns:xlink="http://www.w3.org/1999/xlink" contentStyleType="text/css" data-diagram-type="DESCRIPTION" height="424px" preserveAspectRatio="none" style="width:1211px;height:424px;background:#FFFFFF;" version="1.1" viewBox="0 0 1211 424" width="1211px" zoomAndPan="magnify"><defs/><g><!--cluster registrarTomaAsistencia--><g class="cluster" data-qualified-name="registrarTomaAsistencia" data-source-line="5" id="ent0003"><path d="M322.88,6 L511.5675,6 A3.75,3.75 0 0 1 514.0675,8.5 L521.0675,28.4883 L1201.88,28.4883 A2.5,2.5 0 0 1 1204.38,30.9883 L1204.38,415.45 A2.5,2.5 0 0 1 1201.88,417.95 L322.88,417.95 A2.5,2.5 0 0 1 320.38,415.45 L320.38,8.5 A2.5,2.5 0 0 1 322.88,6" fill="none" style="stroke:#000000;stroke-width:1.5;"/><line style="stroke:#000000;stroke-width:1.5;" x1="320.38" x2="521.0675" y1="28.4883" y2="28.4883"/><text fill="#000000" font-family="sans-serif" font-size="14" font-weight="bold" lengthAdjust="spacing" textLength="187.6875" x="324.38" y="21.5352">registrarTomaAsistencia()</text></g><!--entity RegistrarTomaAsistenciaView--><g class="entity" data-qualified-name="registrarTomaAsistencia.RegistrarTomaAsistenciaView" data-source-line="6" id="ent0004"><rect fill="#629EF9" height="36.4883" rx="2.5" ry="2.5" style="stroke:#181818;stroke-width:0.5;" width="219.6846" x="439.54" y="41"/><text fill="#000000" font-family="sans-serif" font-size="14" lengthAdjust="spacing" textLength="199.6846" x="449.54" y="64.5352">RegistrarTomaAsistenciaView</text></g><!--entity AsistenciaController--><g class="entity" data-qualified-name="registrarTomaAsistencia.AsistenciaController" data-source-line="7" id="ent0005"><rect fill="#B5BD68" height="36.4883" rx="2.5" ry="2.5" style="stroke:#181818;stroke-width:0.5;" width="156.8145" x="553.98" y="154.49"/><text fill="#000000" font-family="sans-serif" font-size="14" lengthAdjust="spacing" textLength="136.8145" x="563.98" y="178.0252">AsistenciaController</text></g><!--entity AsistenciaRepository--><g class="entity" data-qualified-name="registrarTomaAsistencia.AsistenciaRepository" data-source-line="8" id="ent0006"><rect fill="#F2AC4E" height="36.4883" rx="2.5" ry="2.5" style="stroke:#181818;stroke-width:0.5;" width="160.7793" x="433.99" y="267.97"/><text fill="#000000" font-family="sans-serif" font-size="14" lengthAdjust="spacing" textLength="140.7793" x="443.99" y="291.5052">AsistenciaRepository</text></g><!--entity Asistencia--><g class="entity" data-qualified-name="registrarTomaAsistencia.Asistencia" data-source-line="9" id="ent0007"><rect fill="#F2AC4E" height="36.4883" rx="2.5" ry="2.5" style="stroke:#181818;stroke-width:0.5;" width="88.6533" x="470.06" y="365.46"/><text fill="#000000" font-family="sans-serif" font-size="14" lengthAdjust="spacing" textLength="68.6533" x="480.06" y="388.9952">Asistencia</text></g><!--entity AlumnoRepository--><g class="entity" data-qualified-name="registrarTomaAsistencia.AlumnoRepository" data-source-line="10" id="ent0008"><rect fill="#F2AC4E" height="36.4883" rx="2.5" ry="2.5" style="stroke:#181818;stroke-width:0.5;" width="144.8789" x="678.94" y="267.97"/><text fill="#000000" font-family="sans-serif" font-size="14" lengthAdjust="spacing" textLength="124.8789" x="688.94" y="291.5052">AlumnoRepository</text></g><!--entity Alumno--><g class="entity" data-qualified-name="registrarTomaAsistencia.Alumno" data-source-line="11" id="ent0009"><rect fill="#F2AC4E" height="36.4883" rx="2.5" ry="2.5" style="stroke:#181818;stroke-width:0.5;" width="72.7529" x="715.01" y="365.46"/><text fill="#000000" font-family="sans-serif" font-size="14" lengthAdjust="spacing" textLength="52.7529" x="725.01" y="388.9952">Alumno</text></g><!--entity SesionAsistenciaAbierta--><g class="entity" data-qualified-name="SesionAsistenciaAbierta" data-source-line="3" id="ent0002"><rect fill="#CDEBA5" height="36.4883" rx="2.5" ry="2.5" style="stroke:#181818;stroke-width:0.5;" width="194.7676" x="7" y="41"/><text fill="#000000" font-family="sans-serif" font-size="14" lengthAdjust="spacing" textLength="174.7676" x="17" y="64.5352">:Sesion Asistencia Abierta</text></g><!--link SesionAsistenciaAbierta to RegistrarTomaAsistenciaView--><g class="link" data-entity-1="ent0002" data-entity-2="ent0004" data-link-type="dependency" data-source-line="14" id="lnk10"><path d="M202.04,59.24 C272.01,59.24 360.34,59.24 433.04,59.24" fill="none" id="SesionAsistenciaAbierta-to-RegistrarTomaAsistenciaView" style="stroke:#181818;stroke-width:1;"/><polygon fill="#181818" points="439.04,59.24,430.04,55.24,434.04,59.24,430.04,63.24,439.04,59.24" style="stroke:#181818;stroke-width:1;"/><text fill="#000000" font-family="sans-serif" font-size="13" lengthAdjust="spacing" textLength="201.7666" x="220.15" y="52.8084">registrarTomaAsistencia(sesion)</text></g><!--link RegistrarTomaAsistenciaView to AsistenciaController--><g class="link" data-entity-1="ent0004" data-entity-2="ent0005" data-link-type="dependency" data-source-line="16" id="lnk11"><path d="M481.47,77.97 C430.11,91.37 368.38,107.49 368.38,107.49 C368.38,107.49 368.38,124.49 368.38,124.49 C368.38,124.49 469.8338,142.6431 547.6238,156.5631" fill="none" id="RegistrarTomaAsistenciaView-to-AsistenciaController" style="stroke:#181818;stroke-width:1;"/><polygon fill="#181818" points="553.53,157.62,545.3753,152.0972,548.6082,156.7393,543.9661,159.9721,553.53,157.62" style="stroke:#181818;stroke-width:1;"/><text fill="#000000" font-family="sans-serif" font-size="13" lengthAdjust="spacing" textLength="317.897" x="369.38" y="121.0584">cargarAlumnosDeSesion(sesionId) : List&lt;Alumno&gt;</text></g><!--link RegistrarTomaAsistenciaView to AsistenciaController--><g class="link" data-entity-1="ent0004" data-entity-2="ent0005" data-link-type="dependency" data-source-line="22" id="lnk14"><path d="M602.66,77.97 C642.96,91.37 691.38,107.49 691.38,107.49 C691.38,107.49 691.38,124.49 691.38,124.49 C691.38,124.49 675.8144,136.9608 659.0344,150.3908" fill="none" id="RegistrarTomaAsistenciaView-to-AsistenciaController-1" style="stroke:#181818;stroke-width:1;"/><polygon fill="#181818" points="654.35,154.14,663.8761,151.6391,658.2537,151.0157,658.8771,145.3933,654.35,154.14" style="stroke:#181818;stroke-width:1;"/><text fill="#000000" font-family="sans-serif" font-size="13" lengthAdjust="spacing" textLength="456.2568" x="692.38" y="121.0584">registrarAsistencia(sesionId, alumnoId, estado, justificacion) : Asistencia</text></g><!--link AsistenciaController to AlumnoRepository--><g class="link" data-entity-1="ent0005" data-entity-2="ent0008" data-link-type="dependency" data-source-line="18" id="lnk12"><path d="M662.17,191.32 C684.92,204.75 712.38,220.97 712.38,220.97 C712.38,220.97 726.0657,243.5115 737.6157,262.5315" fill="none" id="AsistenciaController-to-AlumnoRepository" style="stroke:#181818;stroke-width:1;"/><polygon fill="#181818" points="740.73,267.66,739.4775,257.8911,738.1348,263.3863,732.6396,262.0435,740.73,267.66" style="stroke:#181818;stroke-width:1;"/><text fill="#000000" font-family="sans-serif" font-size="13" lengthAdjust="spacing" textLength="316.5005" x="722.81" y="234.5384">obtenerPorAsignatura(asignatura) : List&lt;Alumno&gt;</text></g><!--link AlumnoRepository to Alumno--><g class="link" data-entity-1="ent0008" data-entity-2="ent0009" data-link-type="association" data-source-line="20" id="lnk13"><path d="M751.38,304.73 C751.38,321.85 751.38,347.79 751.38,364.98" fill="none" id="AlumnoRepository-Alumno" style="stroke:#181818;stroke-width:1;"/></g><!--link AsistenciaController to AsistenciaRepository--><g class="link" data-entity-1="ent0005" data-entity-2="ent0006" data-link-type="dependency" data-source-line="24" id="lnk15"><path d="M586.98,191.46 C552.65,204.86 511.38,220.97 511.38,220.97 C511.38,220.97 511.38,237.97 511.38,237.97 C511.38,237.97 512.0269,248.2022 512.8869,261.6422" fill="none" id="AsistenciaController-to-AsistenciaRepository" style="stroke:#181818;stroke-width:1;"/><polygon fill="#181818" points="513.27,267.63,516.6871,258.3929,512.9507,262.6402,508.7034,258.9038,513.27,267.63" style="stroke:#181818;stroke-width:1;"/><text fill="#000000" font-family="sans-serif" font-size="13" lengthAdjust="spacing" textLength="195.8569" x="512.38" y="234.5384">guardar(asistencia) : Asistencia</text></g><!--link AsistenciaRepository to Asistencia--><g class="link" data-entity-1="ent0006" data-entity-2="ent0007" data-link-type="association" data-source-line="26" id="lnk16"><path d="M514.38,304.73 C514.38,321.85 514.38,347.79 514.38,364.98" fill="none" id="AsistenciaRepository-Asistencia" style="stroke:#181818;stroke-width:1;"/></g><?plantuml-src XP9FQy904CNl-oc6zA9WBbAbXYAa_W6XXs9BxvDa6hR6tJ2xeKZfT-_6s1fZ4lUqoxptPkR7cfrKEJBk8PEAx24do7LsA1z2CCKMLPeHt2sMgwTm0bxmIaPg1Q6HnfAA9K8OIMAB7g21gdekdcf2v1ZlC2LWIbsDaT_q7ciXpkjrr0P33xu5k5ERPpgUhTOpsBPRtYLzDHtH94gc3xN15rfPrbb6t9Ikn-7YVbMJRYdNHbhDXvlIBa5Mx9M-dNEKYHyXEaY2p_wyRsq8kXWFp35oA4IVtKzSVXiaDsy0CNAAN4rfbbGDUGhU94EdU7REnqem5w8ro2yxD7Z0vGb0Hyv7_ABPPQGARS4umFzhIwjcek__uUnVk7lVEiihZfja17ZCBszaB2Pw19-5iV93nXYNg5r0xMVqq6ZvQHSqqW8vGIu1d8JTsGq4Pyql?></g></svg>