<?plantuml 1.2026.2?><svg xmlns="http://www.w3.org/2000/svg" xmlns:xlink="http://www.w3.org/1999/xlink" contentStyleType="text/css" data-diagram-type="DESCRIPTION" height="424px" preserveAspectRatio="none" style="width:1072px;height:424px;background:#FFFFFF;" version="1.1" viewBox="0 0 1072 424" width="1072px" zoomAndPan="magnify"><defs/><g><!--cluster exportarHistorialAsistencias--><g class="cluster" data-qualified-name="exportarHistorialAsistencias" data-source-line="5" id="ent0003"><path d="M274.77,6 L491.0952,6 A3.75,3.75 0 0 1 493.5952,8.5 L500.5952,28.4883 L1062.77,28.4883 A2.5,2.5 0 0 1 1065.27,30.9883 L1065.27,415.45 A2.5,2.5 0 0 1 1062.77,417.95 L274.77,417.95 A2.5,2.5 0 0 1 272.27,415.45 L272.27,8.5 A2.5,2.5 0 0 1 274.77,6" fill="none" style="stroke:#000000;stroke-width:1.5;"/><line style="stroke:#000000;stroke-width:1.5;" x1="272.27" x2="500.5952" y1="28.4883" y2="28.4883"/><text fill="#000000" font-family="sans-serif" font-size="14" font-weight="bold" lengthAdjust="spacing" textLength="215.3252" x="276.27" y="21.5352">exportarHistorialAsistencias()</text></g><!--entity ExportarHistorialView--><g class="entity" data-qualified-name="exportarHistorialAsistencias.ExportarHistorialView" data-source-line="6" id="ent0004"><rect fill="#629EF9" height="36.4883" rx="2.5" ry="2.5" style="stroke:#181818;stroke-width:0.5;" width="166.6582" x="382.94" y="41"/><text fill="#000000" font-family="sans-serif" font-size="14" lengthAdjust="spacing" textLength="146.6582" x="392.94" y="64.5352">ExportarHistorialView</text></g><!--entity AsistenciaController--><g class="entity" data-qualified-name="exportarHistorialAsistencias.AsistenciaController" data-source-line="7" id="ent0005"><rect fill="#B5BD68" height="36.4883" rx="2.5" ry="2.5" style="stroke:#181818;stroke-width:0.5;" width="156.8145" x="387.86" y="154.49"/><text fill="#000000" font-family="sans-serif" font-size="14" lengthAdjust="spacing" textLength="136.8145" x="397.86" y="178.0252">AsistenciaController</text></g><!--entity GeneradorArchivoAsistencias--><g class="entity" data-qualified-name="exportarHistorialAsistencias.GeneradorArchivoAsistencias" data-source-line="8" id="ent0006"><rect fill="#B5BD68" height="36.4883" rx="2.5" ry="2.5" style="stroke:#181818;stroke-width:0.5;" width="217.9346" x="288.3" y="267.97"/><text fill="#000000" font-family="sans-serif" font-size="14" lengthAdjust="spacing" textLength="197.9346" x="298.3" y="291.5052">GeneradorArchivoAsistencias</text></g><!--entity AsistenciaRepository--><g class="entity" data-qualified-name="exportarHistorialAsistencias.AsistenciaRepository" data-source-line="9" id="ent0007"><rect fill="#F2AC4E" height="36.4883" rx="2.5" ry="2.5" style="stroke:#181818;stroke-width:0.5;" width="160.7793" x="540.88" y="267.97"/><text fill="#000000" font-family="sans-serif" font-size="14" lengthAdjust="spacing" textLength="140.7793" x="550.88" y="291.5052">AsistenciaRepository</text></g><!--entity Asistencia--><g class="entity" data-qualified-name="exportarHistorialAsistencias.Asistencia" data-source-line="10" id="ent0008"><rect fill="#F2AC4E" height="36.4883" rx="2.5" ry="2.5" style="stroke:#181818;stroke-width:0.5;" width="88.6533" x="576.94" y="365.46"/><text fill="#000000" font-family="sans-serif" font-size="14" lengthAdjust="spacing" textLength="68.6533" x="586.94" y="388.9952">Asistencia</text></g><!--entity AsistenciasAbierto--><g class="entity" data-qualified-name="AsistenciasAbierto" data-source-line="3" id="ent0002"><rect fill="#CDEBA5" height="36.4883" rx="2.5" ry="2.5" style="stroke:#181818;stroke-width:0.5;" width="154.5313" x="7" y="41"/><text fill="#000000" font-family="sans-serif" font-size="14" lengthAdjust="spacing" textLength="134.5313" x="17" y="64.5352">:Asistencias Abierto</text></g><!--link AsistenciasAbierto to ExportarHistorialView--><g class="link" data-entity-1="ent0002" data-entity-2="ent0004" data-link-type="dependency" data-source-line="13" id="lnk9"><path d="M162.03,59.24 C226.16,59.24 310.96,59.24 376.65,59.24" fill="none" id="AsistenciasAbierto-to-ExportarHistorialView" style="stroke:#181818;stroke-width:1;"/><polygon fill="#181818" points="382.65,59.24,373.65,55.24,377.65,59.24,373.65,63.24,382.65,59.24" style="stroke:#181818;stroke-width:1;"/><text fill="#000000" font-family="sans-serif" font-size="13" lengthAdjust="spacing" textLength="185.6943" x="179.73" y="52.8084">exportarHistorialAsistencias()</text></g><!--link ExportarHistorialView to AsistenciaController--><g class="link" data-entity-1="ent0004" data-entity-2="ent0005" data-link-type="dependency" data-source-line="15" id="lnk10"><path d="M466.27,77.66 C466.27,98.48 466.27,127.13 466.27,148.06" fill="none" id="ExportarHistorialView-to-AsistenciaController" style="stroke:#181818;stroke-width:1;"/><polygon fill="#181818" points="466.27,154.06,470.27,145.06,466.27,149.06,462.27,145.06,466.27,154.06" style="stroke:#181818;stroke-width:1;"/><text fill="#000000" font-family="sans-serif" font-size="13" lengthAdjust="spacing" textLength="384.2427" x="467.27" y="121.0584">exportar(asignatura, fechaInicio, fechaFin, formato) : Archivo</text></g><!--link AsistenciaController to AsistenciaRepository--><g class="link" data-entity-1="ent0005" data-entity-2="ent0007" data-link-type="dependency" data-source-line="17" id="lnk11"><path d="M504.91,191.46 C534.14,204.86 569.27,220.97 569.27,220.97 C569.27,220.97 587.8844,243.9769 603.2844,262.9969" fill="none" id="AsistenciaController-to-AsistenciaRepository" style="stroke:#181818;stroke-width:1;"/><polygon fill="#181818" points="607.06,267.66,604.5053,258.1482,603.9137,263.7741,598.2878,263.1824,607.06,267.66" style="stroke:#181818;stroke-width:1;"/><text fill="#000000" font-family="sans-serif" font-size="13" lengthAdjust="spacing" textLength="439.7656" x="582.83" y="234.5384">obtenerPorRango(asignatura, fechaInicio, fechaFin) : List&lt;Asistencia&gt;</text></g><!--link AsistenciaRepository to Asistencia--><g class="link" data-entity-1="ent0007" data-entity-2="ent0008" data-link-type="association" data-source-line="19" id="lnk12"><path d="M621.27,304.73 C621.27,321.85 621.27,347.79 621.27,364.98" fill="none" id="AsistenciaRepository-Asistencia" style="stroke:#181818;stroke-width:1;"/></g><!--link AsistenciaController to GeneradorArchivoAsistencias--><g class="link" data-entity-1="ent0005" data-entity-2="ent0006" data-link-type="dependency" data-source-line="21" id="lnk13"><path d="M411.49,191.46 C370.06,204.86 320.27,220.97 320.27,220.97 C320.27,220.97 320.27,237.97 320.27,237.97 C320.27,237.97 341.5868,251.0506 363.4768,264.4906" fill="none" id="AsistenciaController-to-GeneradorArchivoAsistencias" style="stroke:#181818;stroke-width:1;"/><polygon fill="#181818" points="368.59,267.63,363.0132,259.5122,364.329,265.0139,358.8274,266.3297,368.59,267.63" style="stroke:#181818;stroke-width:1;"/><text fill="#000000" font-family="sans-serif" font-size="13" lengthAdjust="spacing" textLength="243.8198" x="321.27" y="234.5384">generar(asistencias, formato) : Archivo</text></g><?plantuml-src XP5FRy8m3CNl-HHMTm5flQ211fgGEjPkatQOEEpkjbw9A77bPd_GjE--57LgW09H3adw_FpyQxtMfaB13PJQaDrM11MNs-QYb51cqHGbmTNY8RwFnX3CebhNbaociOOerIIM0sZEtNlxh5I5sHeB0lgkM2pAavEmQ2nz4xU3SuB1C80V1MvvSIQZQPnC8JwiUzFqTQXDnsa-kVK2BjXOuR8aEI5z94E2EKiasKf_ifVci28PHOkRs3DVKiMrTccs5wNgLwbZR11AEE-V3BerW_FCbEft27DdteUYptg0jIuCsW_1QtYdR8NFHcUQsqkYZJknRD3oq9MrjFoXFFzmht672VQcujGsy5zPbWuRNqxGD7vnhdUTzznFu3KAGn_-wPHdVd-RijWfTdp-l_II-0C0?></g></svg>