<svg xmlns="http://www.w3.org/2000/svg" xmlns:xlink="http://www.w3.org/1999/xlink" contentStyleType="text/css" data-diagram-type="DESCRIPTION" height="432px" preserveAspectRatio="none" style="width:1446px;height:432px;background:#FFFFFF;" version="1.1" viewBox="0 0 1446 432" width="1446px" zoomAndPan="magnify"><?plantuml 1.2026.5?><defs/><g><!--cluster asignarAsignaturasAProfesor--><g class="cluster" data-qualified-name="asignarAsignaturasAProfesor" data-source-line="5" id="ent0002"><path d="M193.59,6 L416.9357,6 A3.75,3.75 0 0 1 419.4357,8.5 L426.4357,28.4883 L1428.59,28.4883 A2.5,2.5 0 0 1 1431.09,30.9883 L1431.09,415.45 A2.5,2.5 0 0 1 1428.59,417.95 L193.59,417.95 A2.5,2.5 0 0 1 191.09,415.45 L191.09,8.5 A2.5,2.5 0 0 1 193.59,6" fill="none" style="stroke:#000000;stroke-width:1.5;"/><line style="stroke:#000000;stroke-width:1.5;" x1="191.09" x2="426.4357" y1="28.4883" y2="28.4883"/><text fill="#000000" font-family="sans-serif" font-size="14" font-weight="700" lengthAdjust="spacing" textLength="222.3457" x="195.09" y="21.5352">asignarAsignaturasAProfesor()</text></g><!--entity AsignarAsignaturasProfesorView--><g class="entity" data-qualified-name="asignarAsignaturasAProfesor.AsignarAsignaturasProfesorView" data-source-line="6" id="ent0003"><rect fill="#629EF9" height="36.4883" rx="2.5" ry="2.5" style="stroke:#181818;stroke-width:0.5;" width="240.5" x="473.84" y="41"/><text fill="#000000" font-family="sans-serif" font-size="14" lengthAdjust="spacing" textLength="220.5" x="483.84" y="64.5352">AsignarAsignaturasProfesorView</text></g><!--entity UsuarioController--><g class="entity" data-qualified-name="asignarAsignaturasAProfesor.UsuarioController" data-source-line="7" id="ent0004"><rect fill="#B5BD68" height="36.4883" rx="2.5" ry="2.5" style="stroke:#181818;stroke-width:0.5;" width="139.793" x="524.19" y="154.49"/><text fill="#000000" font-family="sans-serif" font-size="14" lengthAdjust="spacing" textLength="119.793" x="534.19" y="178.0252">UsuarioController</text></g><!--entity AsignaturaController--><g class="entity" data-qualified-name="asignarAsignaturasAProfesor.AsignaturaController" data-source-line="8" id="ent0005"><rect fill="#B5BD68" height="36.4883" rx="2.5" ry="2.5" style="stroke:#181818;stroke-width:0.5;" width="161.5381" x="1172.32" y="154.49"/><text fill="#000000" font-family="sans-serif" font-size="14" lengthAdjust="spacing" textLength="141.5381" x="1182.32" y="178.0252">AsignaturaController</text></g><!--entity UsuarioRepository--><g class="entity" data-qualified-name="asignarAsignaturasAProfesor.UsuarioRepository" data-source-line="9" id="ent0006"><rect fill="#F2AC4E" height="36.4883" rx="2.5" ry="2.5" style="stroke:#181818;stroke-width:0.5;" width="143.7578" x="522.21" y="267.97"/><text fill="#000000" font-family="sans-serif" font-size="14" lengthAdjust="spacing" textLength="123.7578" x="532.21" y="291.5052">UsuarioRepository</text></g><!--entity AsignaturaRepository--><g class="entity" data-qualified-name="asignarAsignaturasAProfesor.AsignaturaRepository" data-source-line="10" id="ent0007"><rect fill="#F2AC4E" height="36.4883" rx="2.5" ry="2.5" style="stroke:#181818;stroke-width:0.5;" width="165.5029" x="1170.34" y="267.97"/><text fill="#000000" font-family="sans-serif" font-size="14" lengthAdjust="spacing" textLength="145.5029" x="1180.34" y="291.5052">AsignaturaRepository</text></g><!--entity AsignaturaImpartida--><g class="entity" data-qualified-name="asignarAsignaturasAProfesor.AsignaturaImpartida" data-source-line="11" id="ent0008"><rect fill="#F2AC4E" height="36.4883" rx="2.5" ry="2.5" style="stroke:#181818;stroke-width:0.5;" width="158.5781" x="514.8" y="365.46"/><text fill="#000000" font-family="sans-serif" font-size="14" lengthAdjust="spacing" textLength="138.5781" x="524.8" y="388.9952">AsignaturaImpartida</text></g><!--entity AsignacionesAbierto--><g class="entity" data-qualified-name="AsignacionesAbierto" data-source-line="3" id="ent0001"><rect fill="#CDEBA5" height="36.4883" rx="2.5" ry="2.5" style="stroke:#181818;stroke-width:0.5;" width="168.1758" x="7" y="41"/><text fill="#000000" font-family="sans-serif" font-size="14" lengthAdjust="spacing" textLength="148.1758" x="17" y="64.5352">:Asignaciones Abierto</text></g><!--link AsignacionesAbierto to AsignarAsignaturasProfesorView--><g class="link" data-entity-1="ent0001" data-entity-2="ent0003" data-link-type="dependency" data-source-line="14" id="lnk9"><path d="M175.56,59.24 C257.13,59.24 376.48,59.24 468.46,59.24" fill="none" id="AsignacionesAbierto-to-AsignarAsignaturasProfesorView" style="stroke:#181818;stroke-width:1;"/><polygon fill="#181818" points="473.46,59.24,464.46,55.24,468.46,59.24,464.46,63.24,473.46,59.24" style="stroke:#181818;stroke-width:1;stroke-linejoin:miter;stroke-miterlimit:10;"/><text fill="#000000" font-family="sans-serif" font-size="13" lengthAdjust="spacing" textLength="190.8677" x="229.51" y="52.8084">asignarAsignaturasAProfesor()</text></g><!--link AsignarAsignaturasProfesorView to AsignaturaController--><g class="link" data-entity-1="ent0003" data-entity-2="ent0005" data-link-type="dependency" data-source-line="16" id="lnk10"><path d="M714.5,69.92 C886.52,83.74 1182.09,107.49 1182.09,107.49 C1182.09,107.49 1208.9625,131.7952 1229.9825,150.8152" fill="none" id="AsignarAsignaturasProfesorView-to-AsignaturaController" style="stroke:#181818;stroke-width:1;"/><polygon fill="#181818" points="1233.69,154.17,1229.7003,145.1654,1229.9825,150.8152,1224.3327,151.0975,1233.69,154.17" style="stroke:#181818;stroke-width:1;stroke-linejoin:miter;stroke-miterlimit:10;"/><text fill="#000000" font-family="sans-serif" font-size="13" lengthAdjust="spacing" textLength="160.1069" x="1200.25" y="121.0584">listar() : list&lt;Asignatura&gt;</text></g><!--link AsignarAsignaturasProfesorView to UsuarioController--><g class="link" data-entity-1="ent0003" data-entity-2="ent0004" data-link-type="dependency" data-source-line="17" id="lnk11"><path d="M473.41,76.3 C370.49,90 239.09,107.49 239.09,107.49 C239.09,107.49 239.09,124.49 239.09,124.49 C239.09,124.49 415.5337,147.9703 518.9937,161.7403" fill="none" id="AsignarAsignaturasProfesorView-to-UsuarioController" style="stroke:#181818;stroke-width:1;"/><polygon fill="#181818" points="523.95,162.4,515.5564,157.2476,518.9937,161.7403,514.5009,165.1777,523.95,162.4" style="stroke:#181818;stroke-width:1;stroke-linejoin:miter;stroke-miterlimit:10;"/><text fill="#000000" font-family="sans-serif" font-size="13" lengthAdjust="spacing" textLength="310.0449" x="240.09" y="121.0584">obtenerImpartidas(profesorId) : list&lt;Asignatura&gt;</text></g><!--link AsignarAsignaturasProfesorView to UsuarioController--><g class="link" data-entity-1="ent0003" data-entity-2="ent0004" data-link-type="dependency" data-source-line="18" id="lnk12"><path d="M592.97,77.83 C592.12,91.27 591.09,107.49 591.09,107.49 C591.09,107.49 591.09,124.49 591.09,124.49 C591.09,124.49 591.8042,135.72 592.6542,149.15" fill="none" id="AsignarAsignaturasProfesorView-to-UsuarioController-1" style="stroke:#181818;stroke-width:1;"/><polygon fill="#181818" points="592.97,154.14,596.3935,144.9053,592.6542,149.15,588.4095,145.4106,592.97,154.14" style="stroke:#181818;stroke-width:1;stroke-linejoin:miter;stroke-miterlimit:10;"/><text fill="#000000" font-family="sans-serif" font-size="13" lengthAdjust="spacing" textLength="347.5786" x="592.09" y="121.0584">asignar(profesorId, asignaturaId) : AsignaturaImpartida</text></g><!--link AsignarAsignaturasProfesorView to UsuarioController--><g class="link" data-entity-1="ent0003" data-entity-2="ent0004" data-link-type="dependency" data-source-line="19" id="lnk13"><path d="M714.54,76.5 C815.78,90.17 944.09,107.49 944.09,107.49 C944.09,107.49 944.09,124.49 944.09,124.49 C944.09,124.49 771.1651,147.8315 669.0251,161.6115" fill="none" id="AsignarAsignaturasProfesorView-to-UsuarioController-2" style="stroke:#181818;stroke-width:1;"/><polygon fill="#181818" points="664.07,162.28,673.524,165.0408,669.0251,161.6115,672.4544,157.1126,664.07,162.28" style="stroke:#181818;stroke-width:1;stroke-linejoin:miter;stroke-miterlimit:10;"/><text fill="#000000" font-family="sans-serif" font-size="13" lengthAdjust="spacing" textLength="228.6108" x="945.09" y="121.0584">desasignar(profesorId, asignaturaId)</text></g><!--link AsignaturaController to AsignaturaRepository--><g class="link" data-entity-1="ent0005" data-entity-2="ent0007" data-link-type="dependency" data-source-line="21" id="lnk14"><path d="M1253.09,191.15 C1253.09,211.97 1253.09,241.62 1253.09,262.55" fill="none" id="AsignaturaController-to-AsignaturaRepository" style="stroke:#181818;stroke-width:1;"/><polygon fill="#181818" points="1253.09,267.55,1257.09,258.55,1253.09,262.55,1249.09,258.55,1253.09,267.55" style="stroke:#181818;stroke-width:1;stroke-linejoin:miter;stroke-miterlimit:10;"/><text fill="#000000" font-family="sans-serif" font-size="13" lengthAdjust="spacing" textLength="96.3574" x="1254.09" y="234.5384">obtenerTodos()</text></g><!--link UsuarioController to UsuarioRepository--><g class="link" data-entity-1="ent0004" data-entity-2="ent0006" data-link-type="dependency" data-source-line="22" id="lnk15"><path d="M594.09,191.15 C594.09,211.97 594.09,241.62 594.09,262.55" fill="none" id="UsuarioController-to-UsuarioRepository" style="stroke:#181818;stroke-width:1;"/><polygon fill="#181818" points="594.09,267.55,598.09,258.55,594.09,262.55,590.09,258.55,594.09,267.55" style="stroke:#181818;stroke-width:1;stroke-linejoin:miter;stroke-miterlimit:10;"/><text fill="#000000" font-family="sans-serif" font-size="13" lengthAdjust="spacing" textLength="429.0825" x="595.09" y="234.5384">obtenerImpartidas / crearImparte / eliminarImparte (con validaci&#243;n)</text></g><!--link UsuarioRepository to AsignaturaImpartida--><g class="link" data-entity-1="ent0006" data-entity-2="ent0008" data-link-type="association" data-source-line="24" id="lnk16"><path d="M594.09,304.73 C594.09,321.85 594.09,347.79 594.09,364.98" fill="none" id="UsuarioRepository-AsignaturaImpartida" style="stroke:#181818;stroke-width:1;"/></g><?plantuml-src hLB1IiD04BtlLmpnKi4W55ji4I7M5deJKU-RP2nBjpjXTgiKyQly17_CRKoQj4rQHVUqE_FclSbxiNDbCibo0LePTAiC8IEzMZ-4O4oSD3EDS3Aw7Tz4FGY6aLKp8nD51Yr4iK9s583qzrgZg0kHoMGkP-ZxwoP_OzoIfOtkc9xH4gzdWmFzpca0RmBygQtJxmx6aq6XMHyhfvuKlkuEnRquxL_2errALZGYuvYqHcx1LQpjq4at6bsCIyfxpCWgHxngmLMKlu1E5puWfr8fteLeS1b23g-FME4bXd3Gv9AwbI7SY6nRabDhPPtqBCNrgW9U_uHtBnB8pn0eTcYGDnROJbRCJjD_5olygKcS5RKyXbomAPQ_QAPeZygMqUpwlfr8zKT1xMmiVA2Kh8-vUPFQZiqypMd0EIICigYWVw9M2sMgIYSX0ozIUtIYFZ-C_vXzdJ1izFKB?></g></svg>