<?plantuml 1.2026.2?><svg xmlns="http://www.w3.org/2000/svg" xmlns:xlink="http://www.w3.org/1999/xlink" contentStyleType="text/css" data-diagram-type="DESCRIPTION" height="525px" preserveAspectRatio="none" style="width:771px;height:525px;background:#FFFFFF;" version="1.1" viewBox="0 0 771 525" width="771px" zoomAndPan="magnify"><defs/><g><!--cluster editarUsuario--><g class="cluster" data-qualified-name="editarUsuario" data-source-line="7" id="ent0005"><path d="M68.25,106.49 L177.4355,106.49 A3.75,3.75 0 0 1 179.9355,108.99 L186.9355,128.9783 L762.25,128.9783 A2.5,2.5 0 0 1 764.75,131.4783 L764.75,515.94 A2.5,2.5 0 0 1 762.25,518.44 L68.25,518.44 A2.5,2.5 0 0 1 65.75,515.94 L65.75,108.99 A2.5,2.5 0 0 1 68.25,106.49" fill="none" style="stroke:#000000;stroke-width:1.5;"/><line style="stroke:#000000;stroke-width:1.5;" x1="65.75" x2="186.9355" y1="128.9783" y2="128.9783"/><text fill="#000000" font-family="sans-serif" font-size="14" font-weight="bold" lengthAdjust="spacing" textLength="108.1855" x="69.75" y="122.0252">editarUsuario()</text></g><!--entity EditarUsuarioView--><g class="entity" data-qualified-name="editarUsuario.EditarUsuarioView" data-source-line="8" id="ent0006"><rect fill="#629EF9" height="36.4883" rx="2.5" ry="2.5" style="stroke:#181818;stroke-width:0.5;" width="142.5615" x="227.47" y="141.49"/><text fill="#000000" font-family="sans-serif" font-size="14" lengthAdjust="spacing" textLength="122.5615" x="237.47" y="165.0252">EditarUsuarioView</text></g><!--entity UsuarioController--><g class="entity" data-qualified-name="editarUsuario.UsuarioController" data-source-line="9" id="ent0007"><rect fill="#B5BD68" height="36.4883" rx="2.5" ry="2.5" style="stroke:#181818;stroke-width:0.5;" width="139.793" x="188.86" y="254.98"/><text fill="#000000" font-family="sans-serif" font-size="14" lengthAdjust="spacing" textLength="119.793" x="198.86" y="278.5152">UsuarioController</text></g><!--entity UsuarioRepository--><g class="entity" data-qualified-name="editarUsuario.UsuarioRepository" data-source-line="10" id="ent0008"><rect fill="#F2AC4E" height="36.4883" rx="2.5" ry="2.5" style="stroke:#181818;stroke-width:0.5;" width="143.7578" x="196.88" y="368.46"/><text fill="#000000" font-family="sans-serif" font-size="14" lengthAdjust="spacing" textLength="123.7578" x="206.88" y="391.9952">UsuarioRepository</text></g><!--entity Usuario--><g class="entity" data-qualified-name="editarUsuario.Usuario" data-source-line="11" id="ent0009"><rect fill="#F2AC4E" height="36.4883" rx="2.5" ry="2.5" style="stroke:#181818;stroke-width:0.5;" width="71.6318" x="232.94" y="465.95"/><text fill="#000000" font-family="sans-serif" font-size="14" lengthAdjust="spacing" textLength="51.6318" x="242.94" y="489.4852">Usuario</text></g><!--entity UsuariosAbierto--><g class="entity" data-qualified-name="UsuariosAbierto" data-source-line="3" id="ent0002"><rect fill="#CDEBA5" height="36.4883" rx="2.5" ry="2.5" style="stroke:#181818;stroke-width:0.5;" width="137.5098" x="7" y="7"/><text fill="#000000" font-family="sans-serif" font-size="14" lengthAdjust="spacing" textLength="117.5098" x="17" y="30.5352">:Usuarios Abierto</text></g><!--entity ConsultarUsuario--><g class="entity" data-qualified-name="ConsultarUsuario" data-source-line="4" id="ent0003"><rect fill="#CDEBA5" height="36.4883" rx="2.5" ry="2.5" style="stroke:#181818;stroke-width:0.5;" width="237.5879" x="179.96" y="7"/><text fill="#000000" font-family="sans-serif" font-size="14" lengthAdjust="spacing" textLength="217.5879" x="189.96" y="30.5352">:Collaboration ConsultarUsuario</text></g><!--entity CrearUsuario--><g class="entity" data-qualified-name="CrearUsuario" data-source-line="5" id="ent0004"><rect fill="#CDEBA5" height="36.4883" rx="2.5" ry="2.5" style="stroke:#181818;stroke-width:0.5;" width="208.7197" x="452.4" y="7"/><text fill="#000000" font-family="sans-serif" font-size="14" lengthAdjust="spacing" textLength="188.7197" x="462.4" y="30.5352">:Collaboration CrearUsuario</text></g><!--link UsuariosAbierto to EditarUsuarioView--><g class="link" data-entity-1="ent0002" data-entity-2="ent0006" data-link-type="dependency" data-source-line="14" id="lnk10"><path d="M92.7,43.8 C111.05,62.82 137.75,90.49 137.75,90.49 C137.75,90.49 204.0658,118.5983 251.7658,138.8183" fill="none" id="UsuariosAbierto-to-EditarUsuarioView" style="stroke:#181818;stroke-width:1;"/><polygon fill="#181818" points="257.29,141.16,250.5649,133.9647,252.6865,139.2086,247.4426,141.3302,257.29,141.16" style="stroke:#181818;stroke-width:1;"/><text fill="#000000" font-family="sans-serif" font-size="13" lengthAdjust="spacing" textLength="151.874" x="138.75" y="87.0584">editarUsuario(usuarioId)</text></g><!--link ConsultarUsuario to EditarUsuarioView--><g class="link" data-entity-1="ent0003" data-entity-2="ent0006" data-link-type="dependency" data-source-line="15" id="lnk11"><path d="M298.75,43.84 C298.75,69.18 298.75,109.68 298.75,135.06" fill="none" id="ConsultarUsuario-to-EditarUsuarioView" style="stroke:#181818;stroke-width:1;"/><polygon fill="#181818" points="298.75,141.06,302.75,132.06,298.75,136.06,294.75,132.06,298.75,141.06" style="stroke:#181818;stroke-width:1;"/><text fill="#000000" font-family="sans-serif" font-size="13" lengthAdjust="spacing" textLength="151.874" x="299.75" y="87.0584">editarUsuario(usuarioId)</text></g><!--link CrearUsuario to EditarUsuarioView--><g class="link" data-entity-1="ent0004" data-entity-2="ent0006" data-link-type="dependency" data-source-line="16" id="lnk12"><path d="M529.99,43.97 C501.28,62.98 459.75,90.49 459.75,90.49 C459.75,90.49 393.4442,118.5983 345.7442,138.8183" fill="none" id="CrearUsuario-to-EditarUsuarioView" style="stroke:#181818;stroke-width:1;"/><polygon fill="#181818" points="340.22,141.16,350.0674,141.3302,344.8235,139.2086,346.9451,133.9647,340.22,141.16" style="stroke:#181818;stroke-width:1;"/><text fill="#000000" font-family="sans-serif" font-size="13" lengthAdjust="spacing" textLength="179.5752" x="484.2" y="87.0584">editarUsuario(usuarioNuevo)</text></g><!--link EditarUsuarioView to UsuarioController--><g class="link" data-entity-1="ent0006" data-entity-2="ent0007" data-link-type="dependency" data-source-line="18" id="lnk13"><path d="M229.34,178.46 C176.85,191.86 113.75,207.98 113.75,207.98 C113.75,207.98 113.75,224.98 113.75,224.98 C113.75,224.98 157.505,239.2318 198.645,252.6318" fill="none" id="EditarUsuarioView-to-UsuarioController" style="stroke:#181818;stroke-width:1;"/><polygon fill="#181818" points="204.35,254.49,197.0313,247.8993,199.5958,252.9415,194.5537,255.506,204.35,254.49" style="stroke:#181818;stroke-width:1;"/><text fill="#000000" font-family="sans-serif" font-size="13" lengthAdjust="spacing" textLength="287.6948" x="114.75" y="221.5484">cargarUsuarioParaEdicion(usuarioId) : Usuario</text></g><!--link EditarUsuarioView to UsuarioController--><g class="link" data-entity-1="ent0006" data-entity-2="ent0007" data-link-type="dependency" data-source-line="22" id="lnk15"><path d="M339.28,178.46 C369.92,191.86 406.75,207.98 406.75,207.98 C406.75,207.98 406.75,224.98 406.75,224.98 C406.75,224.98 361.996,239.2659 320.006,252.6659" fill="none" id="EditarUsuarioView-to-UsuarioController-1" style="stroke:#181818;stroke-width:1;"/><polygon fill="#181818" points="314.29,254.49,324.0801,255.5645,319.0533,252.9699,321.6479,247.9432,314.29,254.49" style="stroke:#181818;stroke-width:1;"/><text fill="#000000" font-family="sans-serif" font-size="13" lengthAdjust="spacing" textLength="301.7422" x="407.75" y="221.5484">modificarCampos(usuarioId, cambios) : boolean</text></g><!--link UsuarioController to UsuarioRepository--><g class="link" data-entity-1="ent0007" data-entity-2="ent0008" data-link-type="dependency" data-source-line="20" id="lnk14"><path d="M211.1,291.95 C175.07,305.35 131.75,321.46 131.75,321.46 C131.75,321.46 131.75,338.46 131.75,338.46 C131.75,338.46 172.8076,352.6245 211.6776,366.0245" fill="none" id="UsuarioController-to-UsuarioRepository" style="stroke:#181818;stroke-width:1;"/><polygon fill="#181818" points="217.35,367.98,210.1451,361.2652,212.623,366.3504,207.5377,368.8284,217.35,367.98" style="stroke:#181818;stroke-width:1;"/><text fill="#000000" font-family="sans-serif" font-size="13" lengthAdjust="spacing" textLength="208.9902" x="132.75" y="335.0284">obtenerPorId(usuarioId) : Usuario</text></g><!--link UsuarioController to UsuarioRepository--><g class="link" data-entity-1="ent0007" data-entity-2="ent0008" data-link-type="dependency" data-source-line="24" id="lnk16"><path d="M291.15,291.81 C315.89,305.24 345.75,321.46 345.75,321.46 C345.75,321.46 345.75,338.46 345.75,338.46 C345.75,338.46 324.4332,351.5406 302.5432,364.9806" fill="none" id="UsuarioController-to-UsuarioRepository-1" style="stroke:#181818;stroke-width:1;"/><polygon fill="#181818" points="297.43,368.12,307.1926,366.8197,301.691,365.5039,303.0068,360.0022,297.43,368.12" style="stroke:#181818;stroke-width:1;"/><text fill="#000000" font-family="sans-serif" font-size="13" lengthAdjust="spacing" textLength="179.6133" x="346.75" y="335.0284">actualizar(usuario) : boolean</text></g><!--link UsuarioRepository to Usuario--><g class="link" data-entity-1="ent0008" data-entity-2="ent0009" data-link-type="association" data-source-line="26" id="lnk17"><path d="M268.75,405.22 C268.75,422.34 268.75,448.28 268.75,465.47" fill="none" id="UsuarioRepository-Usuario" style="stroke:#181818;stroke-width:1;"/></g><?plantuml-src bP9FJy904CNl-oaszGA9lH0Xme44Qqcu66AYzzbs91ksEyrqgq7ZTtTH-eSMKFVIzENDRz_CJh7LDWU6J1fjqUrob3cPtVv72CR4WTqOb5VHVNot6CjWzbIKm9eAkL0QsL4WeP2LUD1E5aPa32XYS9giZCWMfN70Xz9lJ5Vy2uUnmsW9GkIGR6634bFTOFUsu4WP30Fv8QG_hHidescydCguRNpM-DRrgR5A9xVL37mFZdr4vAvlELf4Dt7bUyIS2ks8TvTzubE8pdXb6CxxiMHrPiVT3igVxoeTYkw0BvCkWLfJ_YNEUT13YQyq5A9V6wOUsHje1Kk0DxL_xPVN0nA_3As0tbNlG9yJDlJc6Ugif1nQv3NnAZs3F97uV61Vc56gNxJF7K7cxskerxwPJFcdtUCLaK6m_qyCYIl1w7VWYdmAroeCmxgNBm00?></g></svg>