<?plantuml 1.2026.2?><svg xmlns="http://www.w3.org/2000/svg" xmlns:xlink="http://www.w3.org/1999/xlink" contentStyleType="text/css" data-diagram-type="SALT" height="169px" preserveAspectRatio="none" style="width:597px;height:169px;background:#FFFFFF;" version="1.1" viewBox="0 0 597 169" width="597px" zoomAndPan="magnify"><defs/><g><text fill="#000000" font-family="sans-serif" font-size="12" font-weight="bold" lengthAdjust="spacing" textLength="297.082" x="6" y="17.6016">Centro de Gesti&#243;n Universitaria &#8212; Iniciar sesi&#243;n</text><line style="stroke:#AAAAAA;stroke-width:1;stroke-dasharray:1,2;" x1="6" x2="342.4727" y1="25.6328" y2="25.6328"/><text fill="#000000" font-family="sans-serif" font-size="12" lengthAdjust="spacing" textLength="44.2559" x="6" y="41.7344">Usuario</text><text fill="#000000" font-family="sans-serif" font-size="12" lengthAdjust="spacing" textLength="3.7969" x="346.4727" y="41.7344">&#160;</text><line style="stroke:#000000;stroke-width:1;" x1="344.4727" x2="587.4727" y1="44.2656" y2="44.2656"/><line style="stroke:#000000;stroke-width:1;" x1="344.4727" x2="344.4727" y1="41.2656" y2="43.2656"/><line style="stroke:#000000;stroke-width:1;" x1="587.4727" x2="587.4727" y1="41.2656" y2="43.2656"/><text fill="#000000" font-family="sans-serif" font-size="12" lengthAdjust="spacing" textLength="66.0234" x="6" y="59.8672">Contrase&#241;a</text><text fill="#000000" font-family="sans-serif" font-size="12" font-weight="bold" lengthAdjust="spacing" textLength="5.5957" x="346.4727" y="59.8672">*</text><text fill="#000000" font-family="sans-serif" font-size="12" lengthAdjust="spacing" textLength="5.7832" x="352.0684" y="59.8672">*</text><line style="stroke:#000000;stroke-width:1;" x1="344.4727" x2="587.4727" y1="62.3984" y2="62.3984"/><line style="stroke:#000000;stroke-width:1;" x1="344.4727" x2="344.4727" y1="59.3984" y2="61.3984"/><line style="stroke:#000000;stroke-width:1;" x1="587.4727" x2="587.4727" y1="59.3984" y2="61.3984"/><line style="stroke:#AAAAAA;stroke-width:1;stroke-dasharray:1,2;" x1="6" x2="342.4727" y1="69.8984" y2="69.8984"/><text fill="#000000" font-family="sans-serif" font-size="12" font-weight="bold" lengthAdjust="spacing" textLength="73.9453" x="8" y="86">Recordarme</text><line style="stroke:#000000;stroke-width:1;" x1="6" x2="6" y1="74.3984" y2="88.5313"/><line style="stroke:#000000;stroke-width:1;" x1="6" x2="84.9453" y1="74.3984" y2="74.3984"/><line style="stroke:#000000;stroke-width:1;" x1="84.9453" x2="84.9453" y1="74.3984" y2="88.5313"/><line style="stroke:#000000;stroke-width:1;" x1="84.9453" x2="94.9453" y1="88.5313" y2="88.5313"/><text fill="#000000" font-family="sans-serif" font-size="12" lengthAdjust="spacing" textLength="132.5449" x="96.9453" y="86">&#191;Olvid&#243; su contrase&#241;a?</text><line style="stroke:#000000;stroke-width:1;" x1="94.9453" x2="94.9453" y1="74.3984" y2="88.5313"/><line style="stroke:#000000;stroke-width:1;" x1="94.9453" x2="232.4902" y1="74.3984" y2="74.3984"/><line style="stroke:#000000;stroke-width:1;" x1="232.4902" x2="232.4902" y1="74.3984" y2="88.5313"/><line style="stroke:#000000;stroke-width:1;" x1="232.4902" x2="242.4902" y1="88.5313" y2="88.5313"/><line style="stroke:#AAAAAA;stroke-width:1;stroke-dasharray:1,2;" x1="6" x2="342.4727" y1="94.0313" y2="94.0313"/><rect fill="#EEEEEE" height="18.1328" rx="5" ry="5" style="stroke:#000000;stroke-width:2.5;" width="244" x="8.5" y="101.0313"/><text fill="#000000" font-family="sans-serif" font-size="12" lengthAdjust="spacing" textLength="76.5293" x="92.2354" y="114.6328">Iniciar sesi&#243;n</text><rect fill="#EEEEEE" height="18.1328" rx="5" ry="5" style="stroke:#000000;stroke-width:2.5;" width="116" x="345.9727" y="101.0313"/><text fill="#000000" font-family="sans-serif" font-size="12" lengthAdjust="spacing" textLength="50.2148" x="378.8652" y="114.6328">Cancelar</text><line style="stroke:#AAAAAA;stroke-width:1;stroke-dasharray:1,2;" x1="6" x2="342.4727" y1="127.1641" y2="127.1641"/><text fill="#000000" font-family="sans-serif" font-size="12" font-style="italic" lengthAdjust="spacing" textLength="335.4727" x="6" y="143.2656">Si las credenciales no son v&#225;lidas, se muestra un mensaje</text><text fill="#000000" font-family="sans-serif" font-size="12" font-style="italic" lengthAdjust="spacing" textLength="206.9766" x="6" y="159.3984">y se vuelve al formulario de acceso.</text><line style="stroke:#000000;stroke-width:1;" x1="5" x2="342.4727" y1="5" y2="5"/><line style="stroke:#000000;stroke-width:1;" x1="342.4727" x2="590.4727" y1="5" y2="5"/><line style="stroke:#000000;stroke-width:1;" x1="5" x2="342.4727" y1="162.9297" y2="162.9297"/><line style="stroke:#000000;stroke-width:1;" x1="342.4727" x2="590.4727" y1="162.9297" y2="162.9297"/><line style="stroke:#000000;stroke-width:1;" x1="5" x2="5" y1="5" y2="21.1328"/><line style="stroke:#000000;stroke-width:1;" x1="590.4727" x2="590.4727" y1="29.1328" y2="47.2656"/><line style="stroke:#000000;stroke-width:1;" x1="590.4727" x2="590.4727" y1="5" y2="21.1328"/><line style="stroke:#000000;stroke-width:1;" x1="5" x2="5" y1="130.6641" y2="146.7969"/><line style="stroke:#000000;stroke-width:1;" x1="5" x2="5" y1="97.5313" y2="122.6641"/><line style="stroke:#000000;stroke-width:1;" x1="590.4727" x2="590.4727" y1="130.6641" y2="146.7969"/><line style="stroke:#000000;stroke-width:1;" x1="5" x2="5" y1="73.3984" y2="89.5313"/><line style="stroke:#000000;stroke-width:1;" x1="590.4727" x2="590.4727" y1="97.5313" y2="122.6641"/><line style="stroke:#000000;stroke-width:1;" x1="5" x2="5" y1="47.2656" y2="65.3984"/><line style="stroke:#000000;stroke-width:1;" x1="590.4727" x2="590.4727" y1="73.3984" y2="89.5313"/><line style="stroke:#000000;stroke-width:1;" x1="5" x2="5" y1="21.1328" y2="29.1328"/><line style="stroke:#000000;stroke-width:1;" x1="590.4727" x2="590.4727" y1="47.2656" y2="65.3984"/><line style="stroke:#000000;stroke-width:1;" x1="590.4727" x2="590.4727" y1="21.1328" y2="29.1328"/><line style="stroke:#000000;stroke-width:1;" x1="5" x2="5" y1="146.7969" y2="162.9297"/><line style="stroke:#000000;stroke-width:1;" x1="5" x2="5" y1="122.6641" y2="130.6641"/><line style="stroke:#000000;stroke-width:1;" x1="590.4727" x2="590.4727" y1="146.7969" y2="162.9297"/><line style="stroke:#000000;stroke-width:1;" x1="5" x2="5" y1="89.5313" y2="97.5313"/><line style="stroke:#000000;stroke-width:1;" x1="590.4727" x2="590.4727" y1="122.6641" y2="130.6641"/><line style="stroke:#000000;stroke-width:1;" x1="5" x2="5" y1="65.3984" y2="73.3984"/><line style="stroke:#000000;stroke-width:1;" x1="590.4727" x2="590.4727" y1="89.5313" y2="97.5313"/><line style="stroke:#000000;stroke-width:1;" x1="5" x2="5" y1="29.1328" y2="47.2656"/><line style="stroke:#000000;stroke-width:1;" x1="590.4727" x2="590.4727" y1="65.3984" y2="73.3984"/><?plantuml-src VP51IiH044NtESLdbYePpS9LY0DPY2j1cPMugEcKq4Ed6xhI0Ha7F8GNy0Wo1n3CJJo9bKWGN4mjUb7ztw_VrIlfA7P2hijsfnbGRggQVHS36iOrIsU7WyVQsvwZMDLQmlVh6swyDPOYX6LKbCjDfNIUwx6MfBA0iLwmmD5QA5077KZ2mmTDnCbKnuXfpcuvfhrZ4s93iUKnW-9VdxUkjyrmW2IOF-ihx6VoOVRwzugv_QWsewOcRzZflRPcjhJLlOKZWOdSi5VUiS07IF3eXtTd6v8pjKIRT7-Ha3nQza9RZMYhNu_dKT0dTZs379v2R9ERrgPx9sDOGZwfzzcAVJDzK7QH5-V5PLxy0000?></g></svg>