<?plantuml 1.2026.2?><svg xmlns="http://www.w3.org/2000/svg" xmlns:xlink="http://www.w3.org/1999/xlink" contentStyleType="text/css" data-diagram-type="DESCRIPTION" height="424px" preserveAspectRatio="none" style="width:878px;height:424px;background:#FFFFFF;" version="1.1" viewBox="0 0 878 424" width="878px" zoomAndPan="magnify"><defs/><g><!--cluster consultarUsuario--><g class="cluster" data-qualified-name="consultarUsuario" data-source-line="6" id="ent0004"><path d="M299.25,6 L433.6533,6 A3.75,3.75 0 0 1 436.1533,8.5 L443.1533,28.4883 L578.25,28.4883 A2.5,2.5 0 0 1 580.75,30.9883 L580.75,415.45 A2.5,2.5 0 0 1 578.25,417.95 L299.25,417.95 A2.5,2.5 0 0 1 296.75,415.45 L296.75,8.5 A2.5,2.5 0 0 1 299.25,6" fill="none" style="stroke:#000000;stroke-width:1.5;"/><line style="stroke:#000000;stroke-width:1.5;" x1="296.75" x2="443.1533" y1="28.4883" y2="28.4883"/><text fill="#000000" font-family="sans-serif" font-size="14" font-weight="bold" lengthAdjust="spacing" textLength="133.4033" x="300.75" y="21.5352">consultarUsuario()</text></g><!--entity ConsultarUsuarioView--><g class="entity" data-qualified-name="consultarUsuario.ConsultarUsuarioView" data-source-line="7" id="ent0005"><rect fill="#629EF9" height="36.4883" rx="2.5" ry="2.5" style="stroke:#181818;stroke-width:0.5;" width="168.9619" x="354.27" y="41"/><text fill="#000000" font-family="sans-serif" font-size="14" lengthAdjust="spacing" textLength="148.9619" x="364.27" y="64.5352">ConsultarUsuarioView</text></g><!--entity UsuarioController--><g class="entity" data-qualified-name="consultarUsuario.UsuarioController" data-source-line="8" id="ent0006"><rect fill="#B5BD68" height="36.4883" rx="2.5" ry="2.5" style="stroke:#181818;stroke-width:0.5;" width="139.793" x="312.86" y="154.49"/><text fill="#000000" font-family="sans-serif" font-size="14" lengthAdjust="spacing" textLength="119.793" x="322.86" y="178.0252">UsuarioController</text></g><!--entity UsuarioRepository--><g class="entity" data-qualified-name="consultarUsuario.UsuarioRepository" data-source-line="9" id="ent0007"><rect fill="#F2AC4E" height="36.4883" rx="2.5" ry="2.5" style="stroke:#181818;stroke-width:0.5;" width="143.7578" x="312.88" y="267.97"/><text fill="#000000" font-family="sans-serif" font-size="14" lengthAdjust="spacing" textLength="123.7578" x="322.88" y="291.5052">UsuarioRepository</text></g><!--entity Usuario--><g class="entity" data-qualified-name="consultarUsuario.Usuario" data-source-line="10" id="ent0008"><rect fill="#F2AC4E" height="36.4883" rx="2.5" ry="2.5" style="stroke:#181818;stroke-width:0.5;" width="71.6318" x="348.94" y="365.46"/><text fill="#000000" font-family="sans-serif" font-size="14" lengthAdjust="spacing" textLength="51.6318" x="358.94" y="388.9952">Usuario</text></g><!--entity UsuariosAbierto--><g class="entity" data-qualified-name="UsuariosAbierto" data-source-line="3" id="ent0002"><rect fill="#CDEBA5" height="36.4883" rx="2.5" ry="2.5" style="stroke:#181818;stroke-width:0.5;" width="137.5098" x="7" y="41"/><text fill="#000000" font-family="sans-serif" font-size="14" lengthAdjust="spacing" textLength="117.5098" x="17" y="64.5352">:Usuarios Abierto</text></g><!--entity EditarUsuario--><g class="entity" data-qualified-name="EditarUsuario" data-source-line="4" id="ent0003"><rect fill="#CDEBA5" height="36.4883" rx="2.5" ry="2.5" style="stroke:#181818;stroke-width:0.5;" width="211.1875" x="597.16" y="154.49"/><text fill="#000000" font-family="sans-serif" font-size="14" lengthAdjust="spacing" textLength="191.1875" x="607.16" y="178.0252">:Collaboration EditarUsuario</text></g><!--link UsuariosAbierto to ConsultarUsuarioView--><g class="link" data-entity-1="ent0002" data-entity-2="ent0005" data-link-type="dependency" data-source-line="13" id="lnk9"><path d="M144.89,59.24 C204.34,59.24 284.3,59.24 347.91,59.24" fill="none" id="UsuariosAbierto-to-ConsultarUsuarioView" style="stroke:#181818;stroke-width:1;"/><polygon fill="#181818" points="353.91,59.24,344.91,55.24,348.91,59.24,344.91,63.24,353.91,59.24" style="stroke:#181818;stroke-width:1;"/><text fill="#000000" font-family="sans-serif" font-size="13" lengthAdjust="spacing" textLength="173.856" x="162.89" y="52.8084">consultarUsuario(usuarioId)</text></g><!--link ConsultarUsuarioView to UsuarioController--><g class="link" data-entity-1="ent0005" data-entity-2="ent0006" data-link-type="dependency" data-source-line="15" id="lnk10"><path d="M430,77.66 C419.55,98.48 404.8325,127.7681 394.3225,148.6981" fill="none" id="ConsultarUsuarioView-to-UsuarioController" style="stroke:#181818;stroke-width:1;"/><polygon fill="#181818" points="391.63,154.06,399.2434,147.8121,393.8738,149.5917,392.0941,144.2221,391.63,154.06" style="stroke:#181818;stroke-width:1;"/><text fill="#000000" font-family="sans-serif" font-size="13" lengthAdjust="spacing" textLength="215.376" x="415.11" y="121.0584">cargarUsuario(usuarioId) : Usuario</text></g><!--link UsuarioController to UsuarioRepository--><g class="link" data-entity-1="ent0006" data-entity-2="ent0007" data-link-type="dependency" data-source-line="17" id="lnk11"><path d="M383.07,191.15 C383.44,211.97 383.9511,240.621 384.3311,261.551" fill="none" id="UsuarioController-to-UsuarioRepository" style="stroke:#181818;stroke-width:1;"/><polygon fill="#181818" points="384.44,267.55,388.276,258.4789,384.3492,262.5508,380.2773,258.6241,384.44,267.55" style="stroke:#181818;stroke-width:1;"/><text fill="#000000" font-family="sans-serif" font-size="13" lengthAdjust="spacing" textLength="208.9902" x="384.87" y="234.5384">obtenerPorId(usuarioId) : Usuario</text></g><!--link UsuarioRepository to Usuario--><g class="link" data-entity-1="ent0007" data-entity-2="ent0008" data-link-type="association" data-source-line="19" id="lnk12"><path d="M384.75,304.73 C384.75,321.85 384.75,347.79 384.75,364.98" fill="none" id="UsuarioRepository-Usuario" style="stroke:#181818;stroke-width:1;"/></g><!--link ConsultarUsuarioView to EditarUsuario--><g class="link" data-entity-1="ent0005" data-entity-2="ent0003" data-link-type="dependency" data-source-line="21" id="lnk13"><path d="M513.8,77.97 C570.55,91.37 638.75,107.49 638.75,107.49 C638.75,107.49 662.0852,130.8995 681.0352,149.9195" fill="none" id="ConsultarUsuarioView-to-EditarUsuario" style="stroke:#181818;stroke-width:1;stroke-dasharray:7,7;"/><polygon fill="#181818" points="685.27,154.17,681.7514,144.9711,681.741,150.628,676.0841,150.6175,685.27,154.17" style="stroke:#181818;stroke-width:1;"/><text fill="#000000" font-family="sans-serif" font-size="13" lengthAdjust="spacing" textLength="215.3442" x="655.22" y="121.0584">&#171;include&#187; editarUsuario(usuarioId)</text></g><?plantuml-src VLB1Yi8m4BtdAuRkHG_n82ghIA5RAtXR5dRlQJEKO4pA96Kfo_xxjcgtjItc4lBclJVpXhYpCeKWSG6j3FggG2Yihfe7OuIP5oRN22_n8NcBrX3iFbqfI5a7KQgGl0r0E6Z1EpOfZAtM8hKalB864gcyeBlkwl60C5Q8x2noXCmQL-gkqb238JYR1_33e3wzpflbDZbk8HvmlnH-3wdfEfMRrpP6hV1KJuiqv1sNKRnAMju75jOfRwbwpcE_Z0qs19nuE3bQuxGRfPwLj_iavunDohYi3KS1hbw2yYcZklI_xR6GTtPTJe3RU3RrQ93UBPtaSyUUblEkEXbXiGWVVm6q_VPxPJ9TIWn3m3wZlvS_?></g></svg>