<?plantuml 1.2026.2?><svg xmlns="http://www.w3.org/2000/svg" xmlns:xlink="http://www.w3.org/1999/xlink" contentStyleType="text/css" data-diagram-type="DESCRIPTION" height="424px" preserveAspectRatio="none" style="width:850px;height:424px;background:#FFFFFF;" version="1.1" viewBox="0 0 850 424" width="850px" zoomAndPan="magnify"><defs/><g><!--cluster importarMatriculas--><g class="cluster" data-qualified-name="importarMatriculas" data-source-line="5" id="ent0003"><path d="M239.66,6 L388.8905,6 A3.75,3.75 0 0 1 391.3905,8.5 L398.3905,28.4883 L840.66,28.4883 A2.5,2.5 0 0 1 843.16,30.9883 L843.16,415.45 A2.5,2.5 0 0 1 840.66,417.95 L239.66,417.95 A2.5,2.5 0 0 1 237.16,415.45 L237.16,8.5 A2.5,2.5 0 0 1 239.66,6" fill="none" style="stroke:#000000;stroke-width:1.5;"/><line style="stroke:#000000;stroke-width:1.5;" x1="237.16" x2="398.3905" y1="28.4883" y2="28.4883"/><text fill="#000000" font-family="sans-serif" font-size="14" font-weight="bold" lengthAdjust="spacing" textLength="148.2305" x="241.16" y="21.5352">importarMatriculas()</text></g><!--entity ImportarMatriculasView--><g class="entity" data-qualified-name="importarMatriculas.ImportarMatriculasView" data-source-line="6" id="ent0004"><rect fill="#629EF9" height="36.4883" rx="2.5" ry="2.5" style="stroke:#181818;stroke-width:0.5;" width="180.3027" x="319.01" y="41"/><text fill="#000000" font-family="sans-serif" font-size="14" lengthAdjust="spacing" textLength="160.3027" x="329.01" y="64.5352">ImportarMatriculasView</text></g><!--entity MatriculaController--><g class="entity" data-qualified-name="importarMatriculas.MatriculaController" data-source-line="7" id="ent0005"><rect fill="#B5BD68" height="36.4883" rx="2.5" ry="2.5" style="stroke:#181818;stroke-width:0.5;" width="150.6006" x="333.86" y="154.49"/><text fill="#000000" font-family="sans-serif" font-size="14" lengthAdjust="spacing" textLength="130.6006" x="343.86" y="178.0252">MatriculaController</text></g><!--entity ValidadorArchivoMatriculas--><g class="entity" data-qualified-name="importarMatriculas.ValidadorArchivoMatriculas" data-source-line="8" id="ent0006"><rect fill="#B5BD68" height="36.4883" rx="2.5" ry="2.5" style="stroke:#181818;stroke-width:0.5;" width="205.377" x="253.47" y="267.97"/><text fill="#000000" font-family="sans-serif" font-size="14" lengthAdjust="spacing" textLength="185.377" x="263.47" y="291.5052">ValidadorArchivoMatriculas</text></g><!--entity MatriculaRepository--><g class="entity" data-qualified-name="importarMatriculas.MatriculaRepository" data-source-line="9" id="ent0007"><rect fill="#F2AC4E" height="36.4883" rx="2.5" ry="2.5" style="stroke:#181818;stroke-width:0.5;" width="154.5654" x="494.88" y="267.97"/><text fill="#000000" font-family="sans-serif" font-size="14" lengthAdjust="spacing" textLength="134.5654" x="504.88" y="291.5052">MatriculaRepository</text></g><!--entity Matricula--><g class="entity" data-qualified-name="importarMatriculas.Matricula" data-source-line="10" id="ent0008"><rect fill="#F2AC4E" height="36.4883" rx="2.5" ry="2.5" style="stroke:#181818;stroke-width:0.5;" width="82.4395" x="530.94" y="365.46"/><text fill="#000000" font-family="sans-serif" font-size="14" lengthAdjust="spacing" textLength="62.4395" x="540.94" y="388.9952">Matricula</text></g><!--entity MatriculasAbierto--><g class="entity" data-qualified-name="MatriculasAbierto" data-source-line="3" id="ent0002"><rect fill="#CDEBA5" height="36.4883" rx="2.5" ry="2.5" style="stroke:#181818;stroke-width:0.5;" width="148.3174" x="7" y="41"/><text fill="#000000" font-family="sans-serif" font-size="14" lengthAdjust="spacing" textLength="128.3174" x="17" y="64.5352">:Matriculas Abierto</text></g><!--link MatriculasAbierto to ImportarMatriculasView--><g class="link" data-entity-1="ent0002" data-entity-2="ent0004" data-link-type="dependency" data-source-line="13" id="lnk9"><path d="M155.59,59.24 C203.97,59.24 261.37,59.24 312.66,59.24" fill="none" id="MatriculasAbierto-to-ImportarMatriculasView" style="stroke:#181818;stroke-width:1;"/><polygon fill="#181818" points="318.66,59.24,309.66,55.24,313.66,59.24,309.66,63.24,318.66,59.24" style="stroke:#181818;stroke-width:1;"/><text fill="#000000" font-family="sans-serif" font-size="13" lengthAdjust="spacing" textLength="127.8037" x="173.66" y="52.8084">importarMatriculas()</text></g><!--link ImportarMatriculasView to MatriculaController--><g class="link" data-entity-1="ent0004" data-entity-2="ent0005" data-link-type="dependency" data-source-line="15" id="lnk10"><path d="M409.16,77.66 C409.16,98.48 409.16,127.13 409.16,148.06" fill="none" id="ImportarMatriculasView-to-MatriculaController" style="stroke:#181818;stroke-width:1;"/><polygon fill="#181818" points="409.16,154.06,413.16,145.06,409.16,149.06,405.16,145.06,409.16,154.06" style="stroke:#181818;stroke-width:1;"/><text fill="#000000" font-family="sans-serif" font-size="13" lengthAdjust="spacing" textLength="253.0176" x="410.16" y="121.0584">importar(archivos) : InformeImportacion</text></g><!--link MatriculaController to ValidadorArchivoMatriculas--><g class="link" data-entity-1="ent0005" data-entity-2="ent0006" data-link-type="dependency" data-source-line="17" id="lnk11"><path d="M362.63,191.46 C327.45,204.86 285.16,220.97 285.16,220.97 C285.16,220.97 285.16,237.97 285.16,237.97 C285.16,237.97 304.5354,250.8652 324.7254,264.3052" fill="none" id="MatriculaController-to-ValidadorArchivoMatriculas" style="stroke:#181818;stroke-width:1;"/><polygon fill="#181818" points="329.72,267.63,324.4446,259.3131,325.5578,264.8594,320.0116,265.9726,329.72,267.63" style="stroke:#181818;stroke-width:1;"/><text fill="#000000" font-family="sans-serif" font-size="13" lengthAdjust="spacing" textLength="242.3726" x="286.16" y="234.5384">validar(archivos) : ResultadoValidacion</text></g><!--link MatriculaController to MatriculaRepository--><g class="link" data-entity-1="ent0005" data-entity-2="ent0007" data-link-type="dependency" data-source-line="19" id="lnk12"><path d="M455.68,191.46 C490.87,204.86 533.16,220.97 533.16,220.97 C533.16,220.97 546.8357,243.5115 558.3857,262.5315" fill="none" id="MatriculaController-to-MatriculaRepository" style="stroke:#181818;stroke-width:1;"/><polygon fill="#181818" points="561.5,267.66,560.2475,257.8911,558.9048,263.3863,553.4096,262.0435,561.5,267.66" style="stroke:#181818;stroke-width:1;"/><text fill="#000000" font-family="sans-serif" font-size="13" lengthAdjust="spacing" textLength="253.8428" x="543.58" y="234.5384">guardarLote(registros) : List&lt;Matricula&gt;</text></g><!--link MatriculaRepository to Matricula--><g class="link" data-entity-1="ent0007" data-entity-2="ent0008" data-link-type="association" data-source-line="21" id="lnk13"><path d="M572.16,304.73 C572.16,321.85 572.16,347.79 572.16,364.98" fill="none" id="MatriculaRepository-Matricula" style="stroke:#181818;stroke-width:1;"/></g><?plantuml-src XL4zRuCm4DtzAqvq8GDBr4GDgY9HIgH8wP8Xku4hjM9iT9XKgEf_hvlGuWP8Jnxif_TnTwwFGbMSU0bIA3HjXL1fsNu_62FC35U5HBYBdvEdQ05U-C8DYQoHl8Oe5KX6Us3lFToXZ5KyE_82GPIL9iF9KThZ3M5_vi470rjEy7A-IZOhs0xO1u7lr-HqaURBXxwPM2j3Maga2UQ1Iv7pN5D4sPiuwTx-Mh2PH_5zqblliTArC9hQ_vZiax71UY2WO3qn5VnK26DBOcn25kJMScJsePtFB-FMCmjkrQkc4ZlJJ6ZbzEku1DPzUbzTmkbC-1kmnxgHngekwji98mi6fq8e6ausOQSD-eI5gAtw7BEpryTV-Tg9SAo2mFcOBm00?></g></svg>