<?plantuml 1.2026.2?><svg xmlns="http://www.w3.org/2000/svg" xmlns:xlink="http://www.w3.org/1999/xlink" contentStyleType="text/css" data-diagram-type="DESCRIPTION" height="424px" preserveAspectRatio="none" style="width:1179px;height:424px;background:#FFFFFF;" version="1.1" viewBox="0 0 1179 424" width="1179px" zoomAndPan="magnify"><defs/><g><!--cluster consultarSolicitudDispensaSecretaria--><g class="cluster" data-qualified-name="consultarSolicitudDispensaSecretaria" data-source-line="6" id="ent0004"><path d="M409.36,6 L703.1022,6 A3.75,3.75 0 0 1 705.6022,8.5 L712.6022,28.4883 L764.36,28.4883 A2.5,2.5 0 0 1 766.86,30.9883 L766.86,415.45 A2.5,2.5 0 0 1 764.36,417.95 L409.36,417.95 A2.5,2.5 0 0 1 406.86,415.45 L406.86,8.5 A2.5,2.5 0 0 1 409.36,6" fill="none" style="stroke:#000000;stroke-width:1.5;"/><line style="stroke:#000000;stroke-width:1.5;" x1="406.86" x2="712.6022" y1="28.4883" y2="28.4883"/><text fill="#000000" font-family="sans-serif" font-size="14" font-weight="bold" lengthAdjust="spacing" textLength="292.7422" x="410.86" y="21.5352">consultarSolicitudDispensa() (Secretaria)</text></g><!--entity ConsultarSolicitudDispensaSecretariaView--><g class="entity" data-qualified-name="consultarSolicitudDispensaSecretaria.ConsultarSolicitudDispensaSecretariaView" data-source-line="7" id="ent0005"><rect fill="#629EF9" height="36.4883" rx="2.5" ry="2.5" style="stroke:#181818;stroke-width:0.5;" width="303.8691" x="434.92" y="41"/><text fill="#000000" font-family="sans-serif" font-size="14" lengthAdjust="spacing" textLength="283.8691" x="444.92" y="64.5352">ConsultarSolicitudDispensaSecretariaView</text></g><!--entity SolicitudDispensaController--><g class="entity" data-qualified-name="consultarSolicitudDispensaSecretaria.SolicitudDispensaController" data-source-line="8" id="ent0006"><rect fill="#B5BD68" height="36.4883" rx="2.5" ry="2.5" style="stroke:#181818;stroke-width:0.5;" width="208.1865" x="422.76" y="154.49"/><text fill="#000000" font-family="sans-serif" font-size="14" lengthAdjust="spacing" textLength="188.1865" x="432.76" y="178.0252">SolicitudDispensaController</text></g><!--entity SolicitudDispensaRepository--><g class="entity" data-qualified-name="consultarSolicitudDispensaSecretaria.SolicitudDispensaRepository" data-source-line="9" id="ent0007"><rect fill="#F2AC4E" height="36.4883" rx="2.5" ry="2.5" style="stroke:#181818;stroke-width:0.5;" width="212.1514" x="422.78" y="267.97"/><text fill="#000000" font-family="sans-serif" font-size="14" lengthAdjust="spacing" textLength="192.1514" x="432.78" y="291.5052">SolicitudDispensaRepository</text></g><!--entity SolicitudDispensa--><g class="entity" data-qualified-name="consultarSolicitudDispensaSecretaria.SolicitudDispensa" data-source-line="10" id="ent0008"><rect fill="#F2AC4E" height="36.4883" rx="2.5" ry="2.5" style="stroke:#181818;stroke-width:0.5;" width="140.0254" x="458.85" y="365.46"/><text fill="#000000" font-family="sans-serif" font-size="14" lengthAdjust="spacing" textLength="120.0254" x="468.85" y="388.9952">SolicitudDispensa</text></g><!--entity DispensasAbierto--><g class="entity" data-qualified-name="DispensasAbierto" data-source-line="3" id="ent0002"><rect fill="#CDEBA5" height="36.4883" rx="2.5" ry="2.5" style="stroke:#181818;stroke-width:0.5;" width="147.7158" x="7" y="41"/><text fill="#000000" font-family="sans-serif" font-size="14" lengthAdjust="spacing" textLength="127.7158" x="17" y="64.5352">:Dispensas Abierto</text></g><!--entity EditarSolicitudDispensaSecretaria--><g class="entity" data-qualified-name="EditarSolicitudDispensaSecretaria" data-source-line="4" id="ent0003"><rect fill="#CDEBA5" height="36.4883" rx="2.5" ry="2.5" style="stroke:#181818;stroke-width:0.5;" width="346.0947" x="782.81" y="154.49"/><text fill="#000000" font-family="sans-serif" font-size="14" lengthAdjust="spacing" textLength="326.0947" x="792.81" y="178.0252">:Collaboration EditarSolicitudDispensaSecretaria</text></g><!--link DispensasAbierto to ConsultarSolicitudDispensaSecretariaView--><g class="link" data-entity-1="ent0002" data-entity-2="ent0005" data-link-type="dependency" data-source-line="13" id="lnk9"><path d="M154.98,59.24 C228.13,59.24 336.14,59.24 428.65,59.24" fill="none" id="DispensasAbierto-to-ConsultarSolicitudDispensaSecretariaView" style="stroke:#181818;stroke-width:1;"/><polygon fill="#181818" points="434.65,59.24,425.65,55.24,429.65,59.24,425.65,63.24,434.65,59.24" style="stroke:#181818;stroke-width:1;"/><text fill="#000000" font-family="sans-serif" font-size="13" lengthAdjust="spacing" textLength="244.0166" x="172.82" y="52.8084">consultarSolicitudDispensa(solicitudId)</text></g><!--link ConsultarSolicitudDispensaSecretariaView to SolicitudDispensaController--><g class="link" data-entity-1="ent0005" data-entity-2="ent0006" data-link-type="dependency" data-source-line="15" id="lnk10"><path d="M577.48,77.66 C566.28,98.48 550.4726,127.8461 539.2126,148.7761" fill="none" id="ConsultarSolicitudDispensaSecretariaView-to-SolicitudDispensaController" style="stroke:#181818;stroke-width:1;"/><polygon fill="#181818" points="536.37,154.06,544.1565,148.0293,538.7389,149.6568,537.1114,144.2391,536.37,154.06" style="stroke:#181818;stroke-width:1;"/><text fill="#000000" font-family="sans-serif" font-size="13" lengthAdjust="spacing" textLength="291.624" x="561.45" y="121.0584">cargarSolicitud(solicitudId) : SolicitudDispensa</text></g><!--link SolicitudDispensaController to SolicitudDispensaRepository--><g class="link" data-entity-1="ent0006" data-entity-2="ent0007" data-link-type="dependency" data-source-line="17" id="lnk11"><path d="M527.17,191.15 C527.54,211.97 528.0639,240.6209 528.4339,261.5509" fill="none" id="SolicitudDispensaController-to-SolicitudDispensaRepository" style="stroke:#181818;stroke-width:1;"/><polygon fill="#181818" points="528.54,267.55,532.3803,258.4807,528.4516,262.5508,524.3815,258.6221,528.54,267.55" style="stroke:#181818;stroke-width:1;"/><text fill="#000000" font-family="sans-serif" font-size="13" lengthAdjust="spacing" textLength="279.1509" x="528.98" y="234.5384">obtenerPorId(solicitudId) : SolicitudDispensa</text></g><!--link SolicitudDispensaRepository to SolicitudDispensa--><g class="link" data-entity-1="ent0007" data-entity-2="ent0008" data-link-type="association" data-source-line="19" id="lnk12"><path d="M528.86,304.73 C528.86,321.85 528.86,347.79 528.86,364.98" fill="none" id="SolicitudDispensaRepository-SolicitudDispensa" style="stroke:#181818;stroke-width:1;"/></g><!--link ConsultarSolicitudDispensaSecretariaView to EditarSolicitudDispensaSecretaria--><g class="link" data-entity-1="ent0005" data-entity-2="ent0003" data-link-type="dependency" data-source-line="21" id="lnk13"><path d="M690.04,77.97 C768.07,91.37 861.86,107.49 861.86,107.49 C861.86,107.49 897.1461,131.6049 924.9661,150.6149" fill="none" id="ConsultarSolicitudDispensaSecretariaView-to-EditarSolicitudDispensaSecretaria" style="stroke:#181818;stroke-width:1;stroke-dasharray:7,7;"/><polygon fill="#181818" points="929.92,154,924.7459,145.6197,925.7918,151.1791,920.2324,152.2249,929.92,154" style="stroke:#181818;stroke-width:1;"/><text fill="#000000" font-family="sans-serif" font-size="13" lengthAdjust="spacing" textLength="285.5049" x="885.57" y="121.0584">&#171;include&#187; editarSolicitudDispensa(solicitudId)</text></g><?plantuml-src dLFFQuCm5BxdhtYuYnxieQnbBKLmra9lOuNTepuaD4la9J9ax7zV7EjghRFId9ANxyTxNuWv2bLnukyWXKBRL0YLbarxO8mmjroL4k4XsQRFyGAyzLQO2fNX1k9C85djWTl_LN-BWzH4IyapJTmAhI0jXELqq5BamjR5IU60EQ6x4Fn7-2QAiOhdHruYv5gPMewZMqdlVw0VW7y61nvyCd2hCynolaftAqWcUBq9_EZJiqLMB9_WYkNqBBbuaFgCtJnE7jDhnYjMsWYhgPdAO5-CzTy9GWgZoTF0UYHatvmg-o9WRB9cMBWEHW9fJJcL7Q4B9tTzFIaRqmk7_CvnEa6TMLH8BvhsTvbrnC9mY34vdDaiklq5N5URZL2vh0kC8i1X_ENxV0C0?></g></svg>