<?plantuml 1.2026.2?><svg xmlns="http://www.w3.org/2000/svg" xmlns:xlink="http://www.w3.org/1999/xlink" contentStyleType="text/css" data-diagram-type="DESCRIPTION" height="424px" preserveAspectRatio="none" style="width:863px;height:424px;background:#FFFFFF;" version="1.1" viewBox="0 0 863 424" width="863px" zoomAndPan="magnify"><defs/><g><!--cluster consultarSolicitudDispensaProfesor--><g class="cluster" data-qualified-name="consultarSolicitudDispensaProfesor" data-source-line="5" id="ent0003"><path d="M421.36,6 L704.9508,6 A3.75,3.75 0 0 1 707.4508,8.5 L714.4508,28.4883 L776.36,28.4883 A2.5,2.5 0 0 1 778.86,30.9883 L778.86,415.45 A2.5,2.5 0 0 1 776.36,417.95 L421.36,417.95 A2.5,2.5 0 0 1 418.86,415.45 L418.86,8.5 A2.5,2.5 0 0 1 421.36,6" fill="none" style="stroke:#000000;stroke-width:1.5;"/><line style="stroke:#000000;stroke-width:1.5;" x1="418.86" x2="714.4508" y1="28.4883" y2="28.4883"/><text fill="#000000" font-family="sans-serif" font-size="14" font-weight="bold" lengthAdjust="spacing" textLength="282.5908" x="422.86" y="21.5352">consultarSolicitudDispensa() [Profesor]</text></g><!--entity ConsultarSolicitudDispensaProfesorView--><g class="entity" data-qualified-name="consultarSolicitudDispensaProfesor.ConsultarSolicitudDispensaProfesorView" data-source-line="6" id="ent0004"><rect fill="#629EF9" height="36.4883" rx="2.5" ry="2.5" style="stroke:#181818;stroke-width:0.5;" width="293.834" x="434.94" y="41"/><text fill="#000000" font-family="sans-serif" font-size="14" lengthAdjust="spacing" textLength="273.834" x="444.94" y="64.5352">ConsultarSolicitudDispensaProfesorView</text></g><!--entity SolicitudDispensaController--><g class="entity" data-qualified-name="consultarSolicitudDispensaProfesor.SolicitudDispensaController" data-source-line="7" id="ent0005"><rect fill="#B5BD68" height="36.4883" rx="2.5" ry="2.5" style="stroke:#181818;stroke-width:0.5;" width="208.1865" x="434.76" y="154.49"/><text fill="#000000" font-family="sans-serif" font-size="14" lengthAdjust="spacing" textLength="188.1865" x="444.76" y="178.0252">SolicitudDispensaController</text></g><!--entity SolicitudDispensaRepository--><g class="entity" data-qualified-name="consultarSolicitudDispensaProfesor.SolicitudDispensaRepository" data-source-line="8" id="ent0006"><rect fill="#F2AC4E" height="36.4883" rx="2.5" ry="2.5" style="stroke:#181818;stroke-width:0.5;" width="212.1514" x="434.78" y="267.97"/><text fill="#000000" font-family="sans-serif" font-size="14" lengthAdjust="spacing" textLength="192.1514" x="444.78" y="291.5052">SolicitudDispensaRepository</text></g><!--entity SolicitudDispensa--><g class="entity" data-qualified-name="consultarSolicitudDispensaProfesor.SolicitudDispensa" data-source-line="9" id="ent0007"><rect fill="#F2AC4E" height="36.4883" rx="2.5" ry="2.5" style="stroke:#181818;stroke-width:0.5;" width="140.0254" x="470.85" y="365.46"/><text fill="#000000" font-family="sans-serif" font-size="14" lengthAdjust="spacing" textLength="120.0254" x="480.85" y="388.9952">SolicitudDispensa</text></g><!--entity DispensasAbierto--><g class="entity" data-qualified-name="DispensasAbierto" data-source-line="3" id="ent0002"><rect fill="#CDEBA5" height="36.4883" rx="2.5" ry="2.5" style="stroke:#181818;stroke-width:0.5;" width="147.7158" x="7" y="41"/><text fill="#000000" font-family="sans-serif" font-size="14" lengthAdjust="spacing" textLength="127.7158" x="17" y="64.5352">:Dispensas Abierto</text></g><!--link DispensasAbierto to ConsultarSolicitudDispensaProfesorView--><g class="link" data-entity-1="ent0002" data-entity-2="ent0004" data-link-type="dependency" data-source-line="12" id="lnk8"><path d="M155.05,59.24 C228.39,59.24 336.63,59.24 428.47,59.24" fill="none" id="DispensasAbierto-to-ConsultarSolicitudDispensaProfesorView" style="stroke:#181818;stroke-width:1;"/><polygon fill="#181818" points="434.47,59.24,425.47,55.24,429.47,59.24,425.47,63.24,434.47,59.24" style="stroke:#181818;stroke-width:1;"/><text fill="#000000" font-family="sans-serif" font-size="13" lengthAdjust="spacing" textLength="244.0166" x="172.83" y="52.8084">consultarSolicitudDispensa(solicitudId)</text></g><!--link ConsultarSolicitudDispensaProfesorView to SolicitudDispensaController--><g class="link" data-entity-1="ent0004" data-entity-2="ent0005" data-link-type="dependency" data-source-line="14" id="lnk9"><path d="M575.14,77.66 C567.11,98.48 555.8985,127.5317 547.8285,148.4617" fill="none" id="ConsultarSolicitudDispensaProfesorView-to-SolicitudDispensaController" style="stroke:#181818;stroke-width:1;"/><polygon fill="#181818" points="545.67,154.06,552.64,147.1016,547.4688,149.3948,545.1756,144.2236,545.67,154.06" style="stroke:#181818;stroke-width:1;"/><text fill="#000000" font-family="sans-serif" font-size="13" lengthAdjust="spacing" textLength="291.624" x="563.93" y="121.0584">cargarSolicitud(solicitudId) : SolicitudDispensa</text></g><!--link SolicitudDispensaController to SolicitudDispensaRepository--><g class="link" data-entity-1="ent0005" data-entity-2="ent0006" data-link-type="dependency" data-source-line="16" id="lnk10"><path d="M539.17,191.15 C539.54,211.97 540.0639,240.6209 540.4339,261.5509" fill="none" id="SolicitudDispensaController-to-SolicitudDispensaRepository" style="stroke:#181818;stroke-width:1;"/><polygon fill="#181818" points="540.54,267.55,544.3803,258.4807,540.4516,262.5508,536.3815,258.6221,540.54,267.55" style="stroke:#181818;stroke-width:1;"/><text fill="#000000" font-family="sans-serif" font-size="13" lengthAdjust="spacing" textLength="279.1509" x="540.98" y="234.5384">obtenerPorId(solicitudId) : SolicitudDispensa</text></g><!--link SolicitudDispensaRepository to SolicitudDispensa--><g class="link" data-entity-1="ent0006" data-entity-2="ent0007" data-link-type="association" data-source-line="18" id="lnk11"><path d="M540.86,304.73 C540.86,321.85 540.86,347.79 540.86,364.98" fill="none" id="SolicitudDispensaRepository-SolicitudDispensa" style="stroke:#181818;stroke-width:1;"/></g><?plantuml-src dP0nJyCm48Lt_ufJMDeXIqKhsW4ffAdKhGA91J4uoH5PDJxhx0f5YF-E8n48IKaZFDdd-zwxU-weZ9KiNq4hWxws29PqtJo4O2oyD9L6k4gtsLsoX6YpLSwYST91aYjaJn64-tVrgoY4bSLHLWW56NVINl83QLKeVohRtWFJ2phYXe_-RflDuQbjVOxWNK0udSbMYtMsMqDwqUTHuLiVpfTvkRg10HFKF9FMo7rYjqZIwsn8tACbfpnnFPKG7qBqSuEOuzk9ky1c9DoPQolxSYx4HCMu3EuZOJIMagkEp2-Vy3tSKepfnUVyVg8CWfHxDCW7uls_p3fYSNo6-0G0?></g></svg>