<?plantuml 1.2026.2?><svg xmlns="http://www.w3.org/2000/svg" xmlns:xlink="http://www.w3.org/1999/xlink" contentStyleType="text/css" data-diagram-type="DESCRIPTION" height="424px" preserveAspectRatio="none" style="width:1006px;height:424px;background:#FFFFFF;" version="1.1" viewBox="0 0 1006 424" width="1006px" zoomAndPan="magnify"><defs/><g><!--cluster crearUsuario--><g class="cluster" data-qualified-name="crearUsuario" data-source-line="6" id="ent0004"><path d="M163.25,6 L266.748,6 A3.75,3.75 0 0 1 269.248,8.5 L276.248,28.4883 L758.25,28.4883 A2.5,2.5 0 0 1 760.75,30.9883 L760.75,415.45 A2.5,2.5 0 0 1 758.25,417.95 L163.25,417.95 A2.5,2.5 0 0 1 160.75,415.45 L160.75,8.5 A2.5,2.5 0 0 1 163.25,6" fill="none" style="stroke:#000000;stroke-width:1.5;"/><line style="stroke:#000000;stroke-width:1.5;" x1="160.75" x2="276.248" y1="28.4883" y2="28.4883"/><text fill="#000000" font-family="sans-serif" font-size="14" font-weight="bold" lengthAdjust="spacing" textLength="102.498" x="164.75" y="21.5352">crearUsuario()</text></g><!--entity CrearUsuarioView--><g class="entity" data-qualified-name="crearUsuario.CrearUsuarioView" data-source-line="7" id="ent0005"><rect fill="#629EF9" height="36.4883" rx="2.5" ry="2.5" style="stroke:#181818;stroke-width:0.5;" width="140.0938" x="325.71" y="41"/><text fill="#000000" font-family="sans-serif" font-size="14" lengthAdjust="spacing" textLength="120.0938" x="335.71" y="64.5352">CrearUsuarioView</text></g><!--entity UsuarioController--><g class="entity" data-qualified-name="crearUsuario.UsuarioController" data-source-line="8" id="ent0006"><rect fill="#B5BD68" height="36.4883" rx="2.5" ry="2.5" style="stroke:#181818;stroke-width:0.5;" width="139.793" x="267.86" y="154.49"/><text fill="#000000" font-family="sans-serif" font-size="14" lengthAdjust="spacing" textLength="119.793" x="277.86" y="178.0252">UsuarioController</text></g><!--entity UsuarioRepository--><g class="entity" data-qualified-name="crearUsuario.UsuarioRepository" data-source-line="9" id="ent0007"><rect fill="#F2AC4E" height="36.4883" rx="2.5" ry="2.5" style="stroke:#181818;stroke-width:0.5;" width="143.7578" x="275.88" y="267.97"/><text fill="#000000" font-family="sans-serif" font-size="14" lengthAdjust="spacing" textLength="123.7578" x="285.88" y="291.5052">UsuarioRepository</text></g><!--entity Usuario--><g class="entity" data-qualified-name="crearUsuario.Usuario" data-source-line="10" id="ent0008"><rect fill="#F2AC4E" height="36.4883" rx="2.5" ry="2.5" style="stroke:#181818;stroke-width:0.5;" width="71.6318" x="311.94" y="365.46"/><text fill="#000000" font-family="sans-serif" font-size="14" lengthAdjust="spacing" textLength="51.6318" x="321.94" y="388.9952">Usuario</text></g><!--entity UsuariosAbierto--><g class="entity" data-qualified-name="UsuariosAbierto" data-source-line="3" id="ent0002"><rect fill="#CDEBA5" height="36.4883" rx="2.5" ry="2.5" style="stroke:#181818;stroke-width:0.5;" width="137.5098" x="7" y="41"/><text fill="#000000" font-family="sans-serif" font-size="14" lengthAdjust="spacing" textLength="117.5098" x="17" y="64.5352">:Usuarios Abierto</text></g><!--entity EditarUsuario--><g class="entity" data-qualified-name="EditarUsuario" data-source-line="4" id="ent0003"><rect fill="#CDEBA5" height="36.4883" rx="2.5" ry="2.5" style="stroke:#181818;stroke-width:0.5;" width="211.1875" x="777.16" y="154.49"/><text fill="#000000" font-family="sans-serif" font-size="14" lengthAdjust="spacing" textLength="191.1875" x="787.16" y="178.0252">:Collaboration EditarUsuario</text></g><!--link UsuariosAbierto to CrearUsuarioView--><g class="link" data-entity-1="ent0002" data-entity-2="ent0005" data-link-type="dependency" data-source-line="13" id="lnk9"><path d="M144.8,59.24 C198.17,59.24 265.77,59.24 319.46,59.24" fill="none" id="UsuariosAbierto-to-CrearUsuarioView" style="stroke:#181818;stroke-width:1;"/><polygon fill="#181818" points="325.46,59.24,316.46,55.24,320.46,59.24,316.46,63.24,325.46,59.24" style="stroke:#181818;stroke-width:1;"/><text fill="#000000" font-family="sans-serif" font-size="13" lengthAdjust="spacing" textLength="88.1182" x="191.11" y="52.8084">crearUsuario()</text></g><!--link CrearUsuarioView to UsuarioController--><g class="link" data-entity-1="ent0005" data-entity-2="ent0006" data-link-type="dependency" data-source-line="15" id="lnk10"><path d="M325.59,77.97 C272.53,91.37 208.75,107.49 208.75,107.49 C208.75,107.49 208.75,124.49 208.75,124.49 C208.75,124.49 247.1157,138.5372 283.7157,151.9372" fill="none" id="CrearUsuarioView-to-UsuarioController" style="stroke:#181818;stroke-width:1;"/><polygon fill="#181818" points="289.35,154,282.2738,147.1496,284.6548,152.281,279.5234,154.6619,289.35,154" style="stroke:#181818;stroke-width:1;"/><text fill="#000000" font-family="sans-serif" font-size="13" lengthAdjust="spacing" textLength="199.7671" x="209.75" y="121.0584">validarUnicidad(login) : boolean</text></g><!--link CrearUsuarioView to UsuarioController--><g class="link" data-entity-1="ent0005" data-entity-2="ent0006" data-link-type="dependency" data-source-line="19" id="lnk12"><path d="M402.46,77.83 C407.58,91.27 413.75,107.49 413.75,107.49 C413.75,107.49 413.75,124.49 413.75,124.49 C413.75,124.49 392.7561,137.5429 371.1461,150.9729" fill="none" id="CrearUsuarioView-to-UsuarioController-1" style="stroke:#181818;stroke-width:1;"/><polygon fill="#181818" points="366.05,154.14,375.8055,152.7868,370.2967,151.5008,371.5827,145.9921,366.05,154.14" style="stroke:#181818;stroke-width:1;"/><text fill="#000000" font-family="sans-serif" font-size="13" lengthAdjust="spacing" textLength="290.5068" x="414.75" y="121.0584">crearUsuario(tipo, login, contrase&#241;a) : Usuario</text></g><!--link UsuarioController to UsuarioRepository--><g class="link" data-entity-1="ent0006" data-entity-2="ent0007" data-link-type="dependency" data-source-line="17" id="lnk11"><path d="M296.11,191.46 C264.61,204.86 226.75,220.97 226.75,220.97 C226.75,220.97 226.75,237.97 226.75,237.97 C226.75,237.97 262.4307,251.9083 296.7607,265.3083" fill="none" id="UsuarioController-to-UsuarioRepository" style="stroke:#181818;stroke-width:1;"/><polygon fill="#181818" points="302.35,267.49,295.4205,260.4913,297.6922,265.6719,292.5116,267.9437,302.35,267.49" style="stroke:#181818;stroke-width:1;"/><text fill="#000000" font-family="sans-serif" font-size="13" lengthAdjust="spacing" textLength="175.4238" x="227.75" y="234.5384">existeLogin(login) : boolean</text></g><!--link UsuarioController to UsuarioRepository--><g class="link" data-entity-1="ent0006" data-entity-2="ent0007" data-link-type="dependency" data-source-line="21" id="lnk13"><path d="M363.82,191.32 C383.72,204.75 407.75,220.97 407.75,220.97 C407.75,220.97 407.75,237.97 407.75,237.97 C407.75,237.97 391.8731,250.477 374.8131,263.917" fill="none" id="UsuarioController-to-UsuarioRepository-1" style="stroke:#181818;stroke-width:1;"/><polygon fill="#181818" points="370.1,267.63,379.645,265.2025,374.0276,264.5358,374.6943,258.9184,370.1,267.63" style="stroke:#181818;stroke-width:1;"/><text fill="#000000" font-family="sans-serif" font-size="13" lengthAdjust="spacing" textLength="242.563" x="408.75" y="234.5384">crear(tipo, login, contrase&#241;a) : Usuario</text></g><!--link UsuarioRepository to Usuario--><g class="link" data-entity-1="ent0007" data-entity-2="ent0008" data-link-type="association" data-source-line="23" id="lnk14"><path d="M347.75,304.73 C347.75,321.85 347.75,347.79 347.75,364.98" fill="none" id="UsuarioRepository-Usuario" style="stroke:#181818;stroke-width:1;"/></g><!--link CrearUsuarioView to EditarUsuario--><g class="link" data-entity-1="ent0005" data-entity-2="ent0003" data-link-type="dependency" data-source-line="25" id="lnk15"><path d="M465.94,70.67 C559.58,84.58 713.75,107.49 713.75,107.49 C713.75,107.49 780.4912,132.8588 830.5212,151.8688" fill="none" id="CrearUsuarioView-to-EditarUsuario" style="stroke:#181818;stroke-width:1;stroke-dasharray:7,7;"/><polygon fill="#181818" points="836.13,154,829.1376,147.0641,831.456,152.224,826.2961,154.5424,836.13,154" style="stroke:#181818;stroke-width:1;"/><text fill="#000000" font-family="sans-serif" font-size="13" lengthAdjust="spacing" textLength="243.0454" x="755.6" y="121.0584">&#171;include&#187; editarUsuario(usuarioNuevo)</text></g><?plantuml-src bLB1Qi904BtlLmpfHS5ua2gjIC2cyLHwABJtIJB8u7Otx6vifVIZ-WtziIRMn3KHmRai--QzDs-MjHjM1Hfy1ycAtAuWABJSrHSX36KErLeItCIFoSDo2i7yrPPeM5jOfap6wG3GGWCUiBF2M4k9gJReM2j8SdPe3hgznmaYH87P1jS4cQ4MhMc13mo60Nm9gCgRE9lS9wjxY3tU6zD7bvPEqtnsrqIFjNAcIaYcorjDbl5jql1UgD2MdJQxoppnBKJdLI0qOTIB1KtDuNGp8NhKCAyCUe5R_HObvvL2SLQT-K3gDQjXrKYrbeIgJUHfmwFZSRNMaJxPEdggVSwuzVDTYDVTpt6XHx0t7K5Miz7Ixm_M4zfFS6tU_OIhh3sJC3nsUwkDnz7f3mMlvh1OiCfacLCK0VcqGVb_FfUqrKFn1m00?></g></svg>