<?plantuml 1.2026.2?><svg xmlns="http://www.w3.org/2000/svg" xmlns:xlink="http://www.w3.org/1999/xlink" contentStyleType="text/css" data-diagram-type="DESCRIPTION" height="424px" preserveAspectRatio="none" style="width:1013px;height:424px;background:#FFFFFF;" version="1.1" viewBox="0 0 1013 424" width="1013px" zoomAndPan="magnify"><defs/><g><!--cluster exportarDispensas--><g class="cluster" data-qualified-name="exportarDispensas" data-source-line="5" id="ent0003"><path d="M231.36,6 L378.3688,6 A3.75,3.75 0 0 1 380.8688,8.5 L387.8688,28.4883 L1004.36,28.4883 A2.5,2.5 0 0 1 1006.86,30.9883 L1006.86,415.45 A2.5,2.5 0 0 1 1004.36,417.95 L231.36,417.95 A2.5,2.5 0 0 1 228.86,415.45 L228.86,8.5 A2.5,2.5 0 0 1 231.36,6" fill="none" style="stroke:#000000;stroke-width:1.5;"/><line style="stroke:#000000;stroke-width:1.5;" x1="228.86" x2="387.8688" y1="28.4883" y2="28.4883"/><text fill="#000000" font-family="sans-serif" font-size="14" font-weight="bold" lengthAdjust="spacing" textLength="146.0088" x="232.86" y="21.5352">exportarDispensas()</text></g><!--entity ExportarDispensasView--><g class="entity" data-qualified-name="exportarDispensas.ExportarDispensasView" data-source-line="6" id="ent0004"><rect fill="#629EF9" height="36.4883" rx="2.5" ry="2.5" style="stroke:#181818;stroke-width:0.5;" width="178.7715" x="317.47" y="41"/><text fill="#000000" font-family="sans-serif" font-size="14" lengthAdjust="spacing" textLength="158.7715" x="327.47" y="64.5352">ExportarDispensasView</text></g><!--entity SolicitudDispensaController--><g class="entity" data-qualified-name="exportarDispensas.SolicitudDispensaController" data-source-line="7" id="ent0005"><rect fill="#B5BD68" height="36.4883" rx="2.5" ry="2.5" style="stroke:#181818;stroke-width:0.5;" width="208.1865" x="302.76" y="154.49"/><text fill="#000000" font-family="sans-serif" font-size="14" lengthAdjust="spacing" textLength="188.1865" x="312.76" y="178.0252">SolicitudDispensaController</text></g><!--entity GeneradorArchivoDispensas--><g class="entity" data-qualified-name="exportarDispensas.GeneradorArchivoDispensas" data-source-line="8" id="ent0006"><rect fill="#B5BD68" height="36.4883" rx="2.5" ry="2.5" style="stroke:#181818;stroke-width:0.5;" width="211.1191" x="245.3" y="267.97"/><text fill="#000000" font-family="sans-serif" font-size="14" lengthAdjust="spacing" textLength="191.1191" x="255.3" y="291.5052">GeneradorArchivoDispensas</text></g><!--entity SolicitudDispensaRepository--><g class="entity" data-qualified-name="exportarDispensas.SolicitudDispensaRepository" data-source-line="9" id="ent0007"><rect fill="#F2AC4E" height="36.4883" rx="2.5" ry="2.5" style="stroke:#181818;stroke-width:0.5;" width="212.1514" x="562.78" y="267.97"/><text fill="#000000" font-family="sans-serif" font-size="14" lengthAdjust="spacing" textLength="192.1514" x="572.78" y="291.5052">SolicitudDispensaRepository</text></g><!--entity SolicitudDispensa--><g class="entity" data-qualified-name="exportarDispensas.SolicitudDispensa" data-source-line="10" id="ent0008"><rect fill="#F2AC4E" height="36.4883" rx="2.5" ry="2.5" style="stroke:#181818;stroke-width:0.5;" width="140.0254" x="598.85" y="365.46"/><text fill="#000000" font-family="sans-serif" font-size="14" lengthAdjust="spacing" textLength="120.0254" x="608.85" y="388.9952">SolicitudDispensa</text></g><!--entity DispensasAbierto--><g class="entity" data-qualified-name="DispensasAbierto" data-source-line="3" id="ent0002"><rect fill="#CDEBA5" height="36.4883" rx="2.5" ry="2.5" style="stroke:#181818;stroke-width:0.5;" width="147.7158" x="7" y="41"/><text fill="#000000" font-family="sans-serif" font-size="14" lengthAdjust="spacing" textLength="127.7158" x="17" y="64.5352">:Dispensas Abierto</text></g><!--link DispensasAbierto to ExportarDispensasView--><g class="link" data-entity-1="ent0002" data-entity-2="ent0004" data-link-type="dependency" data-source-line="13" id="lnk9"><path d="M154.83,59.24 C203.02,59.24 260.18,59.24 311.21,59.24" fill="none" id="DispensasAbierto-to-ExportarDispensasView" style="stroke:#181818;stroke-width:1;"/><polygon fill="#181818" points="317.21,59.24,308.21,55.24,312.21,59.24,308.21,63.24,317.21,59.24" style="stroke:#181818;stroke-width:1;"/><text fill="#000000" font-family="sans-serif" font-size="13" lengthAdjust="spacing" textLength="126.5659" x="173.09" y="52.8084">exportarDispensas()</text></g><!--link ExportarDispensasView to SolicitudDispensaController--><g class="link" data-entity-1="ent0004" data-entity-2="ent0005" data-link-type="dependency" data-source-line="15" id="lnk10"><path d="M406.86,77.66 C406.86,98.48 406.86,127.13 406.86,148.06" fill="none" id="ExportarDispensasView-to-SolicitudDispensaController" style="stroke:#181818;stroke-width:1;"/><polygon fill="#181818" points="406.86,154.06,410.86,145.06,406.86,149.06,402.86,145.06,406.86,154.06" style="stroke:#181818;stroke-width:1;"/><text fill="#000000" font-family="sans-serif" font-size="13" lengthAdjust="spacing" textLength="322.5562" x="407.86" y="121.0584">exportar(filtros, formato, nombreArchivo) : Archivo</text></g><!--link SolicitudDispensaController to SolicitudDispensaRepository--><g class="link" data-entity-1="ent0005" data-entity-2="ent0007" data-link-type="dependency" data-source-line="17" id="lnk11"><path d="M490.53,191.46 C553.81,204.86 629.86,220.97 629.86,220.97 C629.86,220.97 643.5357,243.5115 655.0857,262.5315" fill="none" id="SolicitudDispensaController-to-SolicitudDispensaRepository" style="stroke:#181818;stroke-width:1;"/><polygon fill="#181818" points="658.2,267.66,656.9475,257.8911,655.6048,263.3863,650.1096,262.0435,658.2,267.66" style="stroke:#181818;stroke-width:1;"/><text fill="#000000" font-family="sans-serif" font-size="13" lengthAdjust="spacing" textLength="320.855" x="640.28" y="234.5384">obtenerPorFiltros(filtros) : List&lt;SolicitudDispensa&gt;</text></g><!--link SolicitudDispensaRepository to SolicitudDispensa--><g class="link" data-entity-1="ent0007" data-entity-2="ent0008" data-link-type="association" data-source-line="19" id="lnk12"><path d="M668.86,304.73 C668.86,321.85 668.86,347.79 668.86,364.98" fill="none" id="SolicitudDispensaRepository-SolicitudDispensa" style="stroke:#181818;stroke-width:1;"/></g><!--link SolicitudDispensaController to GeneradorArchivoDispensas--><g class="link" data-entity-1="ent0005" data-entity-2="ent0006" data-link-type="dependency" data-source-line="21" id="lnk13"><path d="M358.08,191.46 C321.19,204.86 276.86,220.97 276.86,220.97 C276.86,220.97 276.86,237.97 276.86,237.97 C276.86,237.97 297.2036,250.96 318.2436,264.4" fill="none" id="SolicitudDispensaController-to-GeneradorArchivoDispensas" style="stroke:#181818;stroke-width:1;"/><polygon fill="#181818" points="323.3,267.63,317.8687,259.4141,319.0863,264.9384,313.5621,266.156,323.3,267.63" style="stroke:#181818;stroke-width:1;"/><text fill="#000000" font-family="sans-serif" font-size="13" lengthAdjust="spacing" textLength="347.4072" x="277.86" y="234.5384">generar(solicitudes, formato, nombreArchivo) : Archivo</text></g><?plantuml-src ZP79Ri8m48RlVefHUW69N5111LL8QGYzz52rKkzECb0BnsEDtGLLVVSwBKiK0iNomPdyI_p5hPMnacK5MXdq6ujWIM_g1o4O2o_DIYDSfVFiBXb1D9qhPz4uwI395RAd2C9vFzqEXR2oMCiL0dvQOY_vu0ixEfhs-X5y2GYhKJeUJhB51BAs-4NXHrkRZ_9oV0FFf5MX_5kv4wTaF9FMo2SSzsYGPKcSSF6gtcdVqjOlXabwdHqtFA4bfppnvbA7-1QYJGnYZcVTLuNzca87E26wNN4P0i_mQAJrbag7gHl0ahYIdWPWgCePjqpwGRiz2d4kCkwgF00ACPJx6lWZyUAlSzTTTpmevs-F_BEEpaPc77SG_lShJ_xsclBgzoNtt2u4BqBp0m00?></g></svg>